G04 #@! TF.GenerationSoftware,KiCad,Pcbnew,(6.0.9)*
G04 #@! TF.CreationDate,2022-11-29T20:17:37+01:00*
G04 #@! TF.ProjectId,SMD Lauflicht 0805-0603 v1_1,534d4420-4c61-4756-966c-696368742030,rev?*
G04 #@! TF.SameCoordinates,Original*
G04 #@! TF.FileFunction,Legend,Top*
G04 #@! TF.FilePolarity,Positive*
%FSLAX46Y46*%
G04 Gerber Fmt 4.6, Leading zero omitted, Abs format (unit mm)*
G04 Created by KiCad (PCBNEW (6.0.9)) date 2022-11-29 20:17:37*
%MOMM*%
%LPD*%
G01*
G04 APERTURE LIST*
%ADD10C,0.075000*%
%ADD11C,0.150000*%
%ADD12C,0.100000*%
G04 APERTURE END LIST*
D10*
X71533055Y-73560645D02*
X71533055Y-73860645D01*
X71461627Y-73860645D01*
X71418770Y-73846360D01*
X71390198Y-73817788D01*
X71375912Y-73789217D01*
X71361627Y-73732074D01*
X71361627Y-73689217D01*
X71375912Y-73632074D01*
X71390198Y-73603502D01*
X71418770Y-73574931D01*
X71461627Y-73560645D01*
X71533055Y-73560645D01*
X71075912Y-73560645D02*
X71247341Y-73560645D01*
X71161627Y-73560645D02*
X71161627Y-73860645D01*
X71190198Y-73817788D01*
X71218770Y-73789217D01*
X71247341Y-73774931D01*
X70760674Y-107873154D02*
X70760674Y-107573154D01*
X70832102Y-107573154D01*
X70874960Y-107587440D01*
X70903531Y-107616011D01*
X70917817Y-107644582D01*
X70932102Y-107701725D01*
X70932102Y-107744582D01*
X70917817Y-107801725D01*
X70903531Y-107830297D01*
X70874960Y-107858868D01*
X70832102Y-107873154D01*
X70760674Y-107873154D01*
X71217817Y-107873154D02*
X71046388Y-107873154D01*
X71132102Y-107873154D02*
X71132102Y-107573154D01*
X71103531Y-107616011D01*
X71074960Y-107644582D01*
X71046388Y-107658868D01*
X71503531Y-107873154D02*
X71332102Y-107873154D01*
X71417817Y-107873154D02*
X71417817Y-107573154D01*
X71389245Y-107616011D01*
X71360674Y-107644582D01*
X71332102Y-107658868D01*
X76993196Y-74597255D02*
X76900491Y-74882572D01*
X76832559Y-74860499D01*
X76796214Y-74833669D01*
X76777870Y-74797667D01*
X76773112Y-74766080D01*
X76777184Y-74707319D01*
X76790427Y-74666560D01*
X76821672Y-74616628D01*
X76844088Y-74593869D01*
X76880090Y-74575525D01*
X76925264Y-74575183D01*
X76993196Y-74597255D01*
X76637590Y-74767108D02*
X76619589Y-74776280D01*
X76588001Y-74781038D01*
X76520069Y-74758965D01*
X76497310Y-74736550D01*
X76488138Y-74718549D01*
X76483381Y-74686961D01*
X76492210Y-74659788D01*
X76519040Y-74623443D01*
X76735052Y-74513379D01*
X76558428Y-74455990D01*
X67163347Y-107372806D02*
X67070642Y-107658123D01*
X67002709Y-107636050D01*
X66966364Y-107609220D01*
X66948020Y-107573218D01*
X66943263Y-107541630D01*
X66947334Y-107482870D01*
X66960578Y-107442110D01*
X66991822Y-107392179D01*
X67014238Y-107369420D01*
X67050240Y-107351076D01*
X67095414Y-107350733D01*
X67163347Y-107372806D01*
X66728578Y-107231541D02*
X66891616Y-107284515D01*
X66810097Y-107258028D02*
X66717392Y-107543345D01*
X66757809Y-107511414D01*
X66793811Y-107493070D01*
X66825398Y-107488313D01*
X66536010Y-107454368D02*
X66518009Y-107463540D01*
X66486421Y-107468298D01*
X66418489Y-107446225D01*
X66395730Y-107423810D01*
X66386558Y-107405809D01*
X66381801Y-107374221D01*
X66390630Y-107347048D01*
X66417460Y-107310703D01*
X66633472Y-107200639D01*
X66456848Y-107143250D01*
X81863416Y-77343967D02*
X81687080Y-77586673D01*
X81629293Y-77544688D01*
X81603018Y-77507940D01*
X81596697Y-77468031D01*
X81601934Y-77436519D01*
X81623964Y-77381893D01*
X81649155Y-77347221D01*
X81694300Y-77309388D01*
X81722651Y-77294670D01*
X81762560Y-77288349D01*
X81805629Y-77301983D01*
X81863416Y-77343967D01*
X81467490Y-77427131D02*
X81317244Y-77317971D01*
X81465321Y-77284290D01*
X81430649Y-77259099D01*
X81415931Y-77230748D01*
X81412771Y-77210794D01*
X81418007Y-77179282D01*
X81459992Y-77121495D01*
X81488343Y-77106777D01*
X81508297Y-77103617D01*
X81539809Y-77108853D01*
X81609153Y-77159235D01*
X81623871Y-77187586D01*
X81627032Y-77207540D01*
X60500464Y-104161025D02*
X60324128Y-104403730D01*
X60266341Y-104361746D01*
X60240066Y-104324997D01*
X60233745Y-104285089D01*
X60238982Y-104253577D01*
X60261012Y-104198951D01*
X60286203Y-104164278D01*
X60331348Y-104126446D01*
X60359699Y-104111728D01*
X60399608Y-104105407D01*
X60442677Y-104119040D01*
X60500464Y-104161025D01*
X60130628Y-103892323D02*
X60269316Y-103993087D01*
X60199972Y-103942705D02*
X60023636Y-104185410D01*
X60071942Y-104167532D01*
X60111850Y-104161211D01*
X60143362Y-104166447D01*
X59873390Y-104076250D02*
X59723144Y-103967090D01*
X59871221Y-103933409D01*
X59836549Y-103908218D01*
X59821831Y-103879867D01*
X59818671Y-103859913D01*
X59823907Y-103828401D01*
X59865892Y-103770614D01*
X59894243Y-103755896D01*
X59914198Y-103752736D01*
X59945709Y-103757972D01*
X60015054Y-103808354D01*
X60029771Y-103836705D01*
X60032932Y-103856660D01*
X85220738Y-81120594D02*
X84978033Y-81296930D01*
X84936048Y-81239143D01*
X84922415Y-81196074D01*
X84928735Y-81156165D01*
X84943453Y-81127814D01*
X84981286Y-81082669D01*
X85015958Y-81057478D01*
X85070585Y-81035448D01*
X85102096Y-81030211D01*
X85142005Y-81036532D01*
X85178753Y-81062807D01*
X85220738Y-81120594D01*
X84807026Y-80891430D02*
X84968830Y-80773873D01*
X84756552Y-81016392D02*
X84971897Y-80948225D01*
X84862737Y-80797979D01*
X58157337Y-102027342D02*
X57914632Y-102203677D01*
X57872648Y-102145890D01*
X57859014Y-102102821D01*
X57865335Y-102062913D01*
X57880053Y-102034561D01*
X57917886Y-101989416D01*
X57952558Y-101964226D01*
X58007184Y-101942195D01*
X58038696Y-101936959D01*
X58078605Y-101943280D01*
X58115353Y-101969555D01*
X58157337Y-102027342D01*
X57888636Y-101657505D02*
X57989399Y-101796194D01*
X57939017Y-101726850D02*
X57696312Y-101903185D01*
X57747778Y-101901109D01*
X57787687Y-101907430D01*
X57816038Y-101922148D01*
X57575687Y-101567030D02*
X57737491Y-101449473D01*
X57525213Y-101691992D02*
X57740558Y-101623825D01*
X57631398Y-101473579D01*
X87440179Y-85985660D02*
X87154862Y-86078365D01*
X87132789Y-86010433D01*
X87133132Y-85965259D01*
X87151476Y-85929257D01*
X87174235Y-85906841D01*
X87224166Y-85875596D01*
X87264926Y-85862353D01*
X87323687Y-85858281D01*
X87355274Y-85863039D01*
X87391276Y-85881383D01*
X87418106Y-85917728D01*
X87440179Y-85985660D01*
X87018012Y-85657183D02*
X87062157Y-85793048D01*
X87202437Y-85762490D01*
X87184436Y-85753318D01*
X87162020Y-85730559D01*
X87139947Y-85662627D01*
X87144705Y-85631039D01*
X87153877Y-85613038D01*
X87176635Y-85590622D01*
X87244568Y-85568550D01*
X87276156Y-85573307D01*
X87294157Y-85582479D01*
X87316572Y-85605238D01*
X87338645Y-85673170D01*
X87333887Y-85704758D01*
X87324715Y-85722759D01*
X54874230Y-96066871D02*
X54588913Y-96159576D01*
X54566840Y-96091643D01*
X54567183Y-96046469D01*
X54585527Y-96010467D01*
X54608285Y-95988051D01*
X54658217Y-95956807D01*
X54698977Y-95943563D01*
X54757737Y-95939492D01*
X54789325Y-95944249D01*
X54825327Y-95962593D01*
X54852157Y-95998938D01*
X54874230Y-96066871D01*
X54732965Y-95632102D02*
X54785939Y-95795140D01*
X54759452Y-95713621D02*
X54474135Y-95806326D01*
X54523724Y-95820256D01*
X54559726Y-95838600D01*
X54582141Y-95861358D01*
X54363772Y-95466663D02*
X54407917Y-95602528D01*
X54548197Y-95571970D01*
X54530196Y-95562798D01*
X54507780Y-95540039D01*
X54485707Y-95472107D01*
X54490465Y-95440519D01*
X54499637Y-95422518D01*
X54522395Y-95400102D01*
X54590328Y-95378030D01*
X54621916Y-95382787D01*
X54639917Y-95391959D01*
X54662332Y-95414718D01*
X54684405Y-95482650D01*
X54679647Y-95514238D01*
X54670475Y-95532239D01*
X88184694Y-91450115D02*
X87884694Y-91450115D01*
X87884694Y-91378687D01*
X87898980Y-91335830D01*
X87927551Y-91307258D01*
X87956122Y-91292972D01*
X88013265Y-91278687D01*
X88056122Y-91278687D01*
X88113265Y-91292972D01*
X88141837Y-91307258D01*
X88170408Y-91335830D01*
X88184694Y-91378687D01*
X88184694Y-91450115D01*
X87884694Y-91021544D02*
X87884694Y-91078687D01*
X87898980Y-91107258D01*
X87913265Y-91121544D01*
X87956122Y-91150115D01*
X88013265Y-91164401D01*
X88127551Y-91164401D01*
X88156122Y-91150115D01*
X88170408Y-91135830D01*
X88184694Y-91107258D01*
X88184694Y-91050115D01*
X88170408Y-91021544D01*
X88156122Y-91007258D01*
X88127551Y-90992972D01*
X88056122Y-90992972D01*
X88027551Y-91007258D01*
X88013265Y-91021544D01*
X87998980Y-91050115D01*
X87998980Y-91107258D01*
X88013265Y-91135830D01*
X88027551Y-91150115D01*
X88056122Y-91164401D01*
X53676605Y-90995910D02*
X53976605Y-90995910D01*
X53976605Y-91067338D01*
X53962320Y-91110195D01*
X53933748Y-91138767D01*
X53905177Y-91153052D01*
X53848034Y-91167338D01*
X53805177Y-91167338D01*
X53748034Y-91153052D01*
X53719462Y-91138767D01*
X53690891Y-91110195D01*
X53676605Y-91067338D01*
X53676605Y-90995910D01*
X53676605Y-91453052D02*
X53676605Y-91281624D01*
X53676605Y-91367338D02*
X53976605Y-91367338D01*
X53933748Y-91338767D01*
X53905177Y-91310195D01*
X53890891Y-91281624D01*
X53976605Y-91710195D02*
X53976605Y-91653052D01*
X53962320Y-91624481D01*
X53948034Y-91610195D01*
X53905177Y-91581624D01*
X53848034Y-91567338D01*
X53733748Y-91567338D01*
X53705177Y-91581624D01*
X53690891Y-91595910D01*
X53676605Y-91624481D01*
X53676605Y-91681624D01*
X53690891Y-91710195D01*
X53705177Y-91724481D01*
X53733748Y-91738767D01*
X53805177Y-91738767D01*
X53833748Y-91724481D01*
X53848034Y-91710195D01*
X53862320Y-91681624D01*
X53862320Y-91624481D01*
X53848034Y-91595910D01*
X53833748Y-91581624D01*
X53805177Y-91567338D01*
X86916944Y-96580056D02*
X86631627Y-96487351D01*
X86653700Y-96419419D01*
X86680530Y-96383074D01*
X86716532Y-96364730D01*
X86748119Y-96359972D01*
X86806880Y-96364044D01*
X86847639Y-96377287D01*
X86897571Y-96408532D01*
X86920330Y-96430948D01*
X86938674Y-96466950D01*
X86939016Y-96512124D01*
X86916944Y-96580056D01*
X86715503Y-96229207D02*
X86777306Y-96038996D01*
X87022893Y-96253980D01*
X54743086Y-84902052D02*
X55028403Y-84994757D01*
X55006330Y-85062690D01*
X54979500Y-85099035D01*
X54943498Y-85117379D01*
X54911910Y-85122136D01*
X54853150Y-85118065D01*
X54812390Y-85104821D01*
X54762459Y-85073577D01*
X54739700Y-85051161D01*
X54721356Y-85015159D01*
X54721013Y-84969985D01*
X54743086Y-84902052D01*
X54601821Y-85336821D02*
X54654795Y-85173783D01*
X54628308Y-85255302D02*
X54913625Y-85348007D01*
X54881694Y-85307590D01*
X54863350Y-85271588D01*
X54858593Y-85240001D01*
X54856236Y-85524632D02*
X54794433Y-85714843D01*
X54548846Y-85499859D01*
X84698551Y-101168336D02*
X84455845Y-100992000D01*
X84497830Y-100934213D01*
X84534578Y-100907938D01*
X84574487Y-100901617D01*
X84605999Y-100906854D01*
X84660625Y-100928884D01*
X84695297Y-100954075D01*
X84733130Y-100999220D01*
X84747848Y-101027571D01*
X84754169Y-101067480D01*
X84740535Y-101110549D01*
X84698551Y-101168336D01*
X84761388Y-100790195D02*
X84733037Y-100804913D01*
X84713083Y-100808074D01*
X84681571Y-100802837D01*
X84670014Y-100794440D01*
X84655296Y-100766089D01*
X84652135Y-100746135D01*
X84657372Y-100714623D01*
X84690960Y-100668393D01*
X84719311Y-100653676D01*
X84739265Y-100650515D01*
X84770777Y-100655752D01*
X84782334Y-100664149D01*
X84797052Y-100692500D01*
X84800213Y-100712454D01*
X84794976Y-100743966D01*
X84761388Y-100790195D01*
X84756152Y-100821707D01*
X84759312Y-100841661D01*
X84774030Y-100870013D01*
X84820260Y-100903600D01*
X84851771Y-100908837D01*
X84871726Y-100905676D01*
X84900077Y-100890959D01*
X84933665Y-100844729D01*
X84938901Y-100813217D01*
X84935741Y-100793263D01*
X84921023Y-100764912D01*
X84874793Y-100731324D01*
X84843282Y-100726088D01*
X84823327Y-100729248D01*
X84794976Y-100743966D01*
X57470387Y-80006375D02*
X57713092Y-80182711D01*
X57671108Y-80240498D01*
X57634359Y-80266773D01*
X57594451Y-80273094D01*
X57562939Y-80267858D01*
X57508313Y-80245827D01*
X57473640Y-80220636D01*
X57435808Y-80175491D01*
X57421090Y-80147140D01*
X57414769Y-80107231D01*
X57428402Y-80064162D01*
X57470387Y-80006375D01*
X57201685Y-80376212D02*
X57302448Y-80237523D01*
X57252067Y-80306867D02*
X57494772Y-80483203D01*
X57476894Y-80434898D01*
X57470573Y-80394989D01*
X57475809Y-80363477D01*
X57239611Y-80615664D02*
X57267962Y-80600946D01*
X57287916Y-80597785D01*
X57319428Y-80603022D01*
X57330985Y-80611419D01*
X57345703Y-80639770D01*
X57348864Y-80659724D01*
X57343627Y-80691236D01*
X57310039Y-80737466D01*
X57281688Y-80752183D01*
X57261734Y-80755344D01*
X57230222Y-80750107D01*
X57218665Y-80741710D01*
X57203947Y-80713359D01*
X57200786Y-80693405D01*
X57206023Y-80661893D01*
X57239611Y-80615664D01*
X57244847Y-80584152D01*
X57241687Y-80564198D01*
X57226969Y-80535846D01*
X57180739Y-80502259D01*
X57149228Y-80497022D01*
X57129273Y-80500183D01*
X57100922Y-80514900D01*
X57067334Y-80561130D01*
X57062098Y-80592642D01*
X57065258Y-80612596D01*
X57079976Y-80640947D01*
X57126206Y-80674535D01*
X57157717Y-80679771D01*
X57177672Y-80676611D01*
X57206023Y-80661893D01*
X81059085Y-104703459D02*
X80882749Y-104460754D01*
X80940536Y-104418769D01*
X80983605Y-104405136D01*
X81023514Y-104411456D01*
X81051865Y-104426174D01*
X81097010Y-104464007D01*
X81122201Y-104498679D01*
X81144231Y-104553306D01*
X81149468Y-104584817D01*
X81143147Y-104624726D01*
X81116872Y-104661474D01*
X81059085Y-104703459D01*
X81313347Y-104518726D02*
X81359577Y-104485139D01*
X81374295Y-104456787D01*
X81377455Y-104436833D01*
X81375379Y-104385367D01*
X81353349Y-104330740D01*
X81286173Y-104238281D01*
X81257822Y-104223564D01*
X81237868Y-104220403D01*
X81206356Y-104225640D01*
X81160127Y-104259227D01*
X81145409Y-104287579D01*
X81142248Y-104307533D01*
X81147485Y-104339045D01*
X81189469Y-104396831D01*
X81217821Y-104411549D01*
X81237775Y-104414710D01*
X81269287Y-104409473D01*
X81315516Y-104375886D01*
X81330234Y-104347534D01*
X81333395Y-104327580D01*
X81328158Y-104296068D01*
X62450682Y-75566722D02*
X62627017Y-75809427D01*
X62569230Y-75851411D01*
X62526161Y-75865045D01*
X62486253Y-75858724D01*
X62457901Y-75844006D01*
X62412756Y-75806173D01*
X62387566Y-75771501D01*
X62365535Y-75716875D01*
X62360299Y-75685363D01*
X62366620Y-75645454D01*
X62392895Y-75608706D01*
X62450682Y-75566722D01*
X62080845Y-75835423D02*
X62219534Y-75734660D01*
X62150190Y-75785042D02*
X62326525Y-76027747D01*
X62324449Y-75976281D01*
X62330770Y-75936372D01*
X62345488Y-75908021D01*
X61965272Y-75919393D02*
X61919042Y-75952980D01*
X61904324Y-75981332D01*
X61901164Y-76001286D01*
X61903240Y-76052752D01*
X61925270Y-76107379D01*
X61992446Y-76199838D01*
X62020797Y-76214555D01*
X62040751Y-76217716D01*
X62072263Y-76212479D01*
X62118492Y-76178892D01*
X62133210Y-76150540D01*
X62136371Y-76130586D01*
X62131134Y-76099074D01*
X62089150Y-76041288D01*
X62060798Y-76026570D01*
X62040844Y-76023409D01*
X62009332Y-76028646D01*
X61963103Y-76062233D01*
X61948385Y-76090585D01*
X61945224Y-76110539D01*
X61950461Y-76142051D01*
X76102628Y-107089930D02*
X76009923Y-106804613D01*
X76077856Y-106782540D01*
X76123030Y-106782883D01*
X76159032Y-106801227D01*
X76181448Y-106823985D01*
X76212692Y-106873917D01*
X76225936Y-106914677D01*
X76230007Y-106973437D01*
X76225250Y-107005025D01*
X76206906Y-107041027D01*
X76170561Y-107067857D01*
X76102628Y-107089930D01*
X76537397Y-106948665D02*
X76374359Y-107001639D01*
X76455878Y-106975152D02*
X76363173Y-106689835D01*
X76349243Y-106739424D01*
X76330899Y-106775426D01*
X76308141Y-106797841D01*
X76621317Y-106605959D02*
X76648490Y-106597130D01*
X76680077Y-106601887D01*
X76698078Y-106611059D01*
X76720494Y-106633818D01*
X76751739Y-106683749D01*
X76773811Y-106751682D01*
X76777883Y-106810443D01*
X76773125Y-106842030D01*
X76763953Y-106860031D01*
X76741195Y-106882447D01*
X76714022Y-106891276D01*
X76682434Y-106886518D01*
X76664433Y-106877346D01*
X76642018Y-106854588D01*
X76610773Y-106804656D01*
X76588700Y-106736724D01*
X76584629Y-106677963D01*
X76589386Y-106646376D01*
X76598558Y-106628374D01*
X76621317Y-106605959D01*
X66533371Y-74221949D02*
X66626076Y-74507266D01*
X66558143Y-74529339D01*
X66512969Y-74528996D01*
X66476967Y-74510652D01*
X66454551Y-74487894D01*
X66423307Y-74437962D01*
X66410063Y-74397202D01*
X66405992Y-74338442D01*
X66410749Y-74306854D01*
X66429093Y-74270852D01*
X66465438Y-74244022D01*
X66533371Y-74221949D01*
X66345516Y-74568384D02*
X66336344Y-74586385D01*
X66313586Y-74608800D01*
X66245653Y-74630873D01*
X66214066Y-74626116D01*
X66196065Y-74616944D01*
X66173649Y-74594185D01*
X66164820Y-74567012D01*
X66165163Y-74521838D01*
X66275227Y-74305825D01*
X66098602Y-74363214D01*
X66014682Y-74705920D02*
X65987509Y-74714749D01*
X65955922Y-74709992D01*
X65937921Y-74700820D01*
X65915505Y-74678061D01*
X65884260Y-74628130D01*
X65862188Y-74560197D01*
X65858116Y-74501436D01*
X65862874Y-74469849D01*
X65872046Y-74451848D01*
X65894804Y-74429432D01*
X65921977Y-74420603D01*
X65953565Y-74425361D01*
X65971566Y-74434533D01*
X65993981Y-74457291D01*
X66025226Y-74507223D01*
X66047299Y-74575155D01*
X66051370Y-74633916D01*
X66046613Y-74665503D01*
X66037441Y-74683505D01*
X66014682Y-74705920D01*
D11*
X73248275Y-98271880D02*
X73248275Y-99081404D01*
X73295894Y-99176642D01*
X73343513Y-99224261D01*
X73438751Y-99271880D01*
X73629227Y-99271880D01*
X73724465Y-99224261D01*
X73772084Y-99176642D01*
X73819703Y-99081404D01*
X73819703Y-98271880D01*
X74248275Y-98367119D02*
X74295894Y-98319500D01*
X74391132Y-98271880D01*
X74629227Y-98271880D01*
X74724465Y-98319500D01*
X74772084Y-98367119D01*
X74819703Y-98462357D01*
X74819703Y-98557595D01*
X74772084Y-98700452D01*
X74200656Y-99271880D01*
X74819703Y-99271880D01*
X66502255Y-84809880D02*
X66502255Y-85619404D01*
X66549874Y-85714642D01*
X66597493Y-85762261D01*
X66692731Y-85809880D01*
X66883207Y-85809880D01*
X66978445Y-85762261D01*
X67026064Y-85714642D01*
X67073683Y-85619404D01*
X67073683Y-84809880D01*
X67454636Y-84809880D02*
X68073683Y-84809880D01*
X67740350Y-85190833D01*
X67883207Y-85190833D01*
X67978445Y-85238452D01*
X68026064Y-85286071D01*
X68073683Y-85381309D01*
X68073683Y-85619404D01*
X68026064Y-85714642D01*
X67978445Y-85762261D01*
X67883207Y-85809880D01*
X67597493Y-85809880D01*
X67502255Y-85762261D01*
X67454636Y-85714642D01*
D10*
X71348927Y-76179385D02*
X71448927Y-76322242D01*
X71520355Y-76179385D02*
X71520355Y-76479385D01*
X71406070Y-76479385D01*
X71377498Y-76465100D01*
X71363212Y-76450814D01*
X71348927Y-76422242D01*
X71348927Y-76379385D01*
X71363212Y-76350814D01*
X71377498Y-76336528D01*
X71406070Y-76322242D01*
X71520355Y-76322242D01*
X71063212Y-76179385D02*
X71234641Y-76179385D01*
X71148927Y-76179385D02*
X71148927Y-76479385D01*
X71177498Y-76436528D01*
X71206070Y-76407957D01*
X71234641Y-76393671D01*
X75372198Y-76743921D02*
X75423158Y-76910688D01*
X75535236Y-76796895D02*
X75442531Y-77082212D01*
X75333839Y-77046896D01*
X75311081Y-77024480D01*
X75301909Y-77006479D01*
X75297151Y-76974892D01*
X75310395Y-76934132D01*
X75332810Y-76911374D01*
X75350811Y-76902202D01*
X75382399Y-76897444D01*
X75491091Y-76932760D01*
X75179630Y-76966748D02*
X75161629Y-76975920D01*
X75130041Y-76980678D01*
X75062109Y-76958605D01*
X75039350Y-76936190D01*
X75030178Y-76918189D01*
X75025421Y-76886601D01*
X75034250Y-76859428D01*
X75061080Y-76823083D01*
X75277092Y-76713019D01*
X75100468Y-76655630D01*
X80698567Y-79719705D02*
X80695500Y-79894058D01*
X80837256Y-79820468D02*
X80660920Y-80063174D01*
X80568461Y-79995998D01*
X80553743Y-79967647D01*
X80550583Y-79947692D01*
X80555819Y-79916181D01*
X80581010Y-79881509D01*
X80609361Y-79866791D01*
X80629316Y-79863630D01*
X80660827Y-79868867D01*
X80753286Y-79936042D01*
X80441330Y-79903632D02*
X80291084Y-79794472D01*
X80439161Y-79760791D01*
X80404489Y-79735600D01*
X80389771Y-79707249D01*
X80386611Y-79687295D01*
X80391847Y-79655783D01*
X80433832Y-79597996D01*
X80462183Y-79583278D01*
X80482137Y-79580118D01*
X80513649Y-79585354D01*
X80582993Y-79635736D01*
X80597711Y-79664087D01*
X80600872Y-79684041D01*
X83804256Y-83542225D02*
X83747460Y-83707096D01*
X83905019Y-83680914D02*
X83662314Y-83857250D01*
X83595138Y-83764791D01*
X83589902Y-83733279D01*
X83593062Y-83713325D01*
X83607780Y-83684973D01*
X83642452Y-83659783D01*
X83673964Y-83654546D01*
X83693918Y-83657707D01*
X83722269Y-83672424D01*
X83789445Y-83764883D01*
X83491307Y-83451750D02*
X83653111Y-83334193D01*
X83440833Y-83576712D02*
X83656178Y-83508545D01*
X83547018Y-83358299D01*
X84872605Y-86610022D02*
X84767641Y-86749273D01*
X84925579Y-86773060D02*
X84640262Y-86865765D01*
X84604946Y-86757073D01*
X84609703Y-86725486D01*
X84618875Y-86707485D01*
X84641634Y-86685069D01*
X84682393Y-86671825D01*
X84713981Y-86676583D01*
X84731982Y-86685755D01*
X84754398Y-86708513D01*
X84789714Y-86817206D01*
X84503412Y-86444583D02*
X84547557Y-86580448D01*
X84687837Y-86549890D01*
X84669836Y-86540718D01*
X84647420Y-86517959D01*
X84625347Y-86450027D01*
X84630105Y-86418439D01*
X84639277Y-86400438D01*
X84662035Y-86378022D01*
X84729968Y-86355950D01*
X84761556Y-86360707D01*
X84779557Y-86369879D01*
X84801972Y-86392638D01*
X84824045Y-86460570D01*
X84819287Y-86492158D01*
X84810115Y-86510159D01*
X85530394Y-91271067D02*
X85387537Y-91371067D01*
X85530394Y-91442495D02*
X85230394Y-91442495D01*
X85230394Y-91328210D01*
X85244680Y-91299638D01*
X85258965Y-91285352D01*
X85287537Y-91271067D01*
X85330394Y-91271067D01*
X85358965Y-91285352D01*
X85373251Y-91299638D01*
X85387537Y-91328210D01*
X85387537Y-91442495D01*
X85230394Y-91013924D02*
X85230394Y-91071067D01*
X85244680Y-91099638D01*
X85258965Y-91113924D01*
X85301822Y-91142495D01*
X85358965Y-91156781D01*
X85473251Y-91156781D01*
X85501822Y-91142495D01*
X85516108Y-91128210D01*
X85530394Y-91099638D01*
X85530394Y-91042495D01*
X85516108Y-91013924D01*
X85501822Y-90999638D01*
X85473251Y-90985352D01*
X85401822Y-90985352D01*
X85373251Y-90999638D01*
X85358965Y-91013924D01*
X85344680Y-91042495D01*
X85344680Y-91099638D01*
X85358965Y-91128210D01*
X85373251Y-91142495D01*
X85401822Y-91156781D01*
X86419423Y-96174903D02*
X86252656Y-96225863D01*
X86366449Y-96337941D02*
X86081132Y-96245236D01*
X86116448Y-96136544D01*
X86138864Y-96113785D01*
X86156865Y-96104613D01*
X86188452Y-96099856D01*
X86229212Y-96113099D01*
X86251970Y-96135515D01*
X86261142Y-96153516D01*
X86265900Y-96185103D01*
X86230583Y-96293796D01*
X86165008Y-95987092D02*
X86226811Y-95796881D01*
X86472397Y-96011864D01*
X82706617Y-99499015D02*
X82532265Y-99495948D01*
X82605854Y-99637704D02*
X82363149Y-99461368D01*
X82430324Y-99368909D01*
X82458675Y-99354191D01*
X82478630Y-99351031D01*
X82510141Y-99356267D01*
X82544814Y-99381458D01*
X82559531Y-99409809D01*
X82562692Y-99429764D01*
X82557455Y-99461275D01*
X82490280Y-99553735D01*
X82668692Y-99259563D02*
X82640340Y-99274281D01*
X82620386Y-99277442D01*
X82588874Y-99272205D01*
X82577317Y-99263808D01*
X82562599Y-99235457D01*
X82559439Y-99215503D01*
X82564675Y-99183991D01*
X82598263Y-99137761D01*
X82626614Y-99123044D01*
X82646568Y-99119883D01*
X82678080Y-99125120D01*
X82689638Y-99133517D01*
X82704355Y-99161868D01*
X82707516Y-99181822D01*
X82702279Y-99213334D01*
X82668692Y-99259563D01*
X82663455Y-99291075D01*
X82666616Y-99311029D01*
X82681333Y-99339381D01*
X82727563Y-99372968D01*
X82759075Y-99378205D01*
X82779029Y-99375044D01*
X82807380Y-99360327D01*
X82840968Y-99314097D01*
X82846204Y-99282585D01*
X82843044Y-99262631D01*
X82828326Y-99234280D01*
X82782097Y-99200692D01*
X82750585Y-99195456D01*
X82730631Y-99198616D01*
X82702279Y-99213334D01*
X70950558Y-105350934D02*
X70850558Y-105208077D01*
X70779130Y-105350934D02*
X70779130Y-105050934D01*
X70893415Y-105050934D01*
X70921987Y-105065220D01*
X70936272Y-105079505D01*
X70950558Y-105108077D01*
X70950558Y-105150934D01*
X70936272Y-105179505D01*
X70921987Y-105193791D01*
X70893415Y-105208077D01*
X70779130Y-105208077D01*
X71236272Y-105350934D02*
X71064844Y-105350934D01*
X71150558Y-105350934D02*
X71150558Y-105050934D01*
X71121987Y-105093791D01*
X71093415Y-105122362D01*
X71064844Y-105136648D01*
X71521987Y-105350934D02*
X71350558Y-105350934D01*
X71436272Y-105350934D02*
X71436272Y-105050934D01*
X71407701Y-105093791D01*
X71379130Y-105122362D01*
X71350558Y-105136648D01*
X66435811Y-104720968D02*
X66384850Y-104554201D01*
X66272772Y-104667993D02*
X66365477Y-104382676D01*
X66474170Y-104417993D01*
X66496928Y-104440408D01*
X66506100Y-104458409D01*
X66510858Y-104489997D01*
X66497614Y-104530756D01*
X66475198Y-104553515D01*
X66457197Y-104562687D01*
X66425610Y-104567444D01*
X66316918Y-104532128D01*
X66707541Y-104809258D02*
X66544503Y-104756284D01*
X66626022Y-104782771D02*
X66718727Y-104497454D01*
X66678310Y-104529385D01*
X66642308Y-104547729D01*
X66610721Y-104552486D01*
X66900109Y-104586431D02*
X66918110Y-104577259D01*
X66949698Y-104572501D01*
X67017630Y-104594574D01*
X67040389Y-104616989D01*
X67049561Y-104634990D01*
X67054318Y-104666578D01*
X67045489Y-104693751D01*
X67018659Y-104730096D01*
X66802647Y-104840160D01*
X66979271Y-104897549D01*
X62329852Y-102609475D02*
X62332920Y-102435123D01*
X62191163Y-102508712D02*
X62367499Y-102266007D01*
X62459958Y-102333182D01*
X62474676Y-102361534D01*
X62477836Y-102381488D01*
X62472600Y-102413000D01*
X62447409Y-102447672D01*
X62419058Y-102462390D01*
X62399103Y-102465550D01*
X62367592Y-102460313D01*
X62275133Y-102393138D01*
X62561000Y-102777414D02*
X62422311Y-102676651D01*
X62491655Y-102727032D02*
X62667991Y-102484327D01*
X62619685Y-102502205D01*
X62579777Y-102508526D01*
X62548265Y-102503290D01*
X62818237Y-102593487D02*
X62968483Y-102702647D01*
X62820406Y-102736328D01*
X62855078Y-102761519D01*
X62869796Y-102789870D01*
X62872956Y-102809824D01*
X62867720Y-102841336D01*
X62825735Y-102899123D01*
X62797384Y-102913841D01*
X62777430Y-102917001D01*
X62745918Y-102911765D01*
X62676574Y-102861383D01*
X62661856Y-102833032D01*
X62658695Y-102813077D01*
X59070205Y-99334287D02*
X59127000Y-99169416D01*
X58969442Y-99195598D02*
X59212147Y-99019263D01*
X59279322Y-99111722D01*
X59284559Y-99143233D01*
X59281398Y-99163188D01*
X59266680Y-99191539D01*
X59232008Y-99216730D01*
X59200496Y-99221966D01*
X59180542Y-99218806D01*
X59152191Y-99204088D01*
X59085015Y-99111629D01*
X59238143Y-99565435D02*
X59137380Y-99426746D01*
X59187762Y-99496090D02*
X59430467Y-99319755D01*
X59379001Y-99321831D01*
X59339092Y-99315510D01*
X59310741Y-99300792D01*
X59551092Y-99655910D02*
X59389288Y-99773467D01*
X59601566Y-99530948D02*
X59386221Y-99599115D01*
X59495381Y-99749361D01*
X57114875Y-95383132D02*
X57009912Y-95522383D01*
X57167850Y-95546171D02*
X56882533Y-95638876D01*
X56847216Y-95530184D01*
X56851974Y-95498596D01*
X56861146Y-95480595D01*
X56883904Y-95458179D01*
X56924664Y-95444936D01*
X56956252Y-95449693D01*
X56974253Y-95458865D01*
X56996668Y-95481624D01*
X57031984Y-95590316D01*
X57026585Y-95111402D02*
X57079559Y-95274440D01*
X57053072Y-95192921D02*
X56767755Y-95285626D01*
X56817344Y-95299556D01*
X56853346Y-95317900D01*
X56875761Y-95340658D01*
X56657392Y-94945963D02*
X56701537Y-95081828D01*
X56841817Y-95051270D01*
X56823816Y-95042098D01*
X56801400Y-95019339D01*
X56779327Y-94951407D01*
X56784085Y-94919819D01*
X56793257Y-94901818D01*
X56816015Y-94879402D01*
X56883948Y-94857330D01*
X56915536Y-94862087D01*
X56933537Y-94871259D01*
X56955952Y-94894018D01*
X56978025Y-94961950D01*
X56973267Y-94993538D01*
X56964095Y-95011539D01*
X56310585Y-91588978D02*
X56453442Y-91488978D01*
X56310585Y-91417550D02*
X56610585Y-91417550D01*
X56610585Y-91531835D01*
X56596300Y-91560407D01*
X56582014Y-91574692D01*
X56553442Y-91588978D01*
X56510585Y-91588978D01*
X56482014Y-91574692D01*
X56467728Y-91560407D01*
X56453442Y-91531835D01*
X56453442Y-91417550D01*
X56310585Y-91874692D02*
X56310585Y-91703264D01*
X56310585Y-91788978D02*
X56610585Y-91788978D01*
X56567728Y-91760407D01*
X56539157Y-91731835D01*
X56524871Y-91703264D01*
X56610585Y-92131835D02*
X56610585Y-92074692D01*
X56596300Y-92046121D01*
X56582014Y-92031835D01*
X56539157Y-92003264D01*
X56482014Y-91988978D01*
X56367728Y-91988978D01*
X56339157Y-92003264D01*
X56324871Y-92017550D01*
X56310585Y-92046121D01*
X56310585Y-92103264D01*
X56324871Y-92131835D01*
X56339157Y-92146121D01*
X56367728Y-92160407D01*
X56439157Y-92160407D01*
X56467728Y-92146121D01*
X56482014Y-92131835D01*
X56496300Y-92103264D01*
X56496300Y-92046121D01*
X56482014Y-92017550D01*
X56467728Y-92003264D01*
X56439157Y-91988978D01*
X57138671Y-85895671D02*
X57305438Y-85844710D01*
X57191646Y-85732632D02*
X57476963Y-85825337D01*
X57441646Y-85934030D01*
X57419231Y-85956788D01*
X57401230Y-85965960D01*
X57369642Y-85970718D01*
X57328883Y-85957474D01*
X57306124Y-85935058D01*
X57296952Y-85917057D01*
X57292195Y-85885470D01*
X57327511Y-85776778D01*
X57050381Y-86167401D02*
X57103355Y-86004363D01*
X57076868Y-86085882D02*
X57362185Y-86178587D01*
X57330254Y-86138170D01*
X57311910Y-86102168D01*
X57307153Y-86070581D01*
X57304796Y-86355212D02*
X57242993Y-86545423D01*
X56997406Y-86330439D01*
X59482904Y-81661444D02*
X59657256Y-81664512D01*
X59583667Y-81522755D02*
X59826372Y-81699091D01*
X59759197Y-81791550D01*
X59730845Y-81806268D01*
X59710891Y-81809428D01*
X59679379Y-81804192D01*
X59644707Y-81779001D01*
X59629989Y-81750650D01*
X59626829Y-81730696D01*
X59632065Y-81699184D01*
X59699241Y-81606725D01*
X59314965Y-81892592D02*
X59415728Y-81753903D01*
X59365347Y-81823247D02*
X59608052Y-81999583D01*
X59590174Y-81951278D01*
X59583853Y-81911369D01*
X59589089Y-81879857D01*
X59352891Y-82132044D02*
X59381242Y-82117326D01*
X59401196Y-82114165D01*
X59432708Y-82119402D01*
X59444265Y-82127799D01*
X59458983Y-82156150D01*
X59462144Y-82176104D01*
X59456907Y-82207616D01*
X59423319Y-82253846D01*
X59394968Y-82268563D01*
X59375014Y-82271724D01*
X59343502Y-82266487D01*
X59331945Y-82258090D01*
X59317227Y-82229739D01*
X59314066Y-82209785D01*
X59319303Y-82178273D01*
X59352891Y-82132044D01*
X59358127Y-82100532D01*
X59354967Y-82080578D01*
X59340249Y-82052226D01*
X59294019Y-82018639D01*
X59262508Y-82013402D01*
X59242553Y-82016563D01*
X59214202Y-82031280D01*
X59180614Y-82077510D01*
X59175378Y-82109022D01*
X59178538Y-82128976D01*
X59193256Y-82157327D01*
X59239486Y-82190915D01*
X59270997Y-82196151D01*
X59290952Y-82192991D01*
X59319303Y-82178273D01*
X63914733Y-77834105D02*
X64079604Y-77890900D01*
X64053422Y-77733342D02*
X64229757Y-77976047D01*
X64137298Y-78043222D01*
X64105787Y-78048459D01*
X64085832Y-78045298D01*
X64057481Y-78030580D01*
X64032290Y-77995908D01*
X64027054Y-77964396D01*
X64030214Y-77944442D01*
X64044932Y-77916091D01*
X64137391Y-77848915D01*
X63683585Y-78002043D02*
X63822274Y-77901280D01*
X63752930Y-77951662D02*
X63929265Y-78194367D01*
X63927189Y-78142901D01*
X63933510Y-78102992D01*
X63948228Y-78074641D01*
X63568012Y-78086013D02*
X63521782Y-78119600D01*
X63507064Y-78147952D01*
X63503904Y-78167906D01*
X63505980Y-78219372D01*
X63528010Y-78273999D01*
X63595186Y-78366458D01*
X63623537Y-78381175D01*
X63643491Y-78384336D01*
X63675003Y-78379099D01*
X63721232Y-78345512D01*
X63735950Y-78317160D01*
X63739111Y-78297206D01*
X63733874Y-78265694D01*
X63691890Y-78207908D01*
X63663538Y-78193190D01*
X63643584Y-78190029D01*
X63612072Y-78195266D01*
X63565843Y-78228853D01*
X63551125Y-78257205D01*
X63547964Y-78277159D01*
X63553201Y-78308671D01*
X67239012Y-76652364D02*
X67378263Y-76757327D01*
X67402051Y-76599389D02*
X67494756Y-76884706D01*
X67386064Y-76920023D01*
X67354476Y-76915265D01*
X67336475Y-76906093D01*
X67314059Y-76883335D01*
X67300816Y-76842575D01*
X67305573Y-76810987D01*
X67314745Y-76792986D01*
X67337504Y-76770571D01*
X67446196Y-76735255D01*
X67214196Y-76945824D02*
X67205024Y-76963825D01*
X67182266Y-76986240D01*
X67114333Y-77008313D01*
X67082746Y-77003556D01*
X67064745Y-76994384D01*
X67042329Y-76971625D01*
X67033500Y-76944452D01*
X67033843Y-76899278D01*
X67143907Y-76683265D01*
X66967282Y-76740654D01*
X66883362Y-77083360D02*
X66856189Y-77092189D01*
X66824602Y-77087432D01*
X66806601Y-77078260D01*
X66784185Y-77055501D01*
X66752940Y-77005570D01*
X66730868Y-76937637D01*
X66726796Y-76878876D01*
X66731554Y-76847289D01*
X66740726Y-76829288D01*
X66763484Y-76806872D01*
X66790657Y-76798043D01*
X66822245Y-76802801D01*
X66840246Y-76811973D01*
X66862661Y-76834731D01*
X66893906Y-76884663D01*
X66915979Y-76952595D01*
X66920050Y-77011356D01*
X66915293Y-77042943D01*
X66906121Y-77060945D01*
X66883362Y-77083360D01*
X79699174Y-102560536D02*
X79534303Y-102503740D01*
X79560485Y-102661299D02*
X79384149Y-102418594D01*
X79476608Y-102351418D01*
X79508120Y-102346182D01*
X79528074Y-102349342D01*
X79556426Y-102364060D01*
X79581616Y-102398732D01*
X79586853Y-102430244D01*
X79583692Y-102450198D01*
X79568975Y-102478549D01*
X79476516Y-102545725D01*
X79814747Y-102476566D02*
X79860977Y-102442979D01*
X79875695Y-102414627D01*
X79878855Y-102394673D01*
X79876779Y-102343207D01*
X79854749Y-102288580D01*
X79787573Y-102196121D01*
X79759222Y-102181404D01*
X79739268Y-102178243D01*
X79707756Y-102183480D01*
X79661527Y-102217067D01*
X79646809Y-102245419D01*
X79643648Y-102265373D01*
X79648885Y-102296885D01*
X79690869Y-102354671D01*
X79719221Y-102369389D01*
X79739175Y-102372550D01*
X79770687Y-102367313D01*
X79816916Y-102333726D01*
X79831634Y-102305374D01*
X79834795Y-102285420D01*
X79829558Y-102253908D01*
X75371587Y-104621415D02*
X75232336Y-104516452D01*
X75208548Y-104674390D02*
X75115843Y-104389073D01*
X75224535Y-104353756D01*
X75256123Y-104358514D01*
X75274124Y-104367686D01*
X75296540Y-104390444D01*
X75309783Y-104431204D01*
X75305026Y-104462792D01*
X75295854Y-104480793D01*
X75273095Y-104503208D01*
X75164403Y-104538524D01*
X75643317Y-104533125D02*
X75480279Y-104586099D01*
X75561798Y-104559612D02*
X75469093Y-104274295D01*
X75455163Y-104323884D01*
X75436819Y-104359886D01*
X75414061Y-104382301D01*
X75727237Y-104190419D02*
X75754410Y-104181590D01*
X75785997Y-104186347D01*
X75803998Y-104195519D01*
X75826414Y-104218278D01*
X75857659Y-104268209D01*
X75879731Y-104336142D01*
X75883803Y-104394903D01*
X75879045Y-104426490D01*
X75869873Y-104444491D01*
X75847115Y-104466907D01*
X75819942Y-104475736D01*
X75788354Y-104470978D01*
X75770353Y-104461806D01*
X75747938Y-104439048D01*
X75716693Y-104389116D01*
X75694620Y-104321184D01*
X75690549Y-104262423D01*
X75695306Y-104230836D01*
X75704478Y-104212834D01*
X75727237Y-104190419D01*
D12*
X73387580Y-72446860D02*
G75*
G03*
X73387580Y-72446860I-100000J0D01*
G01*
X69224700Y-109070780D02*
G75*
G03*
X69224700Y-109070780I-100000J0D01*
G01*
X75212787Y-72801586D02*
G75*
G03*
X75212787Y-72801586I-100000J0D01*
G01*
X67388533Y-108889454D02*
G75*
G03*
X67388533Y-108889454I-100000J0D01*
G01*
X83822815Y-77325911D02*
G75*
G03*
X83822815Y-77325911I-100001J0D01*
G01*
X58663145Y-104498729D02*
G75*
G03*
X58663145Y-104498729I-100001J0D01*
G01*
X84852530Y-78537546D02*
G75*
G03*
X84852530Y-78537546I-100001J0D01*
G01*
X57548892Y-103419334D02*
G75*
G03*
X57548892Y-103419334I-100001J0D01*
G01*
X89123294Y-87265933D02*
G75*
G03*
X89123294Y-87265933I-100000J0D01*
G01*
X53026146Y-94612107D02*
G75*
G03*
X53026146Y-94612107I-100000J0D01*
G01*
X89371380Y-89173300D02*
G75*
G03*
X89371380Y-89173300I-100000J0D01*
G01*
X52687780Y-92716740D02*
G75*
G03*
X52687780Y-92716740I-100000J0D01*
G01*
X87512586Y-98592453D02*
G75*
G03*
X87512586Y-98592453I-100000J0D01*
G01*
X54302454Y-82998827D02*
G75*
G03*
X54302454Y-82998827I-100000J0D01*
G01*
X87019032Y-100063826D02*
G75*
G03*
X87019032Y-100063826I-100001J0D01*
G01*
X55261930Y-81269894D02*
G75*
G03*
X55261930Y-81269894I-100001J0D01*
G01*
X80367427Y-106695031D02*
G75*
G03*
X80367427Y-106695031I-100001J0D01*
G01*
X62300853Y-74431209D02*
G75*
G03*
X62300853Y-74431209I-100001J0D01*
G01*
X78887180Y-107418288D02*
G75*
G03*
X78887180Y-107418288I-100000J0D01*
G01*
X63961794Y-73846436D02*
G75*
G03*
X63961794Y-73846436I-100000J0D01*
G01*
X75451421Y-95617700D02*
G75*
G03*
X75451421Y-95617700I-141421J0D01*
G01*
X75403161Y-82973580D02*
G75*
G03*
X75403161Y-82973580I-141421J0D01*
G01*
M02*
