G04 #@! TF.GenerationSoftware,KiCad,Pcbnew,(6.0.9)*
G04 #@! TF.CreationDate,2022-11-29T20:17:37+01:00*
G04 #@! TF.ProjectId,SMD Lauflicht 0805-0603 v1_1,534d4420-4c61-4756-966c-696368742030,rev?*
G04 #@! TF.SameCoordinates,Original*
G04 #@! TF.FileFunction,Copper,L2,Bot*
G04 #@! TF.FilePolarity,Positive*
%FSLAX46Y46*%
G04 Gerber Fmt 4.6, Leading zero omitted, Abs format (unit mm)*
G04 Created by KiCad (PCBNEW (6.0.9)) date 2022-11-29 20:17:37*
%MOMM*%
%LPD*%
G01*
G04 APERTURE LIST*
G04 Aperture macros list*
%AMRoundRect*
0 Rectangle with rounded corners*
0 $1 Rounding radius*
0 $2 $3 $4 $5 $6 $7 $8 $9 X,Y pos of 4 corners*
0 Add a 4 corners polygon primitive as box body*
4,1,4,$2,$3,$4,$5,$6,$7,$8,$9,$2,$3,0*
0 Add four circle primitives for the rounded corners*
1,1,$1+$1,$2,$3*
1,1,$1+$1,$4,$5*
1,1,$1+$1,$6,$7*
1,1,$1+$1,$8,$9*
0 Add four rect primitives between the rounded corners*
20,1,$1+$1,$2,$3,$4,$5,0*
20,1,$1+$1,$4,$5,$6,$7,0*
20,1,$1+$1,$6,$7,$8,$9,0*
20,1,$1+$1,$8,$9,$2,$3,0*%
G04 Aperture macros list end*
G04 #@! TA.AperFunction,SMDPad,CuDef*
%ADD10R,5.000000X3.600000*%
G04 #@! TD*
G04 #@! TA.AperFunction,SMDPad,CuDef*
%ADD11RoundRect,0.250000X0.325000X0.450000X-0.325000X0.450000X-0.325000X-0.450000X0.325000X-0.450000X0*%
G04 #@! TD*
G04 #@! TA.AperFunction,SMDPad,CuDef*
%ADD12R,1.100000X1.950000*%
G04 #@! TD*
G04 #@! TA.AperFunction,SMDPad,CuDef*
%ADD13RoundRect,0.150000X0.825000X0.150000X-0.825000X0.150000X-0.825000X-0.150000X0.825000X-0.150000X0*%
G04 #@! TD*
G04 #@! TA.AperFunction,SMDPad,CuDef*
%ADD14R,0.900000X0.800000*%
G04 #@! TD*
G04 #@! TA.AperFunction,SMDPad,CuDef*
%ADD15RoundRect,0.237500X0.237500X-0.287500X0.237500X0.287500X-0.237500X0.287500X-0.237500X-0.287500X0*%
G04 #@! TD*
G04 #@! TA.AperFunction,ViaPad*
%ADD16C,0.800000*%
G04 #@! TD*
G04 #@! TA.AperFunction,Conductor*
%ADD17C,0.300000*%
G04 #@! TD*
G04 APERTURE END LIST*
D10*
X56165080Y-96185520D03*
X85465080Y-96185520D03*
D11*
X61174440Y-82184340D03*
X59124440Y-82184340D03*
X61174440Y-78628340D03*
X59124440Y-78628340D03*
X65761440Y-82184340D03*
X63711440Y-82184340D03*
X65761440Y-78628340D03*
X63711440Y-78628340D03*
D12*
X73760260Y-76086340D03*
X73760260Y-81736340D03*
X71260260Y-81736340D03*
X71260260Y-76086340D03*
X68760260Y-76086340D03*
X68760260Y-81736340D03*
D13*
X82561440Y-78287340D03*
X82561440Y-79557340D03*
X82561440Y-80827340D03*
X82561440Y-82097340D03*
X77611440Y-82097340D03*
X77611440Y-80827340D03*
X77611440Y-79557340D03*
X77611440Y-78287340D03*
D14*
X64047000Y-74819000D03*
X64047000Y-76719000D03*
X62047000Y-75769000D03*
X78582400Y-76632600D03*
X78582400Y-74732600D03*
X80582400Y-75682600D03*
D15*
X65907800Y-76528400D03*
X65907800Y-74778400D03*
X76880600Y-76644000D03*
X76880600Y-74894000D03*
D11*
X72292200Y-73406800D03*
X70242200Y-73406800D03*
D16*
X58922800Y-84049400D03*
X71419600Y-79858400D03*
X67195580Y-84016380D03*
X67177800Y-96851000D03*
X71419600Y-98171800D03*
X64782580Y-84046860D03*
X79232640Y-82169800D03*
X78455400Y-89104000D03*
X73578600Y-89104000D03*
X75204200Y-86208400D03*
X69844800Y-83236600D03*
X82872460Y-92187560D03*
X72334000Y-83236600D03*
X74797800Y-80020960D03*
X61615200Y-76945020D03*
X63113800Y-75642000D03*
X69209800Y-98959200D03*
X66972060Y-77633360D03*
X67177800Y-97867000D03*
X76273540Y-103043520D03*
X66974600Y-79147200D03*
X68884680Y-102261200D03*
X74388860Y-95271120D03*
X68905000Y-105360000D03*
X82180740Y-94244260D03*
X73304280Y-105352380D03*
X64231400Y-97409800D03*
X70175000Y-95250800D03*
X65247400Y-93178160D03*
X62072400Y-97409800D03*
X67177800Y-98883000D03*
X59600000Y-96825000D03*
X78455400Y-91161400D03*
X82882620Y-91171560D03*
X75255000Y-92431400D03*
X56926360Y-89835520D03*
X73578600Y-91212200D03*
X70609340Y-91222360D03*
X62697240Y-90300340D03*
X82885160Y-93198480D03*
X65760480Y-90318120D03*
X73578600Y-92431400D03*
X81706600Y-99982820D03*
X68905000Y-95208307D03*
X68905000Y-92431400D03*
X62692160Y-89284340D03*
X63090940Y-99645000D03*
X63078240Y-97414880D03*
X78145520Y-102271360D03*
X68879600Y-103836000D03*
X71478020Y-102271360D03*
X71467860Y-103846160D03*
X84353280Y-88743320D03*
X70251200Y-98984600D03*
X72537200Y-89104000D03*
X73578600Y-90120000D03*
X72720080Y-95255880D03*
X70378200Y-102261200D03*
X64688600Y-80849000D03*
X75890000Y-80010800D03*
X69844800Y-86208400D03*
X69844800Y-84252600D03*
X84399000Y-77928000D03*
X74150100Y-73162960D03*
X86286220Y-88740780D03*
X78899900Y-105614000D03*
X85691860Y-99142080D03*
X53527840Y-93594720D03*
X55481100Y-82332360D03*
X59324120Y-102804760D03*
X63113800Y-74041800D03*
X68615440Y-107785700D03*
X73959600Y-83338200D03*
X73965325Y-86208400D03*
X68981200Y-78588399D03*
X75178800Y-77521600D03*
X72816600Y-79858400D03*
X75603523Y-74508482D03*
X62682000Y-87630800D03*
X80241769Y-82774662D03*
X72428601Y-86208400D03*
X63088400Y-80645800D03*
X68549400Y-72822600D03*
X79242800Y-81052200D03*
D17*
X59600000Y-96825000D02*
X61658000Y-98883000D01*
X61658000Y-98883000D02*
X67177800Y-98883000D01*
X86286220Y-88740780D02*
X86286220Y-89306465D01*
X86286220Y-89306465D02*
X88600000Y-91620245D01*
X88600000Y-91620245D02*
X88600000Y-98050600D01*
X88600000Y-98050600D02*
X87508520Y-99142080D01*
X87508520Y-99142080D02*
X85691860Y-99142080D01*
X82173820Y-94237340D02*
X75422640Y-94237340D01*
X82180740Y-94244260D02*
X82173820Y-94237340D01*
X75422640Y-94237340D02*
X74388860Y-95271120D01*
X53527840Y-93594720D02*
X53315080Y-93807480D01*
X53315080Y-93807480D02*
X53315080Y-98335520D01*
X53315080Y-98335520D02*
X56343321Y-98335521D01*
X56343321Y-98335521D02*
X59324120Y-101316320D01*
X59324120Y-101316320D02*
X59324120Y-102804760D01*
X61174440Y-81484340D02*
X61174440Y-82184340D01*
X67195580Y-84016380D02*
X64813060Y-84016380D01*
X67177800Y-96851000D02*
X70098800Y-96851000D01*
X79232640Y-82169800D02*
X79798325Y-82169800D01*
X67152400Y-97003400D02*
X67177800Y-96851000D01*
X61174440Y-79765620D02*
X61174440Y-78628340D01*
X64782580Y-84046860D02*
X58922800Y-84049400D01*
X56165080Y-85562520D02*
X56165080Y-96185520D01*
X78582400Y-74732600D02*
X79332400Y-74732600D01*
X79992801Y-78525601D02*
X80231062Y-78287340D01*
X61174440Y-78628340D02*
X61174440Y-82184340D01*
X58199430Y-81485804D02*
X61020634Y-78664600D01*
X63083780Y-76719000D02*
X61174440Y-78628340D01*
X82561440Y-78287340D02*
X81300400Y-78287340D01*
X64047000Y-76719000D02*
X63083780Y-76719000D01*
X79649200Y-75049400D02*
X79649200Y-77705478D01*
X61174440Y-78628340D02*
X61174440Y-79328340D01*
X79649200Y-77705478D02*
X80231062Y-78287340D01*
X72292200Y-78953000D02*
X72292200Y-73406800D01*
X64813060Y-84016380D02*
X64782580Y-84046860D01*
X79992801Y-81975324D02*
X79992801Y-78525601D01*
X58922800Y-83606246D02*
X58199430Y-82882876D01*
X79332400Y-74732600D02*
X79649200Y-75049400D01*
X58922800Y-84049400D02*
X58922800Y-83606246D01*
X80231062Y-78287340D02*
X82561440Y-78287340D01*
X58199430Y-82882876D02*
X58199430Y-81485804D01*
X61020634Y-78664600D02*
X61208800Y-78664600D01*
X72308600Y-78969400D02*
X72292200Y-78953000D01*
X57678200Y-84049400D02*
X56165080Y-85562520D01*
X79798325Y-82169800D02*
X79992801Y-81975324D01*
X72308600Y-78969400D02*
X71419600Y-79858400D01*
X70098800Y-96851000D02*
X71419600Y-98171800D01*
X58922800Y-84049400D02*
X57678200Y-84049400D01*
X71260260Y-77361340D02*
X70407979Y-78213621D01*
X71260260Y-76086340D02*
X71260260Y-77361340D01*
X70407979Y-78213621D02*
X70407979Y-80631261D01*
X73178601Y-88704001D02*
X73178601Y-85277563D01*
X85519140Y-96131460D02*
X85465080Y-96185520D01*
X71260260Y-83359222D02*
X71260260Y-81736340D01*
X83217922Y-89104000D02*
X85465080Y-91351158D01*
X73578600Y-89104000D02*
X73178601Y-88704001D01*
X78455400Y-89104000D02*
X83217922Y-89104000D01*
X70408680Y-80688980D02*
X70413760Y-80648340D01*
X85465080Y-95224680D02*
X85465080Y-96185520D01*
X85465080Y-91351158D02*
X85465080Y-96185520D01*
X73178601Y-85277563D02*
X71260260Y-83359222D01*
X70413760Y-80648340D02*
X71260260Y-81736340D01*
X59124440Y-82884340D02*
X59474450Y-83234350D01*
X75216900Y-82342980D02*
X74610260Y-81736340D01*
X72334000Y-83236600D02*
X73760260Y-82161340D01*
X73760260Y-79948498D02*
X75421418Y-78287340D01*
X65761440Y-82884340D02*
X65761440Y-82184340D01*
X76543481Y-87669601D02*
X76543481Y-90768423D01*
X82561440Y-82097340D02*
X81134117Y-83524663D01*
X59474450Y-83234350D02*
X65411430Y-83234350D01*
X74869254Y-76086340D02*
X73760260Y-76086340D01*
X59124440Y-82184340D02*
X59124440Y-82884340D01*
X76636440Y-78287340D02*
X77611440Y-78287340D01*
X65411430Y-83234350D02*
X65761440Y-82884340D01*
X75421418Y-78287340D02*
X76636440Y-78287340D01*
X77070254Y-78287340D02*
X74869254Y-76086340D01*
X75204200Y-84811400D02*
X75204200Y-86208400D01*
X76398583Y-83524663D02*
X75216900Y-82342980D01*
X77168663Y-83524663D02*
X76490937Y-83524663D01*
X77611440Y-78287340D02*
X77070254Y-78287340D01*
X66113700Y-83236600D02*
X65761440Y-82884340D01*
X77168663Y-83524663D02*
X76398583Y-83524663D01*
X82306775Y-92187560D02*
X82872460Y-92187560D01*
X76543481Y-90768423D02*
X77962618Y-92187560D01*
X75204200Y-86208400D02*
X76543481Y-87669601D01*
X69844800Y-83236600D02*
X66113700Y-83236600D01*
X81134117Y-83524663D02*
X77168663Y-83524663D01*
X73760260Y-81736340D02*
X73760260Y-79948498D01*
X76490937Y-83524663D02*
X75204200Y-84811400D01*
X74610260Y-81736340D02*
X73760260Y-81736340D01*
X73760260Y-82161340D02*
X73760260Y-81736340D01*
X77962618Y-92187560D02*
X82306775Y-92187560D01*
X60110300Y-76942480D02*
X59124440Y-77928340D01*
X77611440Y-82097340D02*
X77311440Y-81797340D01*
X76574180Y-81797340D02*
X75197799Y-80420959D01*
X75197799Y-80420959D02*
X74797800Y-80020960D01*
X59124440Y-77928340D02*
X59124440Y-78628340D01*
X61615200Y-76945020D02*
X60110300Y-76942480D01*
X77311440Y-81797340D02*
X76574180Y-81797340D01*
X66974600Y-79147200D02*
X66974600Y-77635900D01*
X76273540Y-103043520D02*
X69667000Y-103043520D01*
X66974600Y-77635900D02*
X66972060Y-77633360D01*
X68644115Y-98959200D02*
X67551915Y-97867000D01*
X69667000Y-103043520D02*
X68884680Y-102261200D01*
X69209800Y-98959200D02*
X68644115Y-98959200D01*
X67551915Y-97867000D02*
X67177800Y-97867000D01*
X68905000Y-105360000D02*
X73304280Y-105352380D01*
X64231400Y-97409800D02*
X65555441Y-96100999D01*
X69775001Y-95650799D02*
X70175000Y-95250800D01*
X69324801Y-96100999D02*
X69775001Y-95650799D01*
X65555441Y-96100999D02*
X69324801Y-96100999D01*
X65247400Y-93178160D02*
X62072400Y-96353160D01*
X62072400Y-96353160D02*
X62072400Y-97409800D01*
X74797800Y-92431400D02*
X73578600Y-91212200D01*
X58227541Y-88534339D02*
X67921319Y-88534339D01*
X70209341Y-90822361D02*
X70609340Y-91222360D01*
X75255000Y-92431400D02*
X74797800Y-92431400D01*
X67921319Y-88534339D02*
X70209341Y-90822361D01*
X78455400Y-91161400D02*
X82875000Y-91163940D01*
X82875000Y-91163940D02*
X82882620Y-91171560D01*
X56926360Y-89835520D02*
X58227541Y-88534339D01*
X65760480Y-90318120D02*
X62715020Y-90318120D01*
X62715020Y-90318120D02*
X62697240Y-90300340D01*
X74345680Y-93198480D02*
X82885160Y-93198480D01*
X73578600Y-92431400D02*
X74345680Y-93198480D01*
X65284813Y-95208307D02*
X63078240Y-97414880D01*
X77093259Y-104596161D02*
X81706600Y-99982820D01*
X62692160Y-89284340D02*
X67964200Y-89284340D01*
X63090940Y-99645000D02*
X68042101Y-104596161D01*
X68905000Y-90225140D02*
X68905000Y-92431400D01*
X68905000Y-95208307D02*
X65284813Y-95208307D01*
X68042101Y-104596161D02*
X77093259Y-104596161D01*
X67964200Y-89284340D02*
X68905000Y-90225140D01*
X68879600Y-103836000D02*
X71457700Y-103836000D01*
X78145520Y-102271360D02*
X71478020Y-102271360D01*
X71457700Y-103836000D02*
X71467860Y-103846160D01*
X68760260Y-76086340D02*
X69610260Y-76086340D01*
X69867660Y-81478940D02*
X69610260Y-81736340D01*
X69610260Y-81736340D02*
X68760260Y-81736340D01*
X69610260Y-76086340D02*
X69867660Y-76343740D01*
X69867660Y-76343740D02*
X69867660Y-81478940D01*
X84376140Y-81667040D02*
X83536440Y-80827340D01*
X84353280Y-88743320D02*
X84376140Y-81667040D01*
X83536440Y-80827340D02*
X82561440Y-80827340D01*
X72169601Y-98531801D02*
X71716802Y-98984600D01*
X72169601Y-97811799D02*
X72169601Y-98531801D01*
X70816885Y-98984600D02*
X70251200Y-98984600D01*
X71716802Y-98984600D02*
X70816885Y-98984600D01*
X71970079Y-89671121D02*
X71970079Y-97612277D01*
X72537200Y-89104000D02*
X71970079Y-89671121D01*
X71970079Y-97612277D02*
X72169601Y-97811799D01*
X72720080Y-95255880D02*
X72720080Y-99919320D01*
X73578600Y-90120000D02*
X73012915Y-90120000D01*
X72720080Y-99919320D02*
X70378200Y-102261200D01*
X72720080Y-94690195D02*
X72720080Y-95255880D01*
X72720080Y-90412835D02*
X72720080Y-94690195D01*
X73012915Y-90120000D02*
X72720080Y-90412835D01*
X64688600Y-80849000D02*
X63711440Y-82184340D01*
X65761440Y-78628340D02*
X65761440Y-79776160D01*
X75890000Y-80010800D02*
X77531360Y-79637420D01*
X77531360Y-79637420D02*
X77611440Y-79557340D01*
X65761440Y-79776160D02*
X64688600Y-80849000D01*
X69844800Y-84252600D02*
X69844800Y-86208400D01*
X85371820Y-99142080D02*
X85691860Y-99142080D01*
X84867375Y-87321935D02*
X86286220Y-88740780D01*
X83805910Y-77334910D02*
X81055090Y-77334910D01*
X80149210Y-74819408D02*
X79312401Y-73982599D01*
X75671560Y-73162960D02*
X74150100Y-73162960D01*
X84399000Y-77928000D02*
X83805910Y-77334910D01*
X78899900Y-105614000D02*
X85371820Y-99142080D01*
X80502600Y-75682600D02*
X80149210Y-75329210D01*
X80149210Y-75329210D02*
X80149210Y-74819408D01*
X79312401Y-73982599D02*
X76491199Y-73982599D01*
X80582400Y-76862220D02*
X80582400Y-75682600D01*
X84876816Y-78405816D02*
X84876816Y-84374816D01*
X84867375Y-84384257D02*
X84867375Y-87321935D01*
X84876816Y-84374816D02*
X84867375Y-84384257D01*
X84399000Y-77928000D02*
X84876816Y-78405816D01*
X81055090Y-77334910D02*
X80582400Y-76862220D01*
X80582400Y-75682600D02*
X80502600Y-75682600D01*
X80592560Y-75672440D02*
X80582400Y-75682600D01*
X76491199Y-73982599D02*
X75671560Y-73162960D01*
X58199430Y-77929804D02*
X60360234Y-75769000D01*
X60101360Y-103582000D02*
X59324120Y-102804760D01*
X55481100Y-82332360D02*
X55481100Y-91641460D01*
X55481100Y-91641460D02*
X53527840Y-93594720D01*
X68615440Y-107785700D02*
X64411740Y-103582000D01*
X62047000Y-75769000D02*
X62047000Y-75108600D01*
X58199430Y-77929804D02*
X58199430Y-79614030D01*
X62047000Y-75108600D02*
X63113800Y-74041800D01*
X60360234Y-75769000D02*
X62047000Y-75769000D01*
X64411740Y-103582000D02*
X60101360Y-103582000D01*
X58199430Y-79614030D02*
X55481100Y-82332360D01*
X73959600Y-86202675D02*
X73965325Y-86208400D01*
X73959600Y-83338200D02*
X73959600Y-86202675D01*
X73965325Y-83343925D02*
X73959600Y-83338200D01*
X76955600Y-76719000D02*
X76880600Y-76644000D01*
X78573000Y-76719000D02*
X76955600Y-76719000D01*
X67860259Y-76255859D02*
X66382800Y-74778400D01*
X67860259Y-77467458D02*
X67860259Y-76255859D01*
X66382800Y-74778400D02*
X65907800Y-74778400D01*
X68981200Y-78588399D02*
X67860259Y-77467458D01*
X76495082Y-74508482D02*
X76880600Y-74894000D01*
X75603523Y-74508482D02*
X76495082Y-74508482D01*
X75153400Y-77521600D02*
X75178800Y-77521600D01*
X72816600Y-79858400D02*
X75153400Y-77521600D01*
X65907800Y-76528400D02*
X65756400Y-76528400D01*
X65756400Y-76528400D02*
X64047000Y-74819000D01*
X70242200Y-73406800D02*
X69133600Y-73406800D01*
X63304300Y-79035480D02*
X63711440Y-78628340D01*
X81586440Y-79557340D02*
X82561440Y-79557340D01*
X64043440Y-78296340D02*
X63711440Y-78628340D01*
X71006201Y-87630800D02*
X72428601Y-86208400D01*
X79242800Y-81052200D02*
X77836300Y-81052200D01*
X69133600Y-73406800D02*
X68549400Y-72822600D01*
X62682000Y-87630800D02*
X71006201Y-87630800D01*
X63711440Y-78628340D02*
X63711440Y-80022760D01*
X80641768Y-82374663D02*
X80641768Y-80502012D01*
X63711440Y-80022760D02*
X63088400Y-80645800D01*
X77836300Y-81052200D02*
X77611440Y-80827340D01*
X80241769Y-82774662D02*
X80641768Y-82374663D01*
X80641768Y-80502012D02*
X81586440Y-79557340D01*
M02*
