M48
; DRILL file {KiCad (6.0.9)} date Tue 29 Nov 2022 20:17:35 CET
; FORMAT={-:-/ absolute / inch / decimal}
; #@! TF.CreationDate,2022-11-29T20:17:35+01:00
; #@! TF.GenerationSoftware,Kicad,Pcbnew,(6.0.9)
; #@! TF.FileFunction,Plated,1,2,PTH
FMAT,2
INCH
; #@! TA.AperFunction,Plated,PTH,ViaDrill
T1C0.0157
%
G90
G05
T1
X2.1074Y-3.6848
X2.1843Y-3.2414
X2.2412Y-3.5368
X2.3198Y-3.309
X2.3356Y-4.0474
X2.3465Y-3.812
X2.4258Y-3.0293
X2.4438Y-3.835
X2.4678Y-3.45
X2.4682Y-3.5151
X2.4684Y-3.5551
X2.4834Y-3.8352
X2.4838Y-3.175
X2.4839Y-3.923
X2.4848Y-2.915
X2.4848Y-2.978
X2.5288Y-3.835
X2.5468Y-3.183
X2.5505Y-3.3089
X2.5688Y-3.6684
X2.589Y-3.5558
X2.6367Y-3.0564
X2.6368Y-3.116
X2.6448Y-3.813
X2.6448Y-3.853
X2.6448Y-3.893
X2.6455Y-3.3077
X2.6988Y-2.867
X2.7014Y-4.2435
X2.7118Y-4.088
X2.712Y-4.026
X2.7128Y-3.639
X2.7128Y-3.7484
X2.7128Y-4.148
X2.7158Y-3.094
X2.7248Y-3.896
X2.7498Y-3.277
X2.7498Y-3.317
X2.7498Y-3.394
X2.7628Y-3.75
X2.7658Y-3.897
X2.7708Y-4.026
X2.7799Y-3.5914
X2.8118Y-3.144
X2.8118Y-3.865
X2.8137Y-4.0884
X2.8141Y-4.0264
X2.8478Y-3.277
X2.8515Y-3.394
X2.8558Y-3.508
X2.863Y-3.7502
X2.8668Y-3.144
X2.886Y-4.1477
X2.8968Y-3.508
X2.8968Y-3.548
X2.8968Y-3.591
X2.8968Y-3.639
X2.9118Y-3.281
X2.912Y-3.394
X2.9193Y-2.8804
X2.9287Y-3.7508
X2.9448Y-3.1504
X2.9598Y-3.052
X2.9608Y-3.394
X2.9628Y-3.639
X2.9765Y-2.9334
X2.9878Y-3.15
X3.0029Y-4.0568
X3.0766Y-4.0264
X3.0888Y-3.508
X3.0888Y-3.589
X3.1063Y-4.158
X3.1194Y-3.235
X3.1198Y-3.191
X3.1591Y-3.2588
X3.2168Y-3.9363
X3.2355Y-3.7104
X3.2627Y-3.6294
X3.2631Y-3.5894
X3.2632Y-3.6692
X3.321Y-3.4938
X3.3228Y-3.068
X3.3737Y-3.9032
X3.3971Y-3.4937
T0
M30
