G04 #@! TF.GenerationSoftware,KiCad,Pcbnew,9.0.1*
G04 #@! TF.CreationDate,2025-04-09T17:44:42+02:00*
G04 #@! TF.ProjectId,SMDChaser0805-0603,534d4443-6861-4736-9572-303830352d30,rev?*
G04 #@! TF.SameCoordinates,Original*
G04 #@! TF.FileFunction,Copper,L1,Top*
G04 #@! TF.FilePolarity,Positive*
%FSLAX46Y46*%
G04 Gerber Fmt 4.6, Leading zero omitted, Abs format (unit mm)*
G04 Created by KiCad (PCBNEW 9.0.1) date 2025-04-09 17:44:42*
%MOMM*%
%LPD*%
G01*
G04 APERTURE LIST*
G04 Aperture macros list*
%AMRoundRect*
0 Rectangle with rounded corners*
0 $1 Rounding radius*
0 $2 $3 $4 $5 $6 $7 $8 $9 X,Y pos of 4 corners*
0 Add a 4 corners polygon primitive as box body*
4,1,4,$2,$3,$4,$5,$6,$7,$8,$9,$2,$3,0*
0 Add four circle primitives for the rounded corners*
1,1,$1+$1,$2,$3*
1,1,$1+$1,$4,$5*
1,1,$1+$1,$6,$7*
1,1,$1+$1,$8,$9*
0 Add four rect primitives between the rounded corners*
20,1,$1+$1,$2,$3,$4,$5,0*
20,1,$1+$1,$4,$5,$6,$7,0*
20,1,$1+$1,$6,$7,$8,$9,0*
20,1,$1+$1,$8,$9,$2,$3,0*%
G04 Aperture macros list end*
G04 #@! TA.AperFunction,SMDPad,CuDef*
%ADD10RoundRect,0.250000X0.325000X0.450000X-0.325000X0.450000X-0.325000X-0.450000X0.325000X-0.450000X0*%
G04 #@! TD*
G04 #@! TA.AperFunction,SMDPad,CuDef*
%ADD11RoundRect,0.250000X-0.325000X-0.450000X0.325000X-0.450000X0.325000X0.450000X-0.325000X0.450000X0*%
G04 #@! TD*
G04 #@! TA.AperFunction,SMDPad,CuDef*
%ADD12RoundRect,0.250000X-0.448151X-0.327545X0.170036X-0.528406X0.448151X0.327545X-0.170036X0.528406X0*%
G04 #@! TD*
G04 #@! TA.AperFunction,SMDPad,CuDef*
%ADD13RoundRect,0.250000X0.448151X0.327545X-0.170036X0.528406X-0.448151X-0.327545X0.170036X-0.528406X0*%
G04 #@! TD*
G04 #@! TA.AperFunction,SMDPad,CuDef*
%ADD14RoundRect,0.250000X0.527434X0.173027X0.001573X0.555088X-0.527434X-0.173027X-0.001573X-0.555088X0*%
G04 #@! TD*
G04 #@! TA.AperFunction,SMDPad,CuDef*
%ADD15RoundRect,0.250000X-0.527434X-0.173027X-0.001573X-0.555088X0.527434X0.173027X0.001573X0.555088X0*%
G04 #@! TD*
G04 #@! TA.AperFunction,SMDPad,CuDef*
%ADD16RoundRect,0.250000X-0.555088X-0.001573X-0.173027X-0.527434X0.555088X0.001573X0.173027X0.527434X0*%
G04 #@! TD*
G04 #@! TA.AperFunction,SMDPad,CuDef*
%ADD17RoundRect,0.250000X0.555088X0.001573X0.173027X0.527434X-0.555088X-0.001573X-0.173027X-0.527434X0*%
G04 #@! TD*
G04 #@! TA.AperFunction,SMDPad,CuDef*
%ADD18RoundRect,0.250000X0.528406X-0.170036X0.327545X0.448151X-0.528406X0.170036X-0.327545X-0.448151X0*%
G04 #@! TD*
G04 #@! TA.AperFunction,SMDPad,CuDef*
%ADD19RoundRect,0.250000X-0.528406X0.170036X-0.327545X-0.448151X0.528406X-0.170036X0.327545X0.448151X0*%
G04 #@! TD*
G04 #@! TA.AperFunction,SMDPad,CuDef*
%ADD20RoundRect,0.250000X-0.450000X0.325000X-0.450000X-0.325000X0.450000X-0.325000X0.450000X0.325000X0*%
G04 #@! TD*
G04 #@! TA.AperFunction,SMDPad,CuDef*
%ADD21RoundRect,0.250000X0.450000X-0.325000X0.450000X0.325000X-0.450000X0.325000X-0.450000X-0.325000X0*%
G04 #@! TD*
G04 #@! TA.AperFunction,SMDPad,CuDef*
%ADD22RoundRect,0.250000X0.327545X-0.448151X0.528406X0.170036X-0.327545X0.448151X-0.528406X-0.170036X0*%
G04 #@! TD*
G04 #@! TA.AperFunction,SMDPad,CuDef*
%ADD23RoundRect,0.250000X-0.327545X0.448151X-0.528406X-0.170036X0.327545X-0.448151X0.528406X0.170036X0*%
G04 #@! TD*
G04 #@! TA.AperFunction,SMDPad,CuDef*
%ADD24RoundRect,0.250000X-0.173027X0.527434X-0.555088X0.001573X0.173027X-0.527434X0.555088X-0.001573X0*%
G04 #@! TD*
G04 #@! TA.AperFunction,SMDPad,CuDef*
%ADD25RoundRect,0.250000X0.173027X-0.527434X0.555088X-0.001573X-0.173027X0.527434X-0.555088X0.001573X0*%
G04 #@! TD*
G04 #@! TA.AperFunction,SMDPad,CuDef*
%ADD26RoundRect,0.250000X0.001573X-0.555088X0.527434X-0.173027X-0.001573X0.555088X-0.527434X0.173027X0*%
G04 #@! TD*
G04 #@! TA.AperFunction,SMDPad,CuDef*
%ADD27RoundRect,0.250000X-0.001573X0.555088X-0.527434X0.173027X0.001573X-0.555088X0.527434X-0.173027X0*%
G04 #@! TD*
G04 #@! TA.AperFunction,SMDPad,CuDef*
%ADD28RoundRect,0.250000X0.170036X0.528406X-0.448151X0.327545X-0.170036X-0.528406X0.448151X-0.327545X0*%
G04 #@! TD*
G04 #@! TA.AperFunction,SMDPad,CuDef*
%ADD29RoundRect,0.250000X-0.170036X-0.528406X0.448151X-0.327545X0.170036X0.528406X-0.448151X0.327545X0*%
G04 #@! TD*
G04 #@! TA.AperFunction,SMDPad,CuDef*
%ADD30R,0.800000X1.300000*%
G04 #@! TD*
G04 #@! TA.AperFunction,SMDPad,CuDef*
%ADD31RoundRect,0.237500X0.287500X0.237500X-0.287500X0.237500X-0.287500X-0.237500X0.287500X-0.237500X0*%
G04 #@! TD*
G04 #@! TA.AperFunction,SMDPad,CuDef*
%ADD32RoundRect,0.237500X-0.346820X-0.137034X0.200037X-0.314718X0.346820X0.137034X-0.200037X0.314718X0*%
G04 #@! TD*
G04 #@! TA.AperFunction,SMDPad,CuDef*
%ADD33RoundRect,0.237500X0.372191X0.023153X-0.092993X0.361130X-0.372191X-0.023153X0.092993X-0.361130X0*%
G04 #@! TD*
G04 #@! TA.AperFunction,SMDPad,CuDef*
%ADD34RoundRect,0.237500X-0.361130X0.092993X-0.023153X-0.372191X0.361130X-0.092993X0.023153X0.372191X0*%
G04 #@! TD*
G04 #@! TA.AperFunction,SMDPad,CuDef*
%ADD35RoundRect,0.237500X0.314718X-0.200037X0.137034X0.346820X-0.314718X0.200037X-0.137034X-0.346820X0*%
G04 #@! TD*
G04 #@! TA.AperFunction,SMDPad,CuDef*
%ADD36RoundRect,0.237500X-0.237500X0.287500X-0.237500X-0.287500X0.237500X-0.287500X0.237500X0.287500X0*%
G04 #@! TD*
G04 #@! TA.AperFunction,SMDPad,CuDef*
%ADD37RoundRect,0.237500X-0.137034X0.346820X-0.314718X-0.200037X0.137034X-0.346820X0.314718X0.200037X0*%
G04 #@! TD*
G04 #@! TA.AperFunction,SMDPad,CuDef*
%ADD38RoundRect,0.237500X0.023153X-0.372191X0.361130X0.092993X-0.023153X0.372191X-0.361130X-0.092993X0*%
G04 #@! TD*
G04 #@! TA.AperFunction,SMDPad,CuDef*
%ADD39RoundRect,0.237500X-0.287500X-0.237500X0.287500X-0.237500X0.287500X0.237500X-0.287500X0.237500X0*%
G04 #@! TD*
G04 #@! TA.AperFunction,SMDPad,CuDef*
%ADD40RoundRect,0.237500X0.346820X0.137034X-0.200037X0.314718X-0.346820X-0.137034X0.200037X-0.314718X0*%
G04 #@! TD*
G04 #@! TA.AperFunction,SMDPad,CuDef*
%ADD41RoundRect,0.237500X-0.372191X-0.023153X0.092993X-0.361130X0.372191X0.023153X-0.092993X0.361130X0*%
G04 #@! TD*
G04 #@! TA.AperFunction,SMDPad,CuDef*
%ADD42RoundRect,0.237500X0.361130X-0.092993X0.023153X0.372191X-0.361130X0.092993X-0.023153X-0.372191X0*%
G04 #@! TD*
G04 #@! TA.AperFunction,SMDPad,CuDef*
%ADD43RoundRect,0.237500X0.092993X0.361130X-0.372191X0.023153X-0.092993X-0.361130X0.372191X-0.023153X0*%
G04 #@! TD*
G04 #@! TA.AperFunction,SMDPad,CuDef*
%ADD44RoundRect,0.237500X-0.200037X-0.314718X0.346820X-0.137034X0.200037X0.314718X-0.346820X0.137034X0*%
G04 #@! TD*
G04 #@! TA.AperFunction,SMDPad,CuDef*
%ADD45RoundRect,0.237500X-0.092993X-0.361130X0.372191X-0.023153X0.092993X0.361130X-0.372191X0.023153X0*%
G04 #@! TD*
G04 #@! TA.AperFunction,SMDPad,CuDef*
%ADD46RoundRect,0.237500X0.200037X0.314718X-0.346820X0.137034X-0.200037X-0.314718X0.346820X-0.137034X0*%
G04 #@! TD*
G04 #@! TA.AperFunction,ViaPad*
%ADD47C,0.800000*%
G04 #@! TD*
G04 #@! TA.AperFunction,Conductor*
%ADD48C,0.300000*%
G04 #@! TD*
G04 APERTURE END LIST*
D10*
X72312580Y-72446860D03*
X70262580Y-72446860D03*
D11*
X70099700Y-109070780D03*
X72149700Y-109070780D03*
D12*
X76040067Y-73102878D03*
X77989733Y-73736362D03*
D13*
X66361253Y-108588162D03*
X64411587Y-107954678D03*
D14*
X82934022Y-76752820D03*
X81275538Y-75547860D03*
D15*
X59351936Y-105071820D03*
X61010420Y-106276780D03*
D16*
X85325620Y-79326338D03*
X86530580Y-80984822D03*
D17*
X56875800Y-102630542D03*
X55670840Y-100972058D03*
D18*
X88722002Y-86338653D03*
X88088518Y-84388987D03*
D19*
X53227438Y-95539387D03*
X53860922Y-97489053D03*
D20*
X89271380Y-90148300D03*
X89271380Y-92198300D03*
D21*
X52587780Y-91741740D03*
X52587780Y-89691740D03*
D22*
X87713878Y-97665173D03*
X88347362Y-95715507D03*
D23*
X53901162Y-83926107D03*
X53267678Y-85875773D03*
D24*
X86345940Y-100852618D03*
X85140980Y-102511102D03*
D25*
X55735020Y-80481102D03*
X56939980Y-78822618D03*
D26*
X81056218Y-106121940D03*
X82714702Y-104916980D03*
D27*
X61412060Y-75004300D03*
X59753576Y-76209260D03*
D28*
X77859900Y-107719580D03*
X75910234Y-108353064D03*
D29*
X64789074Y-73545144D03*
X66738740Y-72911660D03*
D30*
X75260000Y-93967700D03*
X73980000Y-93967700D03*
X72720000Y-93967700D03*
X71450000Y-93967700D03*
X70170000Y-93967700D03*
X68900000Y-93967700D03*
X67640000Y-93967700D03*
X66360000Y-93967700D03*
X66360000Y-100267700D03*
X67640000Y-100267700D03*
X68900000Y-100267700D03*
X70170000Y-100267700D03*
X71450000Y-100267700D03*
X72720000Y-100267700D03*
X73980000Y-100267700D03*
X75260000Y-100267700D03*
X75211740Y-81323580D03*
X73931740Y-81323580D03*
X72671740Y-81323580D03*
X71401740Y-81323580D03*
X70121740Y-81323580D03*
X68851740Y-81323580D03*
X67591740Y-81323580D03*
X66311740Y-81323580D03*
X66311740Y-87623580D03*
X67591740Y-87623580D03*
X68851740Y-87623580D03*
X70121740Y-87623580D03*
X71401740Y-87623580D03*
X72671740Y-87623580D03*
X73931740Y-87623580D03*
X75211740Y-87623580D03*
D31*
X72185260Y-75261340D03*
X70435260Y-75261340D03*
D32*
X75298086Y-75790950D03*
X76962434Y-76331730D03*
D33*
X81128150Y-78925652D03*
X79712370Y-77897028D03*
D34*
X83125948Y-81123450D03*
X84154572Y-82539230D03*
D35*
X85950650Y-87143514D03*
X85409870Y-85479166D03*
D36*
X86400260Y-90306340D03*
X86400260Y-92056340D03*
D37*
X85610650Y-94969166D03*
X85069870Y-96633514D03*
D38*
X82945948Y-100744230D03*
X83974572Y-99328450D03*
D39*
X70295260Y-106271340D03*
X72045260Y-106271340D03*
D40*
X67142434Y-105901730D03*
X65478086Y-105360950D03*
D41*
X61212370Y-102987028D03*
X62628150Y-104015652D03*
D42*
X59064572Y-100899230D03*
X58035948Y-99483450D03*
D35*
X56248180Y-96569060D03*
X55707400Y-94904712D03*
D36*
X55430260Y-89836340D03*
X55430260Y-91586340D03*
D37*
X56490650Y-84969166D03*
X55949870Y-86633514D03*
D38*
X58095948Y-82039230D03*
X59124572Y-80623450D03*
D43*
X62948150Y-77387028D03*
X61532370Y-78415652D03*
D44*
X65768086Y-76181730D03*
X67432434Y-75640950D03*
D45*
X79550890Y-103759852D03*
X80966670Y-102731228D03*
D46*
X76867434Y-105105950D03*
X75203086Y-105646730D03*
D47*
X58922800Y-84049400D03*
X71419600Y-79858400D03*
X67195580Y-84016380D03*
X67177800Y-96851000D03*
X71419600Y-98171800D03*
X64782580Y-84046860D03*
X79232640Y-82169800D03*
X78455400Y-89104000D03*
X73578600Y-89104000D03*
X75204200Y-86208400D03*
X69844800Y-83236600D03*
X82872460Y-92187560D03*
X72334000Y-83236600D03*
X74797800Y-80020960D03*
X61615200Y-76945020D03*
X63113800Y-75642000D03*
X69209800Y-98959200D03*
X66972060Y-77633360D03*
X67177800Y-97867000D03*
X76273540Y-103043520D03*
X66974600Y-79147200D03*
X68884680Y-102261200D03*
X74388860Y-95271120D03*
X68905000Y-105360000D03*
X82180740Y-94244260D03*
X73304280Y-105352380D03*
X64231400Y-97409800D03*
X70175000Y-95250800D03*
X65247400Y-93178160D03*
X62072400Y-97409800D03*
X67177800Y-98883000D03*
X59600000Y-96825000D03*
X78455400Y-91161400D03*
X82882620Y-91171560D03*
X75255000Y-92431400D03*
X56926360Y-89835520D03*
X73578600Y-91212200D03*
X70609340Y-91222360D03*
X62697240Y-90300340D03*
X82885160Y-93198480D03*
X65760480Y-90318120D03*
X73578600Y-92431400D03*
X81706600Y-99982820D03*
X68905000Y-95208307D03*
X68905000Y-92431400D03*
X62692160Y-89284340D03*
X63090940Y-99645000D03*
X63078240Y-97414880D03*
X78145520Y-102271360D03*
X68879600Y-103836000D03*
X71478020Y-102271360D03*
X71467860Y-103846160D03*
X84353280Y-88743320D03*
X70251200Y-98984600D03*
X72537200Y-89104000D03*
X73578600Y-90120000D03*
X72720080Y-95255880D03*
X70378200Y-102261200D03*
X64688600Y-80849000D03*
X75890000Y-80010800D03*
X69844800Y-86208400D03*
X69844800Y-84252600D03*
X84399000Y-77928000D03*
X74150100Y-73162960D03*
X86286220Y-88740780D03*
X78899900Y-105614000D03*
X85691860Y-99142080D03*
X53527840Y-93594720D03*
X55481100Y-82332360D03*
X59324120Y-102804760D03*
X63113800Y-74041800D03*
X68615440Y-107785700D03*
X73959600Y-83338200D03*
X73965325Y-86208400D03*
X68981200Y-78588399D03*
X75178800Y-77521600D03*
X72816600Y-79858400D03*
X75603523Y-74508482D03*
X62682000Y-87630800D03*
X80241769Y-82774662D03*
X72428601Y-86208400D03*
X63088400Y-80645800D03*
X68549400Y-72822600D03*
X79242800Y-81052200D03*
D48*
X64476609Y-84918516D02*
X64782580Y-84612545D01*
X71536520Y-85888280D02*
X72783249Y-84641551D01*
X71450000Y-101379740D02*
X71577080Y-101506820D01*
X71419600Y-79858400D02*
X67376918Y-79858400D01*
X71401740Y-87623580D02*
X71401740Y-86673580D01*
X71419600Y-98171800D02*
X71450000Y-100267700D01*
X66311740Y-81323580D02*
X66311740Y-82223580D01*
X71450000Y-100267700D02*
X71450000Y-101379740D01*
X64476609Y-93554859D02*
X64476609Y-84918516D01*
X71401740Y-85888280D02*
X71401740Y-87623580D01*
X72783249Y-84641551D02*
X75126151Y-84641551D01*
X66311740Y-80923578D02*
X66311740Y-81323580D01*
X77597902Y-82169800D02*
X79232640Y-82169800D01*
X66360000Y-95467515D02*
X66360000Y-94917700D01*
X67195580Y-84016380D02*
X68181801Y-85002601D01*
X66360000Y-94917700D02*
X66360000Y-93967700D01*
X68181801Y-85002601D02*
X70516061Y-85002601D01*
X64476609Y-93554859D02*
X64889450Y-93967700D01*
X71432300Y-87593020D02*
X71401740Y-87623580D01*
X70516061Y-85002601D02*
X71401740Y-85888280D01*
X71577080Y-101506820D02*
X73640880Y-101506820D01*
X67376918Y-79858400D02*
X66311740Y-80923578D01*
X66311740Y-82223580D02*
X67195580Y-83107420D01*
X67177800Y-96285315D02*
X66360000Y-95467515D01*
X67195580Y-83107420D02*
X67195580Y-84016380D01*
X73980000Y-101167700D02*
X73980000Y-100267700D01*
X75126151Y-84641551D02*
X77597902Y-82169800D01*
X64889450Y-93967700D02*
X66360000Y-93967700D01*
X73640880Y-101506820D02*
X73980000Y-101167700D01*
X67177800Y-96851000D02*
X67177800Y-96285315D01*
X64782580Y-84612545D02*
X64782580Y-84046860D01*
X71401740Y-85888280D02*
X71536520Y-85888280D01*
X78455400Y-89104000D02*
X73578600Y-89104000D01*
X75204200Y-86208400D02*
X75211740Y-87623580D01*
X75260000Y-98655480D02*
X81727920Y-92187560D01*
X81727920Y-92187560D02*
X82872460Y-92187560D01*
X69844800Y-83236600D02*
X72334000Y-83236600D01*
X75260000Y-100267700D02*
X75260000Y-98655480D01*
X67859221Y-77838399D02*
X67314259Y-78383361D01*
X64637800Y-76404000D02*
X62156220Y-76404000D01*
X62156220Y-76404000D02*
X61615200Y-76945020D01*
X66612059Y-78383361D02*
X64637800Y-76404000D01*
X72615239Y-77838399D02*
X67859221Y-77838399D01*
X67332061Y-78383361D02*
X66612059Y-78383361D01*
X74797800Y-80020960D02*
X72615239Y-77838399D01*
X70262580Y-75088660D02*
X70435260Y-75261340D01*
X70262580Y-72446860D02*
X70262580Y-75088660D01*
X77989733Y-73736362D02*
X76962434Y-76331730D01*
X81275538Y-75547860D02*
X79712370Y-77897028D01*
X86530580Y-80984822D02*
X84154572Y-82539230D01*
X88088518Y-84388987D02*
X85409870Y-85479166D01*
X86542220Y-92198300D02*
X86400260Y-92056340D01*
X89271380Y-92198300D02*
X86542220Y-92198300D01*
X85069870Y-96633514D02*
X85569314Y-96633514D01*
X87611339Y-95715507D02*
X88347362Y-95715507D01*
X85569314Y-96633514D02*
X86487321Y-95715507D01*
X86487321Y-95715507D02*
X87611339Y-95715507D01*
X85140980Y-102511102D02*
X83974572Y-101344694D01*
X83974572Y-101344694D02*
X83974572Y-99328450D01*
X83965362Y-99337660D02*
X83974572Y-99328450D01*
X80966670Y-102731228D02*
X82714702Y-104916980D01*
X75203086Y-105646730D02*
X75910234Y-108353064D01*
X72045260Y-106271340D02*
X72045260Y-108966340D01*
X72045260Y-108966340D02*
X72149700Y-109070780D01*
X65478086Y-105360950D02*
X64411587Y-107954678D01*
X62628150Y-104015652D02*
X61010420Y-106276780D01*
X58035948Y-99483450D02*
X55670840Y-100972058D01*
X55707400Y-94904712D02*
X53860922Y-97489053D01*
X55522460Y-91494140D02*
X55430260Y-91586340D01*
X52587780Y-89691740D02*
X53535660Y-89691740D01*
X53535660Y-89691740D02*
X55430260Y-91586340D01*
X53267678Y-85875773D02*
X55949870Y-86633514D01*
X56939980Y-78822618D02*
X59124572Y-80623450D01*
X59753576Y-76209260D02*
X61532370Y-78415652D01*
X66738740Y-72911660D02*
X67432434Y-75640950D01*
X68884680Y-100283020D02*
X68900000Y-100267700D01*
X67177800Y-97867000D02*
X67058398Y-97867000D01*
X69209800Y-98959200D02*
X68900000Y-100267700D01*
X67058398Y-97867000D02*
X63976599Y-94785201D01*
X65228356Y-75642000D02*
X63113800Y-75642000D01*
X66972060Y-77633360D02*
X66972060Y-77385704D01*
X63938599Y-82158001D02*
X63938599Y-80488999D01*
X63938599Y-80488999D02*
X65280398Y-79147200D01*
X66408915Y-79147200D02*
X66974600Y-79147200D01*
X63976599Y-94785201D02*
X63976599Y-82196001D01*
X66972060Y-77385704D02*
X65768086Y-76181730D01*
X65768086Y-76181730D02*
X65768086Y-76429386D01*
X65280398Y-79147200D02*
X66408915Y-79147200D01*
X63976599Y-82196001D02*
X63938599Y-82158001D01*
X76273540Y-103043520D02*
X76867434Y-105105950D01*
X68884680Y-102261200D02*
X68884680Y-100283020D01*
X65768086Y-76181730D02*
X65228356Y-75642000D01*
X81180820Y-81105540D02*
X81180820Y-81111393D01*
X82180740Y-94244260D02*
X80378340Y-94244260D01*
X81180820Y-81111393D02*
X82125928Y-82056501D01*
X80378340Y-94244260D02*
X76438640Y-98183960D01*
X82125928Y-87851070D02*
X79580839Y-90396159D01*
X75298086Y-76290394D02*
X76831922Y-77824230D01*
X73301740Y-105271835D02*
X73304280Y-105352380D01*
X75433479Y-90396159D02*
X74328601Y-91501037D01*
X77899510Y-77824230D02*
X77899512Y-77824232D01*
X76438640Y-100769062D02*
X73304280Y-103903422D01*
X74328601Y-93619099D02*
X73980000Y-93967700D01*
X75436041Y-90396159D02*
X75458200Y-90396159D01*
X74388860Y-95271120D02*
X73980000Y-93967700D01*
X73304280Y-103903422D02*
X73304280Y-105352380D01*
X68905000Y-105360000D02*
X67142434Y-105901730D01*
X75298086Y-75790950D02*
X75298086Y-76290394D01*
X82125928Y-82056501D02*
X82125928Y-87851070D01*
X76438640Y-98183960D02*
X76438640Y-100769062D01*
X74328601Y-91501037D02*
X74328601Y-93619099D01*
X77867981Y-90396159D02*
X77459019Y-90396159D01*
X75298086Y-75790950D02*
X75298086Y-75981068D01*
X77459019Y-90396159D02*
X75433479Y-90396159D01*
X79580839Y-90396159D02*
X77459019Y-90396159D01*
X76831922Y-77824230D02*
X77899510Y-77824230D01*
X80628142Y-80552862D02*
X77899510Y-77824230D01*
X81180820Y-81105540D02*
X80628142Y-80552862D01*
X81128150Y-78925652D02*
X81128150Y-80345750D01*
X82024100Y-81247553D02*
X82625938Y-81849391D01*
X80020778Y-90663340D02*
X80020778Y-91066222D01*
X64221240Y-99978158D02*
X61212370Y-102987028D01*
X82024100Y-81241700D02*
X82024100Y-81247553D01*
X82625938Y-81849391D02*
X82625938Y-88058180D01*
X81128150Y-80345750D02*
X82024100Y-81241700D01*
X71335819Y-96411619D02*
X70175000Y-95250800D01*
X64231400Y-97409800D02*
X64221240Y-99978158D01*
X71450000Y-93967700D02*
X71450000Y-94917700D01*
X74675381Y-96411619D02*
X71335819Y-96411619D01*
X80020778Y-91066222D02*
X74675381Y-96411619D01*
X71116900Y-95250800D02*
X70740685Y-95250800D01*
X82625938Y-88058180D02*
X80020778Y-90663340D01*
X71450000Y-94917700D02*
X71116900Y-95250800D01*
X70740685Y-95250800D02*
X70175000Y-95250800D01*
X59064572Y-100899230D02*
X60767370Y-100899230D01*
X74882491Y-96911629D02*
X80520788Y-91273332D01*
X62072400Y-99594200D02*
X62072400Y-97409800D01*
X68399331Y-96218331D02*
X69092629Y-96911629D01*
X60767370Y-100899230D02*
X62072400Y-99594200D01*
X65647399Y-92778161D02*
X65247400Y-93178160D01*
X67640000Y-93967700D02*
X67640000Y-93017700D01*
X80520788Y-91273332D02*
X80520788Y-90870450D01*
X83125948Y-88265290D02*
X83125948Y-81123450D01*
X69092629Y-96911629D02*
X74882491Y-96911629D01*
X68399331Y-96199911D02*
X68399331Y-96218331D01*
X80520788Y-90870450D02*
X83125948Y-88265290D01*
X67640000Y-95440580D02*
X68399331Y-96199911D01*
X67640000Y-93967700D02*
X67640000Y-95440580D01*
X67640000Y-93017700D02*
X67400461Y-92778161D01*
X67400461Y-92778161D02*
X65647399Y-92778161D01*
X67177800Y-98883000D02*
X67443799Y-98617001D01*
X67443799Y-98617001D02*
X67494599Y-98617001D01*
X85950650Y-87143514D02*
X85744726Y-87143514D01*
X68699961Y-97411639D02*
X75089601Y-97411639D01*
X75089601Y-97411639D02*
X81020798Y-91480442D01*
X81020798Y-91077560D02*
X83625958Y-88472400D01*
X59344060Y-96569060D02*
X56248180Y-96569060D01*
X67640000Y-99345200D02*
X67177800Y-98883000D01*
X67640000Y-100267700D02*
X67640000Y-99345200D01*
X81020798Y-91480442D02*
X81020798Y-91077560D01*
X59600000Y-96825000D02*
X59344060Y-96569060D01*
X83625958Y-88011800D02*
X84494244Y-87143514D01*
X83625958Y-88472400D02*
X83625958Y-88011800D01*
X84494244Y-87143514D02*
X85950650Y-87143514D01*
X67494599Y-98617001D02*
X68699961Y-97411639D01*
X75255000Y-92431400D02*
X75260000Y-92528000D01*
X75260000Y-92528000D02*
X75260000Y-93967700D01*
X70619500Y-91212200D02*
X70609340Y-91222360D01*
X75649100Y-93967700D02*
X75260000Y-93967700D01*
X55285660Y-89691740D02*
X55430260Y-89836340D01*
X56925540Y-89836340D02*
X56926360Y-89835520D01*
X82882620Y-91171560D02*
X83747840Y-90306340D01*
X78455400Y-91161400D02*
X75649100Y-93967700D01*
X83747840Y-90306340D02*
X86400260Y-90306340D01*
X55430260Y-89836340D02*
X56925540Y-89836340D01*
X73578600Y-91212200D02*
X70619500Y-91212200D01*
X65760480Y-90318120D02*
X68595098Y-90318120D01*
X57783366Y-84969166D02*
X56490650Y-84969166D01*
X70170000Y-92969778D02*
X70170000Y-93967700D01*
X70708378Y-92431400D02*
X70170000Y-92969778D01*
X68595098Y-90318120D02*
X70708378Y-92431400D01*
X59197860Y-87062845D02*
X59197860Y-86383660D01*
X62697240Y-90300340D02*
X62126475Y-89991460D01*
X83839964Y-93198480D02*
X85610650Y-94969166D01*
X82885160Y-93198480D02*
X83839964Y-93198480D01*
X62126475Y-89991460D02*
X59197860Y-87062845D01*
X59197860Y-86383660D02*
X57783366Y-84969166D01*
X70708378Y-92431400D02*
X73578600Y-92431400D01*
X59697870Y-83641152D02*
X58095948Y-82039230D01*
X63078240Y-99632300D02*
X63090940Y-99645000D01*
X68900000Y-95102394D02*
X68905000Y-95208307D01*
X68905000Y-95208307D02*
X68905000Y-93972700D01*
X68905000Y-92431400D02*
X68905000Y-93962700D01*
X59697870Y-83641152D02*
X59697870Y-86855735D01*
X62126475Y-89284340D02*
X62692160Y-89284340D01*
X81706600Y-99982820D02*
X82945948Y-100744230D01*
X68905000Y-93972700D02*
X68900000Y-93967700D01*
X59697870Y-86855735D02*
X62126475Y-89284340D01*
X63078240Y-97414880D02*
X63078240Y-99632300D01*
X68905000Y-93962700D02*
X68900000Y-93967700D01*
X66324360Y-100303340D02*
X66360000Y-100267700D01*
X65660000Y-100267700D02*
X66360000Y-100267700D01*
X78145520Y-102271360D02*
X78145520Y-102354482D01*
X60197880Y-83950340D02*
X60197880Y-85078100D01*
X62054289Y-82093931D02*
X60197880Y-83950340D01*
X65425200Y-97166822D02*
X65425200Y-100032900D01*
X66360000Y-101882085D02*
X66360000Y-101217700D01*
X63456700Y-88938878D02*
X63456700Y-89510400D01*
X60197880Y-85078100D02*
X60200455Y-85080675D01*
X62948150Y-79378890D02*
X62562620Y-79764420D01*
X63052161Y-88534339D02*
X63456700Y-88938878D01*
X66360000Y-101217700D02*
X66360000Y-100267700D01*
X68879600Y-103836000D02*
X68313915Y-103836000D01*
X62948150Y-77387028D02*
X62948150Y-79378890D01*
X60200455Y-86426875D02*
X60197880Y-86648625D01*
X62054289Y-80279349D02*
X62054289Y-82093931D01*
X63476589Y-90928896D02*
X63476589Y-95218211D01*
X60197880Y-86648625D02*
X62083594Y-88534339D01*
X62562620Y-79764420D02*
X62562620Y-79771018D01*
X78145520Y-102354482D02*
X79550890Y-103759852D01*
X60200455Y-85080675D02*
X60200455Y-86426875D01*
X62083594Y-88534339D02*
X63052161Y-88534339D01*
X63476591Y-90928894D02*
X63476589Y-90928896D01*
X68313915Y-103836000D02*
X66360000Y-101882085D01*
X63456700Y-89510400D02*
X63476591Y-90928894D01*
X71467860Y-103846160D02*
X71478020Y-102271360D01*
X62562620Y-79771018D02*
X62054289Y-80279349D01*
X63476589Y-95218211D02*
X65425200Y-97166822D01*
X65425200Y-100032900D02*
X65660000Y-100267700D01*
X83953281Y-89143319D02*
X83662159Y-89143319D01*
X81520808Y-91687552D02*
X75288020Y-97920340D01*
X73146800Y-97920340D02*
X72720000Y-98347140D01*
X84353280Y-88743320D02*
X83953281Y-89143319D01*
X81520808Y-91284670D02*
X81520808Y-91687552D01*
X83662159Y-89143319D02*
X81520808Y-91284670D01*
X75288020Y-97920340D02*
X73146800Y-97920340D01*
X72720000Y-98347140D02*
X72720000Y-100267700D01*
X70238859Y-100198841D02*
X70170000Y-100267700D01*
X70251200Y-98984600D02*
X70238859Y-100198841D01*
X72671740Y-88029660D02*
X72671740Y-87623580D01*
X72537200Y-89104000D02*
X72671740Y-88029660D01*
X81625918Y-83957362D02*
X81625918Y-82263611D01*
X81625918Y-82263611D02*
X79484867Y-80122560D01*
X81625918Y-83957362D02*
X81625918Y-83639832D01*
X79354891Y-89896149D02*
X79624148Y-89626892D01*
X73578600Y-90120000D02*
X75002518Y-90120000D01*
X72185260Y-75736340D02*
X72185260Y-75261340D01*
X70378200Y-102261200D02*
X70362960Y-106203640D01*
X70362960Y-106203640D02*
X70295260Y-106271340D01*
X75002518Y-90120000D02*
X75226369Y-89896149D01*
X79642986Y-89626892D02*
X81625918Y-87643960D01*
X72737860Y-93985560D02*
X72720000Y-93967700D01*
X81625918Y-87643960D02*
X81625918Y-83957362D01*
X75226369Y-89896149D02*
X79354891Y-89896149D01*
X74773160Y-78324240D02*
X72185260Y-75736340D01*
X79484867Y-80122560D02*
X79484867Y-80116707D01*
X77692400Y-78324240D02*
X74773160Y-78324240D01*
X79624148Y-89626892D02*
X79642986Y-89626892D01*
X79484867Y-80116707D02*
X77692400Y-78324240D01*
X72185260Y-75736340D02*
X73271260Y-76822340D01*
X72720080Y-95255880D02*
X72737860Y-93985560D01*
X65984000Y-86208400D02*
X69844800Y-86208400D01*
X74972381Y-84088201D02*
X76196019Y-82864563D01*
X76196019Y-82864563D02*
X76194800Y-80722000D01*
X70410485Y-84252600D02*
X70574884Y-84088201D01*
X65561739Y-81562119D02*
X65561739Y-85786139D01*
X76194800Y-80722000D02*
X75890000Y-80010800D01*
X64688600Y-80849000D02*
X65561739Y-81562119D01*
X69844800Y-84252600D02*
X70410485Y-84252600D01*
X70574884Y-84088201D02*
X74972381Y-84088201D01*
X65561739Y-85786139D02*
X65984000Y-86208400D01*
X86924465Y-88740780D02*
X86851905Y-88740780D01*
X73434000Y-72446860D02*
X74150100Y-73162960D01*
X83223820Y-76752820D02*
X84399000Y-77928000D01*
X88438860Y-88740780D02*
X89271380Y-89573300D01*
X74210182Y-73102878D02*
X74150100Y-73162960D01*
X86345940Y-100852618D02*
X86345940Y-99796160D01*
X88722002Y-86338653D02*
X88722002Y-86943243D01*
X85325620Y-78854620D02*
X84399000Y-77928000D01*
X85325620Y-79326338D02*
X85325620Y-78854620D01*
X86286220Y-88740780D02*
X88438860Y-88740780D01*
X76040067Y-73102878D02*
X74210182Y-73102878D01*
X77859900Y-107719580D02*
X77859900Y-106654000D01*
X88722002Y-88457638D02*
X88438860Y-88740780D01*
X86345940Y-99796160D02*
X85691860Y-99142080D01*
X81056218Y-106121940D02*
X79407840Y-106121940D01*
X79407840Y-106121940D02*
X78899900Y-105614000D01*
X82934022Y-76752820D02*
X83223820Y-76752820D01*
X72312580Y-72446860D02*
X73434000Y-72446860D01*
X89271380Y-89573300D02*
X89271380Y-90148300D01*
X88722002Y-86338653D02*
X88722002Y-88457638D01*
X77859900Y-106654000D02*
X78899900Y-105614000D01*
X87713878Y-97665173D02*
X87168767Y-97665173D01*
X87168767Y-97665173D02*
X85691860Y-99142080D01*
X61412060Y-75004300D02*
X62151300Y-75004300D01*
X59351936Y-105071820D02*
X59351936Y-102832576D01*
X56875800Y-102630542D02*
X59149902Y-102630542D01*
X70099700Y-109070780D02*
X69900520Y-109070780D01*
X59351936Y-102832576D02*
X59324120Y-102804760D01*
X66361253Y-108588162D02*
X67812978Y-108588162D01*
X55481100Y-82332360D02*
X55481100Y-80735022D01*
X69900520Y-109070780D02*
X68615440Y-107785700D01*
X55481100Y-80735022D02*
X55735020Y-80481102D01*
X63610456Y-73545144D02*
X63113800Y-74041800D01*
X52587780Y-92654660D02*
X53527840Y-93594720D01*
X62151300Y-75004300D02*
X63113800Y-74041800D01*
X64789074Y-73545144D02*
X63610456Y-73545144D01*
X53227438Y-93895122D02*
X53527840Y-93594720D01*
X52587780Y-91741740D02*
X52587780Y-92654660D01*
X59149902Y-102630542D02*
X59324120Y-102804760D01*
X53901162Y-83926107D02*
X53901162Y-83912298D01*
X53901162Y-83912298D02*
X55481100Y-82332360D01*
X67812978Y-108588162D02*
X68615440Y-107785700D01*
X53227438Y-95539387D02*
X53227438Y-93895122D01*
X73965325Y-86208400D02*
X73965325Y-87589995D01*
X73559601Y-82938201D02*
X73959600Y-83338200D01*
X73107999Y-82486599D02*
X73559601Y-82938201D01*
X71401740Y-81323580D02*
X71401740Y-82273580D01*
X71401740Y-82273580D02*
X71614759Y-82486599D01*
X73965325Y-87589995D02*
X73931740Y-87623580D01*
X71614759Y-82486599D02*
X73107999Y-82486599D01*
X72658119Y-78588399D02*
X68981200Y-78588399D01*
X73931740Y-81323580D02*
X73931740Y-79862020D01*
X73931740Y-81323580D02*
X73931740Y-80965920D01*
X73931740Y-79862020D02*
X72658119Y-78588399D01*
X75603523Y-74508482D02*
X74324682Y-74508482D01*
X73985000Y-76327800D02*
X75178800Y-77521600D01*
X72671740Y-80003260D02*
X72816600Y-79858400D01*
X74324682Y-74508482D02*
X73985000Y-74848164D01*
X73985000Y-74848164D02*
X73985000Y-76327800D01*
X72671740Y-81323580D02*
X72671740Y-80003260D01*
X75333261Y-85141561D02*
X77555021Y-82919801D01*
X78842801Y-80652201D02*
X79242800Y-81052200D01*
X69904404Y-76086350D02*
X68549400Y-74731346D01*
X80096630Y-82919801D02*
X80241769Y-82774662D01*
X79242800Y-81052200D02*
X80241769Y-82051169D01*
X74453360Y-78969400D02*
X71570310Y-76086350D01*
X75333261Y-85141561D02*
X73495440Y-85141561D01*
X61887175Y-87630800D02*
X60700465Y-86444090D01*
X62682000Y-87630800D02*
X61887175Y-87630800D01*
X71570310Y-76086350D02*
X69904404Y-76086350D01*
X74537454Y-78969400D02*
X74453360Y-78969400D01*
X68549400Y-74731346D02*
X68549400Y-72822600D01*
X77555021Y-82919801D02*
X80096630Y-82919801D01*
X60700465Y-84873565D02*
X63088400Y-82485630D01*
X77160000Y-78969400D02*
X78842801Y-80652201D01*
X63088400Y-82485630D02*
X63088400Y-80645800D01*
X60700465Y-86444090D02*
X60700465Y-84873565D01*
X74537454Y-78969400D02*
X77160000Y-78969400D01*
X79242800Y-81052200D02*
X79642799Y-81452199D01*
X80241769Y-82051169D02*
X80241769Y-82774662D01*
X73495440Y-85141561D02*
X72428601Y-86208400D01*
M02*
