G04 #@! TF.GenerationSoftware,KiCad,Pcbnew,9.0.1*
G04 #@! TF.CreationDate,2025-04-09T17:44:43+02:00*
G04 #@! TF.ProjectId,SMDChaser0805-0603,534d4443-6861-4736-9572-303830352d30,rev?*
G04 #@! TF.SameCoordinates,Original*
G04 #@! TF.FileFunction,Paste,Top*
G04 #@! TF.FilePolarity,Positive*
%FSLAX46Y46*%
G04 Gerber Fmt 4.6, Leading zero omitted, Abs format (unit mm)*
G04 Created by KiCad (PCBNEW 9.0.1) date 2025-04-09 17:44:43*
%MOMM*%
%LPD*%
G01*
G04 APERTURE LIST*
G04 Aperture macros list*
%AMRoundRect*
0 Rectangle with rounded corners*
0 $1 Rounding radius*
0 $2 $3 $4 $5 $6 $7 $8 $9 X,Y pos of 4 corners*
0 Add a 4 corners polygon primitive as box body*
4,1,4,$2,$3,$4,$5,$6,$7,$8,$9,$2,$3,0*
0 Add four circle primitives for the rounded corners*
1,1,$1+$1,$2,$3*
1,1,$1+$1,$4,$5*
1,1,$1+$1,$6,$7*
1,1,$1+$1,$8,$9*
0 Add four rect primitives between the rounded corners*
20,1,$1+$1,$2,$3,$4,$5,0*
20,1,$1+$1,$4,$5,$6,$7,0*
20,1,$1+$1,$6,$7,$8,$9,0*
20,1,$1+$1,$8,$9,$2,$3,0*%
G04 Aperture macros list end*
%ADD10RoundRect,0.250000X0.325000X0.450000X-0.325000X0.450000X-0.325000X-0.450000X0.325000X-0.450000X0*%
%ADD11RoundRect,0.250000X-0.325000X-0.450000X0.325000X-0.450000X0.325000X0.450000X-0.325000X0.450000X0*%
%ADD12RoundRect,0.250000X-0.448151X-0.327545X0.170036X-0.528406X0.448151X0.327545X-0.170036X0.528406X0*%
%ADD13RoundRect,0.250000X0.448151X0.327545X-0.170036X0.528406X-0.448151X-0.327545X0.170036X-0.528406X0*%
%ADD14RoundRect,0.250000X0.527434X0.173027X0.001573X0.555088X-0.527434X-0.173027X-0.001573X-0.555088X0*%
%ADD15RoundRect,0.250000X-0.527434X-0.173027X-0.001573X-0.555088X0.527434X0.173027X0.001573X0.555088X0*%
%ADD16RoundRect,0.250000X-0.555088X-0.001573X-0.173027X-0.527434X0.555088X0.001573X0.173027X0.527434X0*%
%ADD17RoundRect,0.250000X0.555088X0.001573X0.173027X0.527434X-0.555088X-0.001573X-0.173027X-0.527434X0*%
%ADD18RoundRect,0.250000X0.528406X-0.170036X0.327545X0.448151X-0.528406X0.170036X-0.327545X-0.448151X0*%
%ADD19RoundRect,0.250000X-0.528406X0.170036X-0.327545X-0.448151X0.528406X-0.170036X0.327545X0.448151X0*%
%ADD20RoundRect,0.250000X-0.450000X0.325000X-0.450000X-0.325000X0.450000X-0.325000X0.450000X0.325000X0*%
%ADD21RoundRect,0.250000X0.450000X-0.325000X0.450000X0.325000X-0.450000X0.325000X-0.450000X-0.325000X0*%
%ADD22RoundRect,0.250000X0.327545X-0.448151X0.528406X0.170036X-0.327545X0.448151X-0.528406X-0.170036X0*%
%ADD23RoundRect,0.250000X-0.327545X0.448151X-0.528406X-0.170036X0.327545X-0.448151X0.528406X0.170036X0*%
%ADD24RoundRect,0.250000X-0.173027X0.527434X-0.555088X0.001573X0.173027X-0.527434X0.555088X-0.001573X0*%
%ADD25RoundRect,0.250000X0.173027X-0.527434X0.555088X-0.001573X-0.173027X0.527434X-0.555088X0.001573X0*%
%ADD26RoundRect,0.250000X0.001573X-0.555088X0.527434X-0.173027X-0.001573X0.555088X-0.527434X0.173027X0*%
%ADD27RoundRect,0.250000X-0.001573X0.555088X-0.527434X0.173027X0.001573X-0.555088X0.527434X-0.173027X0*%
%ADD28RoundRect,0.250000X0.170036X0.528406X-0.448151X0.327545X-0.170036X-0.528406X0.448151X-0.327545X0*%
%ADD29RoundRect,0.250000X-0.170036X-0.528406X0.448151X-0.327545X0.170036X0.528406X-0.448151X0.327545X0*%
%ADD30R,0.800000X1.300000*%
%ADD31RoundRect,0.237500X0.287500X0.237500X-0.287500X0.237500X-0.287500X-0.237500X0.287500X-0.237500X0*%
%ADD32RoundRect,0.237500X-0.346820X-0.137034X0.200037X-0.314718X0.346820X0.137034X-0.200037X0.314718X0*%
%ADD33RoundRect,0.237500X0.372191X0.023153X-0.092993X0.361130X-0.372191X-0.023153X0.092993X-0.361130X0*%
%ADD34RoundRect,0.237500X-0.361130X0.092993X-0.023153X-0.372191X0.361130X-0.092993X0.023153X0.372191X0*%
%ADD35RoundRect,0.237500X0.314718X-0.200037X0.137034X0.346820X-0.314718X0.200037X-0.137034X-0.346820X0*%
%ADD36RoundRect,0.237500X-0.237500X0.287500X-0.237500X-0.287500X0.237500X-0.287500X0.237500X0.287500X0*%
%ADD37RoundRect,0.237500X-0.137034X0.346820X-0.314718X-0.200037X0.137034X-0.346820X0.314718X0.200037X0*%
%ADD38RoundRect,0.237500X0.023153X-0.372191X0.361130X0.092993X-0.023153X0.372191X-0.361130X-0.092993X0*%
%ADD39RoundRect,0.237500X-0.287500X-0.237500X0.287500X-0.237500X0.287500X0.237500X-0.287500X0.237500X0*%
%ADD40RoundRect,0.237500X0.346820X0.137034X-0.200037X0.314718X-0.346820X-0.137034X0.200037X-0.314718X0*%
%ADD41RoundRect,0.237500X-0.372191X-0.023153X0.092993X-0.361130X0.372191X0.023153X-0.092993X0.361130X0*%
%ADD42RoundRect,0.237500X0.361130X-0.092993X0.023153X0.372191X-0.361130X0.092993X-0.023153X-0.372191X0*%
%ADD43RoundRect,0.237500X0.092993X0.361130X-0.372191X0.023153X-0.092993X-0.361130X0.372191X-0.023153X0*%
%ADD44RoundRect,0.237500X-0.200037X-0.314718X0.346820X-0.137034X0.200037X0.314718X-0.346820X0.137034X0*%
%ADD45RoundRect,0.237500X-0.092993X-0.361130X0.372191X-0.023153X0.092993X0.361130X-0.372191X0.023153X0*%
%ADD46RoundRect,0.237500X0.200037X0.314718X-0.346820X0.137034X-0.200037X-0.314718X0.346820X-0.137034X0*%
G04 APERTURE END LIST*
D10*
X72312580Y-72446860D03*
X70262580Y-72446860D03*
D11*
X70099700Y-109070780D03*
X72149700Y-109070780D03*
D12*
X76040067Y-73102878D03*
X77989733Y-73736362D03*
D13*
X66361253Y-108588162D03*
X64411587Y-107954678D03*
D14*
X82934022Y-76752820D03*
X81275538Y-75547860D03*
D15*
X59351936Y-105071820D03*
X61010420Y-106276780D03*
D16*
X85325620Y-79326338D03*
X86530580Y-80984822D03*
D17*
X56875800Y-102630542D03*
X55670840Y-100972058D03*
D18*
X88722002Y-86338653D03*
X88088518Y-84388987D03*
D19*
X53227438Y-95539387D03*
X53860922Y-97489053D03*
D20*
X89271380Y-90148300D03*
X89271380Y-92198300D03*
D21*
X52587780Y-91741740D03*
X52587780Y-89691740D03*
D22*
X87713878Y-97665173D03*
X88347362Y-95715507D03*
D23*
X53901162Y-83926107D03*
X53267678Y-85875773D03*
D24*
X86345940Y-100852618D03*
X85140980Y-102511102D03*
D25*
X55735020Y-80481102D03*
X56939980Y-78822618D03*
D26*
X81056218Y-106121940D03*
X82714702Y-104916980D03*
D27*
X61412060Y-75004300D03*
X59753576Y-76209260D03*
D28*
X77859900Y-107719580D03*
X75910234Y-108353064D03*
D29*
X64789074Y-73545144D03*
X66738740Y-72911660D03*
D30*
X75260000Y-93967700D03*
X73980000Y-93967700D03*
X72720000Y-93967700D03*
X71450000Y-93967700D03*
X70170000Y-93967700D03*
X68900000Y-93967700D03*
X67640000Y-93967700D03*
X66360000Y-93967700D03*
X66360000Y-100267700D03*
X67640000Y-100267700D03*
X68900000Y-100267700D03*
X70170000Y-100267700D03*
X71450000Y-100267700D03*
X72720000Y-100267700D03*
X73980000Y-100267700D03*
X75260000Y-100267700D03*
X75211740Y-81323580D03*
X73931740Y-81323580D03*
X72671740Y-81323580D03*
X71401740Y-81323580D03*
X70121740Y-81323580D03*
X68851740Y-81323580D03*
X67591740Y-81323580D03*
X66311740Y-81323580D03*
X66311740Y-87623580D03*
X67591740Y-87623580D03*
X68851740Y-87623580D03*
X70121740Y-87623580D03*
X71401740Y-87623580D03*
X72671740Y-87623580D03*
X73931740Y-87623580D03*
X75211740Y-87623580D03*
D31*
X72185260Y-75261340D03*
X70435260Y-75261340D03*
D32*
X75298086Y-75790950D03*
X76962434Y-76331730D03*
D33*
X81128150Y-78925652D03*
X79712370Y-77897028D03*
D34*
X83125948Y-81123450D03*
X84154572Y-82539230D03*
D35*
X85950650Y-87143514D03*
X85409870Y-85479166D03*
D36*
X86400260Y-90306340D03*
X86400260Y-92056340D03*
D37*
X85610650Y-94969166D03*
X85069870Y-96633514D03*
D38*
X82945948Y-100744230D03*
X83974572Y-99328450D03*
D39*
X70295260Y-106271340D03*
X72045260Y-106271340D03*
D40*
X67142434Y-105901730D03*
X65478086Y-105360950D03*
D41*
X61212370Y-102987028D03*
X62628150Y-104015652D03*
D42*
X59064572Y-100899230D03*
X58035948Y-99483450D03*
D35*
X56248180Y-96569060D03*
X55707400Y-94904712D03*
D36*
X55430260Y-89836340D03*
X55430260Y-91586340D03*
D37*
X56490650Y-84969166D03*
X55949870Y-86633514D03*
D38*
X58095948Y-82039230D03*
X59124572Y-80623450D03*
D43*
X62948150Y-77387028D03*
X61532370Y-78415652D03*
D44*
X65768086Y-76181730D03*
X67432434Y-75640950D03*
D45*
X79550890Y-103759852D03*
X80966670Y-102731228D03*
D46*
X76867434Y-105105950D03*
X75203086Y-105646730D03*
M02*
