G04 #@! TF.GenerationSoftware,KiCad,Pcbnew,9.0.1*
G04 #@! TF.CreationDate,2025-04-09T17:44:43+02:00*
G04 #@! TF.ProjectId,SMDChaser0805-0603,534d4443-6861-4736-9572-303830352d30,rev?*
G04 #@! TF.SameCoordinates,Original*
G04 #@! TF.FileFunction,Soldermask,Bot*
G04 #@! TF.FilePolarity,Negative*
%FSLAX46Y46*%
G04 Gerber Fmt 4.6, Leading zero omitted, Abs format (unit mm)*
G04 Created by KiCad (PCBNEW 9.0.1) date 2025-04-09 17:44:43*
%MOMM*%
%LPD*%
G01*
G04 APERTURE LIST*
G04 APERTURE END LIST*
G36*
X58684597Y-94338402D02*
G01*
X58701142Y-94349458D01*
X58712198Y-94366003D01*
X58716080Y-94385520D01*
X58716080Y-97985520D01*
X58712198Y-98005037D01*
X58701142Y-98021582D01*
X58684597Y-98032638D01*
X58665080Y-98036520D01*
X53665080Y-98036520D01*
X53645563Y-98032638D01*
X53629018Y-98021582D01*
X53617962Y-98005037D01*
X53614080Y-97985520D01*
X53614080Y-94385520D01*
X53617962Y-94366003D01*
X53629018Y-94349458D01*
X53645563Y-94338402D01*
X53665080Y-94334520D01*
X58665080Y-94334520D01*
X58684597Y-94338402D01*
G37*
G36*
X87984597Y-94338402D02*
G01*
X88001142Y-94349458D01*
X88012198Y-94366003D01*
X88016080Y-94385520D01*
X88016080Y-97985520D01*
X88012198Y-98005037D01*
X88001142Y-98021582D01*
X87984597Y-98032638D01*
X87965080Y-98036520D01*
X82965080Y-98036520D01*
X82945563Y-98032638D01*
X82929018Y-98021582D01*
X82917962Y-98005037D01*
X82914080Y-97985520D01*
X82914080Y-94385520D01*
X82917962Y-94366003D01*
X82929018Y-94349458D01*
X82945563Y-94338402D01*
X82965080Y-94334520D01*
X87965080Y-94334520D01*
X87984597Y-94338402D01*
G37*
G36*
X62377224Y-94660268D02*
G01*
X62381635Y-94660585D01*
X62389973Y-94665944D01*
X62427282Y-94703249D01*
X62435789Y-94718827D01*
X62436456Y-94719494D01*
X62436168Y-94719781D01*
X62435854Y-94724186D01*
X62430493Y-94732529D01*
X62393180Y-94769852D01*
X62377607Y-94778356D01*
X62376938Y-94779027D01*
X62376649Y-94778738D01*
X62372251Y-94778425D01*
X62363899Y-94773058D01*
X62326577Y-94735736D01*
X62318071Y-94720160D01*
X62317405Y-94719494D01*
X62317691Y-94719207D01*
X62318006Y-94714809D01*
X62323377Y-94706453D01*
X62360692Y-94669151D01*
X62376272Y-94660647D01*
X62376938Y-94659982D01*
X62377224Y-94660268D01*
G37*
G36*
X59518354Y-81441335D02*
G01*
X59534166Y-81448316D01*
X59541971Y-81449553D01*
X59574479Y-81466116D01*
X59619546Y-81486016D01*
X59697764Y-81564234D01*
X59717666Y-81609307D01*
X59734226Y-81641808D01*
X59735461Y-81649610D01*
X59742445Y-81665426D01*
X59750440Y-81734340D01*
X59750440Y-82634340D01*
X59742445Y-82703254D01*
X59735461Y-82719069D01*
X59734226Y-82726871D01*
X59717669Y-82759364D01*
X59697764Y-82804446D01*
X59619546Y-82882664D01*
X59574464Y-82902569D01*
X59541971Y-82919126D01*
X59534169Y-82920361D01*
X59518354Y-82927345D01*
X59449440Y-82935340D01*
X58799440Y-82935340D01*
X58730526Y-82927345D01*
X58714710Y-82920361D01*
X58706908Y-82919126D01*
X58674407Y-82902566D01*
X58629334Y-82882664D01*
X58551116Y-82804446D01*
X58531216Y-82759379D01*
X58514653Y-82726871D01*
X58513416Y-82719066D01*
X58506435Y-82703254D01*
X58498440Y-82634340D01*
X58498440Y-81734340D01*
X58506435Y-81665426D01*
X58513416Y-81649614D01*
X58514653Y-81641808D01*
X58531220Y-81609293D01*
X58551116Y-81564234D01*
X58629334Y-81486016D01*
X58674393Y-81466120D01*
X58706908Y-81449553D01*
X58714714Y-81448316D01*
X58730526Y-81441335D01*
X58799440Y-81433340D01*
X59449440Y-81433340D01*
X59518354Y-81441335D01*
G37*
G36*
X61568354Y-81441335D02*
G01*
X61584166Y-81448316D01*
X61591971Y-81449553D01*
X61624479Y-81466116D01*
X61669546Y-81486016D01*
X61747764Y-81564234D01*
X61767666Y-81609307D01*
X61784226Y-81641808D01*
X61785461Y-81649610D01*
X61792445Y-81665426D01*
X61800440Y-81734340D01*
X61800440Y-82634340D01*
X61792445Y-82703254D01*
X61785461Y-82719069D01*
X61784226Y-82726871D01*
X61767669Y-82759364D01*
X61747764Y-82804446D01*
X61669546Y-82882664D01*
X61624464Y-82902569D01*
X61591971Y-82919126D01*
X61584169Y-82920361D01*
X61568354Y-82927345D01*
X61499440Y-82935340D01*
X60849440Y-82935340D01*
X60780526Y-82927345D01*
X60764710Y-82920361D01*
X60756908Y-82919126D01*
X60724407Y-82902566D01*
X60679334Y-82882664D01*
X60601116Y-82804446D01*
X60581216Y-82759379D01*
X60564653Y-82726871D01*
X60563416Y-82719066D01*
X60556435Y-82703254D01*
X60548440Y-82634340D01*
X60548440Y-81734340D01*
X60556435Y-81665426D01*
X60563416Y-81649614D01*
X60564653Y-81641808D01*
X60581220Y-81609293D01*
X60601116Y-81564234D01*
X60679334Y-81486016D01*
X60724393Y-81466120D01*
X60756908Y-81449553D01*
X60764714Y-81448316D01*
X60780526Y-81441335D01*
X60849440Y-81433340D01*
X61499440Y-81433340D01*
X61568354Y-81441335D01*
G37*
G36*
X64105354Y-81441335D02*
G01*
X64121166Y-81448316D01*
X64128971Y-81449553D01*
X64161479Y-81466116D01*
X64206546Y-81486016D01*
X64284764Y-81564234D01*
X64304666Y-81609307D01*
X64321226Y-81641808D01*
X64322461Y-81649610D01*
X64329445Y-81665426D01*
X64337440Y-81734340D01*
X64337440Y-82634340D01*
X64329445Y-82703254D01*
X64322461Y-82719069D01*
X64321226Y-82726871D01*
X64304669Y-82759364D01*
X64284764Y-82804446D01*
X64206546Y-82882664D01*
X64161464Y-82902569D01*
X64128971Y-82919126D01*
X64121169Y-82920361D01*
X64105354Y-82927345D01*
X64036440Y-82935340D01*
X63386440Y-82935340D01*
X63317526Y-82927345D01*
X63301710Y-82920361D01*
X63293908Y-82919126D01*
X63261407Y-82902566D01*
X63216334Y-82882664D01*
X63138116Y-82804446D01*
X63118216Y-82759379D01*
X63101653Y-82726871D01*
X63100416Y-82719066D01*
X63093435Y-82703254D01*
X63085440Y-82634340D01*
X63085440Y-81734340D01*
X63093435Y-81665426D01*
X63100416Y-81649614D01*
X63101653Y-81641808D01*
X63118220Y-81609293D01*
X63138116Y-81564234D01*
X63216334Y-81486016D01*
X63261393Y-81466120D01*
X63293908Y-81449553D01*
X63301714Y-81448316D01*
X63317526Y-81441335D01*
X63386440Y-81433340D01*
X64036440Y-81433340D01*
X64105354Y-81441335D01*
G37*
G36*
X66155354Y-81441335D02*
G01*
X66171166Y-81448316D01*
X66178971Y-81449553D01*
X66211479Y-81466116D01*
X66256546Y-81486016D01*
X66334764Y-81564234D01*
X66354666Y-81609307D01*
X66371226Y-81641808D01*
X66372461Y-81649610D01*
X66379445Y-81665426D01*
X66387440Y-81734340D01*
X66387440Y-82634340D01*
X66379445Y-82703254D01*
X66372461Y-82719069D01*
X66371226Y-82726871D01*
X66354669Y-82759364D01*
X66334764Y-82804446D01*
X66256546Y-82882664D01*
X66211464Y-82902569D01*
X66178971Y-82919126D01*
X66171169Y-82920361D01*
X66155354Y-82927345D01*
X66086440Y-82935340D01*
X65436440Y-82935340D01*
X65367526Y-82927345D01*
X65351710Y-82920361D01*
X65343908Y-82919126D01*
X65311407Y-82902566D01*
X65266334Y-82882664D01*
X65188116Y-82804446D01*
X65168216Y-82759379D01*
X65151653Y-82726871D01*
X65150416Y-82719066D01*
X65143435Y-82703254D01*
X65135440Y-82634340D01*
X65135440Y-81734340D01*
X65143435Y-81665426D01*
X65150416Y-81649614D01*
X65151653Y-81641808D01*
X65168220Y-81609293D01*
X65188116Y-81564234D01*
X65266334Y-81486016D01*
X65311393Y-81466120D01*
X65343908Y-81449553D01*
X65351714Y-81448316D01*
X65367526Y-81441335D01*
X65436440Y-81433340D01*
X66086440Y-81433340D01*
X66155354Y-81441335D01*
G37*
G36*
X69329777Y-80714222D02*
G01*
X69346322Y-80725278D01*
X69357378Y-80741823D01*
X69361260Y-80761340D01*
X69361260Y-82711340D01*
X69357378Y-82730857D01*
X69346322Y-82747402D01*
X69329777Y-82758458D01*
X69310260Y-82762340D01*
X68210260Y-82762340D01*
X68190743Y-82758458D01*
X68174198Y-82747402D01*
X68163142Y-82730857D01*
X68159260Y-82711340D01*
X68159260Y-80761340D01*
X68163142Y-80741823D01*
X68174198Y-80725278D01*
X68190743Y-80714222D01*
X68210260Y-80710340D01*
X69310260Y-80710340D01*
X69329777Y-80714222D01*
G37*
G36*
X71829777Y-80714222D02*
G01*
X71846322Y-80725278D01*
X71857378Y-80741823D01*
X71861260Y-80761340D01*
X71861260Y-82711340D01*
X71857378Y-82730857D01*
X71846322Y-82747402D01*
X71829777Y-82758458D01*
X71810260Y-82762340D01*
X70710260Y-82762340D01*
X70690743Y-82758458D01*
X70674198Y-82747402D01*
X70663142Y-82730857D01*
X70659260Y-82711340D01*
X70659260Y-80761340D01*
X70663142Y-80741823D01*
X70674198Y-80725278D01*
X70690743Y-80714222D01*
X70710260Y-80710340D01*
X71810260Y-80710340D01*
X71829777Y-80714222D01*
G37*
G36*
X74329777Y-80714222D02*
G01*
X74346322Y-80725278D01*
X74357378Y-80741823D01*
X74361260Y-80761340D01*
X74361260Y-82711340D01*
X74357378Y-82730857D01*
X74346322Y-82747402D01*
X74329777Y-82758458D01*
X74310260Y-82762340D01*
X73210260Y-82762340D01*
X73190743Y-82758458D01*
X73174198Y-82747402D01*
X73163142Y-82730857D01*
X73159260Y-82711340D01*
X73159260Y-80761340D01*
X73163142Y-80741823D01*
X73174198Y-80725278D01*
X73190743Y-80714222D01*
X73210260Y-80710340D01*
X74310260Y-80710340D01*
X74329777Y-80714222D01*
G37*
G36*
X78452480Y-81749530D02*
G01*
X78485427Y-81753868D01*
X78493714Y-81757732D01*
X78513359Y-81761640D01*
X78539378Y-81779026D01*
X78550620Y-81784268D01*
X78557459Y-81791107D01*
X78578568Y-81805212D01*
X78592672Y-81826320D01*
X78599511Y-81833159D01*
X78604752Y-81844398D01*
X78622140Y-81870421D01*
X78626047Y-81890067D01*
X78629911Y-81898352D01*
X78634246Y-81931286D01*
X78637440Y-81947340D01*
X78637440Y-82247340D01*
X78634246Y-82263394D01*
X78629911Y-82296327D01*
X78626048Y-82304610D01*
X78622140Y-82324259D01*
X78604750Y-82350283D01*
X78599511Y-82361520D01*
X78592674Y-82368356D01*
X78578568Y-82389468D01*
X78557456Y-82403574D01*
X78550620Y-82410411D01*
X78539383Y-82415650D01*
X78513359Y-82433040D01*
X78493710Y-82436948D01*
X78485427Y-82440811D01*
X78452494Y-82445146D01*
X78436440Y-82448340D01*
X76786440Y-82448340D01*
X76770386Y-82445146D01*
X76737452Y-82440811D01*
X76729167Y-82436947D01*
X76709521Y-82433040D01*
X76683498Y-82415652D01*
X76672259Y-82410411D01*
X76665420Y-82403572D01*
X76644312Y-82389468D01*
X76630207Y-82368359D01*
X76623368Y-82361520D01*
X76618126Y-82350278D01*
X76600740Y-82324259D01*
X76596832Y-82304614D01*
X76592968Y-82296327D01*
X76588630Y-82263380D01*
X76585440Y-82247340D01*
X76585440Y-81947340D01*
X76588630Y-81931301D01*
X76592968Y-81898352D01*
X76596832Y-81890063D01*
X76600740Y-81870421D01*
X76618124Y-81844403D01*
X76623368Y-81833159D01*
X76630209Y-81826317D01*
X76644312Y-81805212D01*
X76665417Y-81791109D01*
X76672259Y-81784268D01*
X76683503Y-81779024D01*
X76709521Y-81761640D01*
X76729163Y-81757732D01*
X76737452Y-81753868D01*
X76770401Y-81749530D01*
X76786440Y-81746340D01*
X78436440Y-81746340D01*
X78452480Y-81749530D01*
G37*
G36*
X83402480Y-81749530D02*
G01*
X83435427Y-81753868D01*
X83443714Y-81757732D01*
X83463359Y-81761640D01*
X83489378Y-81779026D01*
X83500620Y-81784268D01*
X83507459Y-81791107D01*
X83528568Y-81805212D01*
X83542672Y-81826320D01*
X83549511Y-81833159D01*
X83554752Y-81844398D01*
X83572140Y-81870421D01*
X83576047Y-81890067D01*
X83579911Y-81898352D01*
X83584246Y-81931286D01*
X83587440Y-81947340D01*
X83587440Y-82247340D01*
X83584246Y-82263394D01*
X83579911Y-82296327D01*
X83576048Y-82304610D01*
X83572140Y-82324259D01*
X83554750Y-82350283D01*
X83549511Y-82361520D01*
X83542674Y-82368356D01*
X83528568Y-82389468D01*
X83507456Y-82403574D01*
X83500620Y-82410411D01*
X83489383Y-82415650D01*
X83463359Y-82433040D01*
X83443710Y-82436948D01*
X83435427Y-82440811D01*
X83402494Y-82445146D01*
X83386440Y-82448340D01*
X81736440Y-82448340D01*
X81720386Y-82445146D01*
X81687452Y-82440811D01*
X81679167Y-82436947D01*
X81659521Y-82433040D01*
X81633498Y-82415652D01*
X81622259Y-82410411D01*
X81615420Y-82403572D01*
X81594312Y-82389468D01*
X81580207Y-82368359D01*
X81573368Y-82361520D01*
X81568126Y-82350278D01*
X81550740Y-82324259D01*
X81546832Y-82304614D01*
X81542968Y-82296327D01*
X81538630Y-82263380D01*
X81535440Y-82247340D01*
X81535440Y-81947340D01*
X81538630Y-81931301D01*
X81542968Y-81898352D01*
X81546832Y-81890063D01*
X81550740Y-81870421D01*
X81568124Y-81844403D01*
X81573368Y-81833159D01*
X81580209Y-81826317D01*
X81594312Y-81805212D01*
X81615417Y-81791109D01*
X81622259Y-81784268D01*
X81633503Y-81779024D01*
X81659521Y-81761640D01*
X81679163Y-81757732D01*
X81687452Y-81753868D01*
X81720401Y-81749530D01*
X81736440Y-81746340D01*
X83386440Y-81746340D01*
X83402480Y-81749530D01*
G37*
G36*
X78452480Y-80479530D02*
G01*
X78485427Y-80483868D01*
X78493714Y-80487732D01*
X78513359Y-80491640D01*
X78539378Y-80509026D01*
X78550620Y-80514268D01*
X78557459Y-80521107D01*
X78578568Y-80535212D01*
X78592672Y-80556320D01*
X78599511Y-80563159D01*
X78604752Y-80574398D01*
X78622140Y-80600421D01*
X78626047Y-80620067D01*
X78629911Y-80628352D01*
X78634246Y-80661286D01*
X78637440Y-80677340D01*
X78637440Y-80977340D01*
X78634246Y-80993394D01*
X78629911Y-81026327D01*
X78626048Y-81034610D01*
X78622140Y-81054259D01*
X78604750Y-81080283D01*
X78599511Y-81091520D01*
X78592674Y-81098356D01*
X78578568Y-81119468D01*
X78557456Y-81133574D01*
X78550620Y-81140411D01*
X78539383Y-81145650D01*
X78513359Y-81163040D01*
X78493710Y-81166948D01*
X78485427Y-81170811D01*
X78452494Y-81175146D01*
X78436440Y-81178340D01*
X76786440Y-81178340D01*
X76770386Y-81175146D01*
X76737452Y-81170811D01*
X76729167Y-81166947D01*
X76709521Y-81163040D01*
X76683498Y-81145652D01*
X76672259Y-81140411D01*
X76665420Y-81133572D01*
X76644312Y-81119468D01*
X76630207Y-81098359D01*
X76623368Y-81091520D01*
X76618126Y-81080278D01*
X76600740Y-81054259D01*
X76596832Y-81034614D01*
X76592968Y-81026327D01*
X76588630Y-80993380D01*
X76585440Y-80977340D01*
X76585440Y-80677340D01*
X76588630Y-80661301D01*
X76592968Y-80628352D01*
X76596832Y-80620063D01*
X76600740Y-80600421D01*
X76618124Y-80574403D01*
X76623368Y-80563159D01*
X76630209Y-80556317D01*
X76644312Y-80535212D01*
X76665417Y-80521109D01*
X76672259Y-80514268D01*
X76683503Y-80509024D01*
X76709521Y-80491640D01*
X76729163Y-80487732D01*
X76737452Y-80483868D01*
X76770401Y-80479530D01*
X76786440Y-80476340D01*
X78436440Y-80476340D01*
X78452480Y-80479530D01*
G37*
G36*
X83402480Y-80479530D02*
G01*
X83435427Y-80483868D01*
X83443714Y-80487732D01*
X83463359Y-80491640D01*
X83489378Y-80509026D01*
X83500620Y-80514268D01*
X83507459Y-80521107D01*
X83528568Y-80535212D01*
X83542672Y-80556320D01*
X83549511Y-80563159D01*
X83554752Y-80574398D01*
X83572140Y-80600421D01*
X83576047Y-80620067D01*
X83579911Y-80628352D01*
X83584246Y-80661286D01*
X83587440Y-80677340D01*
X83587440Y-80977340D01*
X83584246Y-80993394D01*
X83579911Y-81026327D01*
X83576048Y-81034610D01*
X83572140Y-81054259D01*
X83554750Y-81080283D01*
X83549511Y-81091520D01*
X83542674Y-81098356D01*
X83528568Y-81119468D01*
X83507456Y-81133574D01*
X83500620Y-81140411D01*
X83489383Y-81145650D01*
X83463359Y-81163040D01*
X83443710Y-81166948D01*
X83435427Y-81170811D01*
X83402494Y-81175146D01*
X83386440Y-81178340D01*
X81736440Y-81178340D01*
X81720386Y-81175146D01*
X81687452Y-81170811D01*
X81679167Y-81166947D01*
X81659521Y-81163040D01*
X81633498Y-81145652D01*
X81622259Y-81140411D01*
X81615420Y-81133572D01*
X81594312Y-81119468D01*
X81580207Y-81098359D01*
X81573368Y-81091520D01*
X81568126Y-81080278D01*
X81550740Y-81054259D01*
X81546832Y-81034614D01*
X81542968Y-81026327D01*
X81538630Y-80993380D01*
X81535440Y-80977340D01*
X81535440Y-80677340D01*
X81538630Y-80661301D01*
X81542968Y-80628352D01*
X81546832Y-80620063D01*
X81550740Y-80600421D01*
X81568124Y-80574403D01*
X81573368Y-80563159D01*
X81580209Y-80556317D01*
X81594312Y-80535212D01*
X81615417Y-80521109D01*
X81622259Y-80514268D01*
X81633503Y-80509024D01*
X81659521Y-80491640D01*
X81679163Y-80487732D01*
X81687452Y-80483868D01*
X81720401Y-80479530D01*
X81736440Y-80476340D01*
X83386440Y-80476340D01*
X83402480Y-80479530D01*
G37*
G36*
X78452480Y-79209530D02*
G01*
X78485427Y-79213868D01*
X78493714Y-79217732D01*
X78513359Y-79221640D01*
X78539378Y-79239026D01*
X78550620Y-79244268D01*
X78557459Y-79251107D01*
X78578568Y-79265212D01*
X78592672Y-79286320D01*
X78599511Y-79293159D01*
X78604752Y-79304398D01*
X78622140Y-79330421D01*
X78626047Y-79350067D01*
X78629911Y-79358352D01*
X78634246Y-79391286D01*
X78637440Y-79407340D01*
X78637440Y-79707340D01*
X78634246Y-79723394D01*
X78629911Y-79756327D01*
X78626048Y-79764610D01*
X78622140Y-79784259D01*
X78604750Y-79810283D01*
X78599511Y-79821520D01*
X78592674Y-79828356D01*
X78578568Y-79849468D01*
X78557456Y-79863574D01*
X78550620Y-79870411D01*
X78539383Y-79875650D01*
X78513359Y-79893040D01*
X78493710Y-79896948D01*
X78485427Y-79900811D01*
X78452494Y-79905146D01*
X78436440Y-79908340D01*
X76786440Y-79908340D01*
X76770386Y-79905146D01*
X76737452Y-79900811D01*
X76729167Y-79896947D01*
X76709521Y-79893040D01*
X76683498Y-79875652D01*
X76672259Y-79870411D01*
X76665420Y-79863572D01*
X76644312Y-79849468D01*
X76630207Y-79828359D01*
X76623368Y-79821520D01*
X76618126Y-79810278D01*
X76600740Y-79784259D01*
X76596832Y-79764614D01*
X76592968Y-79756327D01*
X76588630Y-79723380D01*
X76585440Y-79707340D01*
X76585440Y-79407340D01*
X76588630Y-79391301D01*
X76592968Y-79358352D01*
X76596832Y-79350063D01*
X76600740Y-79330421D01*
X76618124Y-79304403D01*
X76623368Y-79293159D01*
X76630209Y-79286317D01*
X76644312Y-79265212D01*
X76665417Y-79251109D01*
X76672259Y-79244268D01*
X76683503Y-79239024D01*
X76709521Y-79221640D01*
X76729163Y-79217732D01*
X76737452Y-79213868D01*
X76770401Y-79209530D01*
X76786440Y-79206340D01*
X78436440Y-79206340D01*
X78452480Y-79209530D01*
G37*
G36*
X83402480Y-79209530D02*
G01*
X83435427Y-79213868D01*
X83443714Y-79217732D01*
X83463359Y-79221640D01*
X83489378Y-79239026D01*
X83500620Y-79244268D01*
X83507459Y-79251107D01*
X83528568Y-79265212D01*
X83542672Y-79286320D01*
X83549511Y-79293159D01*
X83554752Y-79304398D01*
X83572140Y-79330421D01*
X83576047Y-79350067D01*
X83579911Y-79358352D01*
X83584246Y-79391286D01*
X83587440Y-79407340D01*
X83587440Y-79707340D01*
X83584246Y-79723394D01*
X83579911Y-79756327D01*
X83576048Y-79764610D01*
X83572140Y-79784259D01*
X83554750Y-79810283D01*
X83549511Y-79821520D01*
X83542674Y-79828356D01*
X83528568Y-79849468D01*
X83507456Y-79863574D01*
X83500620Y-79870411D01*
X83489383Y-79875650D01*
X83463359Y-79893040D01*
X83443710Y-79896948D01*
X83435427Y-79900811D01*
X83402494Y-79905146D01*
X83386440Y-79908340D01*
X81736440Y-79908340D01*
X81720386Y-79905146D01*
X81687452Y-79900811D01*
X81679167Y-79896947D01*
X81659521Y-79893040D01*
X81633498Y-79875652D01*
X81622259Y-79870411D01*
X81615420Y-79863572D01*
X81594312Y-79849468D01*
X81580207Y-79828359D01*
X81573368Y-79821520D01*
X81568126Y-79810278D01*
X81550740Y-79784259D01*
X81546832Y-79764614D01*
X81542968Y-79756327D01*
X81538630Y-79723380D01*
X81535440Y-79707340D01*
X81535440Y-79407340D01*
X81538630Y-79391301D01*
X81542968Y-79358352D01*
X81546832Y-79350063D01*
X81550740Y-79330421D01*
X81568124Y-79304403D01*
X81573368Y-79293159D01*
X81580209Y-79286317D01*
X81594312Y-79265212D01*
X81615417Y-79251109D01*
X81622259Y-79244268D01*
X81633503Y-79239024D01*
X81659521Y-79221640D01*
X81679163Y-79217732D01*
X81687452Y-79213868D01*
X81720401Y-79209530D01*
X81736440Y-79206340D01*
X83386440Y-79206340D01*
X83402480Y-79209530D01*
G37*
G36*
X59518354Y-77885335D02*
G01*
X59534166Y-77892316D01*
X59541971Y-77893553D01*
X59574479Y-77910116D01*
X59619546Y-77930016D01*
X59697764Y-78008234D01*
X59717666Y-78053307D01*
X59734226Y-78085808D01*
X59735461Y-78093610D01*
X59742445Y-78109426D01*
X59750440Y-78178340D01*
X59750440Y-79078340D01*
X59742445Y-79147254D01*
X59735461Y-79163069D01*
X59734226Y-79170871D01*
X59717669Y-79203364D01*
X59697764Y-79248446D01*
X59619546Y-79326664D01*
X59574464Y-79346569D01*
X59541971Y-79363126D01*
X59534169Y-79364361D01*
X59518354Y-79371345D01*
X59449440Y-79379340D01*
X58799440Y-79379340D01*
X58730526Y-79371345D01*
X58714710Y-79364361D01*
X58706908Y-79363126D01*
X58674407Y-79346566D01*
X58629334Y-79326664D01*
X58551116Y-79248446D01*
X58531216Y-79203379D01*
X58514653Y-79170871D01*
X58513416Y-79163066D01*
X58506435Y-79147254D01*
X58498440Y-79078340D01*
X58498440Y-78178340D01*
X58506435Y-78109426D01*
X58513416Y-78093614D01*
X58514653Y-78085808D01*
X58531220Y-78053293D01*
X58551116Y-78008234D01*
X58629334Y-77930016D01*
X58674393Y-77910120D01*
X58706908Y-77893553D01*
X58714714Y-77892316D01*
X58730526Y-77885335D01*
X58799440Y-77877340D01*
X59449440Y-77877340D01*
X59518354Y-77885335D01*
G37*
G36*
X61568354Y-77885335D02*
G01*
X61584166Y-77892316D01*
X61591971Y-77893553D01*
X61624479Y-77910116D01*
X61669546Y-77930016D01*
X61747764Y-78008234D01*
X61767666Y-78053307D01*
X61784226Y-78085808D01*
X61785461Y-78093610D01*
X61792445Y-78109426D01*
X61800440Y-78178340D01*
X61800440Y-79078340D01*
X61792445Y-79147254D01*
X61785461Y-79163069D01*
X61784226Y-79170871D01*
X61767669Y-79203364D01*
X61747764Y-79248446D01*
X61669546Y-79326664D01*
X61624464Y-79346569D01*
X61591971Y-79363126D01*
X61584169Y-79364361D01*
X61568354Y-79371345D01*
X61499440Y-79379340D01*
X60849440Y-79379340D01*
X60780526Y-79371345D01*
X60764710Y-79364361D01*
X60756908Y-79363126D01*
X60724407Y-79346566D01*
X60679334Y-79326664D01*
X60601116Y-79248446D01*
X60581216Y-79203379D01*
X60564653Y-79170871D01*
X60563416Y-79163066D01*
X60556435Y-79147254D01*
X60548440Y-79078340D01*
X60548440Y-78178340D01*
X60556435Y-78109426D01*
X60563416Y-78093614D01*
X60564653Y-78085808D01*
X60581220Y-78053293D01*
X60601116Y-78008234D01*
X60679334Y-77930016D01*
X60724393Y-77910120D01*
X60756908Y-77893553D01*
X60764714Y-77892316D01*
X60780526Y-77885335D01*
X60849440Y-77877340D01*
X61499440Y-77877340D01*
X61568354Y-77885335D01*
G37*
G36*
X64105354Y-77885335D02*
G01*
X64121166Y-77892316D01*
X64128971Y-77893553D01*
X64161479Y-77910116D01*
X64206546Y-77930016D01*
X64284764Y-78008234D01*
X64304666Y-78053307D01*
X64321226Y-78085808D01*
X64322461Y-78093610D01*
X64329445Y-78109426D01*
X64337440Y-78178340D01*
X64337440Y-79078340D01*
X64329445Y-79147254D01*
X64322461Y-79163069D01*
X64321226Y-79170871D01*
X64304669Y-79203364D01*
X64284764Y-79248446D01*
X64206546Y-79326664D01*
X64161464Y-79346569D01*
X64128971Y-79363126D01*
X64121169Y-79364361D01*
X64105354Y-79371345D01*
X64036440Y-79379340D01*
X63386440Y-79379340D01*
X63317526Y-79371345D01*
X63301710Y-79364361D01*
X63293908Y-79363126D01*
X63261407Y-79346566D01*
X63216334Y-79326664D01*
X63138116Y-79248446D01*
X63118216Y-79203379D01*
X63101653Y-79170871D01*
X63100416Y-79163066D01*
X63093435Y-79147254D01*
X63085440Y-79078340D01*
X63085440Y-78178340D01*
X63093435Y-78109426D01*
X63100416Y-78093614D01*
X63101653Y-78085808D01*
X63118220Y-78053293D01*
X63138116Y-78008234D01*
X63216334Y-77930016D01*
X63261393Y-77910120D01*
X63293908Y-77893553D01*
X63301714Y-77892316D01*
X63317526Y-77885335D01*
X63386440Y-77877340D01*
X64036440Y-77877340D01*
X64105354Y-77885335D01*
G37*
G36*
X66155354Y-77885335D02*
G01*
X66171166Y-77892316D01*
X66178971Y-77893553D01*
X66211479Y-77910116D01*
X66256546Y-77930016D01*
X66334764Y-78008234D01*
X66354666Y-78053307D01*
X66371226Y-78085808D01*
X66372461Y-78093610D01*
X66379445Y-78109426D01*
X66387440Y-78178340D01*
X66387440Y-79078340D01*
X66379445Y-79147254D01*
X66372461Y-79163069D01*
X66371226Y-79170871D01*
X66354669Y-79203364D01*
X66334764Y-79248446D01*
X66256546Y-79326664D01*
X66211464Y-79346569D01*
X66178971Y-79363126D01*
X66171169Y-79364361D01*
X66155354Y-79371345D01*
X66086440Y-79379340D01*
X65436440Y-79379340D01*
X65367526Y-79371345D01*
X65351710Y-79364361D01*
X65343908Y-79363126D01*
X65311407Y-79346566D01*
X65266334Y-79326664D01*
X65188116Y-79248446D01*
X65168216Y-79203379D01*
X65151653Y-79170871D01*
X65150416Y-79163066D01*
X65143435Y-79147254D01*
X65135440Y-79078340D01*
X65135440Y-78178340D01*
X65143435Y-78109426D01*
X65150416Y-78093614D01*
X65151653Y-78085808D01*
X65168220Y-78053293D01*
X65188116Y-78008234D01*
X65266334Y-77930016D01*
X65311393Y-77910120D01*
X65343908Y-77893553D01*
X65351714Y-77892316D01*
X65367526Y-77885335D01*
X65436440Y-77877340D01*
X66086440Y-77877340D01*
X66155354Y-77885335D01*
G37*
G36*
X78452480Y-77939530D02*
G01*
X78485427Y-77943868D01*
X78493714Y-77947732D01*
X78513359Y-77951640D01*
X78539378Y-77969026D01*
X78550620Y-77974268D01*
X78557459Y-77981107D01*
X78578568Y-77995212D01*
X78592672Y-78016320D01*
X78599511Y-78023159D01*
X78604752Y-78034398D01*
X78622140Y-78060421D01*
X78626047Y-78080067D01*
X78629911Y-78088352D01*
X78634246Y-78121286D01*
X78637440Y-78137340D01*
X78637440Y-78437340D01*
X78634246Y-78453394D01*
X78629911Y-78486327D01*
X78626048Y-78494610D01*
X78622140Y-78514259D01*
X78604750Y-78540283D01*
X78599511Y-78551520D01*
X78592674Y-78558356D01*
X78578568Y-78579468D01*
X78557456Y-78593574D01*
X78550620Y-78600411D01*
X78539383Y-78605650D01*
X78513359Y-78623040D01*
X78493710Y-78626948D01*
X78485427Y-78630811D01*
X78452494Y-78635146D01*
X78436440Y-78638340D01*
X76786440Y-78638340D01*
X76770386Y-78635146D01*
X76737452Y-78630811D01*
X76729167Y-78626947D01*
X76709521Y-78623040D01*
X76683498Y-78605652D01*
X76672259Y-78600411D01*
X76665420Y-78593572D01*
X76644312Y-78579468D01*
X76630207Y-78558359D01*
X76623368Y-78551520D01*
X76618126Y-78540278D01*
X76600740Y-78514259D01*
X76596832Y-78494614D01*
X76592968Y-78486327D01*
X76588630Y-78453380D01*
X76585440Y-78437340D01*
X76585440Y-78137340D01*
X76588630Y-78121301D01*
X76592968Y-78088352D01*
X76596832Y-78080063D01*
X76600740Y-78060421D01*
X76618124Y-78034403D01*
X76623368Y-78023159D01*
X76630209Y-78016317D01*
X76644312Y-77995212D01*
X76665417Y-77981109D01*
X76672259Y-77974268D01*
X76683503Y-77969024D01*
X76709521Y-77951640D01*
X76729163Y-77947732D01*
X76737452Y-77943868D01*
X76770401Y-77939530D01*
X76786440Y-77936340D01*
X78436440Y-77936340D01*
X78452480Y-77939530D01*
G37*
G36*
X83402480Y-77939530D02*
G01*
X83435427Y-77943868D01*
X83443714Y-77947732D01*
X83463359Y-77951640D01*
X83489378Y-77969026D01*
X83500620Y-77974268D01*
X83507459Y-77981107D01*
X83528568Y-77995212D01*
X83542672Y-78016320D01*
X83549511Y-78023159D01*
X83554752Y-78034398D01*
X83572140Y-78060421D01*
X83576047Y-78080067D01*
X83579911Y-78088352D01*
X83584246Y-78121286D01*
X83587440Y-78137340D01*
X83587440Y-78437340D01*
X83584246Y-78453394D01*
X83579911Y-78486327D01*
X83576048Y-78494610D01*
X83572140Y-78514259D01*
X83554750Y-78540283D01*
X83549511Y-78551520D01*
X83542674Y-78558356D01*
X83528568Y-78579468D01*
X83507456Y-78593574D01*
X83500620Y-78600411D01*
X83489383Y-78605650D01*
X83463359Y-78623040D01*
X83443710Y-78626948D01*
X83435427Y-78630811D01*
X83402494Y-78635146D01*
X83386440Y-78638340D01*
X81736440Y-78638340D01*
X81720386Y-78635146D01*
X81687452Y-78630811D01*
X81679167Y-78626947D01*
X81659521Y-78623040D01*
X81633498Y-78605652D01*
X81622259Y-78600411D01*
X81615420Y-78593572D01*
X81594312Y-78579468D01*
X81580207Y-78558359D01*
X81573368Y-78551520D01*
X81568126Y-78540278D01*
X81550740Y-78514259D01*
X81546832Y-78494614D01*
X81542968Y-78486327D01*
X81538630Y-78453380D01*
X81535440Y-78437340D01*
X81535440Y-78137340D01*
X81538630Y-78121301D01*
X81542968Y-78088352D01*
X81546832Y-78080063D01*
X81550740Y-78060421D01*
X81568124Y-78034403D01*
X81573368Y-78023159D01*
X81580209Y-78016317D01*
X81594312Y-77995212D01*
X81615417Y-77981109D01*
X81622259Y-77974268D01*
X81633503Y-77969024D01*
X81659521Y-77951640D01*
X81679163Y-77947732D01*
X81687452Y-77943868D01*
X81720401Y-77939530D01*
X81736440Y-77936340D01*
X83386440Y-77936340D01*
X83402480Y-77939530D01*
G37*
G36*
X77184152Y-76075663D02*
G01*
X77199534Y-76082455D01*
X77206770Y-76083601D01*
X77236902Y-76098954D01*
X77281142Y-76118488D01*
X77356112Y-76193458D01*
X77375648Y-76237704D01*
X77390998Y-76267829D01*
X77392143Y-76275062D01*
X77398937Y-76290448D01*
X77406600Y-76356500D01*
X77406600Y-76931500D01*
X77398937Y-76997552D01*
X77392143Y-77012938D01*
X77390998Y-77020170D01*
X77375652Y-77050287D01*
X77356112Y-77094542D01*
X77281142Y-77169512D01*
X77236887Y-77189052D01*
X77206770Y-77204398D01*
X77199538Y-77205543D01*
X77184152Y-77212337D01*
X77118100Y-77220000D01*
X76643100Y-77220000D01*
X76577048Y-77212337D01*
X76561662Y-77205543D01*
X76554429Y-77204398D01*
X76524304Y-77189048D01*
X76480058Y-77169512D01*
X76405088Y-77094542D01*
X76385554Y-77050302D01*
X76370201Y-77020170D01*
X76369055Y-77012934D01*
X76362263Y-76997552D01*
X76354600Y-76931500D01*
X76354600Y-76356500D01*
X76362263Y-76290448D01*
X76369054Y-76275065D01*
X76370201Y-76267829D01*
X76385557Y-76237690D01*
X76405088Y-76193458D01*
X76480058Y-76118488D01*
X76524290Y-76098957D01*
X76554429Y-76083601D01*
X76561665Y-76082454D01*
X76577048Y-76075663D01*
X76643100Y-76068000D01*
X77118100Y-76068000D01*
X77184152Y-76075663D01*
G37*
G36*
X64516517Y-76271882D02*
G01*
X64533062Y-76282938D01*
X64544118Y-76299483D01*
X64548000Y-76319000D01*
X64548000Y-77119000D01*
X64544118Y-77138517D01*
X64533062Y-77155062D01*
X64516517Y-77166118D01*
X64497000Y-77170000D01*
X63597000Y-77170000D01*
X63577483Y-77166118D01*
X63560938Y-77155062D01*
X63549882Y-77138517D01*
X63546000Y-77119000D01*
X63546000Y-76319000D01*
X63549882Y-76299483D01*
X63560938Y-76282938D01*
X63577483Y-76271882D01*
X63597000Y-76268000D01*
X64497000Y-76268000D01*
X64516517Y-76271882D01*
G37*
G36*
X69329777Y-75064222D02*
G01*
X69346322Y-75075278D01*
X69357378Y-75091823D01*
X69361260Y-75111340D01*
X69361260Y-77061340D01*
X69357378Y-77080857D01*
X69346322Y-77097402D01*
X69329777Y-77108458D01*
X69310260Y-77112340D01*
X68210260Y-77112340D01*
X68190743Y-77108458D01*
X68174198Y-77097402D01*
X68163142Y-77080857D01*
X68159260Y-77061340D01*
X68159260Y-75111340D01*
X68163142Y-75091823D01*
X68174198Y-75075278D01*
X68190743Y-75064222D01*
X68210260Y-75060340D01*
X69310260Y-75060340D01*
X69329777Y-75064222D01*
G37*
G36*
X71829777Y-75064222D02*
G01*
X71846322Y-75075278D01*
X71857378Y-75091823D01*
X71861260Y-75111340D01*
X71861260Y-77061340D01*
X71857378Y-77080857D01*
X71846322Y-77097402D01*
X71829777Y-77108458D01*
X71810260Y-77112340D01*
X70710260Y-77112340D01*
X70690743Y-77108458D01*
X70674198Y-77097402D01*
X70663142Y-77080857D01*
X70659260Y-77061340D01*
X70659260Y-75111340D01*
X70663142Y-75091823D01*
X70674198Y-75075278D01*
X70690743Y-75064222D01*
X70710260Y-75060340D01*
X71810260Y-75060340D01*
X71829777Y-75064222D01*
G37*
G36*
X74329777Y-75064222D02*
G01*
X74346322Y-75075278D01*
X74357378Y-75091823D01*
X74361260Y-75111340D01*
X74361260Y-77061340D01*
X74357378Y-77080857D01*
X74346322Y-77097402D01*
X74329777Y-77108458D01*
X74310260Y-77112340D01*
X73210260Y-77112340D01*
X73190743Y-77108458D01*
X73174198Y-77097402D01*
X73163142Y-77080857D01*
X73159260Y-77061340D01*
X73159260Y-75111340D01*
X73163142Y-75091823D01*
X73174198Y-75075278D01*
X73190743Y-75064222D01*
X73210260Y-75060340D01*
X74310260Y-75060340D01*
X74329777Y-75064222D01*
G37*
G36*
X66211352Y-75960063D02*
G01*
X66226734Y-75966855D01*
X66233970Y-75968001D01*
X66264102Y-75983354D01*
X66308342Y-76002888D01*
X66383312Y-76077858D01*
X66402848Y-76122104D01*
X66418198Y-76152229D01*
X66419343Y-76159462D01*
X66426137Y-76174848D01*
X66433800Y-76240900D01*
X66433800Y-76815900D01*
X66426137Y-76881952D01*
X66419343Y-76897338D01*
X66418198Y-76904570D01*
X66402852Y-76934687D01*
X66383312Y-76978942D01*
X66308342Y-77053912D01*
X66264087Y-77073452D01*
X66233970Y-77088798D01*
X66226738Y-77089943D01*
X66211352Y-77096737D01*
X66145300Y-77104400D01*
X65670300Y-77104400D01*
X65604248Y-77096737D01*
X65588862Y-77089943D01*
X65581629Y-77088798D01*
X65551504Y-77073448D01*
X65507258Y-77053912D01*
X65432288Y-76978942D01*
X65412754Y-76934702D01*
X65397401Y-76904570D01*
X65396255Y-76897334D01*
X65389463Y-76881952D01*
X65381800Y-76815900D01*
X65381800Y-76240900D01*
X65389463Y-76174848D01*
X65396254Y-76159465D01*
X65397401Y-76152229D01*
X65412757Y-76122090D01*
X65432288Y-76077858D01*
X65507258Y-76002888D01*
X65551490Y-75983357D01*
X65581629Y-75968001D01*
X65588865Y-75966854D01*
X65604248Y-75960063D01*
X65670300Y-75952400D01*
X66145300Y-75952400D01*
X66211352Y-75960063D01*
G37*
G36*
X79051917Y-76185482D02*
G01*
X79068462Y-76196538D01*
X79079518Y-76213083D01*
X79083400Y-76232600D01*
X79083400Y-77032600D01*
X79079518Y-77052117D01*
X79068462Y-77068662D01*
X79051917Y-77079718D01*
X79032400Y-77083600D01*
X78132400Y-77083600D01*
X78112883Y-77079718D01*
X78096338Y-77068662D01*
X78085282Y-77052117D01*
X78081400Y-77032600D01*
X78081400Y-76232600D01*
X78085282Y-76213083D01*
X78096338Y-76196538D01*
X78112883Y-76185482D01*
X78132400Y-76181600D01*
X79032400Y-76181600D01*
X79051917Y-76185482D01*
G37*
G36*
X62516517Y-75321882D02*
G01*
X62533062Y-75332938D01*
X62544118Y-75349483D01*
X62548000Y-75369000D01*
X62548000Y-76169000D01*
X62544118Y-76188517D01*
X62533062Y-76205062D01*
X62516517Y-76216118D01*
X62497000Y-76220000D01*
X61597000Y-76220000D01*
X61577483Y-76216118D01*
X61560938Y-76205062D01*
X61549882Y-76188517D01*
X61546000Y-76169000D01*
X61546000Y-75369000D01*
X61549882Y-75349483D01*
X61560938Y-75332938D01*
X61577483Y-75321882D01*
X61597000Y-75318000D01*
X62497000Y-75318000D01*
X62516517Y-75321882D01*
G37*
G36*
X81051917Y-75235482D02*
G01*
X81068462Y-75246538D01*
X81079518Y-75263083D01*
X81083400Y-75282600D01*
X81083400Y-76082600D01*
X81079518Y-76102117D01*
X81068462Y-76118662D01*
X81051917Y-76129718D01*
X81032400Y-76133600D01*
X80132400Y-76133600D01*
X80112883Y-76129718D01*
X80096338Y-76118662D01*
X80085282Y-76102117D01*
X80081400Y-76082600D01*
X80081400Y-75282600D01*
X80085282Y-75263083D01*
X80096338Y-75246538D01*
X80112883Y-75235482D01*
X80132400Y-75231600D01*
X81032400Y-75231600D01*
X81051917Y-75235482D01*
G37*
G36*
X77184152Y-74325663D02*
G01*
X77199534Y-74332455D01*
X77206770Y-74333601D01*
X77236902Y-74348954D01*
X77281142Y-74368488D01*
X77356112Y-74443458D01*
X77375648Y-74487704D01*
X77390998Y-74517829D01*
X77392143Y-74525062D01*
X77398937Y-74540448D01*
X77406600Y-74606500D01*
X77406600Y-75181500D01*
X77398937Y-75247552D01*
X77392143Y-75262938D01*
X77390998Y-75270170D01*
X77375652Y-75300287D01*
X77356112Y-75344542D01*
X77281142Y-75419512D01*
X77236887Y-75439052D01*
X77206770Y-75454398D01*
X77199538Y-75455543D01*
X77184152Y-75462337D01*
X77118100Y-75470000D01*
X76643100Y-75470000D01*
X76577048Y-75462337D01*
X76561662Y-75455543D01*
X76554429Y-75454398D01*
X76524304Y-75439048D01*
X76480058Y-75419512D01*
X76405088Y-75344542D01*
X76385554Y-75300302D01*
X76370201Y-75270170D01*
X76369055Y-75262934D01*
X76362263Y-75247552D01*
X76354600Y-75181500D01*
X76354600Y-74606500D01*
X76362263Y-74540448D01*
X76369054Y-74525065D01*
X76370201Y-74517829D01*
X76385557Y-74487690D01*
X76405088Y-74443458D01*
X76480058Y-74368488D01*
X76524290Y-74348957D01*
X76554429Y-74333601D01*
X76561665Y-74332454D01*
X76577048Y-74325663D01*
X76643100Y-74318000D01*
X77118100Y-74318000D01*
X77184152Y-74325663D01*
G37*
G36*
X66211352Y-74210063D02*
G01*
X66226734Y-74216855D01*
X66233970Y-74218001D01*
X66264102Y-74233354D01*
X66308342Y-74252888D01*
X66383312Y-74327858D01*
X66402848Y-74372104D01*
X66418198Y-74402229D01*
X66419343Y-74409462D01*
X66426137Y-74424848D01*
X66433800Y-74490900D01*
X66433800Y-75065900D01*
X66426137Y-75131952D01*
X66419343Y-75147338D01*
X66418198Y-75154570D01*
X66402852Y-75184687D01*
X66383312Y-75228942D01*
X66308342Y-75303912D01*
X66264087Y-75323452D01*
X66233970Y-75338798D01*
X66226738Y-75339943D01*
X66211352Y-75346737D01*
X66145300Y-75354400D01*
X65670300Y-75354400D01*
X65604248Y-75346737D01*
X65588862Y-75339943D01*
X65581629Y-75338798D01*
X65551504Y-75323448D01*
X65507258Y-75303912D01*
X65432288Y-75228942D01*
X65412754Y-75184702D01*
X65397401Y-75154570D01*
X65396255Y-75147334D01*
X65389463Y-75131952D01*
X65381800Y-75065900D01*
X65381800Y-74490900D01*
X65389463Y-74424848D01*
X65396254Y-74409465D01*
X65397401Y-74402229D01*
X65412757Y-74372090D01*
X65432288Y-74327858D01*
X65507258Y-74252888D01*
X65551490Y-74233357D01*
X65581629Y-74218001D01*
X65588865Y-74216854D01*
X65604248Y-74210063D01*
X65670300Y-74202400D01*
X66145300Y-74202400D01*
X66211352Y-74210063D01*
G37*
G36*
X64516517Y-74371882D02*
G01*
X64533062Y-74382938D01*
X64544118Y-74399483D01*
X64548000Y-74419000D01*
X64548000Y-75219000D01*
X64544118Y-75238517D01*
X64533062Y-75255062D01*
X64516517Y-75266118D01*
X64497000Y-75270000D01*
X63597000Y-75270000D01*
X63577483Y-75266118D01*
X63560938Y-75255062D01*
X63549882Y-75238517D01*
X63546000Y-75219000D01*
X63546000Y-74419000D01*
X63549882Y-74399483D01*
X63560938Y-74382938D01*
X63577483Y-74371882D01*
X63597000Y-74368000D01*
X64497000Y-74368000D01*
X64516517Y-74371882D01*
G37*
G36*
X79051917Y-74285482D02*
G01*
X79068462Y-74296538D01*
X79079518Y-74313083D01*
X79083400Y-74332600D01*
X79083400Y-75132600D01*
X79079518Y-75152117D01*
X79068462Y-75168662D01*
X79051917Y-75179718D01*
X79032400Y-75183600D01*
X78132400Y-75183600D01*
X78112883Y-75179718D01*
X78096338Y-75168662D01*
X78085282Y-75152117D01*
X78081400Y-75132600D01*
X78081400Y-74332600D01*
X78085282Y-74313083D01*
X78096338Y-74296538D01*
X78112883Y-74285482D01*
X78132400Y-74281600D01*
X79032400Y-74281600D01*
X79051917Y-74285482D01*
G37*
G36*
X70636114Y-72663795D02*
G01*
X70651926Y-72670776D01*
X70659731Y-72672013D01*
X70692239Y-72688576D01*
X70737306Y-72708476D01*
X70815524Y-72786694D01*
X70835426Y-72831767D01*
X70851986Y-72864268D01*
X70853221Y-72872070D01*
X70860205Y-72887886D01*
X70868200Y-72956800D01*
X70868200Y-73856800D01*
X70860205Y-73925714D01*
X70853221Y-73941529D01*
X70851986Y-73949331D01*
X70835429Y-73981824D01*
X70815524Y-74026906D01*
X70737306Y-74105124D01*
X70692224Y-74125029D01*
X70659731Y-74141586D01*
X70651929Y-74142821D01*
X70636114Y-74149805D01*
X70567200Y-74157800D01*
X69917200Y-74157800D01*
X69848286Y-74149805D01*
X69832470Y-74142821D01*
X69824668Y-74141586D01*
X69792167Y-74125026D01*
X69747094Y-74105124D01*
X69668876Y-74026906D01*
X69648976Y-73981839D01*
X69632413Y-73949331D01*
X69631176Y-73941526D01*
X69624195Y-73925714D01*
X69616200Y-73856800D01*
X69616200Y-72956800D01*
X69624195Y-72887886D01*
X69631176Y-72872074D01*
X69632413Y-72864268D01*
X69648980Y-72831753D01*
X69668876Y-72786694D01*
X69747094Y-72708476D01*
X69792153Y-72688580D01*
X69824668Y-72672013D01*
X69832474Y-72670776D01*
X69848286Y-72663795D01*
X69917200Y-72655800D01*
X70567200Y-72655800D01*
X70636114Y-72663795D01*
G37*
G36*
X72686114Y-72663795D02*
G01*
X72701926Y-72670776D01*
X72709731Y-72672013D01*
X72742239Y-72688576D01*
X72787306Y-72708476D01*
X72865524Y-72786694D01*
X72885426Y-72831767D01*
X72901986Y-72864268D01*
X72903221Y-72872070D01*
X72910205Y-72887886D01*
X72918200Y-72956800D01*
X72918200Y-73856800D01*
X72910205Y-73925714D01*
X72903221Y-73941529D01*
X72901986Y-73949331D01*
X72885429Y-73981824D01*
X72865524Y-74026906D01*
X72787306Y-74105124D01*
X72742224Y-74125029D01*
X72709731Y-74141586D01*
X72701929Y-74142821D01*
X72686114Y-74149805D01*
X72617200Y-74157800D01*
X71967200Y-74157800D01*
X71898286Y-74149805D01*
X71882470Y-74142821D01*
X71874668Y-74141586D01*
X71842167Y-74125026D01*
X71797094Y-74105124D01*
X71718876Y-74026906D01*
X71698976Y-73981839D01*
X71682413Y-73949331D01*
X71681176Y-73941526D01*
X71674195Y-73925714D01*
X71666200Y-73856800D01*
X71666200Y-72956800D01*
X71674195Y-72887886D01*
X71681176Y-72872074D01*
X71682413Y-72864268D01*
X71698980Y-72831753D01*
X71718876Y-72786694D01*
X71797094Y-72708476D01*
X71842153Y-72688580D01*
X71874668Y-72672013D01*
X71882474Y-72670776D01*
X71898286Y-72663795D01*
X71967200Y-72655800D01*
X72617200Y-72655800D01*
X72686114Y-72663795D01*
G37*
M02*
