G04 #@! TF.GenerationSoftware,KiCad,Pcbnew,9.0.1*
G04 #@! TF.CreationDate,2025-04-09T17:44:43+02:00*
G04 #@! TF.ProjectId,SMDChaser0805-0603,534d4443-6861-4736-9572-303830352d30,rev?*
G04 #@! TF.SameCoordinates,Original*
G04 #@! TF.FileFunction,Soldermask,Top*
G04 #@! TF.FilePolarity,Negative*
%FSLAX46Y46*%
G04 Gerber Fmt 4.6, Leading zero omitted, Abs format (unit mm)*
G04 Created by KiCad (PCBNEW 9.0.1) date 2025-04-09 17:44:43*
%MOMM*%
%LPD*%
G01*
G04 APERTURE LIST*
G04 APERTURE END LIST*
G36*
X70493614Y-108327775D02*
G01*
X70509426Y-108334756D01*
X70517231Y-108335993D01*
X70549739Y-108352556D01*
X70594806Y-108372456D01*
X70673024Y-108450674D01*
X70692926Y-108495747D01*
X70709486Y-108528248D01*
X70710721Y-108536050D01*
X70717705Y-108551866D01*
X70725700Y-108620780D01*
X70725700Y-109520780D01*
X70717705Y-109589694D01*
X70710721Y-109605509D01*
X70709486Y-109613311D01*
X70692929Y-109645804D01*
X70673024Y-109690886D01*
X70594806Y-109769104D01*
X70549724Y-109789009D01*
X70517231Y-109805566D01*
X70509429Y-109806801D01*
X70493614Y-109813785D01*
X70424700Y-109821780D01*
X69774700Y-109821780D01*
X69705786Y-109813785D01*
X69689970Y-109806801D01*
X69682168Y-109805566D01*
X69649667Y-109789006D01*
X69604594Y-109769104D01*
X69526376Y-109690886D01*
X69506476Y-109645819D01*
X69489913Y-109613311D01*
X69488676Y-109605506D01*
X69481695Y-109589694D01*
X69473700Y-109520780D01*
X69473700Y-108620780D01*
X69481695Y-108551866D01*
X69488676Y-108536054D01*
X69489913Y-108528248D01*
X69506480Y-108495733D01*
X69526376Y-108450674D01*
X69604594Y-108372456D01*
X69649653Y-108352560D01*
X69682168Y-108335993D01*
X69689974Y-108334756D01*
X69705786Y-108327775D01*
X69774700Y-108319780D01*
X70424700Y-108319780D01*
X70493614Y-108327775D01*
G37*
G36*
X72543614Y-108327775D02*
G01*
X72559426Y-108334756D01*
X72567231Y-108335993D01*
X72599739Y-108352556D01*
X72644806Y-108372456D01*
X72723024Y-108450674D01*
X72742926Y-108495747D01*
X72759486Y-108528248D01*
X72760721Y-108536050D01*
X72767705Y-108551866D01*
X72775700Y-108620780D01*
X72775700Y-109520780D01*
X72767705Y-109589694D01*
X72760721Y-109605509D01*
X72759486Y-109613311D01*
X72742929Y-109645804D01*
X72723024Y-109690886D01*
X72644806Y-109769104D01*
X72599724Y-109789009D01*
X72567231Y-109805566D01*
X72559429Y-109806801D01*
X72543614Y-109813785D01*
X72474700Y-109821780D01*
X71824700Y-109821780D01*
X71755786Y-109813785D01*
X71739970Y-109806801D01*
X71732168Y-109805566D01*
X71699667Y-109789006D01*
X71654594Y-109769104D01*
X71576376Y-109690886D01*
X71556476Y-109645819D01*
X71539913Y-109613311D01*
X71538676Y-109605506D01*
X71531695Y-109589694D01*
X71523700Y-109520780D01*
X71523700Y-108620780D01*
X71531695Y-108551866D01*
X71538676Y-108536054D01*
X71539913Y-108528248D01*
X71556480Y-108495733D01*
X71576376Y-108450674D01*
X71654594Y-108372456D01*
X71699653Y-108352560D01*
X71732168Y-108335993D01*
X71739974Y-108334756D01*
X71755786Y-108327775D01*
X71824700Y-108319780D01*
X72474700Y-108319780D01*
X72543614Y-108327775D01*
G37*
G36*
X66284231Y-107773488D02*
G01*
X66902418Y-107974349D01*
X66965489Y-108003248D01*
X66978373Y-108014777D01*
X66985412Y-108018364D01*
X67011208Y-108044160D01*
X67047921Y-108077013D01*
X67098140Y-108175573D01*
X67103139Y-108224593D01*
X67108845Y-108260616D01*
X67107609Y-108268416D01*
X67109364Y-108285620D01*
X67095672Y-108353631D01*
X66817557Y-109209582D01*
X66788657Y-109272653D01*
X66777127Y-109285537D01*
X66773541Y-109292576D01*
X66747749Y-109318367D01*
X66714893Y-109355085D01*
X66616333Y-109405304D01*
X66567309Y-109410304D01*
X66531289Y-109416009D01*
X66523488Y-109414773D01*
X66506286Y-109416528D01*
X66438275Y-109402836D01*
X65820088Y-109201975D01*
X65757017Y-109173076D01*
X65744131Y-109161545D01*
X65737093Y-109157959D01*
X65711297Y-109132163D01*
X65674585Y-109099311D01*
X65624366Y-109000751D01*
X65619367Y-108951745D01*
X65613660Y-108915707D01*
X65614896Y-108907902D01*
X65613142Y-108890704D01*
X65626834Y-108822693D01*
X65810567Y-108257220D01*
X65901908Y-107976100D01*
X65901909Y-107976097D01*
X65904949Y-107966742D01*
X65933849Y-107903671D01*
X65945375Y-107890790D01*
X65948964Y-107883747D01*
X65974773Y-107857937D01*
X66007613Y-107821239D01*
X66106173Y-107771020D01*
X66155176Y-107766022D01*
X66191216Y-107760314D01*
X66199020Y-107761550D01*
X66216220Y-107759796D01*
X66284231Y-107773488D01*
G37*
G36*
X76072465Y-107526452D02*
G01*
X76080270Y-107525216D01*
X76116308Y-107530923D01*
X76165314Y-107535922D01*
X76263874Y-107586141D01*
X76296727Y-107622855D01*
X76322523Y-107648651D01*
X76326109Y-107655689D01*
X76337638Y-107668573D01*
X76366538Y-107731644D01*
X76591495Y-108423992D01*
X76640917Y-108576098D01*
X76644653Y-108587595D01*
X76658345Y-108655606D01*
X76656590Y-108672808D01*
X76657826Y-108680609D01*
X76652121Y-108716629D01*
X76647121Y-108765653D01*
X76596902Y-108864213D01*
X76560174Y-108897079D01*
X76534391Y-108922862D01*
X76527357Y-108926445D01*
X76514470Y-108937978D01*
X76451399Y-108966877D01*
X75833212Y-109167738D01*
X75765201Y-109181430D01*
X75747998Y-109179675D01*
X75740198Y-109180911D01*
X75704176Y-109175205D01*
X75655154Y-109170206D01*
X75556594Y-109119987D01*
X75523740Y-109083272D01*
X75497944Y-109057476D01*
X75494357Y-109050437D01*
X75482830Y-109037555D01*
X75453930Y-108974484D01*
X75293611Y-108481073D01*
X75178854Y-108127889D01*
X75178853Y-108127883D01*
X75175815Y-108118533D01*
X75162123Y-108050522D01*
X75163877Y-108033323D01*
X75162641Y-108025519D01*
X75168348Y-107989479D01*
X75173347Y-107940475D01*
X75223566Y-107841915D01*
X75260274Y-107809065D01*
X75286076Y-107783265D01*
X75293114Y-107779678D01*
X75305998Y-107768150D01*
X75369069Y-107739251D01*
X75647907Y-107648651D01*
X75977899Y-107541429D01*
X75977906Y-107541427D01*
X75987256Y-107538390D01*
X76055267Y-107524698D01*
X76072465Y-107526452D01*
G37*
G36*
X64334565Y-107140004D02*
G01*
X64952752Y-107340865D01*
X65015823Y-107369764D01*
X65028707Y-107381293D01*
X65035746Y-107384880D01*
X65061542Y-107410676D01*
X65098255Y-107443529D01*
X65148474Y-107542089D01*
X65153473Y-107591109D01*
X65159179Y-107627132D01*
X65157943Y-107634932D01*
X65159698Y-107652136D01*
X65146006Y-107720147D01*
X64867891Y-108576098D01*
X64838991Y-108639169D01*
X64827461Y-108652053D01*
X64823875Y-108659092D01*
X64798083Y-108684883D01*
X64765227Y-108721601D01*
X64666667Y-108771820D01*
X64617643Y-108776820D01*
X64581623Y-108782525D01*
X64573822Y-108781289D01*
X64556620Y-108783044D01*
X64488609Y-108769352D01*
X63870422Y-108568491D01*
X63807351Y-108539592D01*
X63794465Y-108528061D01*
X63787427Y-108524475D01*
X63761631Y-108498679D01*
X63724919Y-108465827D01*
X63674700Y-108367267D01*
X63669701Y-108318261D01*
X63663994Y-108282223D01*
X63665230Y-108274418D01*
X63663476Y-108257220D01*
X63677168Y-108189209D01*
X63888150Y-107539871D01*
X63952242Y-107342616D01*
X63952243Y-107342613D01*
X63955283Y-107333258D01*
X63984183Y-107270187D01*
X63995709Y-107257306D01*
X63999298Y-107250263D01*
X64025107Y-107224453D01*
X64057947Y-107187755D01*
X64156507Y-107137536D01*
X64205510Y-107132538D01*
X64241550Y-107126830D01*
X64249354Y-107128066D01*
X64266554Y-107126312D01*
X64334565Y-107140004D01*
G37*
G36*
X78022131Y-106892968D02*
G01*
X78029936Y-106891732D01*
X78065974Y-106897439D01*
X78114980Y-106902438D01*
X78213540Y-106952657D01*
X78246393Y-106989371D01*
X78272189Y-107015167D01*
X78275775Y-107022205D01*
X78287304Y-107035089D01*
X78316204Y-107098160D01*
X78534829Y-107771020D01*
X78589888Y-107940475D01*
X78594319Y-107954111D01*
X78608011Y-108022122D01*
X78606256Y-108039324D01*
X78607492Y-108047125D01*
X78601787Y-108083145D01*
X78596787Y-108132169D01*
X78546568Y-108230729D01*
X78509840Y-108263595D01*
X78484057Y-108289378D01*
X78477023Y-108292961D01*
X78464136Y-108304494D01*
X78401065Y-108333393D01*
X77782878Y-108534254D01*
X77714867Y-108547946D01*
X77697664Y-108546191D01*
X77689864Y-108547427D01*
X77653842Y-108541721D01*
X77604820Y-108536722D01*
X77506260Y-108486503D01*
X77473406Y-108449788D01*
X77447610Y-108423992D01*
X77444023Y-108416953D01*
X77432496Y-108404071D01*
X77403596Y-108341000D01*
X77220188Y-107776529D01*
X77128520Y-107494405D01*
X77128519Y-107494399D01*
X77125481Y-107485049D01*
X77111789Y-107417038D01*
X77113543Y-107399839D01*
X77112307Y-107392035D01*
X77118014Y-107355995D01*
X77123013Y-107306991D01*
X77173232Y-107208431D01*
X77209940Y-107175581D01*
X77235742Y-107149781D01*
X77242780Y-107146194D01*
X77255664Y-107134666D01*
X77318735Y-107105767D01*
X77597573Y-107015167D01*
X77927565Y-106907945D01*
X77927572Y-106907943D01*
X77936922Y-106904906D01*
X78004933Y-106891214D01*
X78022131Y-106892968D01*
G37*
G36*
X61068489Y-105431198D02*
G01*
X61104526Y-105436906D01*
X61111565Y-105440492D01*
X61128464Y-105444139D01*
X61188916Y-105478178D01*
X61315671Y-105570271D01*
X61706816Y-105854453D01*
X61706819Y-105854456D01*
X61714777Y-105860238D01*
X61765831Y-105907213D01*
X61774521Y-105922159D01*
X61780105Y-105927743D01*
X61796659Y-105960232D01*
X61821434Y-106002840D01*
X61838738Y-106112095D01*
X61828344Y-106160264D01*
X61822640Y-106196282D01*
X61819054Y-106203318D01*
X61815407Y-106220224D01*
X61781368Y-106280676D01*
X61585169Y-106550720D01*
X61258146Y-107000830D01*
X61258142Y-107000833D01*
X61252361Y-107008791D01*
X61205387Y-107059844D01*
X61190439Y-107068535D01*
X61184856Y-107074119D01*
X61152368Y-107090672D01*
X61109760Y-107115448D01*
X61000505Y-107132752D01*
X60952334Y-107122358D01*
X60916313Y-107116653D01*
X60909276Y-107113067D01*
X60892376Y-107109421D01*
X60831924Y-107075382D01*
X60516190Y-106845988D01*
X60314023Y-106699106D01*
X60314020Y-106699103D01*
X60306063Y-106693322D01*
X60255009Y-106646347D01*
X60246318Y-106631400D01*
X60240734Y-106625816D01*
X60224176Y-106593320D01*
X60199406Y-106550720D01*
X60182102Y-106441465D01*
X60192491Y-106393316D01*
X60198199Y-106357277D01*
X60201786Y-106350236D01*
X60205433Y-106333336D01*
X60239472Y-106272884D01*
X60245255Y-106264923D01*
X60245258Y-106264919D01*
X60762693Y-105552729D01*
X60762702Y-105552719D01*
X60768479Y-105544769D01*
X60815453Y-105493716D01*
X60830395Y-105485027D01*
X60835983Y-105479440D01*
X60868492Y-105462875D01*
X60911080Y-105438112D01*
X61020335Y-105420808D01*
X61068489Y-105431198D01*
G37*
G36*
X81155558Y-105283272D02*
G01*
X81198148Y-105308037D01*
X81230651Y-105324598D01*
X81236237Y-105330184D01*
X81251185Y-105338876D01*
X81298159Y-105389929D01*
X81827166Y-106118044D01*
X81861205Y-106178496D01*
X81864851Y-106195398D01*
X81868438Y-106202436D01*
X81874143Y-106238460D01*
X81884536Y-106286625D01*
X81867232Y-106395880D01*
X81842455Y-106438490D01*
X81825904Y-106470975D01*
X81820321Y-106476557D01*
X81811629Y-106491507D01*
X81760575Y-106538482D01*
X81234714Y-106920542D01*
X81174262Y-106954581D01*
X81157359Y-106958227D01*
X81150322Y-106961814D01*
X81114297Y-106967519D01*
X81066133Y-106977912D01*
X80956878Y-106960608D01*
X80914280Y-106935838D01*
X80881784Y-106919281D01*
X80876198Y-106913695D01*
X80861251Y-106905004D01*
X80814277Y-106853951D01*
X80285270Y-106125836D01*
X80251231Y-106065384D01*
X80247584Y-106048483D01*
X80243997Y-106041443D01*
X80238289Y-106005404D01*
X80227900Y-105957255D01*
X80245204Y-105848000D01*
X80269968Y-105805410D01*
X80286531Y-105772904D01*
X80292117Y-105767317D01*
X80300807Y-105752373D01*
X80351861Y-105705398D01*
X80588237Y-105533661D01*
X80869761Y-105329121D01*
X80869765Y-105329118D01*
X80877722Y-105323338D01*
X80938174Y-105289299D01*
X80955070Y-105285653D01*
X80962113Y-105282065D01*
X80998157Y-105276356D01*
X81046303Y-105265968D01*
X81155558Y-105283272D01*
G37*
G36*
X70648812Y-105753003D02*
G01*
X70664194Y-105759795D01*
X70671430Y-105760941D01*
X70701562Y-105776294D01*
X70745802Y-105795828D01*
X70820772Y-105870798D01*
X70840308Y-105915044D01*
X70855658Y-105945169D01*
X70856803Y-105952402D01*
X70863597Y-105967788D01*
X70871260Y-106033840D01*
X70871260Y-106508840D01*
X70863597Y-106574892D01*
X70856803Y-106590278D01*
X70855658Y-106597510D01*
X70840312Y-106627627D01*
X70820772Y-106671882D01*
X70745802Y-106746852D01*
X70701547Y-106766392D01*
X70671430Y-106781738D01*
X70664198Y-106782883D01*
X70648812Y-106789677D01*
X70582760Y-106797340D01*
X70007760Y-106797340D01*
X69941708Y-106789677D01*
X69926322Y-106782883D01*
X69919089Y-106781738D01*
X69888964Y-106766388D01*
X69844718Y-106746852D01*
X69769748Y-106671882D01*
X69750214Y-106627642D01*
X69734861Y-106597510D01*
X69733715Y-106590274D01*
X69726923Y-106574892D01*
X69719260Y-106508840D01*
X69719260Y-106033840D01*
X69726923Y-105967788D01*
X69733714Y-105952405D01*
X69734861Y-105945169D01*
X69750217Y-105915030D01*
X69769748Y-105870798D01*
X69844718Y-105795828D01*
X69888950Y-105776297D01*
X69919089Y-105760941D01*
X69926325Y-105759794D01*
X69941708Y-105753003D01*
X70007760Y-105745340D01*
X70582760Y-105745340D01*
X70648812Y-105753003D01*
G37*
G36*
X72398812Y-105753003D02*
G01*
X72414194Y-105759795D01*
X72421430Y-105760941D01*
X72451562Y-105776294D01*
X72495802Y-105795828D01*
X72570772Y-105870798D01*
X72590308Y-105915044D01*
X72605658Y-105945169D01*
X72606803Y-105952402D01*
X72613597Y-105967788D01*
X72621260Y-106033840D01*
X72621260Y-106508840D01*
X72613597Y-106574892D01*
X72606803Y-106590278D01*
X72605658Y-106597510D01*
X72590312Y-106627627D01*
X72570772Y-106671882D01*
X72495802Y-106746852D01*
X72451547Y-106766392D01*
X72421430Y-106781738D01*
X72414198Y-106782883D01*
X72398812Y-106789677D01*
X72332760Y-106797340D01*
X71757760Y-106797340D01*
X71691708Y-106789677D01*
X71676322Y-106782883D01*
X71669089Y-106781738D01*
X71638964Y-106766388D01*
X71594718Y-106746852D01*
X71519748Y-106671882D01*
X71500214Y-106627642D01*
X71484861Y-106597510D01*
X71483715Y-106590274D01*
X71476923Y-106574892D01*
X71469260Y-106508840D01*
X71469260Y-106033840D01*
X71476923Y-105967788D01*
X71483714Y-105952405D01*
X71484861Y-105945169D01*
X71500217Y-105915030D01*
X71519748Y-105870798D01*
X71594718Y-105795828D01*
X71638950Y-105776297D01*
X71669089Y-105760941D01*
X71676325Y-105759794D01*
X71691708Y-105753003D01*
X71757760Y-105745340D01*
X72332760Y-105745340D01*
X72398812Y-105753003D01*
G37*
G36*
X67031548Y-105312632D02*
G01*
X67578406Y-105490317D01*
X67638857Y-105518016D01*
X67651389Y-105529230D01*
X67657912Y-105532554D01*
X67681808Y-105556450D01*
X67717866Y-105588716D01*
X67766000Y-105683184D01*
X67770908Y-105731311D01*
X67776195Y-105764694D01*
X67775049Y-105771923D01*
X67776757Y-105788661D01*
X67763634Y-105853848D01*
X67616851Y-106305600D01*
X67589152Y-106366051D01*
X67577935Y-106378586D01*
X67574613Y-106385106D01*
X67550720Y-106408998D01*
X67518451Y-106445060D01*
X67423984Y-106493194D01*
X67375851Y-106498102D01*
X67342472Y-106503389D01*
X67335243Y-106502244D01*
X67318507Y-106503951D01*
X67253320Y-106490828D01*
X66706462Y-106313143D01*
X66646011Y-106285444D01*
X66633476Y-106274228D01*
X66626955Y-106270905D01*
X66603059Y-106247009D01*
X66567002Y-106214744D01*
X66518868Y-106120276D01*
X66513960Y-106072159D01*
X66508672Y-106038763D01*
X66509817Y-106031531D01*
X66508111Y-106014799D01*
X66521234Y-105949612D01*
X66652775Y-105544769D01*
X66664977Y-105507215D01*
X66664978Y-105507212D01*
X66668017Y-105497860D01*
X66695716Y-105437409D01*
X66706929Y-105424877D01*
X66710254Y-105418353D01*
X66734164Y-105394442D01*
X66766417Y-105358400D01*
X66860884Y-105310266D01*
X66908995Y-105305359D01*
X66942395Y-105300070D01*
X66949627Y-105301215D01*
X66966361Y-105299509D01*
X67031548Y-105312632D01*
G37*
G36*
X75395888Y-105046215D02*
G01*
X75403124Y-105045069D01*
X75436532Y-105050360D01*
X75484636Y-105055266D01*
X75579103Y-105103400D01*
X75611364Y-105139452D01*
X75635263Y-105163351D01*
X75638585Y-105169872D01*
X75649804Y-105182409D01*
X75677503Y-105242860D01*
X75789207Y-105586651D01*
X75810703Y-105652809D01*
X75824286Y-105694612D01*
X75837409Y-105759799D01*
X75835702Y-105776531D01*
X75836848Y-105783763D01*
X75831559Y-105817152D01*
X75826652Y-105865276D01*
X75778518Y-105959744D01*
X75742450Y-105992018D01*
X75718565Y-106015904D01*
X75712045Y-106019225D01*
X75699509Y-106030444D01*
X75639058Y-106058143D01*
X75092200Y-106235828D01*
X75027013Y-106248951D01*
X75010279Y-106247244D01*
X75003047Y-106248390D01*
X74969654Y-106243101D01*
X74921536Y-106238194D01*
X74827069Y-106190060D01*
X74794807Y-106154007D01*
X74770908Y-106130108D01*
X74767585Y-106123586D01*
X74756368Y-106111051D01*
X74728669Y-106050600D01*
X74637987Y-105771509D01*
X74584925Y-105608204D01*
X74584924Y-105608198D01*
X74581886Y-105598848D01*
X74568763Y-105533661D01*
X74570469Y-105516931D01*
X74569323Y-105509695D01*
X74574614Y-105476284D01*
X74579520Y-105428184D01*
X74627654Y-105333716D01*
X74663702Y-105301458D01*
X74687606Y-105277555D01*
X74694130Y-105274230D01*
X74706663Y-105263016D01*
X74767114Y-105235317D01*
X75053071Y-105142404D01*
X75304615Y-105060672D01*
X75304616Y-105060671D01*
X75313972Y-105057632D01*
X75379159Y-105044509D01*
X75395888Y-105046215D01*
G37*
G36*
X65367200Y-104771852D02*
G01*
X65914058Y-104949537D01*
X65974509Y-104977236D01*
X65987041Y-104988450D01*
X65993564Y-104991774D01*
X66017460Y-105015670D01*
X66053518Y-105047936D01*
X66101652Y-105142404D01*
X66106560Y-105190531D01*
X66111847Y-105223914D01*
X66110701Y-105231143D01*
X66112409Y-105247881D01*
X66099286Y-105313068D01*
X65952503Y-105764820D01*
X65924804Y-105825271D01*
X65913587Y-105837806D01*
X65910265Y-105844326D01*
X65886372Y-105868218D01*
X65854103Y-105904280D01*
X65759636Y-105952414D01*
X65711503Y-105957322D01*
X65678124Y-105962609D01*
X65670895Y-105961464D01*
X65654159Y-105963171D01*
X65588972Y-105950048D01*
X65042114Y-105772363D01*
X64981663Y-105744664D01*
X64969128Y-105733448D01*
X64962607Y-105730125D01*
X64938711Y-105706229D01*
X64902654Y-105673964D01*
X64854520Y-105579496D01*
X64849612Y-105531379D01*
X64844324Y-105497983D01*
X64845469Y-105490751D01*
X64843763Y-105474019D01*
X64856886Y-105408832D01*
X64970010Y-105060672D01*
X65000629Y-104966435D01*
X65000630Y-104966432D01*
X65003669Y-104957080D01*
X65031368Y-104896629D01*
X65042581Y-104884097D01*
X65045906Y-104877573D01*
X65069816Y-104853662D01*
X65102069Y-104817620D01*
X65196536Y-104769486D01*
X65244647Y-104764579D01*
X65278047Y-104759290D01*
X65285279Y-104760435D01*
X65302013Y-104758729D01*
X65367200Y-104771852D01*
G37*
G36*
X59410005Y-104226238D02*
G01*
X59446042Y-104231946D01*
X59453081Y-104235532D01*
X59469980Y-104239179D01*
X59530432Y-104273218D01*
X59634188Y-104348601D01*
X60048332Y-104649493D01*
X60048335Y-104649496D01*
X60056293Y-104655278D01*
X60107347Y-104702253D01*
X60116037Y-104717199D01*
X60121621Y-104722783D01*
X60138175Y-104755272D01*
X60162950Y-104797880D01*
X60180254Y-104907135D01*
X60169860Y-104955304D01*
X60164156Y-104991322D01*
X60160570Y-104998358D01*
X60156923Y-105015264D01*
X60122884Y-105075716D01*
X59917502Y-105358400D01*
X59599662Y-105795870D01*
X59599658Y-105795873D01*
X59593877Y-105803831D01*
X59546903Y-105854884D01*
X59531955Y-105863575D01*
X59526372Y-105869159D01*
X59493884Y-105885712D01*
X59451276Y-105910488D01*
X59342021Y-105927792D01*
X59293850Y-105917398D01*
X59257829Y-105911693D01*
X59250792Y-105908107D01*
X59233892Y-105904461D01*
X59173440Y-105870422D01*
X58857706Y-105641028D01*
X58655539Y-105494146D01*
X58655536Y-105494143D01*
X58647579Y-105488362D01*
X58596525Y-105441387D01*
X58587834Y-105426440D01*
X58582250Y-105420856D01*
X58565692Y-105388360D01*
X58540922Y-105345760D01*
X58523618Y-105236505D01*
X58534007Y-105188356D01*
X58539715Y-105152317D01*
X58543302Y-105145276D01*
X58546949Y-105128376D01*
X58580988Y-105067924D01*
X58586771Y-105059963D01*
X58586774Y-105059959D01*
X59104209Y-104347769D01*
X59104218Y-104347759D01*
X59109995Y-104339809D01*
X59156969Y-104288756D01*
X59171911Y-104280067D01*
X59177499Y-104274480D01*
X59210008Y-104257915D01*
X59252596Y-104233152D01*
X59361851Y-104215848D01*
X59410005Y-104226238D01*
G37*
G36*
X82814042Y-104078312D02*
G01*
X82856632Y-104103077D01*
X82889135Y-104119638D01*
X82894721Y-104125224D01*
X82909669Y-104133916D01*
X82956643Y-104184969D01*
X83485650Y-104913084D01*
X83519689Y-104973536D01*
X83523335Y-104990438D01*
X83526922Y-104997476D01*
X83532627Y-105033500D01*
X83543020Y-105081665D01*
X83525716Y-105190920D01*
X83500939Y-105233530D01*
X83484388Y-105266015D01*
X83478805Y-105271597D01*
X83470113Y-105286547D01*
X83419059Y-105333522D01*
X82893198Y-105715582D01*
X82832746Y-105749621D01*
X82815843Y-105753267D01*
X82808806Y-105756854D01*
X82772781Y-105762559D01*
X82724617Y-105772952D01*
X82615362Y-105755648D01*
X82572764Y-105730878D01*
X82540268Y-105714321D01*
X82534682Y-105708735D01*
X82519735Y-105700044D01*
X82472761Y-105648991D01*
X81943754Y-104920876D01*
X81909715Y-104860424D01*
X81906068Y-104843523D01*
X81902481Y-104836483D01*
X81896773Y-104800444D01*
X81886384Y-104752295D01*
X81903688Y-104643040D01*
X81928452Y-104600450D01*
X81945015Y-104567944D01*
X81950601Y-104562357D01*
X81959291Y-104547413D01*
X82010345Y-104500438D01*
X82299220Y-104290558D01*
X82528245Y-104124161D01*
X82528249Y-104124158D01*
X82536206Y-104118378D01*
X82596658Y-104084339D01*
X82613554Y-104080693D01*
X82620597Y-104077105D01*
X82656641Y-104071396D01*
X82704787Y-104061008D01*
X82814042Y-104078312D01*
G37*
G36*
X77060236Y-104505435D02*
G01*
X77067472Y-104504289D01*
X77100880Y-104509580D01*
X77148984Y-104514486D01*
X77243451Y-104562620D01*
X77275712Y-104598672D01*
X77299611Y-104622571D01*
X77302933Y-104629092D01*
X77314152Y-104641629D01*
X77341851Y-104702080D01*
X77488634Y-105153832D01*
X77501757Y-105219019D01*
X77500050Y-105235751D01*
X77501196Y-105242983D01*
X77495907Y-105276372D01*
X77491000Y-105324496D01*
X77442866Y-105418964D01*
X77406798Y-105451238D01*
X77382913Y-105475124D01*
X77376393Y-105478445D01*
X77363857Y-105489664D01*
X77303406Y-105517363D01*
X76756548Y-105695048D01*
X76691361Y-105708171D01*
X76674627Y-105706464D01*
X76667395Y-105707610D01*
X76634002Y-105702321D01*
X76585884Y-105697414D01*
X76491417Y-105649280D01*
X76459155Y-105613227D01*
X76435256Y-105589328D01*
X76431933Y-105582806D01*
X76420716Y-105570271D01*
X76393017Y-105509820D01*
X76306316Y-105242983D01*
X76249273Y-105067424D01*
X76249272Y-105067418D01*
X76246234Y-105058068D01*
X76233111Y-104992881D01*
X76234817Y-104976151D01*
X76233671Y-104968915D01*
X76238962Y-104935504D01*
X76243868Y-104887404D01*
X76292002Y-104792936D01*
X76328050Y-104760678D01*
X76351954Y-104736775D01*
X76358478Y-104733450D01*
X76371011Y-104722236D01*
X76431462Y-104694537D01*
X76821075Y-104567944D01*
X76968963Y-104519892D01*
X76968964Y-104519891D01*
X76978320Y-104516852D01*
X77043507Y-104503729D01*
X77060236Y-104505435D01*
G37*
G36*
X62590423Y-103376333D02*
G01*
X62623825Y-103381623D01*
X62630352Y-103384948D01*
X62646791Y-103388496D01*
X62704733Y-103421121D01*
X62917595Y-103575774D01*
X63161953Y-103753310D01*
X63161955Y-103753312D01*
X63169917Y-103759097D01*
X63218850Y-103804121D01*
X63227305Y-103818662D01*
X63232482Y-103823839D01*
X63247828Y-103853958D01*
X63272145Y-103895777D01*
X63288731Y-104000495D01*
X63278524Y-104047793D01*
X63273239Y-104081167D01*
X63269916Y-104087687D01*
X63266368Y-104104133D01*
X63233743Y-104162075D01*
X62954545Y-104546358D01*
X62909521Y-104595291D01*
X62894975Y-104603748D01*
X62889802Y-104608922D01*
X62859697Y-104624261D01*
X62817865Y-104648585D01*
X62713147Y-104665171D01*
X62665861Y-104654967D01*
X62632474Y-104649680D01*
X62625949Y-104646355D01*
X62609509Y-104642808D01*
X62551567Y-104610183D01*
X62244393Y-104387008D01*
X62094346Y-104277993D01*
X62094344Y-104277991D01*
X62086383Y-104272207D01*
X62037450Y-104227183D01*
X62028994Y-104212641D01*
X62023817Y-104207464D01*
X62008467Y-104177339D01*
X61984155Y-104135527D01*
X61967569Y-104030809D01*
X61977770Y-103983530D01*
X61983060Y-103950136D01*
X61986384Y-103943611D01*
X61989932Y-103927171D01*
X62022557Y-103869229D01*
X62166309Y-103671371D01*
X62295970Y-103492908D01*
X62295970Y-103492907D01*
X62301755Y-103484946D01*
X62346779Y-103436013D01*
X62361319Y-103427558D01*
X62366497Y-103422381D01*
X62396623Y-103407030D01*
X62438435Y-103382719D01*
X62543153Y-103366133D01*
X62590423Y-103376333D01*
G37*
G36*
X79740605Y-103126919D02*
G01*
X79782423Y-103151234D01*
X79812544Y-103166582D01*
X79817719Y-103171757D01*
X79832261Y-103180213D01*
X79877285Y-103229146D01*
X80156483Y-103613429D01*
X80189108Y-103671371D01*
X80192655Y-103687813D01*
X80195979Y-103694335D01*
X80201265Y-103727714D01*
X80211471Y-103775009D01*
X80194885Y-103879727D01*
X80170564Y-103921552D01*
X80155221Y-103951666D01*
X80150045Y-103956841D01*
X80141590Y-103971383D01*
X80092657Y-104016407D01*
X79627473Y-104354383D01*
X79569531Y-104387008D01*
X79553090Y-104390555D01*
X79546566Y-104393880D01*
X79513179Y-104399167D01*
X79465893Y-104409371D01*
X79361175Y-104392785D01*
X79319349Y-104368465D01*
X79289235Y-104353121D01*
X79284060Y-104347946D01*
X79269519Y-104339491D01*
X79224495Y-104290558D01*
X78945297Y-103906275D01*
X78912672Y-103848333D01*
X78909124Y-103831892D01*
X78905800Y-103825368D01*
X78900510Y-103791974D01*
X78890309Y-103744695D01*
X78906895Y-103639977D01*
X78931203Y-103598172D01*
X78946558Y-103568037D01*
X78951737Y-103562857D01*
X78960190Y-103548321D01*
X79009123Y-103503297D01*
X79101731Y-103436013D01*
X79466349Y-103171102D01*
X79466352Y-103171100D01*
X79474307Y-103165321D01*
X79532249Y-103132696D01*
X79548684Y-103129149D01*
X79555213Y-103125823D01*
X79588621Y-103120532D01*
X79635887Y-103110333D01*
X79740605Y-103126919D01*
G37*
G36*
X61174643Y-102347709D02*
G01*
X61208045Y-102352999D01*
X61214572Y-102356324D01*
X61231011Y-102359872D01*
X61288953Y-102392497D01*
X61491399Y-102539583D01*
X61746173Y-102724686D01*
X61746175Y-102724688D01*
X61754137Y-102730473D01*
X61803070Y-102775497D01*
X61811525Y-102790038D01*
X61816702Y-102795215D01*
X61832048Y-102825334D01*
X61856365Y-102867153D01*
X61872951Y-102971871D01*
X61862744Y-103019169D01*
X61857459Y-103052543D01*
X61854136Y-103059063D01*
X61850588Y-103075509D01*
X61817963Y-103133451D01*
X61538765Y-103517734D01*
X61493741Y-103566667D01*
X61479195Y-103575124D01*
X61474022Y-103580298D01*
X61443917Y-103595637D01*
X61402085Y-103619961D01*
X61297367Y-103636547D01*
X61250081Y-103626343D01*
X61216694Y-103621056D01*
X61210169Y-103617731D01*
X61193729Y-103614184D01*
X61135787Y-103581559D01*
X60800525Y-103337977D01*
X60678566Y-103249369D01*
X60678564Y-103249367D01*
X60670603Y-103243583D01*
X60621670Y-103198559D01*
X60613214Y-103184017D01*
X60608037Y-103178840D01*
X60592687Y-103148715D01*
X60568375Y-103106903D01*
X60551789Y-103002185D01*
X60561990Y-102954906D01*
X60567280Y-102921512D01*
X60570604Y-102914987D01*
X60574152Y-102898547D01*
X60606777Y-102840605D01*
X60669422Y-102754381D01*
X60880190Y-102464284D01*
X60880190Y-102464283D01*
X60885975Y-102456322D01*
X60930999Y-102407389D01*
X60945539Y-102398934D01*
X60950717Y-102393757D01*
X60980843Y-102378406D01*
X61022655Y-102354095D01*
X61127373Y-102337509D01*
X61174643Y-102347709D01*
G37*
G36*
X57149740Y-101819528D02*
G01*
X57192336Y-101844296D01*
X57224835Y-101860855D01*
X57230419Y-101866439D01*
X57245367Y-101875131D01*
X57292342Y-101926185D01*
X57674402Y-102452046D01*
X57708441Y-102512498D01*
X57712087Y-102529398D01*
X57715674Y-102536437D01*
X57721379Y-102572464D01*
X57731772Y-102620627D01*
X57714468Y-102729882D01*
X57689694Y-102772486D01*
X57673141Y-102804975D01*
X57667557Y-102810558D01*
X57658864Y-102825509D01*
X57607811Y-102872483D01*
X56879696Y-103401490D01*
X56819244Y-103435529D01*
X56802340Y-103439176D01*
X56795303Y-103442762D01*
X56759282Y-103448466D01*
X56711115Y-103458860D01*
X56601860Y-103441556D01*
X56559256Y-103416783D01*
X56526764Y-103400228D01*
X56521180Y-103394644D01*
X56506233Y-103385953D01*
X56459258Y-103334899D01*
X56077198Y-102809038D01*
X56043159Y-102748586D01*
X56039512Y-102731687D01*
X56035925Y-102724646D01*
X56030216Y-102688604D01*
X56019828Y-102640457D01*
X56037132Y-102531202D01*
X56061892Y-102488618D01*
X56078458Y-102456108D01*
X56084045Y-102450520D01*
X56092736Y-102435575D01*
X56143789Y-102388601D01*
X56871904Y-101859594D01*
X56932356Y-101825555D01*
X56949254Y-101821908D01*
X56956296Y-101818321D01*
X56992337Y-101812612D01*
X57040485Y-101802224D01*
X57149740Y-101819528D01*
G37*
G36*
X81156385Y-102098295D02*
G01*
X81198203Y-102122610D01*
X81228324Y-102137958D01*
X81233499Y-102143133D01*
X81248041Y-102151589D01*
X81293065Y-102200522D01*
X81572263Y-102584805D01*
X81604888Y-102642747D01*
X81608435Y-102659189D01*
X81611759Y-102665711D01*
X81617045Y-102699090D01*
X81627251Y-102746385D01*
X81610665Y-102851103D01*
X81586344Y-102892928D01*
X81571001Y-102923042D01*
X81565825Y-102928217D01*
X81557370Y-102942759D01*
X81508437Y-102987783D01*
X81043253Y-103325759D01*
X80985311Y-103358384D01*
X80968870Y-103361931D01*
X80962346Y-103365256D01*
X80928959Y-103370543D01*
X80881673Y-103380747D01*
X80776955Y-103364161D01*
X80735129Y-103339841D01*
X80705015Y-103324497D01*
X80699840Y-103319322D01*
X80685299Y-103310867D01*
X80640275Y-103261934D01*
X80361077Y-102877651D01*
X80328452Y-102819709D01*
X80324904Y-102803268D01*
X80321580Y-102796744D01*
X80316290Y-102763350D01*
X80306089Y-102716071D01*
X80322675Y-102611353D01*
X80346983Y-102569548D01*
X80362338Y-102539413D01*
X80367517Y-102534233D01*
X80375970Y-102519697D01*
X80424903Y-102474673D01*
X80450161Y-102456322D01*
X80882129Y-102142478D01*
X80882132Y-102142476D01*
X80890087Y-102136697D01*
X80948029Y-102104072D01*
X80964464Y-102100525D01*
X80970993Y-102097199D01*
X81004401Y-102091908D01*
X81051667Y-102081709D01*
X81156385Y-102098295D01*
G37*
G36*
X85024446Y-101693173D02*
G01*
X85060482Y-101698881D01*
X85067521Y-101702468D01*
X85084424Y-101706115D01*
X85144876Y-101740154D01*
X85152839Y-101745939D01*
X85152840Y-101745940D01*
X85865030Y-102263375D01*
X85865037Y-102263382D01*
X85872991Y-102269161D01*
X85924044Y-102316135D01*
X85932733Y-102331079D01*
X85938319Y-102336665D01*
X85954876Y-102369160D01*
X85979648Y-102411762D01*
X85996952Y-102521017D01*
X85986557Y-102569188D01*
X85980853Y-102605208D01*
X85977267Y-102612243D01*
X85973621Y-102629146D01*
X85939582Y-102689598D01*
X85557522Y-103215459D01*
X85510547Y-103266513D01*
X85495597Y-103275205D01*
X85490016Y-103280787D01*
X85457534Y-103297337D01*
X85414920Y-103322116D01*
X85305665Y-103339420D01*
X85257498Y-103329027D01*
X85221477Y-103323322D01*
X85214439Y-103319736D01*
X85197536Y-103316089D01*
X85137084Y-103282050D01*
X85096099Y-103252273D01*
X84416929Y-102758828D01*
X84416922Y-102758821D01*
X84408969Y-102753043D01*
X84357916Y-102706069D01*
X84349226Y-102691124D01*
X84343640Y-102685538D01*
X84327079Y-102653036D01*
X84302312Y-102610442D01*
X84285008Y-102501187D01*
X84295397Y-102453034D01*
X84301106Y-102416995D01*
X84304693Y-102409954D01*
X84308339Y-102393058D01*
X84342378Y-102332606D01*
X84392677Y-102263375D01*
X84718653Y-101814705D01*
X84718659Y-101814698D01*
X84724438Y-101806745D01*
X84771413Y-101755691D01*
X84786357Y-101747001D01*
X84791943Y-101741416D01*
X84824446Y-101724854D01*
X84867040Y-101700088D01*
X84976295Y-101682784D01*
X85024446Y-101693173D01*
G37*
G36*
X55944780Y-100161044D02*
G01*
X55987376Y-100185812D01*
X56019875Y-100202371D01*
X56025459Y-100207955D01*
X56040407Y-100216647D01*
X56087382Y-100267701D01*
X56469442Y-100793562D01*
X56503481Y-100854014D01*
X56507127Y-100870914D01*
X56510714Y-100877953D01*
X56516419Y-100913980D01*
X56526812Y-100962143D01*
X56509508Y-101071398D01*
X56484734Y-101114002D01*
X56468181Y-101146491D01*
X56462597Y-101152074D01*
X56453904Y-101167025D01*
X56402851Y-101213999D01*
X55674736Y-101743006D01*
X55614284Y-101777045D01*
X55597380Y-101780692D01*
X55590343Y-101784278D01*
X55554322Y-101789982D01*
X55506155Y-101800376D01*
X55396900Y-101783072D01*
X55354296Y-101758299D01*
X55321804Y-101741744D01*
X55316220Y-101736160D01*
X55301273Y-101727469D01*
X55254298Y-101676415D01*
X54872238Y-101150554D01*
X54838199Y-101090102D01*
X54834552Y-101073203D01*
X54830965Y-101066162D01*
X54825256Y-101030120D01*
X54814868Y-100981973D01*
X54832172Y-100872718D01*
X54856932Y-100830134D01*
X54873498Y-100797624D01*
X54879085Y-100792036D01*
X54887776Y-100777091D01*
X54938829Y-100730117D01*
X55537856Y-100294898D01*
X55658984Y-100206893D01*
X55658985Y-100206892D01*
X55666944Y-100201110D01*
X55727396Y-100167071D01*
X55744294Y-100163424D01*
X55751336Y-100159837D01*
X55787377Y-100154128D01*
X55835525Y-100143740D01*
X55944780Y-100161044D01*
G37*
G36*
X86229406Y-100034689D02*
G01*
X86265442Y-100040397D01*
X86272481Y-100043984D01*
X86289384Y-100047631D01*
X86349836Y-100081670D01*
X86357799Y-100087455D01*
X86357800Y-100087456D01*
X87069990Y-100604891D01*
X87069997Y-100604898D01*
X87077951Y-100610677D01*
X87129004Y-100657651D01*
X87137693Y-100672595D01*
X87143279Y-100678181D01*
X87159836Y-100710676D01*
X87184608Y-100753278D01*
X87201912Y-100862533D01*
X87191517Y-100910704D01*
X87185813Y-100946724D01*
X87182227Y-100953759D01*
X87178581Y-100970662D01*
X87144542Y-101031114D01*
X86762482Y-101556975D01*
X86715507Y-101608029D01*
X86700557Y-101616721D01*
X86694976Y-101622303D01*
X86662494Y-101638853D01*
X86619880Y-101663632D01*
X86510625Y-101680936D01*
X86462458Y-101670543D01*
X86426437Y-101664838D01*
X86419399Y-101661252D01*
X86402496Y-101657605D01*
X86342044Y-101623566D01*
X86176871Y-101503561D01*
X85621889Y-101100344D01*
X85621882Y-101100337D01*
X85613929Y-101094559D01*
X85562876Y-101047585D01*
X85554186Y-101032640D01*
X85548600Y-101027054D01*
X85532039Y-100994552D01*
X85507272Y-100951958D01*
X85489968Y-100842703D01*
X85500357Y-100794550D01*
X85506066Y-100758511D01*
X85509653Y-100751470D01*
X85513299Y-100734574D01*
X85547338Y-100674122D01*
X85559305Y-100657651D01*
X85923613Y-100156221D01*
X85923619Y-100156214D01*
X85929398Y-100148261D01*
X85976373Y-100097207D01*
X85991317Y-100088517D01*
X85996903Y-100082932D01*
X86029406Y-100066370D01*
X86072000Y-100041604D01*
X86181255Y-100024300D01*
X86229406Y-100034689D01*
G37*
G36*
X59184447Y-100255235D02*
G01*
X59226259Y-100279547D01*
X59256386Y-100294898D01*
X59261563Y-100300075D01*
X59276103Y-100308530D01*
X59321127Y-100357463D01*
X59659103Y-100822647D01*
X59691728Y-100880589D01*
X59695275Y-100897027D01*
X59698600Y-100903553D01*
X59703888Y-100936943D01*
X59714091Y-100984227D01*
X59697505Y-101088945D01*
X59673181Y-101130777D01*
X59657841Y-101160884D01*
X59652667Y-101166057D01*
X59644211Y-101180601D01*
X59595278Y-101225625D01*
X59210995Y-101504823D01*
X59153053Y-101537448D01*
X59136609Y-101540996D01*
X59130088Y-101544319D01*
X59096711Y-101549605D01*
X59049415Y-101559811D01*
X58944697Y-101543225D01*
X58902878Y-101518908D01*
X58872757Y-101503561D01*
X58867580Y-101498384D01*
X58853041Y-101489930D01*
X58808017Y-101440997D01*
X58491887Y-101005882D01*
X58475822Y-100983770D01*
X58475821Y-100983769D01*
X58470041Y-100975813D01*
X58437416Y-100917871D01*
X58433869Y-100901434D01*
X58430543Y-100894906D01*
X58425252Y-100861501D01*
X58415053Y-100814233D01*
X58431639Y-100709515D01*
X58455950Y-100667703D01*
X58471302Y-100637575D01*
X58476479Y-100632397D01*
X58484933Y-100617859D01*
X58533866Y-100572835D01*
X58918149Y-100293637D01*
X58976091Y-100261012D01*
X58992529Y-100257464D01*
X58999055Y-100254140D01*
X59032452Y-100248850D01*
X59079729Y-100238649D01*
X59184447Y-100255235D01*
G37*
G36*
X82978072Y-100093851D02*
G01*
X83011463Y-100099140D01*
X83017986Y-100102464D01*
X83034429Y-100106012D01*
X83092371Y-100138637D01*
X83476654Y-100417835D01*
X83525587Y-100462859D01*
X83534043Y-100477402D01*
X83539218Y-100482577D01*
X83554561Y-100512689D01*
X83578881Y-100554515D01*
X83595467Y-100659233D01*
X83585263Y-100706520D01*
X83579976Y-100739905D01*
X83576651Y-100746428D01*
X83573104Y-100762871D01*
X83540479Y-100820813D01*
X83202503Y-101285997D01*
X83157479Y-101334930D01*
X83142935Y-101343386D01*
X83137760Y-101348562D01*
X83107649Y-101363904D01*
X83065823Y-101388225D01*
X82961105Y-101404811D01*
X82913809Y-101394605D01*
X82880432Y-101389319D01*
X82873910Y-101385996D01*
X82857467Y-101382448D01*
X82799525Y-101349823D01*
X82415242Y-101070625D01*
X82366309Y-101025601D01*
X82357852Y-101011057D01*
X82352677Y-101005882D01*
X82337330Y-100975763D01*
X82313015Y-100933945D01*
X82296429Y-100829227D01*
X82306628Y-100781959D01*
X82311919Y-100748554D01*
X82315245Y-100742026D01*
X82318792Y-100725589D01*
X82351417Y-100667647D01*
X82500204Y-100462859D01*
X82683606Y-100210426D01*
X82683611Y-100210420D01*
X82689393Y-100202463D01*
X82734417Y-100153530D01*
X82748955Y-100145076D01*
X82754135Y-100139897D01*
X82784267Y-100124543D01*
X82826073Y-100100235D01*
X82930791Y-100083649D01*
X82978072Y-100093851D01*
G37*
G36*
X66779517Y-99570582D02*
G01*
X66796062Y-99581638D01*
X66807118Y-99598183D01*
X66811000Y-99617700D01*
X66811000Y-100917700D01*
X66807118Y-100937217D01*
X66796062Y-100953762D01*
X66779517Y-100964818D01*
X66760000Y-100968700D01*
X65960000Y-100968700D01*
X65940483Y-100964818D01*
X65923938Y-100953762D01*
X65912882Y-100937217D01*
X65909000Y-100917700D01*
X65909000Y-99617700D01*
X65912882Y-99598183D01*
X65923938Y-99581638D01*
X65940483Y-99570582D01*
X65960000Y-99566700D01*
X66760000Y-99566700D01*
X66779517Y-99570582D01*
G37*
G36*
X68059517Y-99570582D02*
G01*
X68076062Y-99581638D01*
X68087118Y-99598183D01*
X68091000Y-99617700D01*
X68091000Y-100917700D01*
X68087118Y-100937217D01*
X68076062Y-100953762D01*
X68059517Y-100964818D01*
X68040000Y-100968700D01*
X67240000Y-100968700D01*
X67220483Y-100964818D01*
X67203938Y-100953762D01*
X67192882Y-100937217D01*
X67189000Y-100917700D01*
X67189000Y-99617700D01*
X67192882Y-99598183D01*
X67203938Y-99581638D01*
X67220483Y-99570582D01*
X67240000Y-99566700D01*
X68040000Y-99566700D01*
X68059517Y-99570582D01*
G37*
G36*
X69319517Y-99570582D02*
G01*
X69336062Y-99581638D01*
X69347118Y-99598183D01*
X69351000Y-99617700D01*
X69351000Y-100917700D01*
X69347118Y-100937217D01*
X69336062Y-100953762D01*
X69319517Y-100964818D01*
X69300000Y-100968700D01*
X68500000Y-100968700D01*
X68480483Y-100964818D01*
X68463938Y-100953762D01*
X68452882Y-100937217D01*
X68449000Y-100917700D01*
X68449000Y-99617700D01*
X68452882Y-99598183D01*
X68463938Y-99581638D01*
X68480483Y-99570582D01*
X68500000Y-99566700D01*
X69300000Y-99566700D01*
X69319517Y-99570582D01*
G37*
G36*
X70589517Y-99570582D02*
G01*
X70606062Y-99581638D01*
X70617118Y-99598183D01*
X70621000Y-99617700D01*
X70621000Y-100917700D01*
X70617118Y-100937217D01*
X70606062Y-100953762D01*
X70589517Y-100964818D01*
X70570000Y-100968700D01*
X69770000Y-100968700D01*
X69750483Y-100964818D01*
X69733938Y-100953762D01*
X69722882Y-100937217D01*
X69719000Y-100917700D01*
X69719000Y-99617700D01*
X69722882Y-99598183D01*
X69733938Y-99581638D01*
X69750483Y-99570582D01*
X69770000Y-99566700D01*
X70570000Y-99566700D01*
X70589517Y-99570582D01*
G37*
G36*
X71869517Y-99570582D02*
G01*
X71886062Y-99581638D01*
X71897118Y-99598183D01*
X71901000Y-99617700D01*
X71901000Y-100917700D01*
X71897118Y-100937217D01*
X71886062Y-100953762D01*
X71869517Y-100964818D01*
X71850000Y-100968700D01*
X71050000Y-100968700D01*
X71030483Y-100964818D01*
X71013938Y-100953762D01*
X71002882Y-100937217D01*
X70999000Y-100917700D01*
X70999000Y-99617700D01*
X71002882Y-99598183D01*
X71013938Y-99581638D01*
X71030483Y-99570582D01*
X71050000Y-99566700D01*
X71850000Y-99566700D01*
X71869517Y-99570582D01*
G37*
G36*
X73139517Y-99570582D02*
G01*
X73156062Y-99581638D01*
X73167118Y-99598183D01*
X73171000Y-99617700D01*
X73171000Y-100917700D01*
X73167118Y-100937217D01*
X73156062Y-100953762D01*
X73139517Y-100964818D01*
X73120000Y-100968700D01*
X72320000Y-100968700D01*
X72300483Y-100964818D01*
X72283938Y-100953762D01*
X72272882Y-100937217D01*
X72269000Y-100917700D01*
X72269000Y-99617700D01*
X72272882Y-99598183D01*
X72283938Y-99581638D01*
X72300483Y-99570582D01*
X72320000Y-99566700D01*
X73120000Y-99566700D01*
X73139517Y-99570582D01*
G37*
G36*
X74399517Y-99570582D02*
G01*
X74416062Y-99581638D01*
X74427118Y-99598183D01*
X74431000Y-99617700D01*
X74431000Y-100917700D01*
X74427118Y-100937217D01*
X74416062Y-100953762D01*
X74399517Y-100964818D01*
X74380000Y-100968700D01*
X73580000Y-100968700D01*
X73560483Y-100964818D01*
X73543938Y-100953762D01*
X73532882Y-100937217D01*
X73529000Y-100917700D01*
X73529000Y-99617700D01*
X73532882Y-99598183D01*
X73543938Y-99581638D01*
X73560483Y-99570582D01*
X73580000Y-99566700D01*
X74380000Y-99566700D01*
X74399517Y-99570582D01*
G37*
G36*
X75679517Y-99570582D02*
G01*
X75696062Y-99581638D01*
X75707118Y-99598183D01*
X75711000Y-99617700D01*
X75711000Y-100917700D01*
X75707118Y-100937217D01*
X75696062Y-100953762D01*
X75679517Y-100964818D01*
X75660000Y-100968700D01*
X74860000Y-100968700D01*
X74840483Y-100964818D01*
X74823938Y-100953762D01*
X74812882Y-100937217D01*
X74809000Y-100917700D01*
X74809000Y-99617700D01*
X74812882Y-99598183D01*
X74823938Y-99581638D01*
X74840483Y-99570582D01*
X74860000Y-99566700D01*
X75660000Y-99566700D01*
X75679517Y-99570582D01*
G37*
G36*
X58155823Y-98839455D02*
G01*
X58197635Y-98863767D01*
X58227762Y-98879118D01*
X58232939Y-98884295D01*
X58247479Y-98892750D01*
X58292503Y-98941683D01*
X58630479Y-99406867D01*
X58663104Y-99464809D01*
X58666651Y-99481247D01*
X58669976Y-99487773D01*
X58675264Y-99521163D01*
X58685467Y-99568447D01*
X58668881Y-99673165D01*
X58644557Y-99714997D01*
X58629217Y-99745104D01*
X58624043Y-99750277D01*
X58615587Y-99764821D01*
X58566654Y-99809845D01*
X58182371Y-100089043D01*
X58124429Y-100121668D01*
X58107985Y-100125216D01*
X58101464Y-100128539D01*
X58068087Y-100133825D01*
X58020791Y-100144031D01*
X57916073Y-100127445D01*
X57874254Y-100103128D01*
X57844133Y-100087781D01*
X57838956Y-100082604D01*
X57824417Y-100074150D01*
X57779393Y-100025217D01*
X57457114Y-99581638D01*
X57447198Y-99567990D01*
X57447197Y-99567989D01*
X57441417Y-99560033D01*
X57408792Y-99502091D01*
X57405245Y-99485654D01*
X57401919Y-99479126D01*
X57396628Y-99445721D01*
X57386429Y-99398453D01*
X57403015Y-99293735D01*
X57427326Y-99251923D01*
X57442678Y-99221795D01*
X57447855Y-99216617D01*
X57456309Y-99202079D01*
X57505242Y-99157055D01*
X57889525Y-98877857D01*
X57947467Y-98845232D01*
X57963905Y-98841684D01*
X57970431Y-98838360D01*
X58003828Y-98833070D01*
X58051105Y-98822869D01*
X58155823Y-98839455D01*
G37*
G36*
X84006696Y-98678071D02*
G01*
X84040087Y-98683360D01*
X84046610Y-98686684D01*
X84063053Y-98690232D01*
X84120995Y-98722857D01*
X84505278Y-99002055D01*
X84554211Y-99047079D01*
X84562667Y-99061622D01*
X84567842Y-99066797D01*
X84583185Y-99096909D01*
X84607505Y-99138735D01*
X84624091Y-99243453D01*
X84613887Y-99290740D01*
X84608600Y-99324125D01*
X84605275Y-99330648D01*
X84601728Y-99347091D01*
X84569103Y-99405033D01*
X84231127Y-99870217D01*
X84186103Y-99919150D01*
X84171559Y-99927606D01*
X84166384Y-99932782D01*
X84136273Y-99948124D01*
X84094447Y-99972445D01*
X83989729Y-99989031D01*
X83942433Y-99978825D01*
X83909056Y-99973539D01*
X83902534Y-99970216D01*
X83886091Y-99966668D01*
X83828149Y-99934043D01*
X83443866Y-99654845D01*
X83394933Y-99609821D01*
X83386476Y-99595277D01*
X83381301Y-99590102D01*
X83365954Y-99559983D01*
X83341639Y-99518165D01*
X83325053Y-99413447D01*
X83335252Y-99366179D01*
X83340543Y-99332774D01*
X83343869Y-99326246D01*
X83347416Y-99309809D01*
X83380041Y-99251867D01*
X83528828Y-99047079D01*
X83712230Y-98794646D01*
X83712235Y-98794640D01*
X83718017Y-98786683D01*
X83763041Y-98737750D01*
X83777579Y-98729296D01*
X83782759Y-98724117D01*
X83812891Y-98708763D01*
X83854697Y-98684455D01*
X83959415Y-98667869D01*
X84006696Y-98678071D01*
G37*
G36*
X87479347Y-96930754D02*
G01*
X88335298Y-97208869D01*
X88398369Y-97237769D01*
X88411251Y-97249296D01*
X88418292Y-97252884D01*
X88444092Y-97278684D01*
X88480801Y-97311533D01*
X88531020Y-97410093D01*
X88536019Y-97459113D01*
X88541725Y-97495136D01*
X88540489Y-97502936D01*
X88542244Y-97520140D01*
X88528552Y-97588151D01*
X88327691Y-98206338D01*
X88298792Y-98269409D01*
X88287260Y-98282295D01*
X88283675Y-98289332D01*
X88257888Y-98315118D01*
X88225027Y-98351841D01*
X88126467Y-98402060D01*
X88077443Y-98407060D01*
X88041423Y-98412765D01*
X88033622Y-98411529D01*
X88016420Y-98413284D01*
X87948409Y-98399592D01*
X87092458Y-98121477D01*
X87029387Y-98092577D01*
X87016503Y-98081048D01*
X87009463Y-98077461D01*
X86983663Y-98051661D01*
X86946955Y-98018813D01*
X86896736Y-97920253D01*
X86891737Y-97871247D01*
X86886030Y-97835209D01*
X86887266Y-97827404D01*
X86885512Y-97810206D01*
X86899204Y-97742195D01*
X87058077Y-97253233D01*
X87097024Y-97133366D01*
X87097025Y-97133363D01*
X87100065Y-97124008D01*
X87128964Y-97060937D01*
X87140492Y-97048054D01*
X87144080Y-97041013D01*
X87169884Y-97015208D01*
X87202729Y-96978505D01*
X87301289Y-96928286D01*
X87350292Y-96923288D01*
X87386332Y-96917580D01*
X87394136Y-96918816D01*
X87411336Y-96917062D01*
X87479347Y-96930754D01*
G37*
G36*
X54180662Y-96742696D02*
G01*
X54188467Y-96741460D01*
X54224505Y-96747167D01*
X54273511Y-96752166D01*
X54372071Y-96802385D01*
X54404928Y-96839103D01*
X54430720Y-96864895D01*
X54434305Y-96871931D01*
X54445836Y-96884817D01*
X54474735Y-96947888D01*
X54675596Y-97566075D01*
X54689288Y-97634086D01*
X54687533Y-97651288D01*
X54688769Y-97659089D01*
X54683064Y-97695109D01*
X54678064Y-97744133D01*
X54627845Y-97842693D01*
X54591121Y-97875555D01*
X54565334Y-97901342D01*
X54558297Y-97904927D01*
X54545413Y-97916457D01*
X54482342Y-97945357D01*
X53626391Y-98223472D01*
X53558380Y-98237164D01*
X53541177Y-98235409D01*
X53533377Y-98236645D01*
X53497355Y-98230939D01*
X53448333Y-98225940D01*
X53349773Y-98175721D01*
X53316915Y-98139002D01*
X53291123Y-98113210D01*
X53287537Y-98106173D01*
X53276008Y-98093289D01*
X53247109Y-98030218D01*
X53106513Y-97597508D01*
X53049287Y-97421387D01*
X53049286Y-97421381D01*
X53046248Y-97412031D01*
X53032556Y-97344020D01*
X53034310Y-97326821D01*
X53033074Y-97319017D01*
X53038781Y-97282977D01*
X53043780Y-97233973D01*
X53093999Y-97135413D01*
X53130703Y-97102568D01*
X53156509Y-97076763D01*
X53163550Y-97073175D01*
X53176431Y-97061649D01*
X53239502Y-97032749D01*
X53694790Y-96884817D01*
X54086096Y-96757673D01*
X54086103Y-96757671D01*
X54095453Y-96754634D01*
X54163464Y-96740942D01*
X54180662Y-96742696D01*
G37*
G36*
X85021988Y-96012314D02*
G01*
X85473740Y-96159097D01*
X85534191Y-96186796D01*
X85546723Y-96198010D01*
X85553246Y-96201334D01*
X85577147Y-96225235D01*
X85613200Y-96257497D01*
X85661334Y-96351964D01*
X85666242Y-96400093D01*
X85671529Y-96433475D01*
X85670384Y-96440703D01*
X85672091Y-96457441D01*
X85658968Y-96522628D01*
X85481283Y-97069486D01*
X85453584Y-97129937D01*
X85442366Y-97142472D01*
X85439045Y-97148992D01*
X85415158Y-97172878D01*
X85382884Y-97208946D01*
X85288416Y-97257080D01*
X85240285Y-97261988D01*
X85206905Y-97267275D01*
X85199676Y-97266130D01*
X85182939Y-97267837D01*
X85117752Y-97254714D01*
X84666000Y-97107931D01*
X84605549Y-97080232D01*
X84593015Y-97069016D01*
X84586493Y-97065693D01*
X84562592Y-97041792D01*
X84526540Y-97009531D01*
X84478406Y-96915064D01*
X84473498Y-96866947D01*
X84468210Y-96833551D01*
X84469355Y-96826319D01*
X84467649Y-96809587D01*
X84480772Y-96744400D01*
X84618751Y-96319743D01*
X84655417Y-96206897D01*
X84655418Y-96206894D01*
X84658457Y-96197542D01*
X84686156Y-96137091D01*
X84697369Y-96124559D01*
X84700694Y-96118035D01*
X84724598Y-96094130D01*
X84756856Y-96058082D01*
X84851324Y-96009948D01*
X84899434Y-96005041D01*
X84932834Y-95999752D01*
X84940066Y-96000897D01*
X84956801Y-95999191D01*
X85021988Y-96012314D01*
G37*
G36*
X56377977Y-95936443D02*
G01*
X56385214Y-95935297D01*
X56418622Y-95940588D01*
X56466726Y-95945494D01*
X56561194Y-95993628D01*
X56593459Y-96029685D01*
X56617354Y-96053580D01*
X56620676Y-96060101D01*
X56631894Y-96072637D01*
X56659593Y-96133088D01*
X56837278Y-96679946D01*
X56850401Y-96745133D01*
X56848694Y-96761865D01*
X56849840Y-96769097D01*
X56844551Y-96802486D01*
X56839644Y-96850610D01*
X56791510Y-96945077D01*
X56755448Y-96977346D01*
X56731558Y-97001237D01*
X56725038Y-97004558D01*
X56712501Y-97015778D01*
X56652050Y-97043477D01*
X56200298Y-97190260D01*
X56135111Y-97203383D01*
X56118377Y-97201676D01*
X56111145Y-97202822D01*
X56077752Y-97197533D01*
X56029634Y-97192626D01*
X55935166Y-97144492D01*
X55902900Y-97108434D01*
X55879005Y-97084539D01*
X55875682Y-97078017D01*
X55864466Y-97065483D01*
X55836767Y-97005032D01*
X55659082Y-96458174D01*
X55645959Y-96392987D01*
X55647665Y-96376257D01*
X55646519Y-96369021D01*
X55651810Y-96335610D01*
X55656716Y-96287510D01*
X55704850Y-96193043D01*
X55740892Y-96160790D01*
X55764801Y-96136882D01*
X55771325Y-96133557D01*
X55783859Y-96122342D01*
X55844310Y-96094643D01*
X56035598Y-96032489D01*
X56286705Y-95950899D01*
X56286712Y-95950897D01*
X56296062Y-95947860D01*
X56361249Y-95934737D01*
X56377977Y-95936443D01*
G37*
G36*
X88112831Y-94981088D02*
G01*
X88968782Y-95259203D01*
X89031853Y-95288103D01*
X89044735Y-95299630D01*
X89051776Y-95303218D01*
X89077576Y-95329018D01*
X89114285Y-95361867D01*
X89164504Y-95460427D01*
X89169503Y-95509447D01*
X89175209Y-95545470D01*
X89173973Y-95553270D01*
X89175728Y-95570474D01*
X89162036Y-95638485D01*
X88961175Y-96256672D01*
X88932276Y-96319743D01*
X88920744Y-96332629D01*
X88917159Y-96339666D01*
X88891372Y-96365452D01*
X88858511Y-96402175D01*
X88759951Y-96452394D01*
X88710927Y-96457394D01*
X88674907Y-96463099D01*
X88667106Y-96461863D01*
X88649904Y-96463618D01*
X88581893Y-96449926D01*
X87725942Y-96171811D01*
X87662871Y-96142911D01*
X87649987Y-96131382D01*
X87642947Y-96127795D01*
X87617147Y-96101995D01*
X87580439Y-96069147D01*
X87530220Y-95970587D01*
X87525221Y-95921581D01*
X87519514Y-95885543D01*
X87520750Y-95877738D01*
X87518996Y-95860540D01*
X87532688Y-95792529D01*
X87659791Y-95401345D01*
X87730508Y-95183700D01*
X87730509Y-95183697D01*
X87733549Y-95174342D01*
X87762448Y-95111271D01*
X87773976Y-95098388D01*
X87777564Y-95091347D01*
X87803368Y-95065542D01*
X87836213Y-95028839D01*
X87934773Y-94978620D01*
X87983776Y-94973622D01*
X88019816Y-94967914D01*
X88027620Y-94969150D01*
X88044820Y-94967396D01*
X88112831Y-94981088D01*
G37*
G36*
X53547178Y-94793030D02*
G01*
X53554983Y-94791794D01*
X53591021Y-94797501D01*
X53640027Y-94802500D01*
X53738587Y-94852719D01*
X53771444Y-94889437D01*
X53797236Y-94915229D01*
X53800821Y-94922265D01*
X53812352Y-94935151D01*
X53841251Y-94998222D01*
X54015491Y-95534480D01*
X54037731Y-95602927D01*
X54042112Y-95616409D01*
X54055804Y-95684420D01*
X54054049Y-95701622D01*
X54055285Y-95709423D01*
X54049580Y-95745443D01*
X54044580Y-95794467D01*
X53994361Y-95893027D01*
X53957637Y-95925889D01*
X53931850Y-95951676D01*
X53924813Y-95955261D01*
X53911929Y-95966791D01*
X53848858Y-95995691D01*
X52992907Y-96273806D01*
X52924896Y-96287498D01*
X52907693Y-96285743D01*
X52899893Y-96286979D01*
X52863871Y-96281273D01*
X52814849Y-96276274D01*
X52716289Y-96226055D01*
X52683431Y-96189336D01*
X52657639Y-96163544D01*
X52654053Y-96156507D01*
X52642524Y-96143623D01*
X52613625Y-96080552D01*
X52473029Y-95647842D01*
X52415803Y-95471721D01*
X52415802Y-95471715D01*
X52412764Y-95462365D01*
X52399072Y-95394354D01*
X52400826Y-95377155D01*
X52399590Y-95369351D01*
X52405297Y-95333311D01*
X52410296Y-95284307D01*
X52460515Y-95185747D01*
X52497219Y-95152902D01*
X52523025Y-95127097D01*
X52530066Y-95123509D01*
X52542947Y-95111983D01*
X52606018Y-95083083D01*
X53061306Y-94935151D01*
X53452612Y-94808007D01*
X53452619Y-94808005D01*
X53461969Y-94804968D01*
X53529980Y-94791276D01*
X53547178Y-94793030D01*
G37*
G36*
X85562768Y-94347966D02*
G01*
X86014520Y-94494749D01*
X86074971Y-94522448D01*
X86087503Y-94533662D01*
X86094026Y-94536986D01*
X86117927Y-94560887D01*
X86153980Y-94593149D01*
X86202114Y-94687616D01*
X86207022Y-94735745D01*
X86212309Y-94769127D01*
X86211164Y-94776355D01*
X86212871Y-94793093D01*
X86199748Y-94858280D01*
X86022063Y-95405138D01*
X85994364Y-95465589D01*
X85983146Y-95478124D01*
X85979825Y-95484644D01*
X85955938Y-95508530D01*
X85923664Y-95544598D01*
X85829196Y-95592732D01*
X85781065Y-95597640D01*
X85747685Y-95602927D01*
X85740456Y-95601782D01*
X85723719Y-95603489D01*
X85658532Y-95590366D01*
X85206780Y-95443583D01*
X85146329Y-95415884D01*
X85133795Y-95404668D01*
X85127273Y-95401345D01*
X85103372Y-95377444D01*
X85067320Y-95345183D01*
X85019186Y-95250716D01*
X85014278Y-95202599D01*
X85008990Y-95169203D01*
X85010135Y-95161971D01*
X85008429Y-95145239D01*
X85021552Y-95080052D01*
X85165743Y-94636278D01*
X85196197Y-94542549D01*
X85196198Y-94542546D01*
X85199237Y-94533194D01*
X85226936Y-94472743D01*
X85238149Y-94460211D01*
X85241474Y-94453687D01*
X85265378Y-94429782D01*
X85297636Y-94393734D01*
X85392104Y-94345600D01*
X85440214Y-94340693D01*
X85473614Y-94335404D01*
X85480846Y-94336549D01*
X85497581Y-94334843D01*
X85562768Y-94347966D01*
G37*
G36*
X55837197Y-94272095D02*
G01*
X55844434Y-94270949D01*
X55877842Y-94276240D01*
X55925946Y-94281146D01*
X56020414Y-94329280D01*
X56052679Y-94365337D01*
X56076574Y-94389232D01*
X56079896Y-94395753D01*
X56091114Y-94408289D01*
X56118813Y-94468740D01*
X56296498Y-95015598D01*
X56309621Y-95080785D01*
X56307914Y-95097517D01*
X56309060Y-95104749D01*
X56303771Y-95138138D01*
X56298864Y-95186262D01*
X56250730Y-95280729D01*
X56214668Y-95312998D01*
X56190778Y-95336889D01*
X56184258Y-95340210D01*
X56171721Y-95351430D01*
X56111270Y-95379129D01*
X55659518Y-95525912D01*
X55594331Y-95539035D01*
X55577597Y-95537328D01*
X55570365Y-95538474D01*
X55536972Y-95533185D01*
X55488854Y-95528278D01*
X55394386Y-95480144D01*
X55362120Y-95444086D01*
X55338225Y-95420191D01*
X55334902Y-95413669D01*
X55323686Y-95401135D01*
X55295987Y-95340684D01*
X55118302Y-94793826D01*
X55105179Y-94728639D01*
X55106885Y-94711909D01*
X55105739Y-94704673D01*
X55111030Y-94671262D01*
X55115936Y-94623162D01*
X55164070Y-94528695D01*
X55200112Y-94496442D01*
X55224021Y-94472534D01*
X55230545Y-94469209D01*
X55243079Y-94457994D01*
X55303530Y-94430295D01*
X55494818Y-94368141D01*
X55745925Y-94286551D01*
X55745932Y-94286549D01*
X55755282Y-94283512D01*
X55820469Y-94270389D01*
X55837197Y-94272095D01*
G37*
G36*
X66779517Y-93270582D02*
G01*
X66796062Y-93281638D01*
X66807118Y-93298183D01*
X66811000Y-93317700D01*
X66811000Y-94617700D01*
X66807118Y-94637217D01*
X66796062Y-94653762D01*
X66779517Y-94664818D01*
X66760000Y-94668700D01*
X65960000Y-94668700D01*
X65940483Y-94664818D01*
X65923938Y-94653762D01*
X65912882Y-94637217D01*
X65909000Y-94617700D01*
X65909000Y-93317700D01*
X65912882Y-93298183D01*
X65923938Y-93281638D01*
X65940483Y-93270582D01*
X65960000Y-93266700D01*
X66760000Y-93266700D01*
X66779517Y-93270582D01*
G37*
G36*
X68059517Y-93270582D02*
G01*
X68076062Y-93281638D01*
X68087118Y-93298183D01*
X68091000Y-93317700D01*
X68091000Y-94617700D01*
X68087118Y-94637217D01*
X68076062Y-94653762D01*
X68059517Y-94664818D01*
X68040000Y-94668700D01*
X67240000Y-94668700D01*
X67220483Y-94664818D01*
X67203938Y-94653762D01*
X67192882Y-94637217D01*
X67189000Y-94617700D01*
X67189000Y-93317700D01*
X67192882Y-93298183D01*
X67203938Y-93281638D01*
X67220483Y-93270582D01*
X67240000Y-93266700D01*
X68040000Y-93266700D01*
X68059517Y-93270582D01*
G37*
G36*
X69319517Y-93270582D02*
G01*
X69336062Y-93281638D01*
X69347118Y-93298183D01*
X69351000Y-93317700D01*
X69351000Y-94617700D01*
X69347118Y-94637217D01*
X69336062Y-94653762D01*
X69319517Y-94664818D01*
X69300000Y-94668700D01*
X68500000Y-94668700D01*
X68480483Y-94664818D01*
X68463938Y-94653762D01*
X68452882Y-94637217D01*
X68449000Y-94617700D01*
X68449000Y-93317700D01*
X68452882Y-93298183D01*
X68463938Y-93281638D01*
X68480483Y-93270582D01*
X68500000Y-93266700D01*
X69300000Y-93266700D01*
X69319517Y-93270582D01*
G37*
G36*
X70589517Y-93270582D02*
G01*
X70606062Y-93281638D01*
X70617118Y-93298183D01*
X70621000Y-93317700D01*
X70621000Y-94617700D01*
X70617118Y-94637217D01*
X70606062Y-94653762D01*
X70589517Y-94664818D01*
X70570000Y-94668700D01*
X69770000Y-94668700D01*
X69750483Y-94664818D01*
X69733938Y-94653762D01*
X69722882Y-94637217D01*
X69719000Y-94617700D01*
X69719000Y-93317700D01*
X69722882Y-93298183D01*
X69733938Y-93281638D01*
X69750483Y-93270582D01*
X69770000Y-93266700D01*
X70570000Y-93266700D01*
X70589517Y-93270582D01*
G37*
G36*
X71869517Y-93270582D02*
G01*
X71886062Y-93281638D01*
X71897118Y-93298183D01*
X71901000Y-93317700D01*
X71901000Y-94617700D01*
X71897118Y-94637217D01*
X71886062Y-94653762D01*
X71869517Y-94664818D01*
X71850000Y-94668700D01*
X71050000Y-94668700D01*
X71030483Y-94664818D01*
X71013938Y-94653762D01*
X71002882Y-94637217D01*
X70999000Y-94617700D01*
X70999000Y-93317700D01*
X71002882Y-93298183D01*
X71013938Y-93281638D01*
X71030483Y-93270582D01*
X71050000Y-93266700D01*
X71850000Y-93266700D01*
X71869517Y-93270582D01*
G37*
G36*
X73139517Y-93270582D02*
G01*
X73156062Y-93281638D01*
X73167118Y-93298183D01*
X73171000Y-93317700D01*
X73171000Y-94617700D01*
X73167118Y-94637217D01*
X73156062Y-94653762D01*
X73139517Y-94664818D01*
X73120000Y-94668700D01*
X72320000Y-94668700D01*
X72300483Y-94664818D01*
X72283938Y-94653762D01*
X72272882Y-94637217D01*
X72269000Y-94617700D01*
X72269000Y-93317700D01*
X72272882Y-93298183D01*
X72283938Y-93281638D01*
X72300483Y-93270582D01*
X72320000Y-93266700D01*
X73120000Y-93266700D01*
X73139517Y-93270582D01*
G37*
G36*
X74399517Y-93270582D02*
G01*
X74416062Y-93281638D01*
X74427118Y-93298183D01*
X74431000Y-93317700D01*
X74431000Y-94617700D01*
X74427118Y-94637217D01*
X74416062Y-94653762D01*
X74399517Y-94664818D01*
X74380000Y-94668700D01*
X73580000Y-94668700D01*
X73560483Y-94664818D01*
X73543938Y-94653762D01*
X73532882Y-94637217D01*
X73529000Y-94617700D01*
X73529000Y-93317700D01*
X73532882Y-93298183D01*
X73543938Y-93281638D01*
X73560483Y-93270582D01*
X73580000Y-93266700D01*
X74380000Y-93266700D01*
X74399517Y-93270582D01*
G37*
G36*
X75679517Y-93270582D02*
G01*
X75696062Y-93281638D01*
X75707118Y-93298183D01*
X75711000Y-93317700D01*
X75711000Y-94617700D01*
X75707118Y-94637217D01*
X75696062Y-94653762D01*
X75679517Y-94664818D01*
X75660000Y-94668700D01*
X74860000Y-94668700D01*
X74840483Y-94664818D01*
X74823938Y-94653762D01*
X74812882Y-94637217D01*
X74809000Y-94617700D01*
X74809000Y-93317700D01*
X74812882Y-93298183D01*
X74823938Y-93281638D01*
X74840483Y-93270582D01*
X74860000Y-93266700D01*
X75660000Y-93266700D01*
X75679517Y-93270582D01*
G37*
G36*
X89790294Y-91580295D02*
G01*
X89806106Y-91587276D01*
X89813911Y-91588513D01*
X89846419Y-91605076D01*
X89891486Y-91624976D01*
X89969704Y-91703194D01*
X89989606Y-91748267D01*
X90006166Y-91780768D01*
X90007401Y-91788570D01*
X90014385Y-91804386D01*
X90022380Y-91873300D01*
X90022380Y-92523300D01*
X90014385Y-92592214D01*
X90007401Y-92608029D01*
X90006166Y-92615831D01*
X89989609Y-92648324D01*
X89969704Y-92693406D01*
X89891486Y-92771624D01*
X89846404Y-92791529D01*
X89813911Y-92808086D01*
X89806109Y-92809321D01*
X89790294Y-92816305D01*
X89721380Y-92824300D01*
X88821380Y-92824300D01*
X88752466Y-92816305D01*
X88736650Y-92809321D01*
X88728848Y-92808086D01*
X88696347Y-92791526D01*
X88651274Y-92771624D01*
X88573056Y-92693406D01*
X88553156Y-92648339D01*
X88536593Y-92615831D01*
X88535356Y-92608026D01*
X88528375Y-92592214D01*
X88520380Y-92523300D01*
X88520380Y-91873300D01*
X88528375Y-91804386D01*
X88535356Y-91788574D01*
X88536593Y-91780768D01*
X88553160Y-91748253D01*
X88573056Y-91703194D01*
X88651274Y-91624976D01*
X88696333Y-91605080D01*
X88728848Y-91588513D01*
X88736654Y-91587276D01*
X88752466Y-91580295D01*
X88821380Y-91572300D01*
X89721380Y-91572300D01*
X89790294Y-91580295D01*
G37*
G36*
X86703812Y-91488003D02*
G01*
X86719194Y-91494795D01*
X86726430Y-91495941D01*
X86756562Y-91511294D01*
X86800802Y-91530828D01*
X86875772Y-91605798D01*
X86895308Y-91650044D01*
X86910658Y-91680169D01*
X86911803Y-91687402D01*
X86918597Y-91702788D01*
X86926260Y-91768840D01*
X86926260Y-92343840D01*
X86918597Y-92409892D01*
X86911803Y-92425278D01*
X86910658Y-92432510D01*
X86895312Y-92462627D01*
X86875772Y-92506882D01*
X86800802Y-92581852D01*
X86756547Y-92601392D01*
X86726430Y-92616738D01*
X86719198Y-92617883D01*
X86703812Y-92624677D01*
X86637760Y-92632340D01*
X86162760Y-92632340D01*
X86096708Y-92624677D01*
X86081322Y-92617883D01*
X86074089Y-92616738D01*
X86043964Y-92601388D01*
X85999718Y-92581852D01*
X85924748Y-92506882D01*
X85905214Y-92462642D01*
X85889861Y-92432510D01*
X85888715Y-92425274D01*
X85881923Y-92409892D01*
X85874260Y-92343840D01*
X85874260Y-91768840D01*
X85881923Y-91702788D01*
X85888714Y-91687405D01*
X85889861Y-91680169D01*
X85905217Y-91650030D01*
X85924748Y-91605798D01*
X85999718Y-91530828D01*
X86043950Y-91511297D01*
X86074089Y-91495941D01*
X86081325Y-91494794D01*
X86096708Y-91488003D01*
X86162760Y-91480340D01*
X86637760Y-91480340D01*
X86703812Y-91488003D01*
G37*
G36*
X53106694Y-91123735D02*
G01*
X53122506Y-91130716D01*
X53130311Y-91131953D01*
X53162819Y-91148516D01*
X53207886Y-91168416D01*
X53286104Y-91246634D01*
X53306006Y-91291707D01*
X53322566Y-91324208D01*
X53323801Y-91332010D01*
X53330785Y-91347826D01*
X53338780Y-91416740D01*
X53338780Y-92066740D01*
X53330785Y-92135654D01*
X53323801Y-92151469D01*
X53322566Y-92159271D01*
X53306009Y-92191764D01*
X53286104Y-92236846D01*
X53207886Y-92315064D01*
X53162804Y-92334969D01*
X53130311Y-92351526D01*
X53122509Y-92352761D01*
X53106694Y-92359745D01*
X53037780Y-92367740D01*
X52137780Y-92367740D01*
X52068866Y-92359745D01*
X52053050Y-92352761D01*
X52045248Y-92351526D01*
X52012747Y-92334966D01*
X51967674Y-92315064D01*
X51889456Y-92236846D01*
X51869556Y-92191779D01*
X51852993Y-92159271D01*
X51851756Y-92151466D01*
X51844775Y-92135654D01*
X51836780Y-92066740D01*
X51836780Y-91416740D01*
X51844775Y-91347826D01*
X51851756Y-91332014D01*
X51852993Y-91324208D01*
X51869560Y-91291693D01*
X51889456Y-91246634D01*
X51967674Y-91168416D01*
X52012733Y-91148520D01*
X52045248Y-91131953D01*
X52053054Y-91130716D01*
X52068866Y-91123735D01*
X52137780Y-91115740D01*
X53037780Y-91115740D01*
X53106694Y-91123735D01*
G37*
G36*
X55733812Y-91018003D02*
G01*
X55749194Y-91024795D01*
X55756430Y-91025941D01*
X55786562Y-91041294D01*
X55830802Y-91060828D01*
X55905772Y-91135798D01*
X55925308Y-91180044D01*
X55940658Y-91210169D01*
X55941803Y-91217402D01*
X55948597Y-91232788D01*
X55956260Y-91298840D01*
X55956260Y-91873840D01*
X55948597Y-91939892D01*
X55941803Y-91955278D01*
X55940658Y-91962510D01*
X55925312Y-91992627D01*
X55905772Y-92036882D01*
X55830802Y-92111852D01*
X55786547Y-92131392D01*
X55756430Y-92146738D01*
X55749198Y-92147883D01*
X55733812Y-92154677D01*
X55667760Y-92162340D01*
X55192760Y-92162340D01*
X55126708Y-92154677D01*
X55111322Y-92147883D01*
X55104089Y-92146738D01*
X55073964Y-92131388D01*
X55029718Y-92111852D01*
X54954748Y-92036882D01*
X54935214Y-91992642D01*
X54919861Y-91962510D01*
X54918715Y-91955274D01*
X54911923Y-91939892D01*
X54904260Y-91873840D01*
X54904260Y-91298840D01*
X54911923Y-91232788D01*
X54918714Y-91217405D01*
X54919861Y-91210169D01*
X54935217Y-91180030D01*
X54954748Y-91135798D01*
X55029718Y-91060828D01*
X55073950Y-91041297D01*
X55104089Y-91025941D01*
X55111325Y-91024794D01*
X55126708Y-91018003D01*
X55192760Y-91010340D01*
X55667760Y-91010340D01*
X55733812Y-91018003D01*
G37*
G36*
X86703812Y-89738003D02*
G01*
X86719194Y-89744795D01*
X86726430Y-89745941D01*
X86756562Y-89761294D01*
X86800802Y-89780828D01*
X86875772Y-89855798D01*
X86895308Y-89900044D01*
X86910658Y-89930169D01*
X86911803Y-89937402D01*
X86918597Y-89952788D01*
X86926260Y-90018840D01*
X86926260Y-90593840D01*
X86918597Y-90659892D01*
X86911803Y-90675278D01*
X86910658Y-90682510D01*
X86895312Y-90712627D01*
X86875772Y-90756882D01*
X86800802Y-90831852D01*
X86756547Y-90851392D01*
X86726430Y-90866738D01*
X86719198Y-90867883D01*
X86703812Y-90874677D01*
X86637760Y-90882340D01*
X86162760Y-90882340D01*
X86096708Y-90874677D01*
X86081322Y-90867883D01*
X86074089Y-90866738D01*
X86043964Y-90851388D01*
X85999718Y-90831852D01*
X85924748Y-90756882D01*
X85905214Y-90712642D01*
X85889861Y-90682510D01*
X85888715Y-90675274D01*
X85881923Y-90659892D01*
X85874260Y-90593840D01*
X85874260Y-90018840D01*
X85881923Y-89952788D01*
X85888714Y-89937405D01*
X85889861Y-89930169D01*
X85905217Y-89900030D01*
X85924748Y-89855798D01*
X85999718Y-89780828D01*
X86043950Y-89761297D01*
X86074089Y-89745941D01*
X86081325Y-89744794D01*
X86096708Y-89738003D01*
X86162760Y-89730340D01*
X86637760Y-89730340D01*
X86703812Y-89738003D01*
G37*
G36*
X89790294Y-89530295D02*
G01*
X89806106Y-89537276D01*
X89813911Y-89538513D01*
X89846419Y-89555076D01*
X89891486Y-89574976D01*
X89969704Y-89653194D01*
X89989606Y-89698267D01*
X90006166Y-89730768D01*
X90007401Y-89738570D01*
X90014385Y-89754386D01*
X90022380Y-89823300D01*
X90022380Y-90473300D01*
X90014385Y-90542214D01*
X90007401Y-90558029D01*
X90006166Y-90565831D01*
X89989609Y-90598324D01*
X89969704Y-90643406D01*
X89891486Y-90721624D01*
X89846404Y-90741529D01*
X89813911Y-90758086D01*
X89806109Y-90759321D01*
X89790294Y-90766305D01*
X89721380Y-90774300D01*
X88821380Y-90774300D01*
X88752466Y-90766305D01*
X88736650Y-90759321D01*
X88728848Y-90758086D01*
X88696347Y-90741526D01*
X88651274Y-90721624D01*
X88573056Y-90643406D01*
X88553156Y-90598339D01*
X88536593Y-90565831D01*
X88535356Y-90558026D01*
X88528375Y-90542214D01*
X88520380Y-90473300D01*
X88520380Y-89823300D01*
X88528375Y-89754386D01*
X88535356Y-89738574D01*
X88536593Y-89730768D01*
X88553160Y-89698253D01*
X88573056Y-89653194D01*
X88651274Y-89574976D01*
X88696333Y-89555080D01*
X88728848Y-89538513D01*
X88736654Y-89537276D01*
X88752466Y-89530295D01*
X88821380Y-89522300D01*
X89721380Y-89522300D01*
X89790294Y-89530295D01*
G37*
G36*
X55733812Y-89268003D02*
G01*
X55749194Y-89274795D01*
X55756430Y-89275941D01*
X55786562Y-89291294D01*
X55830802Y-89310828D01*
X55905772Y-89385798D01*
X55925308Y-89430044D01*
X55940658Y-89460169D01*
X55941803Y-89467402D01*
X55948597Y-89482788D01*
X55956260Y-89548840D01*
X55956260Y-90123840D01*
X55948597Y-90189892D01*
X55941803Y-90205278D01*
X55940658Y-90212510D01*
X55925312Y-90242627D01*
X55905772Y-90286882D01*
X55830802Y-90361852D01*
X55786547Y-90381392D01*
X55756430Y-90396738D01*
X55749198Y-90397883D01*
X55733812Y-90404677D01*
X55667760Y-90412340D01*
X55192760Y-90412340D01*
X55126708Y-90404677D01*
X55111322Y-90397883D01*
X55104089Y-90396738D01*
X55073964Y-90381388D01*
X55029718Y-90361852D01*
X54954748Y-90286882D01*
X54935214Y-90242642D01*
X54919861Y-90212510D01*
X54918715Y-90205274D01*
X54911923Y-90189892D01*
X54904260Y-90123840D01*
X54904260Y-89548840D01*
X54911923Y-89482788D01*
X54918714Y-89467405D01*
X54919861Y-89460169D01*
X54935217Y-89430030D01*
X54954748Y-89385798D01*
X55029718Y-89310828D01*
X55073950Y-89291297D01*
X55104089Y-89275941D01*
X55111325Y-89274794D01*
X55126708Y-89268003D01*
X55192760Y-89260340D01*
X55667760Y-89260340D01*
X55733812Y-89268003D01*
G37*
G36*
X53106694Y-89073735D02*
G01*
X53122506Y-89080716D01*
X53130311Y-89081953D01*
X53162819Y-89098516D01*
X53207886Y-89118416D01*
X53286104Y-89196634D01*
X53306006Y-89241707D01*
X53322566Y-89274208D01*
X53323801Y-89282010D01*
X53330785Y-89297826D01*
X53338780Y-89366740D01*
X53338780Y-90016740D01*
X53330785Y-90085654D01*
X53323801Y-90101469D01*
X53322566Y-90109271D01*
X53306009Y-90141764D01*
X53286104Y-90186846D01*
X53207886Y-90265064D01*
X53162804Y-90284969D01*
X53130311Y-90301526D01*
X53122509Y-90302761D01*
X53106694Y-90309745D01*
X53037780Y-90317740D01*
X52137780Y-90317740D01*
X52068866Y-90309745D01*
X52053050Y-90302761D01*
X52045248Y-90301526D01*
X52012747Y-90284966D01*
X51967674Y-90265064D01*
X51889456Y-90186846D01*
X51869556Y-90141779D01*
X51852993Y-90109271D01*
X51851756Y-90101466D01*
X51844775Y-90085654D01*
X51836780Y-90016740D01*
X51836780Y-89366740D01*
X51844775Y-89297826D01*
X51851756Y-89282014D01*
X51852993Y-89274208D01*
X51869560Y-89241693D01*
X51889456Y-89196634D01*
X51967674Y-89118416D01*
X52012733Y-89098520D01*
X52045248Y-89081953D01*
X52053054Y-89080716D01*
X52068866Y-89073735D01*
X52137780Y-89065740D01*
X53037780Y-89065740D01*
X53106694Y-89073735D01*
G37*
G36*
X66731257Y-86926462D02*
G01*
X66747802Y-86937518D01*
X66758858Y-86954063D01*
X66762740Y-86973580D01*
X66762740Y-88273580D01*
X66758858Y-88293097D01*
X66747802Y-88309642D01*
X66731257Y-88320698D01*
X66711740Y-88324580D01*
X65911740Y-88324580D01*
X65892223Y-88320698D01*
X65875678Y-88309642D01*
X65864622Y-88293097D01*
X65860740Y-88273580D01*
X65860740Y-86973580D01*
X65864622Y-86954063D01*
X65875678Y-86937518D01*
X65892223Y-86926462D01*
X65911740Y-86922580D01*
X66711740Y-86922580D01*
X66731257Y-86926462D01*
G37*
G36*
X68011257Y-86926462D02*
G01*
X68027802Y-86937518D01*
X68038858Y-86954063D01*
X68042740Y-86973580D01*
X68042740Y-88273580D01*
X68038858Y-88293097D01*
X68027802Y-88309642D01*
X68011257Y-88320698D01*
X67991740Y-88324580D01*
X67191740Y-88324580D01*
X67172223Y-88320698D01*
X67155678Y-88309642D01*
X67144622Y-88293097D01*
X67140740Y-88273580D01*
X67140740Y-86973580D01*
X67144622Y-86954063D01*
X67155678Y-86937518D01*
X67172223Y-86926462D01*
X67191740Y-86922580D01*
X67991740Y-86922580D01*
X68011257Y-86926462D01*
G37*
G36*
X69271257Y-86926462D02*
G01*
X69287802Y-86937518D01*
X69298858Y-86954063D01*
X69302740Y-86973580D01*
X69302740Y-88273580D01*
X69298858Y-88293097D01*
X69287802Y-88309642D01*
X69271257Y-88320698D01*
X69251740Y-88324580D01*
X68451740Y-88324580D01*
X68432223Y-88320698D01*
X68415678Y-88309642D01*
X68404622Y-88293097D01*
X68400740Y-88273580D01*
X68400740Y-86973580D01*
X68404622Y-86954063D01*
X68415678Y-86937518D01*
X68432223Y-86926462D01*
X68451740Y-86922580D01*
X69251740Y-86922580D01*
X69271257Y-86926462D01*
G37*
G36*
X70541257Y-86926462D02*
G01*
X70557802Y-86937518D01*
X70568858Y-86954063D01*
X70572740Y-86973580D01*
X70572740Y-88273580D01*
X70568858Y-88293097D01*
X70557802Y-88309642D01*
X70541257Y-88320698D01*
X70521740Y-88324580D01*
X69721740Y-88324580D01*
X69702223Y-88320698D01*
X69685678Y-88309642D01*
X69674622Y-88293097D01*
X69670740Y-88273580D01*
X69670740Y-86973580D01*
X69674622Y-86954063D01*
X69685678Y-86937518D01*
X69702223Y-86926462D01*
X69721740Y-86922580D01*
X70521740Y-86922580D01*
X70541257Y-86926462D01*
G37*
G36*
X71821257Y-86926462D02*
G01*
X71837802Y-86937518D01*
X71848858Y-86954063D01*
X71852740Y-86973580D01*
X71852740Y-88273580D01*
X71848858Y-88293097D01*
X71837802Y-88309642D01*
X71821257Y-88320698D01*
X71801740Y-88324580D01*
X71001740Y-88324580D01*
X70982223Y-88320698D01*
X70965678Y-88309642D01*
X70954622Y-88293097D01*
X70950740Y-88273580D01*
X70950740Y-86973580D01*
X70954622Y-86954063D01*
X70965678Y-86937518D01*
X70982223Y-86926462D01*
X71001740Y-86922580D01*
X71801740Y-86922580D01*
X71821257Y-86926462D01*
G37*
G36*
X73091257Y-86926462D02*
G01*
X73107802Y-86937518D01*
X73118858Y-86954063D01*
X73122740Y-86973580D01*
X73122740Y-88273580D01*
X73118858Y-88293097D01*
X73107802Y-88309642D01*
X73091257Y-88320698D01*
X73071740Y-88324580D01*
X72271740Y-88324580D01*
X72252223Y-88320698D01*
X72235678Y-88309642D01*
X72224622Y-88293097D01*
X72220740Y-88273580D01*
X72220740Y-86973580D01*
X72224622Y-86954063D01*
X72235678Y-86937518D01*
X72252223Y-86926462D01*
X72271740Y-86922580D01*
X73071740Y-86922580D01*
X73091257Y-86926462D01*
G37*
G36*
X74351257Y-86926462D02*
G01*
X74367802Y-86937518D01*
X74378858Y-86954063D01*
X74382740Y-86973580D01*
X74382740Y-88273580D01*
X74378858Y-88293097D01*
X74367802Y-88309642D01*
X74351257Y-88320698D01*
X74331740Y-88324580D01*
X73531740Y-88324580D01*
X73512223Y-88320698D01*
X73495678Y-88309642D01*
X73484622Y-88293097D01*
X73480740Y-88273580D01*
X73480740Y-86973580D01*
X73484622Y-86954063D01*
X73495678Y-86937518D01*
X73512223Y-86926462D01*
X73531740Y-86922580D01*
X74331740Y-86922580D01*
X74351257Y-86926462D01*
G37*
G36*
X75631257Y-86926462D02*
G01*
X75647802Y-86937518D01*
X75658858Y-86954063D01*
X75662740Y-86973580D01*
X75662740Y-88273580D01*
X75658858Y-88293097D01*
X75647802Y-88309642D01*
X75631257Y-88320698D01*
X75611740Y-88324580D01*
X74811740Y-88324580D01*
X74792223Y-88320698D01*
X74775678Y-88309642D01*
X74764622Y-88293097D01*
X74760740Y-88273580D01*
X74760740Y-86973580D01*
X74764622Y-86954063D01*
X74775678Y-86937518D01*
X74792223Y-86926462D01*
X74811740Y-86922580D01*
X75611740Y-86922580D01*
X75631257Y-86926462D01*
G37*
G36*
X86080447Y-86510897D02*
G01*
X86087684Y-86509751D01*
X86121092Y-86515042D01*
X86169196Y-86519948D01*
X86263664Y-86568082D01*
X86295929Y-86604139D01*
X86319824Y-86628034D01*
X86323146Y-86634555D01*
X86334364Y-86647091D01*
X86362063Y-86707542D01*
X86539748Y-87254400D01*
X86552871Y-87319587D01*
X86551164Y-87336319D01*
X86552310Y-87343551D01*
X86547021Y-87376940D01*
X86542114Y-87425064D01*
X86493980Y-87519531D01*
X86457918Y-87551800D01*
X86434028Y-87575691D01*
X86427508Y-87579012D01*
X86414971Y-87590232D01*
X86354520Y-87617931D01*
X85902768Y-87764714D01*
X85837581Y-87777837D01*
X85820847Y-87776130D01*
X85813615Y-87777276D01*
X85780222Y-87771987D01*
X85732104Y-87767080D01*
X85637636Y-87718946D01*
X85605370Y-87682888D01*
X85581475Y-87658993D01*
X85578152Y-87652471D01*
X85566936Y-87639937D01*
X85539237Y-87579486D01*
X85361552Y-87032628D01*
X85348429Y-86967441D01*
X85350135Y-86950711D01*
X85348989Y-86943475D01*
X85354280Y-86910064D01*
X85359186Y-86861964D01*
X85407320Y-86767497D01*
X85443362Y-86735244D01*
X85467271Y-86711336D01*
X85473795Y-86708011D01*
X85486329Y-86696796D01*
X85546780Y-86669097D01*
X85755687Y-86601219D01*
X85989175Y-86525353D01*
X85989182Y-86525351D01*
X85998532Y-86522314D01*
X86063719Y-86509191D01*
X86080447Y-86510897D01*
G37*
G36*
X55901988Y-86012314D02*
G01*
X56353740Y-86159097D01*
X56414191Y-86186796D01*
X56426723Y-86198010D01*
X56433246Y-86201334D01*
X56457147Y-86225235D01*
X56493200Y-86257497D01*
X56541334Y-86351964D01*
X56546242Y-86400093D01*
X56551529Y-86433475D01*
X56550384Y-86440703D01*
X56552091Y-86457441D01*
X56538968Y-86522628D01*
X56361283Y-87069486D01*
X56333584Y-87129937D01*
X56322366Y-87142472D01*
X56319045Y-87148992D01*
X56295158Y-87172878D01*
X56262884Y-87208946D01*
X56168416Y-87257080D01*
X56120285Y-87261988D01*
X56086905Y-87267275D01*
X56079676Y-87266130D01*
X56062939Y-87267837D01*
X55997752Y-87254714D01*
X55546000Y-87107931D01*
X55485549Y-87080232D01*
X55473015Y-87069016D01*
X55466493Y-87065693D01*
X55442592Y-87041792D01*
X55406540Y-87009531D01*
X55358406Y-86915064D01*
X55353498Y-86866947D01*
X55348210Y-86833551D01*
X55349355Y-86826319D01*
X55347649Y-86809587D01*
X55360772Y-86744400D01*
X55470212Y-86407579D01*
X55535417Y-86206897D01*
X55535418Y-86206894D01*
X55538457Y-86197542D01*
X55566156Y-86137091D01*
X55577369Y-86124559D01*
X55580694Y-86118035D01*
X55604598Y-86094130D01*
X55636856Y-86058082D01*
X55731324Y-86009948D01*
X55779434Y-86005041D01*
X55812834Y-85999752D01*
X55820066Y-86000897D01*
X55836801Y-85999191D01*
X55901988Y-86012314D01*
G37*
G36*
X89041742Y-85592296D02*
G01*
X89049547Y-85591060D01*
X89085585Y-85596767D01*
X89134591Y-85601766D01*
X89233151Y-85651985D01*
X89266008Y-85688703D01*
X89291800Y-85714495D01*
X89295385Y-85721531D01*
X89306916Y-85734417D01*
X89335815Y-85797488D01*
X89536676Y-86415675D01*
X89550368Y-86483686D01*
X89548613Y-86500888D01*
X89549849Y-86508689D01*
X89544144Y-86544709D01*
X89539144Y-86593733D01*
X89488925Y-86692293D01*
X89452201Y-86725155D01*
X89426414Y-86750942D01*
X89419377Y-86754527D01*
X89406493Y-86766057D01*
X89343422Y-86794957D01*
X88487471Y-87073072D01*
X88419460Y-87086764D01*
X88402257Y-87085009D01*
X88394457Y-87086245D01*
X88358435Y-87080539D01*
X88309413Y-87075540D01*
X88210853Y-87025321D01*
X88177995Y-86988602D01*
X88152203Y-86962810D01*
X88148617Y-86955773D01*
X88137088Y-86942889D01*
X88108189Y-86879818D01*
X87957790Y-86416938D01*
X87910367Y-86270987D01*
X87910366Y-86270981D01*
X87907328Y-86261631D01*
X87893636Y-86193620D01*
X87895390Y-86176421D01*
X87894154Y-86168617D01*
X87899861Y-86132577D01*
X87904860Y-86083573D01*
X87955079Y-85985013D01*
X87991783Y-85952168D01*
X88017589Y-85926363D01*
X88024630Y-85922775D01*
X88037511Y-85911249D01*
X88100582Y-85882349D01*
X88555870Y-85734417D01*
X88947176Y-85607273D01*
X88947183Y-85607271D01*
X88956533Y-85604234D01*
X89024544Y-85590542D01*
X89041742Y-85592296D01*
G37*
G36*
X53033147Y-85141354D02*
G01*
X53627922Y-85334608D01*
X53878064Y-85415884D01*
X53889098Y-85419469D01*
X53952169Y-85448369D01*
X53965051Y-85459896D01*
X53972092Y-85463484D01*
X53997892Y-85489284D01*
X54034601Y-85522133D01*
X54084820Y-85620693D01*
X54089819Y-85669713D01*
X54095525Y-85705736D01*
X54094289Y-85713536D01*
X54096044Y-85730740D01*
X54082352Y-85798751D01*
X53881491Y-86416938D01*
X53852592Y-86480009D01*
X53841060Y-86492895D01*
X53837475Y-86499932D01*
X53811688Y-86525718D01*
X53778827Y-86562441D01*
X53680267Y-86612660D01*
X53631243Y-86617660D01*
X53595223Y-86623365D01*
X53587422Y-86622129D01*
X53570220Y-86623884D01*
X53502209Y-86610192D01*
X52646258Y-86332077D01*
X52583187Y-86303177D01*
X52570303Y-86291648D01*
X52563263Y-86288061D01*
X52537463Y-86262261D01*
X52500755Y-86229413D01*
X52450536Y-86130853D01*
X52445537Y-86081847D01*
X52439830Y-86045809D01*
X52441066Y-86038004D01*
X52439312Y-86020806D01*
X52453004Y-85952795D01*
X52571753Y-85587324D01*
X52650824Y-85343966D01*
X52650825Y-85343963D01*
X52653865Y-85334608D01*
X52682764Y-85271537D01*
X52694292Y-85258654D01*
X52697880Y-85251613D01*
X52723684Y-85225808D01*
X52756529Y-85189105D01*
X52855089Y-85138886D01*
X52904092Y-85133888D01*
X52940132Y-85128180D01*
X52947936Y-85129416D01*
X52965136Y-85127662D01*
X53033147Y-85141354D01*
G37*
G36*
X85539667Y-84846549D02*
G01*
X85546904Y-84845403D01*
X85580312Y-84850694D01*
X85628416Y-84855600D01*
X85722884Y-84903734D01*
X85755149Y-84939791D01*
X85779044Y-84963686D01*
X85782366Y-84970207D01*
X85793584Y-84982743D01*
X85821283Y-85043194D01*
X85998968Y-85590052D01*
X86012091Y-85655239D01*
X86010384Y-85671971D01*
X86011530Y-85679203D01*
X86006241Y-85712592D01*
X86001334Y-85760716D01*
X85953200Y-85855183D01*
X85917138Y-85887452D01*
X85893248Y-85911343D01*
X85886728Y-85914664D01*
X85874191Y-85925884D01*
X85813740Y-85953583D01*
X85361988Y-86100366D01*
X85296801Y-86113489D01*
X85280067Y-86111782D01*
X85272835Y-86112928D01*
X85239442Y-86107639D01*
X85191324Y-86102732D01*
X85096856Y-86054598D01*
X85064590Y-86018540D01*
X85040695Y-85994645D01*
X85037372Y-85988123D01*
X85026156Y-85975589D01*
X84998457Y-85915138D01*
X84820772Y-85368280D01*
X84807649Y-85303093D01*
X84809355Y-85286363D01*
X84808209Y-85279127D01*
X84813500Y-85245716D01*
X84818406Y-85197616D01*
X84866540Y-85103149D01*
X84902582Y-85070896D01*
X84926491Y-85046988D01*
X84933015Y-85043663D01*
X84945549Y-85032448D01*
X85006000Y-85004749D01*
X85235586Y-84930152D01*
X85448395Y-84861005D01*
X85448402Y-84861003D01*
X85457752Y-84857966D01*
X85522939Y-84844843D01*
X85539667Y-84846549D01*
G37*
G36*
X56442768Y-84347966D02*
G01*
X56894520Y-84494749D01*
X56954971Y-84522448D01*
X56967503Y-84533662D01*
X56974026Y-84536986D01*
X56997927Y-84560887D01*
X57033980Y-84593149D01*
X57082114Y-84687616D01*
X57087022Y-84735745D01*
X57092309Y-84769127D01*
X57091164Y-84776355D01*
X57092871Y-84793093D01*
X57079748Y-84858280D01*
X56902063Y-85405138D01*
X56874364Y-85465589D01*
X56863146Y-85478124D01*
X56859825Y-85484644D01*
X56835938Y-85508530D01*
X56803664Y-85544598D01*
X56709196Y-85592732D01*
X56661065Y-85597640D01*
X56627685Y-85602927D01*
X56620456Y-85601782D01*
X56603719Y-85603489D01*
X56538532Y-85590366D01*
X56086780Y-85443583D01*
X56026329Y-85415884D01*
X56013795Y-85404668D01*
X56007273Y-85401345D01*
X55983372Y-85377444D01*
X55947320Y-85345183D01*
X55899186Y-85250716D01*
X55894278Y-85202599D01*
X55888990Y-85169203D01*
X55890135Y-85161971D01*
X55888429Y-85145239D01*
X55901552Y-85080052D01*
X56031387Y-84680460D01*
X56076197Y-84542549D01*
X56076198Y-84542546D01*
X56079237Y-84533194D01*
X56106936Y-84472743D01*
X56118149Y-84460211D01*
X56121474Y-84453687D01*
X56145378Y-84429782D01*
X56177636Y-84393734D01*
X56272104Y-84345600D01*
X56320214Y-84340693D01*
X56353614Y-84335404D01*
X56360846Y-84336549D01*
X56377581Y-84334843D01*
X56442768Y-84347966D01*
G37*
G36*
X88408258Y-83642630D02*
G01*
X88416063Y-83641394D01*
X88452101Y-83647101D01*
X88501107Y-83652100D01*
X88599667Y-83702319D01*
X88632524Y-83739037D01*
X88658316Y-83764829D01*
X88661901Y-83771865D01*
X88673432Y-83784751D01*
X88702331Y-83847822D01*
X88866639Y-84353511D01*
X88899188Y-84453687D01*
X88903192Y-84466009D01*
X88916884Y-84534020D01*
X88915129Y-84551222D01*
X88916365Y-84559023D01*
X88910660Y-84595043D01*
X88905660Y-84644067D01*
X88855441Y-84742627D01*
X88818717Y-84775489D01*
X88792930Y-84801276D01*
X88785893Y-84804861D01*
X88773009Y-84816391D01*
X88709938Y-84845291D01*
X87853987Y-85123406D01*
X87785976Y-85137098D01*
X87768773Y-85135343D01*
X87760973Y-85136579D01*
X87724951Y-85130873D01*
X87675929Y-85125874D01*
X87577369Y-85075655D01*
X87544511Y-85038936D01*
X87518719Y-85013144D01*
X87515133Y-85006107D01*
X87503604Y-84993223D01*
X87474705Y-84930152D01*
X87345994Y-84534020D01*
X87276883Y-84321321D01*
X87276882Y-84321315D01*
X87273844Y-84311965D01*
X87260152Y-84243954D01*
X87261906Y-84226755D01*
X87260670Y-84218951D01*
X87266377Y-84182911D01*
X87271376Y-84133907D01*
X87321595Y-84035347D01*
X87358299Y-84002502D01*
X87384105Y-83976697D01*
X87391146Y-83973109D01*
X87404027Y-83961583D01*
X87467098Y-83932683D01*
X87922386Y-83784751D01*
X88313692Y-83657607D01*
X88313699Y-83657605D01*
X88323049Y-83654568D01*
X88391060Y-83640876D01*
X88408258Y-83642630D01*
G37*
G36*
X53666631Y-83191688D02*
G01*
X54522582Y-83469803D01*
X54585653Y-83498703D01*
X54598535Y-83510230D01*
X54605576Y-83513818D01*
X54631376Y-83539618D01*
X54668085Y-83572467D01*
X54718304Y-83671027D01*
X54723303Y-83720047D01*
X54729009Y-83756070D01*
X54727773Y-83763870D01*
X54729528Y-83781074D01*
X54715836Y-83849085D01*
X54514975Y-84467272D01*
X54486076Y-84530343D01*
X54474544Y-84543229D01*
X54470959Y-84550266D01*
X54445172Y-84576052D01*
X54412311Y-84612775D01*
X54313751Y-84662994D01*
X54264727Y-84667994D01*
X54228707Y-84673699D01*
X54220906Y-84672463D01*
X54203704Y-84674218D01*
X54135693Y-84660526D01*
X53279742Y-84382411D01*
X53216671Y-84353511D01*
X53203787Y-84341982D01*
X53196747Y-84338395D01*
X53170947Y-84312595D01*
X53134239Y-84279747D01*
X53084020Y-84181187D01*
X53079021Y-84132181D01*
X53073314Y-84096143D01*
X53074550Y-84088338D01*
X53072796Y-84071140D01*
X53086488Y-84003129D01*
X53226418Y-83572467D01*
X53284308Y-83394300D01*
X53284309Y-83394297D01*
X53287349Y-83384942D01*
X53316248Y-83321871D01*
X53327776Y-83308988D01*
X53331364Y-83301947D01*
X53357168Y-83276142D01*
X53390013Y-83239439D01*
X53488573Y-83189220D01*
X53537576Y-83184222D01*
X53573616Y-83178514D01*
X53581420Y-83179750D01*
X53598620Y-83177996D01*
X53666631Y-83191688D01*
G37*
G36*
X84274447Y-81895235D02*
G01*
X84316259Y-81919547D01*
X84346386Y-81934898D01*
X84351563Y-81940075D01*
X84366103Y-81948530D01*
X84411127Y-81997463D01*
X84749103Y-82462647D01*
X84781728Y-82520589D01*
X84785275Y-82537027D01*
X84788600Y-82543553D01*
X84793888Y-82576943D01*
X84804091Y-82624227D01*
X84787505Y-82728945D01*
X84763181Y-82770777D01*
X84747841Y-82800884D01*
X84742667Y-82806057D01*
X84734211Y-82820601D01*
X84685278Y-82865625D01*
X84300995Y-83144823D01*
X84243053Y-83177448D01*
X84226609Y-83180996D01*
X84220088Y-83184319D01*
X84186711Y-83189605D01*
X84139415Y-83199811D01*
X84034697Y-83183225D01*
X83992878Y-83158908D01*
X83962757Y-83143561D01*
X83957580Y-83138384D01*
X83943041Y-83129930D01*
X83898017Y-83080997D01*
X83576915Y-82639038D01*
X83565822Y-82623770D01*
X83565821Y-82623769D01*
X83560041Y-82615813D01*
X83527416Y-82557871D01*
X83523869Y-82541434D01*
X83520543Y-82534906D01*
X83515252Y-82501501D01*
X83505053Y-82454233D01*
X83521639Y-82349515D01*
X83545950Y-82307703D01*
X83561302Y-82277575D01*
X83566479Y-82272397D01*
X83574933Y-82257859D01*
X83623866Y-82212835D01*
X84008149Y-81933637D01*
X84066091Y-81901012D01*
X84082529Y-81897464D01*
X84089055Y-81894140D01*
X84122452Y-81888850D01*
X84169729Y-81878649D01*
X84274447Y-81895235D01*
G37*
G36*
X58128072Y-81388851D02*
G01*
X58161463Y-81394140D01*
X58167986Y-81397464D01*
X58184429Y-81401012D01*
X58242371Y-81433637D01*
X58626654Y-81712835D01*
X58675587Y-81757859D01*
X58684043Y-81772402D01*
X58689218Y-81777577D01*
X58704561Y-81807689D01*
X58728881Y-81849515D01*
X58745467Y-81954233D01*
X58735263Y-82001520D01*
X58729976Y-82034905D01*
X58726651Y-82041428D01*
X58723104Y-82057871D01*
X58690479Y-82115813D01*
X58352503Y-82580997D01*
X58307479Y-82629930D01*
X58292935Y-82638386D01*
X58287760Y-82643562D01*
X58257649Y-82658904D01*
X58215823Y-82683225D01*
X58111105Y-82699811D01*
X58063809Y-82689605D01*
X58030432Y-82684319D01*
X58023910Y-82680996D01*
X58007467Y-82677448D01*
X57949525Y-82644823D01*
X57565242Y-82365625D01*
X57516309Y-82320601D01*
X57507852Y-82306057D01*
X57502677Y-82300882D01*
X57487330Y-82270763D01*
X57463015Y-82228945D01*
X57446429Y-82124227D01*
X57456628Y-82076959D01*
X57461919Y-82043554D01*
X57465245Y-82037026D01*
X57468792Y-82020589D01*
X57501417Y-81962647D01*
X57546197Y-81901012D01*
X57833606Y-81505426D01*
X57833611Y-81505420D01*
X57839393Y-81497463D01*
X57884417Y-81448530D01*
X57898955Y-81440076D01*
X57904135Y-81434897D01*
X57934267Y-81419543D01*
X57976073Y-81395235D01*
X58080791Y-81378649D01*
X58128072Y-81388851D01*
G37*
G36*
X66731257Y-80626462D02*
G01*
X66747802Y-80637518D01*
X66758858Y-80654063D01*
X66762740Y-80673580D01*
X66762740Y-81973580D01*
X66758858Y-81993097D01*
X66747802Y-82009642D01*
X66731257Y-82020698D01*
X66711740Y-82024580D01*
X65911740Y-82024580D01*
X65892223Y-82020698D01*
X65875678Y-82009642D01*
X65864622Y-81993097D01*
X65860740Y-81973580D01*
X65860740Y-80673580D01*
X65864622Y-80654063D01*
X65875678Y-80637518D01*
X65892223Y-80626462D01*
X65911740Y-80622580D01*
X66711740Y-80622580D01*
X66731257Y-80626462D01*
G37*
G36*
X68011257Y-80626462D02*
G01*
X68027802Y-80637518D01*
X68038858Y-80654063D01*
X68042740Y-80673580D01*
X68042740Y-81973580D01*
X68038858Y-81993097D01*
X68027802Y-82009642D01*
X68011257Y-82020698D01*
X67991740Y-82024580D01*
X67191740Y-82024580D01*
X67172223Y-82020698D01*
X67155678Y-82009642D01*
X67144622Y-81993097D01*
X67140740Y-81973580D01*
X67140740Y-80673580D01*
X67144622Y-80654063D01*
X67155678Y-80637518D01*
X67172223Y-80626462D01*
X67191740Y-80622580D01*
X67991740Y-80622580D01*
X68011257Y-80626462D01*
G37*
G36*
X69271257Y-80626462D02*
G01*
X69287802Y-80637518D01*
X69298858Y-80654063D01*
X69302740Y-80673580D01*
X69302740Y-81973580D01*
X69298858Y-81993097D01*
X69287802Y-82009642D01*
X69271257Y-82020698D01*
X69251740Y-82024580D01*
X68451740Y-82024580D01*
X68432223Y-82020698D01*
X68415678Y-82009642D01*
X68404622Y-81993097D01*
X68400740Y-81973580D01*
X68400740Y-80673580D01*
X68404622Y-80654063D01*
X68415678Y-80637518D01*
X68432223Y-80626462D01*
X68451740Y-80622580D01*
X69251740Y-80622580D01*
X69271257Y-80626462D01*
G37*
G36*
X70541257Y-80626462D02*
G01*
X70557802Y-80637518D01*
X70568858Y-80654063D01*
X70572740Y-80673580D01*
X70572740Y-81973580D01*
X70568858Y-81993097D01*
X70557802Y-82009642D01*
X70541257Y-82020698D01*
X70521740Y-82024580D01*
X69721740Y-82024580D01*
X69702223Y-82020698D01*
X69685678Y-82009642D01*
X69674622Y-81993097D01*
X69670740Y-81973580D01*
X69670740Y-80673580D01*
X69674622Y-80654063D01*
X69685678Y-80637518D01*
X69702223Y-80626462D01*
X69721740Y-80622580D01*
X70521740Y-80622580D01*
X70541257Y-80626462D01*
G37*
G36*
X71821257Y-80626462D02*
G01*
X71837802Y-80637518D01*
X71848858Y-80654063D01*
X71852740Y-80673580D01*
X71852740Y-81973580D01*
X71848858Y-81993097D01*
X71837802Y-82009642D01*
X71821257Y-82020698D01*
X71801740Y-82024580D01*
X71001740Y-82024580D01*
X70982223Y-82020698D01*
X70965678Y-82009642D01*
X70954622Y-81993097D01*
X70950740Y-81973580D01*
X70950740Y-80673580D01*
X70954622Y-80654063D01*
X70965678Y-80637518D01*
X70982223Y-80626462D01*
X71001740Y-80622580D01*
X71801740Y-80622580D01*
X71821257Y-80626462D01*
G37*
G36*
X73091257Y-80626462D02*
G01*
X73107802Y-80637518D01*
X73118858Y-80654063D01*
X73122740Y-80673580D01*
X73122740Y-81973580D01*
X73118858Y-81993097D01*
X73107802Y-82009642D01*
X73091257Y-82020698D01*
X73071740Y-82024580D01*
X72271740Y-82024580D01*
X72252223Y-82020698D01*
X72235678Y-82009642D01*
X72224622Y-81993097D01*
X72220740Y-81973580D01*
X72220740Y-80673580D01*
X72224622Y-80654063D01*
X72235678Y-80637518D01*
X72252223Y-80626462D01*
X72271740Y-80622580D01*
X73071740Y-80622580D01*
X73091257Y-80626462D01*
G37*
G36*
X74351257Y-80626462D02*
G01*
X74367802Y-80637518D01*
X74378858Y-80654063D01*
X74382740Y-80673580D01*
X74382740Y-81973580D01*
X74378858Y-81993097D01*
X74367802Y-82009642D01*
X74351257Y-82020698D01*
X74331740Y-82024580D01*
X73531740Y-82024580D01*
X73512223Y-82020698D01*
X73495678Y-82009642D01*
X73484622Y-81993097D01*
X73480740Y-81973580D01*
X73480740Y-80673580D01*
X73484622Y-80654063D01*
X73495678Y-80637518D01*
X73512223Y-80626462D01*
X73531740Y-80622580D01*
X74331740Y-80622580D01*
X74351257Y-80626462D01*
G37*
G36*
X75631257Y-80626462D02*
G01*
X75647802Y-80637518D01*
X75658858Y-80654063D01*
X75662740Y-80673580D01*
X75662740Y-81973580D01*
X75658858Y-81993097D01*
X75647802Y-82009642D01*
X75631257Y-82020698D01*
X75611740Y-82024580D01*
X74811740Y-82024580D01*
X74792223Y-82020698D01*
X74775678Y-82009642D01*
X74764622Y-81993097D01*
X74760740Y-81973580D01*
X74760740Y-80673580D01*
X74764622Y-80654063D01*
X74775678Y-80637518D01*
X74792223Y-80626462D01*
X74811740Y-80622580D01*
X75611740Y-80622580D01*
X75631257Y-80626462D01*
G37*
G36*
X86804520Y-80173808D02*
G01*
X86847116Y-80198576D01*
X86879615Y-80215135D01*
X86885199Y-80220719D01*
X86900147Y-80229411D01*
X86947122Y-80280465D01*
X87329182Y-80806326D01*
X87363221Y-80866778D01*
X87366867Y-80883678D01*
X87370454Y-80890717D01*
X87376159Y-80926744D01*
X87386552Y-80974907D01*
X87369248Y-81084162D01*
X87344474Y-81126766D01*
X87327921Y-81159255D01*
X87322337Y-81164838D01*
X87313644Y-81179789D01*
X87262591Y-81226763D01*
X86534476Y-81755770D01*
X86474024Y-81789809D01*
X86457120Y-81793456D01*
X86450083Y-81797042D01*
X86414062Y-81802746D01*
X86365895Y-81813140D01*
X86256640Y-81795836D01*
X86214036Y-81771063D01*
X86181544Y-81754508D01*
X86175960Y-81748924D01*
X86161013Y-81740233D01*
X86114038Y-81689179D01*
X85803148Y-81261275D01*
X85737761Y-81171278D01*
X85737760Y-81171276D01*
X85731978Y-81163318D01*
X85697939Y-81102866D01*
X85694292Y-81085967D01*
X85690705Y-81078926D01*
X85684996Y-81042884D01*
X85674608Y-80994737D01*
X85691912Y-80885482D01*
X85716672Y-80842898D01*
X85733238Y-80810388D01*
X85738825Y-80804800D01*
X85747516Y-80789855D01*
X85798569Y-80742881D01*
X86415511Y-80294646D01*
X86518724Y-80219657D01*
X86518725Y-80219656D01*
X86526684Y-80213874D01*
X86587136Y-80179835D01*
X86604034Y-80176188D01*
X86611076Y-80172601D01*
X86647117Y-80166892D01*
X86695265Y-80156504D01*
X86804520Y-80173808D01*
G37*
G36*
X83245823Y-80479455D02*
G01*
X83287635Y-80503767D01*
X83317762Y-80519118D01*
X83322939Y-80524295D01*
X83337479Y-80532750D01*
X83382503Y-80581683D01*
X83720479Y-81046867D01*
X83753104Y-81104809D01*
X83756651Y-81121247D01*
X83759976Y-81127773D01*
X83765264Y-81161163D01*
X83775467Y-81208447D01*
X83758881Y-81313165D01*
X83734557Y-81354997D01*
X83719217Y-81385104D01*
X83714043Y-81390277D01*
X83705587Y-81404821D01*
X83656654Y-81449845D01*
X83272371Y-81729043D01*
X83214429Y-81761668D01*
X83197985Y-81765216D01*
X83191464Y-81768539D01*
X83158087Y-81773825D01*
X83110791Y-81784031D01*
X83006073Y-81767445D01*
X82964254Y-81743128D01*
X82934133Y-81727781D01*
X82928956Y-81722604D01*
X82914417Y-81714150D01*
X82869393Y-81665217D01*
X82548291Y-81223258D01*
X82537198Y-81207990D01*
X82537197Y-81207989D01*
X82531417Y-81200033D01*
X82498792Y-81142091D01*
X82495245Y-81125654D01*
X82491919Y-81119126D01*
X82486628Y-81085721D01*
X82476429Y-81038453D01*
X82493015Y-80933735D01*
X82517326Y-80891923D01*
X82532678Y-80861795D01*
X82537855Y-80856617D01*
X82546309Y-80842079D01*
X82595242Y-80797055D01*
X82979525Y-80517857D01*
X83037467Y-80485232D01*
X83053905Y-80481684D01*
X83060431Y-80478360D01*
X83093828Y-80473070D01*
X83141105Y-80462869D01*
X83245823Y-80479455D01*
G37*
G36*
X55618486Y-79663173D02*
G01*
X55654522Y-79668881D01*
X55661561Y-79672468D01*
X55678464Y-79676115D01*
X55738916Y-79710154D01*
X55746879Y-79715939D01*
X55746880Y-79715940D01*
X56459070Y-80233375D01*
X56459077Y-80233382D01*
X56467031Y-80239161D01*
X56518084Y-80286135D01*
X56526773Y-80301079D01*
X56532359Y-80306665D01*
X56548916Y-80339160D01*
X56573688Y-80381762D01*
X56590992Y-80491017D01*
X56580597Y-80539188D01*
X56574893Y-80575208D01*
X56571307Y-80582243D01*
X56567661Y-80599146D01*
X56533622Y-80659598D01*
X56151562Y-81185459D01*
X56104587Y-81236513D01*
X56089637Y-81245205D01*
X56084056Y-81250787D01*
X56051574Y-81267337D01*
X56008960Y-81292116D01*
X55899705Y-81309420D01*
X55851538Y-81299027D01*
X55815517Y-81293322D01*
X55808479Y-81289736D01*
X55791576Y-81286089D01*
X55731124Y-81252050D01*
X55619951Y-81171278D01*
X55010969Y-80728828D01*
X55010962Y-80728821D01*
X55003009Y-80723043D01*
X54951956Y-80676069D01*
X54943266Y-80661124D01*
X54937680Y-80655538D01*
X54921119Y-80623036D01*
X54896352Y-80580442D01*
X54879048Y-80471187D01*
X54889437Y-80423034D01*
X54895146Y-80386995D01*
X54898733Y-80379954D01*
X54902379Y-80363058D01*
X54936418Y-80302606D01*
X54989597Y-80229411D01*
X55312693Y-79784705D01*
X55312699Y-79784698D01*
X55318478Y-79776745D01*
X55365453Y-79725691D01*
X55380397Y-79717001D01*
X55385983Y-79711416D01*
X55418486Y-79694854D01*
X55461080Y-79670088D01*
X55570335Y-79652784D01*
X55618486Y-79663173D01*
G37*
G36*
X59156696Y-79973071D02*
G01*
X59190087Y-79978360D01*
X59196610Y-79981684D01*
X59213053Y-79985232D01*
X59270995Y-80017857D01*
X59655278Y-80297055D01*
X59704211Y-80342079D01*
X59712667Y-80356622D01*
X59717842Y-80361797D01*
X59733185Y-80391909D01*
X59757505Y-80433735D01*
X59774091Y-80538453D01*
X59763887Y-80585740D01*
X59758600Y-80619125D01*
X59755275Y-80625648D01*
X59751728Y-80642091D01*
X59719103Y-80700033D01*
X59381127Y-81165217D01*
X59336103Y-81214150D01*
X59321559Y-81222606D01*
X59316384Y-81227782D01*
X59286273Y-81243124D01*
X59244447Y-81267445D01*
X59139729Y-81284031D01*
X59092433Y-81273825D01*
X59059056Y-81268539D01*
X59052534Y-81265216D01*
X59036091Y-81261668D01*
X58978149Y-81229043D01*
X58593866Y-80949845D01*
X58544933Y-80904821D01*
X58536476Y-80890277D01*
X58531301Y-80885102D01*
X58515954Y-80854983D01*
X58491639Y-80813165D01*
X58475053Y-80708447D01*
X58485252Y-80661179D01*
X58490543Y-80627774D01*
X58493869Y-80621246D01*
X58497416Y-80604809D01*
X58530041Y-80546867D01*
X58578965Y-80479529D01*
X58862230Y-80089646D01*
X58862235Y-80089640D01*
X58868017Y-80081683D01*
X58913041Y-80032750D01*
X58927579Y-80024296D01*
X58932759Y-80019117D01*
X58962891Y-80003763D01*
X59004697Y-79979455D01*
X59109415Y-79962869D01*
X59156696Y-79973071D01*
G37*
G36*
X85599560Y-78515324D02*
G01*
X85642156Y-78540092D01*
X85674655Y-78556651D01*
X85680239Y-78562235D01*
X85695187Y-78570927D01*
X85742162Y-78621981D01*
X86124222Y-79147842D01*
X86158261Y-79208294D01*
X86161907Y-79225194D01*
X86165494Y-79232233D01*
X86171199Y-79268260D01*
X86181592Y-79316423D01*
X86164288Y-79425678D01*
X86139514Y-79468282D01*
X86122961Y-79500771D01*
X86117377Y-79506354D01*
X86108684Y-79521305D01*
X86057631Y-79568279D01*
X85329516Y-80097286D01*
X85269064Y-80131325D01*
X85252160Y-80134972D01*
X85245123Y-80138558D01*
X85209102Y-80144262D01*
X85160935Y-80154656D01*
X85051680Y-80137352D01*
X85009076Y-80112579D01*
X84976584Y-80096024D01*
X84971000Y-80090440D01*
X84956053Y-80081749D01*
X84909078Y-80030695D01*
X84598188Y-79602791D01*
X84532801Y-79512794D01*
X84532800Y-79512792D01*
X84527018Y-79504834D01*
X84492979Y-79444382D01*
X84489332Y-79427483D01*
X84485745Y-79420442D01*
X84480036Y-79384400D01*
X84469648Y-79336253D01*
X84486952Y-79226998D01*
X84511712Y-79184414D01*
X84528278Y-79151904D01*
X84533865Y-79146316D01*
X84542556Y-79131371D01*
X84593609Y-79084397D01*
X85222265Y-78627651D01*
X85313764Y-78561173D01*
X85313765Y-78561172D01*
X85321724Y-78555390D01*
X85382176Y-78521351D01*
X85399074Y-78517704D01*
X85406116Y-78514117D01*
X85442157Y-78508408D01*
X85490305Y-78498020D01*
X85599560Y-78515324D01*
G37*
G36*
X56823446Y-78004689D02*
G01*
X56859482Y-78010397D01*
X56866521Y-78013984D01*
X56883424Y-78017631D01*
X56943876Y-78051670D01*
X56951839Y-78057455D01*
X56951840Y-78057456D01*
X57664030Y-78574891D01*
X57664037Y-78574898D01*
X57671991Y-78580677D01*
X57723044Y-78627651D01*
X57731733Y-78642595D01*
X57737319Y-78648181D01*
X57753876Y-78680676D01*
X57778648Y-78723278D01*
X57795952Y-78832533D01*
X57785557Y-78880704D01*
X57779853Y-78916724D01*
X57776267Y-78923759D01*
X57772621Y-78940662D01*
X57738582Y-79001114D01*
X57356522Y-79526975D01*
X57309547Y-79578029D01*
X57294597Y-79586721D01*
X57289016Y-79592303D01*
X57256534Y-79608853D01*
X57213920Y-79633632D01*
X57104665Y-79650936D01*
X57056498Y-79640543D01*
X57020477Y-79634838D01*
X57013439Y-79631252D01*
X56996536Y-79627605D01*
X56936084Y-79593566D01*
X56833345Y-79518922D01*
X56215929Y-79070344D01*
X56215922Y-79070337D01*
X56207969Y-79064559D01*
X56156916Y-79017585D01*
X56148226Y-79002640D01*
X56142640Y-78997054D01*
X56126079Y-78964552D01*
X56101312Y-78921958D01*
X56084008Y-78812703D01*
X56094397Y-78764550D01*
X56100106Y-78728511D01*
X56103693Y-78721470D01*
X56107339Y-78704574D01*
X56141378Y-78644122D01*
X56195207Y-78570032D01*
X56517653Y-78126221D01*
X56517659Y-78126214D01*
X56523438Y-78118261D01*
X56570413Y-78067207D01*
X56585357Y-78058517D01*
X56590943Y-78052932D01*
X56623446Y-78036370D01*
X56666040Y-78011604D01*
X56775295Y-77994300D01*
X56823446Y-78004689D01*
G37*
G36*
X81090423Y-78286333D02*
G01*
X81123825Y-78291623D01*
X81130352Y-78294948D01*
X81146791Y-78298496D01*
X81204733Y-78331121D01*
X81352947Y-78438805D01*
X81661953Y-78663310D01*
X81661955Y-78663312D01*
X81669917Y-78669097D01*
X81718850Y-78714121D01*
X81727305Y-78728662D01*
X81732482Y-78733839D01*
X81747828Y-78763958D01*
X81772145Y-78805777D01*
X81788731Y-78910495D01*
X81778524Y-78957793D01*
X81773239Y-78991167D01*
X81769916Y-78997687D01*
X81766368Y-79014133D01*
X81733743Y-79072075D01*
X81454545Y-79456358D01*
X81409521Y-79505291D01*
X81394975Y-79513748D01*
X81389802Y-79518922D01*
X81359697Y-79534261D01*
X81317865Y-79558585D01*
X81213147Y-79575171D01*
X81165861Y-79564967D01*
X81132474Y-79559680D01*
X81125949Y-79556355D01*
X81109509Y-79552808D01*
X81051567Y-79520183D01*
X80659568Y-79235379D01*
X80594346Y-79187993D01*
X80594344Y-79187991D01*
X80586383Y-79182207D01*
X80537450Y-79137183D01*
X80528994Y-79122641D01*
X80523817Y-79117464D01*
X80508467Y-79087339D01*
X80484155Y-79045527D01*
X80467569Y-78940809D01*
X80477770Y-78893530D01*
X80483060Y-78860136D01*
X80486384Y-78853611D01*
X80489932Y-78837171D01*
X80522557Y-78779229D01*
X80647350Y-78607466D01*
X80795970Y-78402908D01*
X80795970Y-78402907D01*
X80801755Y-78394946D01*
X80846779Y-78346013D01*
X80861319Y-78337558D01*
X80866497Y-78332381D01*
X80896623Y-78317030D01*
X80938435Y-78292719D01*
X81043153Y-78276133D01*
X81090423Y-78286333D01*
G37*
G36*
X61722085Y-77782719D02*
G01*
X61763903Y-77807034D01*
X61794024Y-77822382D01*
X61799199Y-77827557D01*
X61813741Y-77836013D01*
X61858765Y-77884946D01*
X62137963Y-78269229D01*
X62170588Y-78327171D01*
X62174135Y-78343613D01*
X62177459Y-78350135D01*
X62182745Y-78383514D01*
X62192951Y-78430809D01*
X62176365Y-78535527D01*
X62152044Y-78577352D01*
X62136701Y-78607466D01*
X62131525Y-78612641D01*
X62123070Y-78627183D01*
X62074137Y-78672207D01*
X61608953Y-79010183D01*
X61551011Y-79042808D01*
X61534570Y-79046355D01*
X61528046Y-79049680D01*
X61494659Y-79054967D01*
X61447373Y-79065171D01*
X61342655Y-79048585D01*
X61300829Y-79024265D01*
X61270715Y-79008921D01*
X61265540Y-79003746D01*
X61250999Y-78995291D01*
X61205975Y-78946358D01*
X60926777Y-78562075D01*
X60894152Y-78504133D01*
X60890604Y-78487692D01*
X60887280Y-78481168D01*
X60881990Y-78447774D01*
X60871789Y-78400495D01*
X60888375Y-78295777D01*
X60912683Y-78253972D01*
X60928038Y-78223837D01*
X60933217Y-78218657D01*
X60941670Y-78204121D01*
X60990603Y-78159097D01*
X61046809Y-78118261D01*
X61447829Y-77826902D01*
X61447832Y-77826900D01*
X61455787Y-77821121D01*
X61513729Y-77788496D01*
X61530164Y-77784949D01*
X61536693Y-77781623D01*
X61570101Y-77776332D01*
X61617367Y-77766133D01*
X61722085Y-77782719D01*
G37*
G36*
X79674643Y-77257709D02*
G01*
X79708045Y-77262999D01*
X79714572Y-77266324D01*
X79731011Y-77269872D01*
X79788953Y-77302497D01*
X79937167Y-77410181D01*
X80246173Y-77634686D01*
X80246175Y-77634688D01*
X80254137Y-77640473D01*
X80303070Y-77685497D01*
X80311525Y-77700038D01*
X80316702Y-77705215D01*
X80332048Y-77735334D01*
X80356365Y-77777153D01*
X80372951Y-77881871D01*
X80362744Y-77929169D01*
X80357459Y-77962543D01*
X80354136Y-77969063D01*
X80350588Y-77985509D01*
X80317963Y-78043451D01*
X80038765Y-78427734D01*
X79993741Y-78476667D01*
X79979195Y-78485124D01*
X79974022Y-78490298D01*
X79943917Y-78505637D01*
X79902085Y-78529961D01*
X79797367Y-78546547D01*
X79750081Y-78536343D01*
X79716694Y-78531056D01*
X79710169Y-78527731D01*
X79693729Y-78524184D01*
X79635787Y-78491559D01*
X79267299Y-78223837D01*
X79178566Y-78159369D01*
X79178564Y-78159367D01*
X79170603Y-78153583D01*
X79121670Y-78108559D01*
X79113214Y-78094017D01*
X79108037Y-78088840D01*
X79092687Y-78058715D01*
X79068375Y-78016903D01*
X79051789Y-77912185D01*
X79061990Y-77864906D01*
X79067280Y-77831512D01*
X79070604Y-77824987D01*
X79074152Y-77808547D01*
X79106777Y-77750605D01*
X79209810Y-77608792D01*
X79380190Y-77374284D01*
X79380190Y-77374283D01*
X79385975Y-77366322D01*
X79430999Y-77317389D01*
X79445539Y-77308934D01*
X79450717Y-77303757D01*
X79480843Y-77288406D01*
X79522655Y-77264095D01*
X79627373Y-77247509D01*
X79674643Y-77257709D01*
G37*
G36*
X63137865Y-76754095D02*
G01*
X63179683Y-76778410D01*
X63209804Y-76793758D01*
X63214979Y-76798933D01*
X63229521Y-76807389D01*
X63274545Y-76856322D01*
X63553743Y-77240605D01*
X63586368Y-77298547D01*
X63589915Y-77314989D01*
X63593239Y-77321511D01*
X63598525Y-77354890D01*
X63608731Y-77402185D01*
X63592145Y-77506903D01*
X63567824Y-77548728D01*
X63552481Y-77578842D01*
X63547305Y-77584017D01*
X63538850Y-77598559D01*
X63489917Y-77643583D01*
X63024733Y-77981559D01*
X62966791Y-78014184D01*
X62950350Y-78017731D01*
X62943826Y-78021056D01*
X62910439Y-78026343D01*
X62863153Y-78036547D01*
X62758435Y-78019961D01*
X62716609Y-77995641D01*
X62686495Y-77980297D01*
X62681320Y-77975122D01*
X62666779Y-77966667D01*
X62621755Y-77917734D01*
X62342557Y-77533451D01*
X62309932Y-77475509D01*
X62306384Y-77459068D01*
X62303060Y-77452544D01*
X62297770Y-77419150D01*
X62287569Y-77371871D01*
X62304155Y-77267153D01*
X62328463Y-77225348D01*
X62343818Y-77195213D01*
X62348997Y-77190033D01*
X62357450Y-77175497D01*
X62406383Y-77130473D01*
X62445771Y-77101856D01*
X62863609Y-76798278D01*
X62863612Y-76798276D01*
X62871567Y-76792497D01*
X62929509Y-76759872D01*
X62945944Y-76756325D01*
X62952473Y-76752999D01*
X62985881Y-76747708D01*
X63033147Y-76737509D01*
X63137865Y-76754095D01*
G37*
G36*
X82992091Y-75907238D02*
G01*
X83028128Y-75912946D01*
X83035167Y-75916532D01*
X83052066Y-75920179D01*
X83112518Y-75954218D01*
X83236884Y-76044575D01*
X83630418Y-76330493D01*
X83630421Y-76330496D01*
X83638379Y-76336278D01*
X83689433Y-76383253D01*
X83698123Y-76398199D01*
X83703707Y-76403783D01*
X83720261Y-76436272D01*
X83745036Y-76478880D01*
X83762340Y-76588135D01*
X83751946Y-76636304D01*
X83746242Y-76672322D01*
X83742656Y-76679358D01*
X83739009Y-76696264D01*
X83704970Y-76756716D01*
X83514861Y-77018378D01*
X83181748Y-77476870D01*
X83181744Y-77476873D01*
X83175963Y-77484831D01*
X83128989Y-77535884D01*
X83114041Y-77544575D01*
X83108458Y-77550159D01*
X83075970Y-77566712D01*
X83033362Y-77591488D01*
X82924107Y-77608792D01*
X82875936Y-77598398D01*
X82839915Y-77592693D01*
X82832878Y-77589107D01*
X82815978Y-77585461D01*
X82755526Y-77551422D01*
X82414644Y-77303757D01*
X82237625Y-77175146D01*
X82237622Y-77175143D01*
X82229665Y-77169362D01*
X82178611Y-77122387D01*
X82169920Y-77107440D01*
X82164336Y-77101856D01*
X82147778Y-77069360D01*
X82123008Y-77026760D01*
X82105704Y-76917505D01*
X82116093Y-76869356D01*
X82121801Y-76833317D01*
X82125388Y-76826276D01*
X82129035Y-76809376D01*
X82163074Y-76748924D01*
X82168857Y-76740963D01*
X82168860Y-76740959D01*
X82686295Y-76028769D01*
X82686304Y-76028759D01*
X82692081Y-76020809D01*
X82739055Y-75969756D01*
X82753997Y-75961067D01*
X82759585Y-75955480D01*
X82792094Y-75938915D01*
X82834682Y-75914152D01*
X82943937Y-75896848D01*
X82992091Y-75907238D01*
G37*
G36*
X59852916Y-75370592D02*
G01*
X59895506Y-75395357D01*
X59928009Y-75411918D01*
X59933595Y-75417504D01*
X59948543Y-75426196D01*
X59995517Y-75477249D01*
X60524524Y-76205364D01*
X60558563Y-76265816D01*
X60562209Y-76282718D01*
X60565796Y-76289756D01*
X60571501Y-76325780D01*
X60581894Y-76373945D01*
X60564590Y-76483200D01*
X60539813Y-76525810D01*
X60523262Y-76558295D01*
X60517679Y-76563877D01*
X60508987Y-76578827D01*
X60457933Y-76625802D01*
X59932072Y-77007862D01*
X59871620Y-77041901D01*
X59854717Y-77045547D01*
X59847680Y-77049134D01*
X59811655Y-77054839D01*
X59763491Y-77065232D01*
X59654236Y-77047928D01*
X59611638Y-77023158D01*
X59579142Y-77006601D01*
X59573556Y-77001015D01*
X59558609Y-76992324D01*
X59511635Y-76941271D01*
X58982628Y-76213156D01*
X58948589Y-76152704D01*
X58944942Y-76135803D01*
X58941355Y-76128763D01*
X58935647Y-76092724D01*
X58925258Y-76044575D01*
X58942562Y-75935320D01*
X58967326Y-75892730D01*
X58983889Y-75860224D01*
X58989475Y-75854637D01*
X58998165Y-75839693D01*
X59049219Y-75792718D01*
X59237402Y-75655995D01*
X59567119Y-75416441D01*
X59567123Y-75416438D01*
X59575080Y-75410658D01*
X59635532Y-75376619D01*
X59652428Y-75372973D01*
X59659471Y-75369385D01*
X59695515Y-75363676D01*
X59743661Y-75353288D01*
X59852916Y-75370592D01*
G37*
G36*
X76851548Y-75742632D02*
G01*
X77398406Y-75920317D01*
X77458857Y-75948016D01*
X77471389Y-75959230D01*
X77477912Y-75962554D01*
X77501808Y-75986450D01*
X77537866Y-76018716D01*
X77586000Y-76113184D01*
X77590908Y-76161311D01*
X77596195Y-76194694D01*
X77595049Y-76201923D01*
X77596757Y-76218661D01*
X77583634Y-76283848D01*
X77436851Y-76735600D01*
X77409152Y-76796051D01*
X77397935Y-76808586D01*
X77394613Y-76815106D01*
X77370720Y-76838998D01*
X77338451Y-76875060D01*
X77243984Y-76923194D01*
X77195851Y-76928102D01*
X77162472Y-76933389D01*
X77155243Y-76932244D01*
X77138507Y-76933951D01*
X77073320Y-76920828D01*
X76526462Y-76743143D01*
X76466011Y-76715444D01*
X76453476Y-76704228D01*
X76446955Y-76700905D01*
X76423059Y-76677009D01*
X76387002Y-76644744D01*
X76338868Y-76550276D01*
X76333960Y-76502159D01*
X76328672Y-76468763D01*
X76329817Y-76461531D01*
X76328111Y-76444799D01*
X76341234Y-76379612D01*
X76446576Y-76055402D01*
X76484977Y-75937215D01*
X76484978Y-75937212D01*
X76488017Y-75927860D01*
X76515716Y-75867409D01*
X76526929Y-75854877D01*
X76530254Y-75848353D01*
X76554164Y-75824442D01*
X76586417Y-75788400D01*
X76680884Y-75740266D01*
X76728995Y-75735359D01*
X76762395Y-75730070D01*
X76769627Y-75731215D01*
X76786361Y-75729509D01*
X76851548Y-75742632D01*
G37*
G36*
X65960888Y-75581215D02*
G01*
X65968124Y-75580069D01*
X66001532Y-75585360D01*
X66049636Y-75590266D01*
X66144103Y-75638400D01*
X66176364Y-75674452D01*
X66200263Y-75698351D01*
X66203585Y-75704872D01*
X66214804Y-75717409D01*
X66242503Y-75777860D01*
X66348885Y-76105271D01*
X66381407Y-76205364D01*
X66389286Y-76229612D01*
X66402409Y-76294799D01*
X66400702Y-76311531D01*
X66401848Y-76318763D01*
X66396559Y-76352152D01*
X66391652Y-76400276D01*
X66343518Y-76494744D01*
X66307450Y-76527018D01*
X66283565Y-76550904D01*
X66277045Y-76554225D01*
X66264509Y-76565444D01*
X66204058Y-76593143D01*
X65657200Y-76770828D01*
X65592013Y-76783951D01*
X65575279Y-76782244D01*
X65568047Y-76783390D01*
X65534654Y-76778101D01*
X65486536Y-76773194D01*
X65392069Y-76725060D01*
X65359807Y-76689007D01*
X65335908Y-76665108D01*
X65332585Y-76658586D01*
X65321368Y-76646051D01*
X65293669Y-76585600D01*
X65198664Y-76293204D01*
X65149925Y-76143204D01*
X65149924Y-76143198D01*
X65146886Y-76133848D01*
X65133763Y-76068661D01*
X65135469Y-76051931D01*
X65134323Y-76044695D01*
X65139614Y-76011284D01*
X65144520Y-75963184D01*
X65192654Y-75868716D01*
X65228702Y-75836458D01*
X65252606Y-75812555D01*
X65259130Y-75809230D01*
X65271663Y-75798016D01*
X65332114Y-75770317D01*
X65690365Y-75653914D01*
X65869615Y-75595672D01*
X65869616Y-75595671D01*
X65878972Y-75592632D01*
X65944159Y-75579509D01*
X65960888Y-75581215D01*
G37*
G36*
X81333607Y-74702278D02*
G01*
X81369644Y-74707986D01*
X81376683Y-74711572D01*
X81393582Y-74715219D01*
X81454034Y-74749258D01*
X81578400Y-74839615D01*
X81971934Y-75125533D01*
X81971937Y-75125536D01*
X81979895Y-75131318D01*
X82030949Y-75178293D01*
X82039639Y-75193239D01*
X82045223Y-75198823D01*
X82061777Y-75231312D01*
X82086552Y-75273920D01*
X82103856Y-75383175D01*
X82093462Y-75431344D01*
X82087758Y-75467362D01*
X82084172Y-75474398D01*
X82080525Y-75491304D01*
X82046486Y-75551756D01*
X81857004Y-75812555D01*
X81523264Y-76271910D01*
X81523260Y-76271913D01*
X81517479Y-76279871D01*
X81470505Y-76330924D01*
X81455557Y-76339615D01*
X81449974Y-76345199D01*
X81417486Y-76361752D01*
X81374878Y-76386528D01*
X81265623Y-76403832D01*
X81217452Y-76393438D01*
X81181431Y-76387733D01*
X81174394Y-76384147D01*
X81157494Y-76380501D01*
X81097042Y-76346462D01*
X80775962Y-76113184D01*
X80579141Y-75970186D01*
X80579138Y-75970183D01*
X80571181Y-75964402D01*
X80520127Y-75917427D01*
X80511436Y-75902480D01*
X80505852Y-75896896D01*
X80489294Y-75864400D01*
X80464524Y-75821800D01*
X80447220Y-75712545D01*
X80457609Y-75664396D01*
X80463317Y-75628357D01*
X80466904Y-75621316D01*
X80470551Y-75604416D01*
X80504590Y-75543964D01*
X80510373Y-75536003D01*
X80510376Y-75535999D01*
X81027811Y-74823809D01*
X81027820Y-74823799D01*
X81033597Y-74815849D01*
X81080571Y-74764796D01*
X81095513Y-74756107D01*
X81101101Y-74750520D01*
X81133610Y-74733955D01*
X81176198Y-74709192D01*
X81285453Y-74691888D01*
X81333607Y-74702278D01*
G37*
G36*
X75187200Y-75201852D02*
G01*
X75734058Y-75379537D01*
X75794509Y-75407236D01*
X75807041Y-75418450D01*
X75813564Y-75421774D01*
X75837460Y-75445670D01*
X75873518Y-75477936D01*
X75921652Y-75572404D01*
X75926560Y-75620531D01*
X75931847Y-75653914D01*
X75930701Y-75661143D01*
X75932409Y-75677881D01*
X75919286Y-75743068D01*
X75772503Y-76194820D01*
X75744804Y-76255271D01*
X75733587Y-76267806D01*
X75730265Y-76274326D01*
X75706372Y-76298218D01*
X75674103Y-76334280D01*
X75579636Y-76382414D01*
X75531503Y-76387322D01*
X75498124Y-76392609D01*
X75490895Y-76391464D01*
X75474159Y-76393171D01*
X75408972Y-76380048D01*
X74862114Y-76202363D01*
X74801663Y-76174664D01*
X74789128Y-76163448D01*
X74782607Y-76160125D01*
X74758711Y-76136229D01*
X74722654Y-76103964D01*
X74674520Y-76009496D01*
X74669612Y-75961379D01*
X74664324Y-75927983D01*
X74665469Y-75920751D01*
X74663763Y-75904019D01*
X74676886Y-75838832D01*
X74787356Y-75498840D01*
X74820629Y-75396435D01*
X74820630Y-75396432D01*
X74823669Y-75387080D01*
X74851368Y-75326629D01*
X74862581Y-75314097D01*
X74865906Y-75307573D01*
X74889816Y-75283662D01*
X74922069Y-75247620D01*
X75016536Y-75199486D01*
X75064647Y-75194579D01*
X75098047Y-75189290D01*
X75105279Y-75190435D01*
X75122013Y-75188729D01*
X75187200Y-75201852D01*
G37*
G36*
X67625236Y-75040435D02*
G01*
X67632472Y-75039289D01*
X67665880Y-75044580D01*
X67713984Y-75049486D01*
X67808451Y-75097620D01*
X67840712Y-75133672D01*
X67864611Y-75157571D01*
X67867933Y-75164092D01*
X67879152Y-75176629D01*
X67906851Y-75237080D01*
X68033194Y-75625925D01*
X68046702Y-75667499D01*
X68053634Y-75688832D01*
X68066757Y-75754019D01*
X68065050Y-75770751D01*
X68066196Y-75777983D01*
X68060907Y-75811372D01*
X68056000Y-75859496D01*
X68007866Y-75953964D01*
X67971798Y-75986238D01*
X67947913Y-76010124D01*
X67941393Y-76013445D01*
X67928857Y-76024664D01*
X67868406Y-76052363D01*
X67321548Y-76230048D01*
X67256361Y-76243171D01*
X67239627Y-76241464D01*
X67232395Y-76242610D01*
X67199002Y-76237321D01*
X67150884Y-76232414D01*
X67056417Y-76184280D01*
X67024155Y-76148227D01*
X67000256Y-76124328D01*
X66996933Y-76117806D01*
X66985716Y-76105271D01*
X66958017Y-76044820D01*
X66871316Y-75777983D01*
X66814273Y-75602424D01*
X66814272Y-75602418D01*
X66811234Y-75593068D01*
X66798111Y-75527881D01*
X66799817Y-75511151D01*
X66798671Y-75503915D01*
X66803962Y-75470504D01*
X66808868Y-75422404D01*
X66857002Y-75327936D01*
X66893050Y-75295678D01*
X66916954Y-75271775D01*
X66923478Y-75268450D01*
X66936011Y-75257236D01*
X66996462Y-75229537D01*
X67316553Y-75125533D01*
X67533963Y-75054892D01*
X67533964Y-75054891D01*
X67543320Y-75051852D01*
X67608507Y-75038729D01*
X67625236Y-75040435D01*
G37*
G36*
X61511400Y-74165632D02*
G01*
X61553990Y-74190397D01*
X61586493Y-74206958D01*
X61592079Y-74212544D01*
X61607027Y-74221236D01*
X61654001Y-74272289D01*
X62183008Y-75000404D01*
X62217047Y-75060856D01*
X62220693Y-75077758D01*
X62224280Y-75084796D01*
X62229985Y-75120820D01*
X62240378Y-75168985D01*
X62223074Y-75278240D01*
X62198297Y-75320850D01*
X62181746Y-75353335D01*
X62176163Y-75358917D01*
X62167471Y-75373867D01*
X62116417Y-75420842D01*
X61590556Y-75802902D01*
X61530104Y-75836941D01*
X61513201Y-75840587D01*
X61506164Y-75844174D01*
X61470139Y-75849879D01*
X61421975Y-75860272D01*
X61312720Y-75842968D01*
X61270122Y-75818198D01*
X61237626Y-75801641D01*
X61232040Y-75796055D01*
X61217093Y-75787364D01*
X61170119Y-75736311D01*
X60641112Y-75008196D01*
X60607073Y-74947744D01*
X60603426Y-74930843D01*
X60599839Y-74923803D01*
X60594131Y-74887764D01*
X60583742Y-74839615D01*
X60601046Y-74730360D01*
X60625810Y-74687770D01*
X60642373Y-74655264D01*
X60647959Y-74649677D01*
X60656649Y-74634733D01*
X60707703Y-74587758D01*
X61002590Y-74373510D01*
X61225603Y-74211481D01*
X61225607Y-74211478D01*
X61233564Y-74205698D01*
X61294016Y-74171659D01*
X61310912Y-74168013D01*
X61317955Y-74164425D01*
X61353999Y-74158716D01*
X61402145Y-74148328D01*
X61511400Y-74165632D01*
G37*
G36*
X70788812Y-74743003D02*
G01*
X70804194Y-74749795D01*
X70811430Y-74750941D01*
X70841562Y-74766294D01*
X70885802Y-74785828D01*
X70960772Y-74860798D01*
X70980308Y-74905044D01*
X70995658Y-74935169D01*
X70996803Y-74942402D01*
X71003597Y-74957788D01*
X71011260Y-75023840D01*
X71011260Y-75498840D01*
X71003597Y-75564892D01*
X70996803Y-75580278D01*
X70995658Y-75587510D01*
X70980312Y-75617627D01*
X70960772Y-75661882D01*
X70885802Y-75736852D01*
X70841547Y-75756392D01*
X70811430Y-75771738D01*
X70804198Y-75772883D01*
X70788812Y-75779677D01*
X70722760Y-75787340D01*
X70147760Y-75787340D01*
X70081708Y-75779677D01*
X70066322Y-75772883D01*
X70059089Y-75771738D01*
X70028964Y-75756388D01*
X69984718Y-75736852D01*
X69909748Y-75661882D01*
X69890214Y-75617642D01*
X69874861Y-75587510D01*
X69873715Y-75580274D01*
X69866923Y-75564892D01*
X69859260Y-75498840D01*
X69859260Y-75023840D01*
X69866923Y-74957788D01*
X69873714Y-74942405D01*
X69874861Y-74935169D01*
X69890217Y-74905030D01*
X69909748Y-74860798D01*
X69984718Y-74785828D01*
X70028950Y-74766297D01*
X70059089Y-74750941D01*
X70066325Y-74749794D01*
X70081708Y-74743003D01*
X70147760Y-74735340D01*
X70722760Y-74735340D01*
X70788812Y-74743003D01*
G37*
G36*
X72538812Y-74743003D02*
G01*
X72554194Y-74749795D01*
X72561430Y-74750941D01*
X72591562Y-74766294D01*
X72635802Y-74785828D01*
X72710772Y-74860798D01*
X72730308Y-74905044D01*
X72745658Y-74935169D01*
X72746803Y-74942402D01*
X72753597Y-74957788D01*
X72761260Y-75023840D01*
X72761260Y-75498840D01*
X72753597Y-75564892D01*
X72746803Y-75580278D01*
X72745658Y-75587510D01*
X72730312Y-75617627D01*
X72710772Y-75661882D01*
X72635802Y-75736852D01*
X72591547Y-75756392D01*
X72561430Y-75771738D01*
X72554198Y-75772883D01*
X72538812Y-75779677D01*
X72472760Y-75787340D01*
X71897760Y-75787340D01*
X71831708Y-75779677D01*
X71816322Y-75772883D01*
X71809089Y-75771738D01*
X71778964Y-75756388D01*
X71734718Y-75736852D01*
X71659748Y-75661882D01*
X71640214Y-75617642D01*
X71624861Y-75587510D01*
X71623715Y-75580274D01*
X71616923Y-75564892D01*
X71609260Y-75498840D01*
X71609260Y-75023840D01*
X71616923Y-74957788D01*
X71623714Y-74942405D01*
X71624861Y-74935169D01*
X71640217Y-74905030D01*
X71659748Y-74860798D01*
X71734718Y-74785828D01*
X71778950Y-74766297D01*
X71809089Y-74750941D01*
X71816325Y-74749794D01*
X71831708Y-74743003D01*
X71897760Y-74735340D01*
X72472760Y-74735340D01*
X72538812Y-74743003D01*
G37*
G36*
X77912711Y-72921688D02*
G01*
X78530898Y-73122549D01*
X78593969Y-73151448D01*
X78606853Y-73162977D01*
X78613892Y-73166564D01*
X78639688Y-73192360D01*
X78676401Y-73225213D01*
X78726620Y-73323773D01*
X78731619Y-73372793D01*
X78737325Y-73408816D01*
X78736089Y-73416616D01*
X78737844Y-73433820D01*
X78724152Y-73501831D01*
X78446037Y-74357782D01*
X78417137Y-74420853D01*
X78405607Y-74433737D01*
X78402021Y-74440776D01*
X78376229Y-74466567D01*
X78343373Y-74503285D01*
X78244813Y-74553504D01*
X78195789Y-74558504D01*
X78159769Y-74564209D01*
X78151968Y-74562973D01*
X78134766Y-74564728D01*
X78066755Y-74551036D01*
X77448568Y-74350175D01*
X77385497Y-74321276D01*
X77372611Y-74309745D01*
X77365573Y-74306159D01*
X77339777Y-74280363D01*
X77303065Y-74247511D01*
X77252846Y-74148951D01*
X77247847Y-74099945D01*
X77242140Y-74063907D01*
X77243376Y-74056102D01*
X77241622Y-74038904D01*
X77255314Y-73970893D01*
X77468008Y-73316286D01*
X77530388Y-73124300D01*
X77530389Y-73124297D01*
X77533429Y-73114942D01*
X77562329Y-73051871D01*
X77573855Y-73038990D01*
X77577444Y-73031947D01*
X77603253Y-73006137D01*
X77636093Y-72969439D01*
X77734653Y-72919220D01*
X77783656Y-72914222D01*
X77819696Y-72908514D01*
X77827500Y-72909750D01*
X77844700Y-72907996D01*
X77912711Y-72921688D01*
G37*
G36*
X64951305Y-72718532D02*
G01*
X64959110Y-72717296D01*
X64995148Y-72723003D01*
X65044154Y-72728002D01*
X65142714Y-72778221D01*
X65175567Y-72814935D01*
X65201363Y-72840731D01*
X65204949Y-72847769D01*
X65216478Y-72860653D01*
X65245378Y-72923724D01*
X65467203Y-73606431D01*
X65506963Y-73728802D01*
X65523493Y-73779675D01*
X65537185Y-73847686D01*
X65535430Y-73864888D01*
X65536666Y-73872689D01*
X65530961Y-73908709D01*
X65525961Y-73957733D01*
X65475742Y-74056293D01*
X65439014Y-74089159D01*
X65413231Y-74114942D01*
X65406197Y-74118525D01*
X65393310Y-74130058D01*
X65330239Y-74158957D01*
X64712052Y-74359818D01*
X64644041Y-74373510D01*
X64626838Y-74371755D01*
X64619038Y-74372991D01*
X64583016Y-74367285D01*
X64533994Y-74362286D01*
X64435434Y-74312067D01*
X64402580Y-74275352D01*
X64376784Y-74249556D01*
X64373197Y-74242517D01*
X64361670Y-74229635D01*
X64332770Y-74166564D01*
X64172296Y-73672675D01*
X64057694Y-73319969D01*
X64057693Y-73319963D01*
X64054655Y-73310613D01*
X64040963Y-73242602D01*
X64042717Y-73225403D01*
X64041481Y-73217599D01*
X64047188Y-73181559D01*
X64052187Y-73132555D01*
X64102406Y-73033995D01*
X64139114Y-73001145D01*
X64164916Y-72975345D01*
X64171954Y-72971758D01*
X64184838Y-72960230D01*
X64247909Y-72931331D01*
X64526747Y-72840731D01*
X64856739Y-72733509D01*
X64856746Y-72733507D01*
X64866096Y-72730470D01*
X64934107Y-72716778D01*
X64951305Y-72718532D01*
G37*
G36*
X75963045Y-72288204D02*
G01*
X76581232Y-72489065D01*
X76644303Y-72517964D01*
X76657187Y-72529493D01*
X76664226Y-72533080D01*
X76690022Y-72558876D01*
X76726735Y-72591729D01*
X76776954Y-72690289D01*
X76781953Y-72739309D01*
X76787659Y-72775332D01*
X76786423Y-72783132D01*
X76788178Y-72800336D01*
X76774486Y-72868347D01*
X76496371Y-73724298D01*
X76467471Y-73787369D01*
X76455941Y-73800253D01*
X76452355Y-73807292D01*
X76426563Y-73833083D01*
X76393707Y-73869801D01*
X76295147Y-73920020D01*
X76246123Y-73925020D01*
X76210103Y-73930725D01*
X76202302Y-73929489D01*
X76185100Y-73931244D01*
X76117089Y-73917552D01*
X75498902Y-73716691D01*
X75435831Y-73687792D01*
X75422945Y-73676261D01*
X75415907Y-73672675D01*
X75390111Y-73646879D01*
X75353399Y-73614027D01*
X75303180Y-73515467D01*
X75298181Y-73466461D01*
X75292474Y-73430423D01*
X75293710Y-73422618D01*
X75291956Y-73405420D01*
X75305648Y-73337409D01*
X75503656Y-72728002D01*
X75580722Y-72490816D01*
X75580723Y-72490813D01*
X75583763Y-72481458D01*
X75612663Y-72418387D01*
X75624189Y-72405506D01*
X75627778Y-72398463D01*
X75653587Y-72372653D01*
X75686427Y-72335955D01*
X75784987Y-72285736D01*
X75833990Y-72280738D01*
X75870030Y-72275030D01*
X75877834Y-72276266D01*
X75895034Y-72274512D01*
X75963045Y-72288204D01*
G37*
G36*
X66900971Y-72085048D02*
G01*
X66908776Y-72083812D01*
X66944814Y-72089519D01*
X66993820Y-72094518D01*
X67092380Y-72144737D01*
X67125233Y-72181451D01*
X67151029Y-72207247D01*
X67154615Y-72214285D01*
X67166144Y-72227169D01*
X67195044Y-72290240D01*
X67414515Y-72965703D01*
X67468728Y-73132555D01*
X67473159Y-73146191D01*
X67486851Y-73214202D01*
X67485096Y-73231404D01*
X67486332Y-73239205D01*
X67480627Y-73275225D01*
X67475627Y-73324249D01*
X67425408Y-73422809D01*
X67388680Y-73455675D01*
X67362897Y-73481458D01*
X67355863Y-73485041D01*
X67342976Y-73496574D01*
X67279905Y-73525473D01*
X66661718Y-73726334D01*
X66593707Y-73740026D01*
X66576504Y-73738271D01*
X66568704Y-73739507D01*
X66532682Y-73733801D01*
X66483660Y-73728802D01*
X66385100Y-73678583D01*
X66352246Y-73641868D01*
X66326450Y-73616072D01*
X66322863Y-73609033D01*
X66311336Y-73596151D01*
X66282436Y-73533080D01*
X66079334Y-72907996D01*
X66007360Y-72686485D01*
X66007359Y-72686479D01*
X66004321Y-72677129D01*
X65990629Y-72609118D01*
X65992383Y-72591919D01*
X65991147Y-72584115D01*
X65996854Y-72548075D01*
X66001853Y-72499071D01*
X66052072Y-72400511D01*
X66088780Y-72367661D01*
X66114582Y-72341861D01*
X66121620Y-72338274D01*
X66134504Y-72326746D01*
X66197575Y-72297847D01*
X66476413Y-72207247D01*
X66806405Y-72100025D01*
X66806412Y-72100023D01*
X66815762Y-72096986D01*
X66883773Y-72083294D01*
X66900971Y-72085048D01*
G37*
G36*
X70656494Y-71703855D02*
G01*
X70672306Y-71710836D01*
X70680111Y-71712073D01*
X70712619Y-71728636D01*
X70757686Y-71748536D01*
X70835904Y-71826754D01*
X70855806Y-71871827D01*
X70872366Y-71904328D01*
X70873601Y-71912130D01*
X70880585Y-71927946D01*
X70888580Y-71996860D01*
X70888580Y-72896860D01*
X70880585Y-72965774D01*
X70873601Y-72981589D01*
X70872366Y-72989391D01*
X70855809Y-73021884D01*
X70835904Y-73066966D01*
X70757686Y-73145184D01*
X70712604Y-73165089D01*
X70680111Y-73181646D01*
X70672309Y-73182881D01*
X70656494Y-73189865D01*
X70587580Y-73197860D01*
X69937580Y-73197860D01*
X69868666Y-73189865D01*
X69852850Y-73182881D01*
X69845048Y-73181646D01*
X69812547Y-73165086D01*
X69767474Y-73145184D01*
X69689256Y-73066966D01*
X69669356Y-73021899D01*
X69652793Y-72989391D01*
X69651556Y-72981586D01*
X69644575Y-72965774D01*
X69636580Y-72896860D01*
X69636580Y-71996860D01*
X69644575Y-71927946D01*
X69651556Y-71912134D01*
X69652793Y-71904328D01*
X69669360Y-71871813D01*
X69689256Y-71826754D01*
X69767474Y-71748536D01*
X69812533Y-71728640D01*
X69845048Y-71712073D01*
X69852854Y-71710836D01*
X69868666Y-71703855D01*
X69937580Y-71695860D01*
X70587580Y-71695860D01*
X70656494Y-71703855D01*
G37*
G36*
X72706494Y-71703855D02*
G01*
X72722306Y-71710836D01*
X72730111Y-71712073D01*
X72762619Y-71728636D01*
X72807686Y-71748536D01*
X72885904Y-71826754D01*
X72905806Y-71871827D01*
X72922366Y-71904328D01*
X72923601Y-71912130D01*
X72930585Y-71927946D01*
X72938580Y-71996860D01*
X72938580Y-72896860D01*
X72930585Y-72965774D01*
X72923601Y-72981589D01*
X72922366Y-72989391D01*
X72905809Y-73021884D01*
X72885904Y-73066966D01*
X72807686Y-73145184D01*
X72762604Y-73165089D01*
X72730111Y-73181646D01*
X72722309Y-73182881D01*
X72706494Y-73189865D01*
X72637580Y-73197860D01*
X71987580Y-73197860D01*
X71918666Y-73189865D01*
X71902850Y-73182881D01*
X71895048Y-73181646D01*
X71862547Y-73165086D01*
X71817474Y-73145184D01*
X71739256Y-73066966D01*
X71719356Y-73021899D01*
X71702793Y-72989391D01*
X71701556Y-72981586D01*
X71694575Y-72965774D01*
X71686580Y-72896860D01*
X71686580Y-71996860D01*
X71694575Y-71927946D01*
X71701556Y-71912134D01*
X71702793Y-71904328D01*
X71719360Y-71871813D01*
X71739256Y-71826754D01*
X71817474Y-71748536D01*
X71862533Y-71728640D01*
X71895048Y-71712073D01*
X71902854Y-71710836D01*
X71918666Y-71703855D01*
X71987580Y-71695860D01*
X72637580Y-71695860D01*
X72706494Y-71703855D01*
G37*
M02*
