G04 #@! TF.GenerationSoftware,KiCad,Pcbnew,9.0.1*
G04 #@! TF.CreationDate,2025-04-09T17:44:43+02:00*
G04 #@! TF.ProjectId,SMDChaser0805-0603,534d4443-6861-4736-9572-303830352d30,rev?*
G04 #@! TF.SameCoordinates,Original*
G04 #@! TF.FileFunction,Legend,Bot*
G04 #@! TF.FilePolarity,Positive*
%FSLAX46Y46*%
G04 Gerber Fmt 4.6, Leading zero omitted, Abs format (unit mm)*
G04 Created by KiCad (PCBNEW 9.0.1) date 2025-04-09 17:44:43*
%MOMM*%
%LPD*%
G01*
G04 APERTURE LIST*
%ADD10C,0.150000*%
%ADD11C,0.100000*%
%ADD12C,0.125000*%
%ADD13C,0.075000*%
%ADD14C,0.120000*%
%ADD15C,0.010000*%
%ADD16C,0.000000*%
G04 APERTURE END LIST*
D10*
X87918990Y-93139285D02*
X87871371Y-93024999D01*
X87871371Y-93024999D02*
X87823752Y-92986904D01*
X87823752Y-92986904D02*
X87728514Y-92948808D01*
X87728514Y-92948808D02*
X87585657Y-92948808D01*
X87585657Y-92948808D02*
X87490419Y-92986904D01*
X87490419Y-92986904D02*
X87442800Y-93024999D01*
X87442800Y-93024999D02*
X87395180Y-93101189D01*
X87395180Y-93101189D02*
X87395180Y-93405951D01*
X87395180Y-93405951D02*
X88395180Y-93405951D01*
X88395180Y-93405951D02*
X88395180Y-93139285D01*
X88395180Y-93139285D02*
X88347561Y-93063094D01*
X88347561Y-93063094D02*
X88299942Y-93024999D01*
X88299942Y-93024999D02*
X88204704Y-92986904D01*
X88204704Y-92986904D02*
X88109466Y-92986904D01*
X88109466Y-92986904D02*
X88014228Y-93024999D01*
X88014228Y-93024999D02*
X87966609Y-93063094D01*
X87966609Y-93063094D02*
X87918990Y-93139285D01*
X87918990Y-93139285D02*
X87918990Y-93405951D01*
X87395180Y-92605951D02*
X88061847Y-92605951D01*
X88395180Y-92605951D02*
X88347561Y-92644047D01*
X88347561Y-92644047D02*
X88299942Y-92605951D01*
X88299942Y-92605951D02*
X88347561Y-92567856D01*
X88347561Y-92567856D02*
X88395180Y-92605951D01*
X88395180Y-92605951D02*
X88299942Y-92605951D01*
X88061847Y-92224999D02*
X87395180Y-92224999D01*
X87966609Y-92224999D02*
X88014228Y-92186904D01*
X88014228Y-92186904D02*
X88061847Y-92110714D01*
X88061847Y-92110714D02*
X88061847Y-91996428D01*
X88061847Y-91996428D02*
X88014228Y-91920237D01*
X88014228Y-91920237D02*
X87918990Y-91882142D01*
X87918990Y-91882142D02*
X87395180Y-91882142D01*
X87395180Y-91158332D02*
X87918990Y-91158332D01*
X87918990Y-91158332D02*
X88014228Y-91196427D01*
X88014228Y-91196427D02*
X88061847Y-91272618D01*
X88061847Y-91272618D02*
X88061847Y-91424999D01*
X88061847Y-91424999D02*
X88014228Y-91501189D01*
X87442800Y-91158332D02*
X87395180Y-91234523D01*
X87395180Y-91234523D02*
X87395180Y-91424999D01*
X87395180Y-91424999D02*
X87442800Y-91501189D01*
X87442800Y-91501189D02*
X87538038Y-91539285D01*
X87538038Y-91539285D02*
X87633276Y-91539285D01*
X87633276Y-91539285D02*
X87728514Y-91501189D01*
X87728514Y-91501189D02*
X87776133Y-91424999D01*
X87776133Y-91424999D02*
X87776133Y-91234523D01*
X87776133Y-91234523D02*
X87823752Y-91158332D01*
X87395180Y-90777379D02*
X88061847Y-90777379D01*
X87871371Y-90777379D02*
X87966609Y-90739284D01*
X87966609Y-90739284D02*
X88014228Y-90701189D01*
X88014228Y-90701189D02*
X88061847Y-90624998D01*
X88061847Y-90624998D02*
X88061847Y-90548808D01*
X88061847Y-90358332D02*
X87395180Y-90167856D01*
X88061847Y-89977379D02*
X87395180Y-90167856D01*
X87395180Y-90167856D02*
X87157085Y-90244046D01*
X87157085Y-90244046D02*
X87109466Y-90282141D01*
X87109466Y-90282141D02*
X87061847Y-90358332D01*
X87395180Y-89063093D02*
X88395180Y-89063093D01*
X87395180Y-88605950D02*
X87966609Y-88948808D01*
X88395180Y-88605950D02*
X87823752Y-89063093D01*
X87395180Y-88263093D02*
X88061847Y-88263093D01*
X88395180Y-88263093D02*
X88347561Y-88301189D01*
X88347561Y-88301189D02*
X88299942Y-88263093D01*
X88299942Y-88263093D02*
X88347561Y-88224998D01*
X88347561Y-88224998D02*
X88395180Y-88263093D01*
X88395180Y-88263093D02*
X88299942Y-88263093D01*
X88061847Y-87996427D02*
X88061847Y-87691665D01*
X88395180Y-87882141D02*
X87538038Y-87882141D01*
X87538038Y-87882141D02*
X87442800Y-87844046D01*
X87442800Y-87844046D02*
X87395180Y-87767856D01*
X87395180Y-87767856D02*
X87395180Y-87691665D01*
X87442800Y-87082141D02*
X87395180Y-87158332D01*
X87395180Y-87158332D02*
X87395180Y-87310713D01*
X87395180Y-87310713D02*
X87442800Y-87386903D01*
X87442800Y-87386903D02*
X87490419Y-87424998D01*
X87490419Y-87424998D02*
X87585657Y-87463094D01*
X87585657Y-87463094D02*
X87871371Y-87463094D01*
X87871371Y-87463094D02*
X87966609Y-87424998D01*
X87966609Y-87424998D02*
X88014228Y-87386903D01*
X88014228Y-87386903D02*
X88061847Y-87310713D01*
X88061847Y-87310713D02*
X88061847Y-87158332D01*
X88061847Y-87158332D02*
X88014228Y-87082141D01*
X87395180Y-86739284D02*
X88395180Y-86739284D01*
X87395180Y-86396427D02*
X87918990Y-86396427D01*
X87918990Y-86396427D02*
X88014228Y-86434522D01*
X88014228Y-86434522D02*
X88061847Y-86510713D01*
X88061847Y-86510713D02*
X88061847Y-86624999D01*
X88061847Y-86624999D02*
X88014228Y-86701189D01*
X88014228Y-86701189D02*
X87966609Y-86739284D01*
X87442800Y-85710712D02*
X87395180Y-85786903D01*
X87395180Y-85786903D02*
X87395180Y-85939284D01*
X87395180Y-85939284D02*
X87442800Y-86015474D01*
X87442800Y-86015474D02*
X87538038Y-86053570D01*
X87538038Y-86053570D02*
X87918990Y-86053570D01*
X87918990Y-86053570D02*
X88014228Y-86015474D01*
X88014228Y-86015474D02*
X88061847Y-85939284D01*
X88061847Y-85939284D02*
X88061847Y-85786903D01*
X88061847Y-85786903D02*
X88014228Y-85710712D01*
X88014228Y-85710712D02*
X87918990Y-85672617D01*
X87918990Y-85672617D02*
X87823752Y-85672617D01*
X87823752Y-85672617D02*
X87728514Y-86053570D01*
X88061847Y-85329760D02*
X87395180Y-85329760D01*
X87966609Y-85329760D02*
X88014228Y-85291665D01*
X88014228Y-85291665D02*
X88061847Y-85215475D01*
X88061847Y-85215475D02*
X88061847Y-85101189D01*
X88061847Y-85101189D02*
X88014228Y-85024998D01*
X88014228Y-85024998D02*
X87918990Y-84986903D01*
X87918990Y-84986903D02*
X87395180Y-84986903D01*
X87442800Y-83691664D02*
X87395180Y-83767855D01*
X87395180Y-83767855D02*
X87395180Y-83920236D01*
X87395180Y-83920236D02*
X87442800Y-83996426D01*
X87442800Y-83996426D02*
X87538038Y-84034522D01*
X87538038Y-84034522D02*
X87918990Y-84034522D01*
X87918990Y-84034522D02*
X88014228Y-83996426D01*
X88014228Y-83996426D02*
X88061847Y-83920236D01*
X88061847Y-83920236D02*
X88061847Y-83767855D01*
X88061847Y-83767855D02*
X88014228Y-83691664D01*
X88014228Y-83691664D02*
X87918990Y-83653569D01*
X87918990Y-83653569D02*
X87823752Y-83653569D01*
X87823752Y-83653569D02*
X87728514Y-84034522D01*
X87490419Y-83310712D02*
X87442800Y-83272617D01*
X87442800Y-83272617D02*
X87395180Y-83310712D01*
X87395180Y-83310712D02*
X87442800Y-83348808D01*
X87442800Y-83348808D02*
X87490419Y-83310712D01*
X87490419Y-83310712D02*
X87395180Y-83310712D01*
X88395180Y-83044046D02*
X87395180Y-82777379D01*
X87395180Y-82777379D02*
X88395180Y-82510713D01*
X87490419Y-82244046D02*
X87442800Y-82205951D01*
X87442800Y-82205951D02*
X87395180Y-82244046D01*
X87395180Y-82244046D02*
X87442800Y-82282142D01*
X87442800Y-82282142D02*
X87490419Y-82244046D01*
X87490419Y-82244046D02*
X87395180Y-82244046D01*
X74785920Y-109708639D02*
X75166872Y-109708639D01*
X75166872Y-109708639D02*
X75166872Y-108708639D01*
X74176396Y-109708639D02*
X74176396Y-109184829D01*
X74176396Y-109184829D02*
X74214491Y-109089591D01*
X74214491Y-109089591D02*
X74290682Y-109041972D01*
X74290682Y-109041972D02*
X74443063Y-109041972D01*
X74443063Y-109041972D02*
X74519253Y-109089591D01*
X74176396Y-109661020D02*
X74252587Y-109708639D01*
X74252587Y-109708639D02*
X74443063Y-109708639D01*
X74443063Y-109708639D02*
X74519253Y-109661020D01*
X74519253Y-109661020D02*
X74557349Y-109565781D01*
X74557349Y-109565781D02*
X74557349Y-109470543D01*
X74557349Y-109470543D02*
X74519253Y-109375305D01*
X74519253Y-109375305D02*
X74443063Y-109327686D01*
X74443063Y-109327686D02*
X74252587Y-109327686D01*
X74252587Y-109327686D02*
X74176396Y-109280067D01*
X73452586Y-109041972D02*
X73452586Y-109708639D01*
X73795443Y-109041972D02*
X73795443Y-109565781D01*
X73795443Y-109565781D02*
X73757348Y-109661020D01*
X73757348Y-109661020D02*
X73681158Y-109708639D01*
X73681158Y-109708639D02*
X73566872Y-109708639D01*
X73566872Y-109708639D02*
X73490681Y-109661020D01*
X73490681Y-109661020D02*
X73452586Y-109613400D01*
X73185919Y-109041972D02*
X72881157Y-109041972D01*
X73071633Y-109708639D02*
X73071633Y-108851496D01*
X73071633Y-108851496D02*
X73033538Y-108756258D01*
X73033538Y-108756258D02*
X72957348Y-108708639D01*
X72957348Y-108708639D02*
X72881157Y-108708639D01*
X72500205Y-109708639D02*
X72576395Y-109661020D01*
X72576395Y-109661020D02*
X72614490Y-109565781D01*
X72614490Y-109565781D02*
X72614490Y-108708639D01*
X72195442Y-109708639D02*
X72195442Y-109041972D01*
X72195442Y-108708639D02*
X72233538Y-108756258D01*
X72233538Y-108756258D02*
X72195442Y-108803877D01*
X72195442Y-108803877D02*
X72157347Y-108756258D01*
X72157347Y-108756258D02*
X72195442Y-108708639D01*
X72195442Y-108708639D02*
X72195442Y-108803877D01*
X71471633Y-109661020D02*
X71547824Y-109708639D01*
X71547824Y-109708639D02*
X71700205Y-109708639D01*
X71700205Y-109708639D02*
X71776395Y-109661020D01*
X71776395Y-109661020D02*
X71814490Y-109613400D01*
X71814490Y-109613400D02*
X71852586Y-109518162D01*
X71852586Y-109518162D02*
X71852586Y-109232448D01*
X71852586Y-109232448D02*
X71814490Y-109137210D01*
X71814490Y-109137210D02*
X71776395Y-109089591D01*
X71776395Y-109089591D02*
X71700205Y-109041972D01*
X71700205Y-109041972D02*
X71547824Y-109041972D01*
X71547824Y-109041972D02*
X71471633Y-109089591D01*
X71128776Y-109708639D02*
X71128776Y-108708639D01*
X70785919Y-109708639D02*
X70785919Y-109184829D01*
X70785919Y-109184829D02*
X70824014Y-109089591D01*
X70824014Y-109089591D02*
X70900205Y-109041972D01*
X70900205Y-109041972D02*
X71014491Y-109041972D01*
X71014491Y-109041972D02*
X71090681Y-109089591D01*
X71090681Y-109089591D02*
X71128776Y-109137210D01*
X70519252Y-109041972D02*
X70214490Y-109041972D01*
X70404966Y-108708639D02*
X70404966Y-109565781D01*
X70404966Y-109565781D02*
X70366871Y-109661020D01*
X70366871Y-109661020D02*
X70290681Y-109708639D01*
X70290681Y-109708639D02*
X70214490Y-109708639D01*
X69414490Y-109041972D02*
X69224014Y-109708639D01*
X69224014Y-109708639D02*
X69033537Y-109041972D01*
X68309728Y-109708639D02*
X68766871Y-109708639D01*
X68538299Y-109708639D02*
X68538299Y-108708639D01*
X68538299Y-108708639D02*
X68614490Y-108851496D01*
X68614490Y-108851496D02*
X68690680Y-108946734D01*
X68690680Y-108946734D02*
X68766871Y-108994353D01*
X67966870Y-109613400D02*
X67928775Y-109661020D01*
X67928775Y-109661020D02*
X67966870Y-109708639D01*
X67966870Y-109708639D02*
X68004966Y-109661020D01*
X68004966Y-109661020D02*
X67966870Y-109613400D01*
X67966870Y-109613400D02*
X67966870Y-109708639D01*
X67166871Y-109708639D02*
X67624014Y-109708639D01*
X67395442Y-109708639D02*
X67395442Y-108708639D01*
X67395442Y-108708639D02*
X67471633Y-108851496D01*
X67471633Y-108851496D02*
X67547823Y-108946734D01*
X67547823Y-108946734D02*
X67624014Y-108994353D01*
D11*
X85560819Y-87433465D02*
X85513200Y-87471561D01*
X85513200Y-87471561D02*
X85465580Y-87585846D01*
X85465580Y-87585846D02*
X85465580Y-87662037D01*
X85465580Y-87662037D02*
X85513200Y-87776323D01*
X85513200Y-87776323D02*
X85608438Y-87852513D01*
X85608438Y-87852513D02*
X85703676Y-87890608D01*
X85703676Y-87890608D02*
X85894152Y-87928704D01*
X85894152Y-87928704D02*
X86037009Y-87928704D01*
X86037009Y-87928704D02*
X86227485Y-87890608D01*
X86227485Y-87890608D02*
X86322723Y-87852513D01*
X86322723Y-87852513D02*
X86417961Y-87776323D01*
X86417961Y-87776323D02*
X86465580Y-87662037D01*
X86465580Y-87662037D02*
X86465580Y-87585846D01*
X86465580Y-87585846D02*
X86417961Y-87471561D01*
X86417961Y-87471561D02*
X86370342Y-87433465D01*
X85560819Y-86633465D02*
X85513200Y-86671561D01*
X85513200Y-86671561D02*
X85465580Y-86785846D01*
X85465580Y-86785846D02*
X85465580Y-86862037D01*
X85465580Y-86862037D02*
X85513200Y-86976323D01*
X85513200Y-86976323D02*
X85608438Y-87052513D01*
X85608438Y-87052513D02*
X85703676Y-87090608D01*
X85703676Y-87090608D02*
X85894152Y-87128704D01*
X85894152Y-87128704D02*
X86037009Y-87128704D01*
X86037009Y-87128704D02*
X86227485Y-87090608D01*
X86227485Y-87090608D02*
X86322723Y-87052513D01*
X86322723Y-87052513D02*
X86417961Y-86976323D01*
X86417961Y-86976323D02*
X86465580Y-86862037D01*
X86465580Y-86862037D02*
X86465580Y-86785846D01*
X86465580Y-86785846D02*
X86417961Y-86671561D01*
X86417961Y-86671561D02*
X86370342Y-86633465D01*
X85846533Y-86290608D02*
X85846533Y-85681085D01*
X85989390Y-85033466D02*
X85941771Y-84919180D01*
X85941771Y-84919180D02*
X85894152Y-84881085D01*
X85894152Y-84881085D02*
X85798914Y-84842989D01*
X85798914Y-84842989D02*
X85656057Y-84842989D01*
X85656057Y-84842989D02*
X85560819Y-84881085D01*
X85560819Y-84881085D02*
X85513200Y-84919180D01*
X85513200Y-84919180D02*
X85465580Y-84995370D01*
X85465580Y-84995370D02*
X85465580Y-85300132D01*
X85465580Y-85300132D02*
X86465580Y-85300132D01*
X86465580Y-85300132D02*
X86465580Y-85033466D01*
X86465580Y-85033466D02*
X86417961Y-84957275D01*
X86417961Y-84957275D02*
X86370342Y-84919180D01*
X86370342Y-84919180D02*
X86275104Y-84881085D01*
X86275104Y-84881085D02*
X86179866Y-84881085D01*
X86179866Y-84881085D02*
X86084628Y-84919180D01*
X86084628Y-84919180D02*
X86037009Y-84957275D01*
X86037009Y-84957275D02*
X85989390Y-85033466D01*
X85989390Y-85033466D02*
X85989390Y-85300132D01*
X85941771Y-84347751D02*
X85465580Y-84347751D01*
X86465580Y-84614418D02*
X85941771Y-84347751D01*
X85941771Y-84347751D02*
X86465580Y-84081085D01*
X85846533Y-83814418D02*
X85846533Y-83204895D01*
X85513200Y-82862038D02*
X85465580Y-82747752D01*
X85465580Y-82747752D02*
X85465580Y-82557276D01*
X85465580Y-82557276D02*
X85513200Y-82481085D01*
X85513200Y-82481085D02*
X85560819Y-82442990D01*
X85560819Y-82442990D02*
X85656057Y-82404895D01*
X85656057Y-82404895D02*
X85751295Y-82404895D01*
X85751295Y-82404895D02*
X85846533Y-82442990D01*
X85846533Y-82442990D02*
X85894152Y-82481085D01*
X85894152Y-82481085D02*
X85941771Y-82557276D01*
X85941771Y-82557276D02*
X85989390Y-82709657D01*
X85989390Y-82709657D02*
X86037009Y-82785847D01*
X86037009Y-82785847D02*
X86084628Y-82823942D01*
X86084628Y-82823942D02*
X86179866Y-82862038D01*
X86179866Y-82862038D02*
X86275104Y-82862038D01*
X86275104Y-82862038D02*
X86370342Y-82823942D01*
X86370342Y-82823942D02*
X86417961Y-82785847D01*
X86417961Y-82785847D02*
X86465580Y-82709657D01*
X86465580Y-82709657D02*
X86465580Y-82519180D01*
X86465580Y-82519180D02*
X86417961Y-82404895D01*
X85751295Y-82100133D02*
X85751295Y-81719180D01*
X85465580Y-82176323D02*
X86465580Y-81909656D01*
X86465580Y-81909656D02*
X85465580Y-81642990D01*
X86132247Y-80423942D02*
X85465580Y-80423942D01*
X86513200Y-80614418D02*
X85798914Y-80804895D01*
X85798914Y-80804895D02*
X85798914Y-80309656D01*
X85560819Y-80004894D02*
X85513200Y-79966799D01*
X85513200Y-79966799D02*
X85465580Y-80004894D01*
X85465580Y-80004894D02*
X85513200Y-80042990D01*
X85513200Y-80042990D02*
X85560819Y-80004894D01*
X85560819Y-80004894D02*
X85465580Y-80004894D01*
X86465580Y-79471561D02*
X86465580Y-79395371D01*
X86465580Y-79395371D02*
X86417961Y-79319180D01*
X86417961Y-79319180D02*
X86370342Y-79281085D01*
X86370342Y-79281085D02*
X86275104Y-79242990D01*
X86275104Y-79242990D02*
X86084628Y-79204895D01*
X86084628Y-79204895D02*
X85846533Y-79204895D01*
X85846533Y-79204895D02*
X85656057Y-79242990D01*
X85656057Y-79242990D02*
X85560819Y-79281085D01*
X85560819Y-79281085D02*
X85513200Y-79319180D01*
X85513200Y-79319180D02*
X85465580Y-79395371D01*
X85465580Y-79395371D02*
X85465580Y-79471561D01*
X85465580Y-79471561D02*
X85513200Y-79547752D01*
X85513200Y-79547752D02*
X85560819Y-79585847D01*
X85560819Y-79585847D02*
X85656057Y-79623942D01*
X85656057Y-79623942D02*
X85846533Y-79662038D01*
X85846533Y-79662038D02*
X86084628Y-79662038D01*
X86084628Y-79662038D02*
X86275104Y-79623942D01*
X86275104Y-79623942D02*
X86370342Y-79585847D01*
X86370342Y-79585847D02*
X86417961Y-79547752D01*
X86417961Y-79547752D02*
X86465580Y-79471561D01*
D12*
X81904272Y-96311798D02*
X81904272Y-95561798D01*
X81904272Y-95847512D02*
X81832844Y-95811798D01*
X81832844Y-95811798D02*
X81689986Y-95811798D01*
X81689986Y-95811798D02*
X81618558Y-95847512D01*
X81618558Y-95847512D02*
X81582844Y-95883226D01*
X81582844Y-95883226D02*
X81547129Y-95954655D01*
X81547129Y-95954655D02*
X81547129Y-96168941D01*
X81547129Y-96168941D02*
X81582844Y-96240369D01*
X81582844Y-96240369D02*
X81618558Y-96276084D01*
X81618558Y-96276084D02*
X81689986Y-96311798D01*
X81689986Y-96311798D02*
X81832844Y-96311798D01*
X81832844Y-96311798D02*
X81904272Y-96276084D01*
X81118558Y-96311798D02*
X81189987Y-96276084D01*
X81189987Y-96276084D02*
X81225701Y-96204655D01*
X81225701Y-96204655D02*
X81225701Y-95561798D01*
X80832844Y-96311798D02*
X80832844Y-95811798D01*
X80832844Y-95561798D02*
X80868558Y-95597512D01*
X80868558Y-95597512D02*
X80832844Y-95633226D01*
X80832844Y-95633226D02*
X80797130Y-95597512D01*
X80797130Y-95597512D02*
X80832844Y-95561798D01*
X80832844Y-95561798D02*
X80832844Y-95633226D01*
X80475701Y-95811798D02*
X80475701Y-96311798D01*
X80475701Y-95883226D02*
X80439987Y-95847512D01*
X80439987Y-95847512D02*
X80368558Y-95811798D01*
X80368558Y-95811798D02*
X80261415Y-95811798D01*
X80261415Y-95811798D02*
X80189987Y-95847512D01*
X80189987Y-95847512D02*
X80154273Y-95918941D01*
X80154273Y-95918941D02*
X80154273Y-96311798D01*
X79797130Y-96311798D02*
X79797130Y-95561798D01*
X79725702Y-96026084D02*
X79511416Y-96311798D01*
X79511416Y-95811798D02*
X79797130Y-96097512D01*
X79261416Y-95811798D02*
X79082844Y-96311798D01*
X78904273Y-95811798D02*
X79082844Y-96311798D01*
X79082844Y-96311798D02*
X79154273Y-96490369D01*
X79154273Y-96490369D02*
X79189987Y-96526084D01*
X79189987Y-96526084D02*
X79261416Y-96561798D01*
X78618558Y-95811798D02*
X78618558Y-96561798D01*
X78618558Y-95847512D02*
X78547130Y-95811798D01*
X78547130Y-95811798D02*
X78404272Y-95811798D01*
X78404272Y-95811798D02*
X78332844Y-95847512D01*
X78332844Y-95847512D02*
X78297130Y-95883226D01*
X78297130Y-95883226D02*
X78261415Y-95954655D01*
X78261415Y-95954655D02*
X78261415Y-96168941D01*
X78261415Y-96168941D02*
X78297130Y-96240369D01*
X78297130Y-96240369D02*
X78332844Y-96276084D01*
X78332844Y-96276084D02*
X78404272Y-96311798D01*
X78404272Y-96311798D02*
X78547130Y-96311798D01*
X78547130Y-96311798D02*
X78618558Y-96276084D01*
X77618559Y-96311798D02*
X77618559Y-95918941D01*
X77618559Y-95918941D02*
X77654273Y-95847512D01*
X77654273Y-95847512D02*
X77725701Y-95811798D01*
X77725701Y-95811798D02*
X77868559Y-95811798D01*
X77868559Y-95811798D02*
X77939987Y-95847512D01*
X77618559Y-96276084D02*
X77689987Y-96311798D01*
X77689987Y-96311798D02*
X77868559Y-96311798D01*
X77868559Y-96311798D02*
X77939987Y-96276084D01*
X77939987Y-96276084D02*
X77975701Y-96204655D01*
X77975701Y-96204655D02*
X77975701Y-96133226D01*
X77975701Y-96133226D02*
X77939987Y-96061798D01*
X77939987Y-96061798D02*
X77868559Y-96026084D01*
X77868559Y-96026084D02*
X77689987Y-96026084D01*
X77689987Y-96026084D02*
X77618559Y-95990369D01*
X77261416Y-96311798D02*
X77261416Y-95811798D01*
X77261416Y-95954655D02*
X77225702Y-95883226D01*
X77225702Y-95883226D02*
X77189988Y-95847512D01*
X77189988Y-95847512D02*
X77118559Y-95811798D01*
X77118559Y-95811798D02*
X77047130Y-95811798D01*
X76904273Y-95811798D02*
X76618559Y-95811798D01*
X76797130Y-95561798D02*
X76797130Y-96204655D01*
X76797130Y-96204655D02*
X76761416Y-96276084D01*
X76761416Y-96276084D02*
X76689987Y-96311798D01*
X76689987Y-96311798D02*
X76618559Y-96311798D01*
X76404273Y-96276084D02*
X76332845Y-96311798D01*
X76332845Y-96311798D02*
X76189988Y-96311798D01*
X76189988Y-96311798D02*
X76118559Y-96276084D01*
X76118559Y-96276084D02*
X76082845Y-96204655D01*
X76082845Y-96204655D02*
X76082845Y-96168941D01*
X76082845Y-96168941D02*
X76118559Y-96097512D01*
X76118559Y-96097512D02*
X76189988Y-96061798D01*
X76189988Y-96061798D02*
X76297131Y-96061798D01*
X76297131Y-96061798D02*
X76368559Y-96026084D01*
X76368559Y-96026084D02*
X76404273Y-95954655D01*
X76404273Y-95954655D02*
X76404273Y-95918941D01*
X76404273Y-95918941D02*
X76368559Y-95847512D01*
X76368559Y-95847512D02*
X76297131Y-95811798D01*
X76297131Y-95811798D02*
X76189988Y-95811798D01*
X76189988Y-95811798D02*
X76118559Y-95847512D01*
X74797130Y-95597512D02*
X74868559Y-95561798D01*
X74868559Y-95561798D02*
X74975701Y-95561798D01*
X74975701Y-95561798D02*
X75082844Y-95597512D01*
X75082844Y-95597512D02*
X75154273Y-95668941D01*
X75154273Y-95668941D02*
X75189987Y-95740369D01*
X75189987Y-95740369D02*
X75225701Y-95883226D01*
X75225701Y-95883226D02*
X75225701Y-95990369D01*
X75225701Y-95990369D02*
X75189987Y-96133226D01*
X75189987Y-96133226D02*
X75154273Y-96204655D01*
X75154273Y-96204655D02*
X75082844Y-96276084D01*
X75082844Y-96276084D02*
X74975701Y-96311798D01*
X74975701Y-96311798D02*
X74904273Y-96311798D01*
X74904273Y-96311798D02*
X74797130Y-96276084D01*
X74797130Y-96276084D02*
X74761416Y-96240369D01*
X74761416Y-96240369D02*
X74761416Y-95990369D01*
X74761416Y-95990369D02*
X74904273Y-95990369D01*
X74439987Y-96311798D02*
X74439987Y-95811798D01*
X74439987Y-95883226D02*
X74404273Y-95847512D01*
X74404273Y-95847512D02*
X74332844Y-95811798D01*
X74332844Y-95811798D02*
X74225701Y-95811798D01*
X74225701Y-95811798D02*
X74154273Y-95847512D01*
X74154273Y-95847512D02*
X74118559Y-95918941D01*
X74118559Y-95918941D02*
X74118559Y-96311798D01*
X74118559Y-95918941D02*
X74082844Y-95847512D01*
X74082844Y-95847512D02*
X74011416Y-95811798D01*
X74011416Y-95811798D02*
X73904273Y-95811798D01*
X73904273Y-95811798D02*
X73832844Y-95847512D01*
X73832844Y-95847512D02*
X73797130Y-95918941D01*
X73797130Y-95918941D02*
X73797130Y-96311798D01*
X73439987Y-96311798D02*
X73439987Y-95561798D01*
X73439987Y-95847512D02*
X73368559Y-95811798D01*
X73368559Y-95811798D02*
X73225701Y-95811798D01*
X73225701Y-95811798D02*
X73154273Y-95847512D01*
X73154273Y-95847512D02*
X73118559Y-95883226D01*
X73118559Y-95883226D02*
X73082844Y-95954655D01*
X73082844Y-95954655D02*
X73082844Y-96168941D01*
X73082844Y-96168941D02*
X73118559Y-96240369D01*
X73118559Y-96240369D02*
X73154273Y-96276084D01*
X73154273Y-96276084D02*
X73225701Y-96311798D01*
X73225701Y-96311798D02*
X73368559Y-96311798D01*
X73368559Y-96311798D02*
X73439987Y-96276084D01*
X72761416Y-96311798D02*
X72761416Y-95561798D01*
X72761416Y-95918941D02*
X72332845Y-95918941D01*
X72332845Y-96311798D02*
X72332845Y-95561798D01*
X81904272Y-97126399D02*
X81654272Y-97126399D01*
X81547129Y-97519256D02*
X81904272Y-97519256D01*
X81904272Y-97519256D02*
X81904272Y-96769256D01*
X81904272Y-96769256D02*
X81547129Y-96769256D01*
X80904273Y-97019256D02*
X80904273Y-97626399D01*
X80904273Y-97626399D02*
X80939987Y-97697827D01*
X80939987Y-97697827D02*
X80975701Y-97733542D01*
X80975701Y-97733542D02*
X81047130Y-97769256D01*
X81047130Y-97769256D02*
X81154273Y-97769256D01*
X81154273Y-97769256D02*
X81225701Y-97733542D01*
X80904273Y-97483542D02*
X80975701Y-97519256D01*
X80975701Y-97519256D02*
X81118558Y-97519256D01*
X81118558Y-97519256D02*
X81189987Y-97483542D01*
X81189987Y-97483542D02*
X81225701Y-97447827D01*
X81225701Y-97447827D02*
X81261415Y-97376399D01*
X81261415Y-97376399D02*
X81261415Y-97162113D01*
X81261415Y-97162113D02*
X81225701Y-97090684D01*
X81225701Y-97090684D02*
X81189987Y-97054970D01*
X81189987Y-97054970D02*
X81118558Y-97019256D01*
X81118558Y-97019256D02*
X80975701Y-97019256D01*
X80975701Y-97019256D02*
X80904273Y-97054970D01*
X80261416Y-97483542D02*
X80332844Y-97519256D01*
X80332844Y-97519256D02*
X80475702Y-97519256D01*
X80475702Y-97519256D02*
X80547130Y-97483542D01*
X80547130Y-97483542D02*
X80582844Y-97412113D01*
X80582844Y-97412113D02*
X80582844Y-97126399D01*
X80582844Y-97126399D02*
X80547130Y-97054970D01*
X80547130Y-97054970D02*
X80475702Y-97019256D01*
X80475702Y-97019256D02*
X80332844Y-97019256D01*
X80332844Y-97019256D02*
X80261416Y-97054970D01*
X80261416Y-97054970D02*
X80225702Y-97126399D01*
X80225702Y-97126399D02*
X80225702Y-97197827D01*
X80225702Y-97197827D02*
X80582844Y-97269256D01*
X79904273Y-97519256D02*
X79904273Y-97019256D01*
X79904273Y-97162113D02*
X79868559Y-97090684D01*
X79868559Y-97090684D02*
X79832845Y-97054970D01*
X79832845Y-97054970D02*
X79761416Y-97019256D01*
X79761416Y-97019256D02*
X79689987Y-97019256D01*
X79475701Y-97483542D02*
X79404273Y-97519256D01*
X79404273Y-97519256D02*
X79261416Y-97519256D01*
X79261416Y-97519256D02*
X79189987Y-97483542D01*
X79189987Y-97483542D02*
X79154273Y-97412113D01*
X79154273Y-97412113D02*
X79154273Y-97376399D01*
X79154273Y-97376399D02*
X79189987Y-97304970D01*
X79189987Y-97304970D02*
X79261416Y-97269256D01*
X79261416Y-97269256D02*
X79368559Y-97269256D01*
X79368559Y-97269256D02*
X79439987Y-97233542D01*
X79439987Y-97233542D02*
X79475701Y-97162113D01*
X79475701Y-97162113D02*
X79475701Y-97126399D01*
X79475701Y-97126399D02*
X79439987Y-97054970D01*
X79439987Y-97054970D02*
X79368559Y-97019256D01*
X79368559Y-97019256D02*
X79261416Y-97019256D01*
X79261416Y-97019256D02*
X79189987Y-97054970D01*
X78939987Y-97019256D02*
X78654273Y-97019256D01*
X78832844Y-96769256D02*
X78832844Y-97412113D01*
X78832844Y-97412113D02*
X78797130Y-97483542D01*
X78797130Y-97483542D02*
X78725701Y-97519256D01*
X78725701Y-97519256D02*
X78654273Y-97519256D01*
X78404273Y-97519256D02*
X78404273Y-97019256D01*
X78404273Y-97162113D02*
X78368559Y-97090684D01*
X78368559Y-97090684D02*
X78332845Y-97054970D01*
X78332845Y-97054970D02*
X78261416Y-97019256D01*
X78261416Y-97019256D02*
X78189987Y-97019256D01*
X77939987Y-97447827D02*
X77904273Y-97483542D01*
X77904273Y-97483542D02*
X77939987Y-97519256D01*
X77939987Y-97519256D02*
X77975701Y-97483542D01*
X77975701Y-97483542D02*
X77939987Y-97447827D01*
X77939987Y-97447827D02*
X77939987Y-97519256D01*
X76975701Y-97519256D02*
X76832844Y-97519256D01*
X76832844Y-97519256D02*
X76761415Y-97483542D01*
X76761415Y-97483542D02*
X76725701Y-97447827D01*
X76725701Y-97447827D02*
X76654272Y-97340684D01*
X76654272Y-97340684D02*
X76618558Y-97197827D01*
X76618558Y-97197827D02*
X76618558Y-96912113D01*
X76618558Y-96912113D02*
X76654272Y-96840684D01*
X76654272Y-96840684D02*
X76689987Y-96804970D01*
X76689987Y-96804970D02*
X76761415Y-96769256D01*
X76761415Y-96769256D02*
X76904272Y-96769256D01*
X76904272Y-96769256D02*
X76975701Y-96804970D01*
X76975701Y-96804970D02*
X77011415Y-96840684D01*
X77011415Y-96840684D02*
X77047129Y-96912113D01*
X77047129Y-96912113D02*
X77047129Y-97090684D01*
X77047129Y-97090684D02*
X77011415Y-97162113D01*
X77011415Y-97162113D02*
X76975701Y-97197827D01*
X76975701Y-97197827D02*
X76904272Y-97233542D01*
X76904272Y-97233542D02*
X76761415Y-97233542D01*
X76761415Y-97233542D02*
X76689987Y-97197827D01*
X76689987Y-97197827D02*
X76654272Y-97162113D01*
X76654272Y-97162113D02*
X76618558Y-97090684D01*
X81868558Y-98726714D02*
X81725701Y-98726714D01*
X81725701Y-98726714D02*
X81654272Y-98691000D01*
X81654272Y-98691000D02*
X81618558Y-98655285D01*
X81618558Y-98655285D02*
X81547129Y-98548142D01*
X81547129Y-98548142D02*
X81511415Y-98405285D01*
X81511415Y-98405285D02*
X81511415Y-98119571D01*
X81511415Y-98119571D02*
X81547129Y-98048142D01*
X81547129Y-98048142D02*
X81582844Y-98012428D01*
X81582844Y-98012428D02*
X81654272Y-97976714D01*
X81654272Y-97976714D02*
X81797129Y-97976714D01*
X81797129Y-97976714D02*
X81868558Y-98012428D01*
X81868558Y-98012428D02*
X81904272Y-98048142D01*
X81904272Y-98048142D02*
X81939986Y-98119571D01*
X81939986Y-98119571D02*
X81939986Y-98298142D01*
X81939986Y-98298142D02*
X81904272Y-98369571D01*
X81904272Y-98369571D02*
X81868558Y-98405285D01*
X81868558Y-98405285D02*
X81797129Y-98441000D01*
X81797129Y-98441000D02*
X81654272Y-98441000D01*
X81654272Y-98441000D02*
X81582844Y-98405285D01*
X81582844Y-98405285D02*
X81547129Y-98369571D01*
X81547129Y-98369571D02*
X81511415Y-98298142D01*
X81261415Y-97976714D02*
X80797129Y-97976714D01*
X80797129Y-97976714D02*
X81047129Y-98262428D01*
X81047129Y-98262428D02*
X80939986Y-98262428D01*
X80939986Y-98262428D02*
X80868558Y-98298142D01*
X80868558Y-98298142D02*
X80832843Y-98333857D01*
X80832843Y-98333857D02*
X80797129Y-98405285D01*
X80797129Y-98405285D02*
X80797129Y-98583857D01*
X80797129Y-98583857D02*
X80832843Y-98655285D01*
X80832843Y-98655285D02*
X80868558Y-98691000D01*
X80868558Y-98691000D02*
X80939986Y-98726714D01*
X80939986Y-98726714D02*
X81154272Y-98726714D01*
X81154272Y-98726714D02*
X81225700Y-98691000D01*
X81225700Y-98691000D02*
X81261415Y-98655285D01*
X80332843Y-97976714D02*
X80261414Y-97976714D01*
X80261414Y-97976714D02*
X80189986Y-98012428D01*
X80189986Y-98012428D02*
X80154272Y-98048142D01*
X80154272Y-98048142D02*
X80118557Y-98119571D01*
X80118557Y-98119571D02*
X80082843Y-98262428D01*
X80082843Y-98262428D02*
X80082843Y-98441000D01*
X80082843Y-98441000D02*
X80118557Y-98583857D01*
X80118557Y-98583857D02*
X80154272Y-98655285D01*
X80154272Y-98655285D02*
X80189986Y-98691000D01*
X80189986Y-98691000D02*
X80261414Y-98726714D01*
X80261414Y-98726714D02*
X80332843Y-98726714D01*
X80332843Y-98726714D02*
X80404272Y-98691000D01*
X80404272Y-98691000D02*
X80439986Y-98655285D01*
X80439986Y-98655285D02*
X80475700Y-98583857D01*
X80475700Y-98583857D02*
X80511414Y-98441000D01*
X80511414Y-98441000D02*
X80511414Y-98262428D01*
X80511414Y-98262428D02*
X80475700Y-98119571D01*
X80475700Y-98119571D02*
X80439986Y-98048142D01*
X80439986Y-98048142D02*
X80404272Y-98012428D01*
X80404272Y-98012428D02*
X80332843Y-97976714D01*
X79404271Y-97976714D02*
X79761414Y-97976714D01*
X79761414Y-97976714D02*
X79797128Y-98333857D01*
X79797128Y-98333857D02*
X79761414Y-98298142D01*
X79761414Y-98298142D02*
X79689986Y-98262428D01*
X79689986Y-98262428D02*
X79511414Y-98262428D01*
X79511414Y-98262428D02*
X79439986Y-98298142D01*
X79439986Y-98298142D02*
X79404271Y-98333857D01*
X79404271Y-98333857D02*
X79368557Y-98405285D01*
X79368557Y-98405285D02*
X79368557Y-98583857D01*
X79368557Y-98583857D02*
X79404271Y-98655285D01*
X79404271Y-98655285D02*
X79439986Y-98691000D01*
X79439986Y-98691000D02*
X79511414Y-98726714D01*
X79511414Y-98726714D02*
X79689986Y-98726714D01*
X79689986Y-98726714D02*
X79761414Y-98691000D01*
X79761414Y-98691000D02*
X79797128Y-98655285D01*
X79118557Y-97976714D02*
X78618557Y-97976714D01*
X78618557Y-97976714D02*
X78939985Y-98726714D01*
X77332842Y-98726714D02*
X77582842Y-98369571D01*
X77761413Y-98726714D02*
X77761413Y-97976714D01*
X77761413Y-97976714D02*
X77475699Y-97976714D01*
X77475699Y-97976714D02*
X77404270Y-98012428D01*
X77404270Y-98012428D02*
X77368556Y-98048142D01*
X77368556Y-98048142D02*
X77332842Y-98119571D01*
X77332842Y-98119571D02*
X77332842Y-98226714D01*
X77332842Y-98226714D02*
X77368556Y-98298142D01*
X77368556Y-98298142D02*
X77404270Y-98333857D01*
X77404270Y-98333857D02*
X77475699Y-98369571D01*
X77475699Y-98369571D02*
X77761413Y-98369571D01*
X76725699Y-98691000D02*
X76797127Y-98726714D01*
X76797127Y-98726714D02*
X76939985Y-98726714D01*
X76939985Y-98726714D02*
X77011413Y-98691000D01*
X77011413Y-98691000D02*
X77047127Y-98619571D01*
X77047127Y-98619571D02*
X77047127Y-98333857D01*
X77047127Y-98333857D02*
X77011413Y-98262428D01*
X77011413Y-98262428D02*
X76939985Y-98226714D01*
X76939985Y-98226714D02*
X76797127Y-98226714D01*
X76797127Y-98226714D02*
X76725699Y-98262428D01*
X76725699Y-98262428D02*
X76689985Y-98333857D01*
X76689985Y-98333857D02*
X76689985Y-98405285D01*
X76689985Y-98405285D02*
X77047127Y-98476714D01*
X76047128Y-98226714D02*
X76047128Y-98833857D01*
X76047128Y-98833857D02*
X76082842Y-98905285D01*
X76082842Y-98905285D02*
X76118556Y-98941000D01*
X76118556Y-98941000D02*
X76189985Y-98976714D01*
X76189985Y-98976714D02*
X76297128Y-98976714D01*
X76297128Y-98976714D02*
X76368556Y-98941000D01*
X76047128Y-98691000D02*
X76118556Y-98726714D01*
X76118556Y-98726714D02*
X76261413Y-98726714D01*
X76261413Y-98726714D02*
X76332842Y-98691000D01*
X76332842Y-98691000D02*
X76368556Y-98655285D01*
X76368556Y-98655285D02*
X76404270Y-98583857D01*
X76404270Y-98583857D02*
X76404270Y-98369571D01*
X76404270Y-98369571D02*
X76368556Y-98298142D01*
X76368556Y-98298142D02*
X76332842Y-98262428D01*
X76332842Y-98262428D02*
X76261413Y-98226714D01*
X76261413Y-98226714D02*
X76118556Y-98226714D01*
X76118556Y-98226714D02*
X76047128Y-98262428D01*
X75404271Y-98691000D02*
X75475699Y-98726714D01*
X75475699Y-98726714D02*
X75618557Y-98726714D01*
X75618557Y-98726714D02*
X75689985Y-98691000D01*
X75689985Y-98691000D02*
X75725699Y-98619571D01*
X75725699Y-98619571D02*
X75725699Y-98333857D01*
X75725699Y-98333857D02*
X75689985Y-98262428D01*
X75689985Y-98262428D02*
X75618557Y-98226714D01*
X75618557Y-98226714D02*
X75475699Y-98226714D01*
X75475699Y-98226714D02*
X75404271Y-98262428D01*
X75404271Y-98262428D02*
X75368557Y-98333857D01*
X75368557Y-98333857D02*
X75368557Y-98405285D01*
X75368557Y-98405285D02*
X75725699Y-98476714D01*
X75047128Y-98226714D02*
X75047128Y-98726714D01*
X75047128Y-98298142D02*
X75011414Y-98262428D01*
X75011414Y-98262428D02*
X74939985Y-98226714D01*
X74939985Y-98226714D02*
X74832842Y-98226714D01*
X74832842Y-98226714D02*
X74761414Y-98262428D01*
X74761414Y-98262428D02*
X74725700Y-98333857D01*
X74725700Y-98333857D02*
X74725700Y-98726714D01*
X74404271Y-98691000D02*
X74332843Y-98726714D01*
X74332843Y-98726714D02*
X74189986Y-98726714D01*
X74189986Y-98726714D02*
X74118557Y-98691000D01*
X74118557Y-98691000D02*
X74082843Y-98619571D01*
X74082843Y-98619571D02*
X74082843Y-98583857D01*
X74082843Y-98583857D02*
X74118557Y-98512428D01*
X74118557Y-98512428D02*
X74189986Y-98476714D01*
X74189986Y-98476714D02*
X74297129Y-98476714D01*
X74297129Y-98476714D02*
X74368557Y-98441000D01*
X74368557Y-98441000D02*
X74404271Y-98369571D01*
X74404271Y-98369571D02*
X74404271Y-98333857D01*
X74404271Y-98333857D02*
X74368557Y-98262428D01*
X74368557Y-98262428D02*
X74297129Y-98226714D01*
X74297129Y-98226714D02*
X74189986Y-98226714D01*
X74189986Y-98226714D02*
X74118557Y-98262428D01*
X73761414Y-98726714D02*
X73761414Y-97976714D01*
X73761414Y-98262428D02*
X73689986Y-98226714D01*
X73689986Y-98226714D02*
X73547128Y-98226714D01*
X73547128Y-98226714D02*
X73475700Y-98262428D01*
X73475700Y-98262428D02*
X73439986Y-98298142D01*
X73439986Y-98298142D02*
X73404271Y-98369571D01*
X73404271Y-98369571D02*
X73404271Y-98583857D01*
X73404271Y-98583857D02*
X73439986Y-98655285D01*
X73439986Y-98655285D02*
X73475700Y-98691000D01*
X73475700Y-98691000D02*
X73547128Y-98726714D01*
X73547128Y-98726714D02*
X73689986Y-98726714D01*
X73689986Y-98726714D02*
X73761414Y-98691000D01*
X72761415Y-98226714D02*
X72761415Y-98726714D01*
X73082843Y-98226714D02*
X73082843Y-98619571D01*
X73082843Y-98619571D02*
X73047129Y-98691000D01*
X73047129Y-98691000D02*
X72975700Y-98726714D01*
X72975700Y-98726714D02*
X72868557Y-98726714D01*
X72868557Y-98726714D02*
X72797129Y-98691000D01*
X72797129Y-98691000D02*
X72761415Y-98655285D01*
X72404272Y-98726714D02*
X72404272Y-98226714D01*
X72404272Y-98369571D02*
X72368558Y-98298142D01*
X72368558Y-98298142D02*
X72332844Y-98262428D01*
X72332844Y-98262428D02*
X72261415Y-98226714D01*
X72261415Y-98226714D02*
X72189986Y-98226714D01*
X71618558Y-98226714D02*
X71618558Y-98833857D01*
X71618558Y-98833857D02*
X71654272Y-98905285D01*
X71654272Y-98905285D02*
X71689986Y-98941000D01*
X71689986Y-98941000D02*
X71761415Y-98976714D01*
X71761415Y-98976714D02*
X71868558Y-98976714D01*
X71868558Y-98976714D02*
X71939986Y-98941000D01*
X71618558Y-98691000D02*
X71689986Y-98726714D01*
X71689986Y-98726714D02*
X71832843Y-98726714D01*
X71832843Y-98726714D02*
X71904272Y-98691000D01*
X71904272Y-98691000D02*
X71939986Y-98655285D01*
X71939986Y-98655285D02*
X71975700Y-98583857D01*
X71975700Y-98583857D02*
X71975700Y-98369571D01*
X71975700Y-98369571D02*
X71939986Y-98298142D01*
X71939986Y-98298142D02*
X71904272Y-98262428D01*
X71904272Y-98262428D02*
X71832843Y-98226714D01*
X71832843Y-98226714D02*
X71689986Y-98226714D01*
X71689986Y-98226714D02*
X71618558Y-98262428D01*
X60207553Y-84117370D02*
X60231362Y-84141180D01*
X60231362Y-84141180D02*
X60302791Y-84164989D01*
X60302791Y-84164989D02*
X60350410Y-84164989D01*
X60350410Y-84164989D02*
X60421838Y-84141180D01*
X60421838Y-84141180D02*
X60469457Y-84093560D01*
X60469457Y-84093560D02*
X60493267Y-84045941D01*
X60493267Y-84045941D02*
X60517076Y-83950703D01*
X60517076Y-83950703D02*
X60517076Y-83879275D01*
X60517076Y-83879275D02*
X60493267Y-83784037D01*
X60493267Y-83784037D02*
X60469457Y-83736418D01*
X60469457Y-83736418D02*
X60421838Y-83688799D01*
X60421838Y-83688799D02*
X60350410Y-83664989D01*
X60350410Y-83664989D02*
X60302791Y-83664989D01*
X60302791Y-83664989D02*
X60231362Y-83688799D01*
X60231362Y-83688799D02*
X60207553Y-83712608D01*
X59731362Y-84164989D02*
X60017076Y-84164989D01*
X59874219Y-84164989D02*
X59874219Y-83664989D01*
X59874219Y-83664989D02*
X59921838Y-83736418D01*
X59921838Y-83736418D02*
X59969457Y-83784037D01*
X59969457Y-83784037D02*
X60017076Y-83807846D01*
X60230413Y-80337850D02*
X60254222Y-80361660D01*
X60254222Y-80361660D02*
X60325651Y-80385469D01*
X60325651Y-80385469D02*
X60373270Y-80385469D01*
X60373270Y-80385469D02*
X60444698Y-80361660D01*
X60444698Y-80361660D02*
X60492317Y-80314040D01*
X60492317Y-80314040D02*
X60516127Y-80266421D01*
X60516127Y-80266421D02*
X60539936Y-80171183D01*
X60539936Y-80171183D02*
X60539936Y-80099755D01*
X60539936Y-80099755D02*
X60516127Y-80004517D01*
X60516127Y-80004517D02*
X60492317Y-79956898D01*
X60492317Y-79956898D02*
X60444698Y-79909279D01*
X60444698Y-79909279D02*
X60373270Y-79885469D01*
X60373270Y-79885469D02*
X60325651Y-79885469D01*
X60325651Y-79885469D02*
X60254222Y-79909279D01*
X60254222Y-79909279D02*
X60230413Y-79933088D01*
X60039936Y-79933088D02*
X60016127Y-79909279D01*
X60016127Y-79909279D02*
X59968508Y-79885469D01*
X59968508Y-79885469D02*
X59849460Y-79885469D01*
X59849460Y-79885469D02*
X59801841Y-79909279D01*
X59801841Y-79909279D02*
X59778032Y-79933088D01*
X59778032Y-79933088D02*
X59754222Y-79980707D01*
X59754222Y-79980707D02*
X59754222Y-80028326D01*
X59754222Y-80028326D02*
X59778032Y-80099755D01*
X59778032Y-80099755D02*
X60063746Y-80385469D01*
X60063746Y-80385469D02*
X59754222Y-80385469D01*
X63872108Y-84152289D02*
X64038774Y-83914194D01*
X64157822Y-84152289D02*
X64157822Y-83652289D01*
X64157822Y-83652289D02*
X63967346Y-83652289D01*
X63967346Y-83652289D02*
X63919727Y-83676099D01*
X63919727Y-83676099D02*
X63895917Y-83699908D01*
X63895917Y-83699908D02*
X63872108Y-83747527D01*
X63872108Y-83747527D02*
X63872108Y-83818956D01*
X63872108Y-83818956D02*
X63895917Y-83866575D01*
X63895917Y-83866575D02*
X63919727Y-83890384D01*
X63919727Y-83890384D02*
X63967346Y-83914194D01*
X63967346Y-83914194D02*
X64157822Y-83914194D01*
X63681631Y-83699908D02*
X63657822Y-83676099D01*
X63657822Y-83676099D02*
X63610203Y-83652289D01*
X63610203Y-83652289D02*
X63491155Y-83652289D01*
X63491155Y-83652289D02*
X63443536Y-83676099D01*
X63443536Y-83676099D02*
X63419727Y-83699908D01*
X63419727Y-83699908D02*
X63395917Y-83747527D01*
X63395917Y-83747527D02*
X63395917Y-83795146D01*
X63395917Y-83795146D02*
X63419727Y-83866575D01*
X63419727Y-83866575D02*
X63705441Y-84152289D01*
X63705441Y-84152289D02*
X63395917Y-84152289D01*
X62919727Y-84152289D02*
X63205441Y-84152289D01*
X63062584Y-84152289D02*
X63062584Y-83652289D01*
X63062584Y-83652289D02*
X63110203Y-83723718D01*
X63110203Y-83723718D02*
X63157822Y-83771337D01*
X63157822Y-83771337D02*
X63205441Y-83795146D01*
X66013328Y-80327049D02*
X66179994Y-80088954D01*
X66299042Y-80327049D02*
X66299042Y-79827049D01*
X66299042Y-79827049D02*
X66108566Y-79827049D01*
X66108566Y-79827049D02*
X66060947Y-79850859D01*
X66060947Y-79850859D02*
X66037137Y-79874668D01*
X66037137Y-79874668D02*
X66013328Y-79922287D01*
X66013328Y-79922287D02*
X66013328Y-79993716D01*
X66013328Y-79993716D02*
X66037137Y-80041335D01*
X66037137Y-80041335D02*
X66060947Y-80065144D01*
X66060947Y-80065144D02*
X66108566Y-80088954D01*
X66108566Y-80088954D02*
X66299042Y-80088954D01*
X65822851Y-79874668D02*
X65799042Y-79850859D01*
X65799042Y-79850859D02*
X65751423Y-79827049D01*
X65751423Y-79827049D02*
X65632375Y-79827049D01*
X65632375Y-79827049D02*
X65584756Y-79850859D01*
X65584756Y-79850859D02*
X65560947Y-79874668D01*
X65560947Y-79874668D02*
X65537137Y-79922287D01*
X65537137Y-79922287D02*
X65537137Y-79969906D01*
X65537137Y-79969906D02*
X65560947Y-80041335D01*
X65560947Y-80041335D02*
X65846661Y-80327049D01*
X65846661Y-80327049D02*
X65537137Y-80327049D01*
X65346661Y-79874668D02*
X65322852Y-79850859D01*
X65322852Y-79850859D02*
X65275233Y-79827049D01*
X65275233Y-79827049D02*
X65156185Y-79827049D01*
X65156185Y-79827049D02*
X65108566Y-79850859D01*
X65108566Y-79850859D02*
X65084757Y-79874668D01*
X65084757Y-79874668D02*
X65060947Y-79922287D01*
X65060947Y-79922287D02*
X65060947Y-79969906D01*
X65060947Y-79969906D02*
X65084757Y-80041335D01*
X65084757Y-80041335D02*
X65370471Y-80327049D01*
X65370471Y-80327049D02*
X65060947Y-80327049D01*
D10*
X72683332Y-84232200D02*
X72540475Y-84279819D01*
X72540475Y-84279819D02*
X72302380Y-84279819D01*
X72302380Y-84279819D02*
X72207142Y-84232200D01*
X72207142Y-84232200D02*
X72159523Y-84184580D01*
X72159523Y-84184580D02*
X72111904Y-84089342D01*
X72111904Y-84089342D02*
X72111904Y-83994104D01*
X72111904Y-83994104D02*
X72159523Y-83898866D01*
X72159523Y-83898866D02*
X72207142Y-83851247D01*
X72207142Y-83851247D02*
X72302380Y-83803628D01*
X72302380Y-83803628D02*
X72492856Y-83756009D01*
X72492856Y-83756009D02*
X72588094Y-83708390D01*
X72588094Y-83708390D02*
X72635713Y-83660771D01*
X72635713Y-83660771D02*
X72683332Y-83565533D01*
X72683332Y-83565533D02*
X72683332Y-83470295D01*
X72683332Y-83470295D02*
X72635713Y-83375057D01*
X72635713Y-83375057D02*
X72588094Y-83327438D01*
X72588094Y-83327438D02*
X72492856Y-83279819D01*
X72492856Y-83279819D02*
X72254761Y-83279819D01*
X72254761Y-83279819D02*
X72111904Y-83327438D01*
X71778570Y-83279819D02*
X71540475Y-84279819D01*
X71540475Y-84279819D02*
X71349999Y-83565533D01*
X71349999Y-83565533D02*
X71159523Y-84279819D01*
X71159523Y-84279819D02*
X70921428Y-83279819D01*
X70016666Y-84279819D02*
X70588094Y-84279819D01*
X70302380Y-84279819D02*
X70302380Y-83279819D01*
X70302380Y-83279819D02*
X70397618Y-83422676D01*
X70397618Y-83422676D02*
X70492856Y-83517914D01*
X70492856Y-83517914D02*
X70588094Y-83565533D01*
X80804804Y-79094779D02*
X80804804Y-79904302D01*
X80804804Y-79904302D02*
X80757185Y-79999540D01*
X80757185Y-79999540D02*
X80709566Y-80047160D01*
X80709566Y-80047160D02*
X80614328Y-80094779D01*
X80614328Y-80094779D02*
X80423852Y-80094779D01*
X80423852Y-80094779D02*
X80328614Y-80047160D01*
X80328614Y-80047160D02*
X80280995Y-79999540D01*
X80280995Y-79999540D02*
X80233376Y-79904302D01*
X80233376Y-79904302D02*
X80233376Y-79094779D01*
X79233376Y-80094779D02*
X79804804Y-80094779D01*
X79519090Y-80094779D02*
X79519090Y-79094779D01*
X79519090Y-79094779D02*
X79614328Y-79237636D01*
X79614328Y-79237636D02*
X79709566Y-79332874D01*
X79709566Y-79332874D02*
X79804804Y-79380493D01*
X63635714Y-90756009D02*
X63492857Y-90803628D01*
X63492857Y-90803628D02*
X63445238Y-90851247D01*
X63445238Y-90851247D02*
X63397619Y-90946485D01*
X63397619Y-90946485D02*
X63397619Y-91089342D01*
X63397619Y-91089342D02*
X63445238Y-91184580D01*
X63445238Y-91184580D02*
X63492857Y-91232200D01*
X63492857Y-91232200D02*
X63588095Y-91279819D01*
X63588095Y-91279819D02*
X63969047Y-91279819D01*
X63969047Y-91279819D02*
X63969047Y-90279819D01*
X63969047Y-90279819D02*
X63635714Y-90279819D01*
X63635714Y-90279819D02*
X63540476Y-90327438D01*
X63540476Y-90327438D02*
X63492857Y-90375057D01*
X63492857Y-90375057D02*
X63445238Y-90470295D01*
X63445238Y-90470295D02*
X63445238Y-90565533D01*
X63445238Y-90565533D02*
X63492857Y-90660771D01*
X63492857Y-90660771D02*
X63540476Y-90708390D01*
X63540476Y-90708390D02*
X63635714Y-90756009D01*
X63635714Y-90756009D02*
X63969047Y-90756009D01*
X63111904Y-90279819D02*
X62540476Y-90279819D01*
X62826190Y-91279819D02*
X62826190Y-90279819D01*
X61683333Y-91279819D02*
X62254761Y-91279819D01*
X61969047Y-91279819D02*
X61969047Y-90279819D01*
X61969047Y-90279819D02*
X62064285Y-90422676D01*
X62064285Y-90422676D02*
X62159523Y-90517914D01*
X62159523Y-90517914D02*
X62254761Y-90565533D01*
X60389638Y-76928657D02*
X60484876Y-76881038D01*
X60484876Y-76881038D02*
X60580114Y-76785800D01*
X60580114Y-76785800D02*
X60722971Y-76642942D01*
X60722971Y-76642942D02*
X60818209Y-76595323D01*
X60818209Y-76595323D02*
X60913447Y-76595323D01*
X60865828Y-76833419D02*
X60961066Y-76785800D01*
X60961066Y-76785800D02*
X61056304Y-76690561D01*
X61056304Y-76690561D02*
X61103923Y-76500085D01*
X61103923Y-76500085D02*
X61103923Y-76166752D01*
X61103923Y-76166752D02*
X61056304Y-75976276D01*
X61056304Y-75976276D02*
X60961066Y-75881038D01*
X60961066Y-75881038D02*
X60865828Y-75833419D01*
X60865828Y-75833419D02*
X60675352Y-75833419D01*
X60675352Y-75833419D02*
X60580114Y-75881038D01*
X60580114Y-75881038D02*
X60484876Y-75976276D01*
X60484876Y-75976276D02*
X60437257Y-76166752D01*
X60437257Y-76166752D02*
X60437257Y-76500085D01*
X60437257Y-76500085D02*
X60484876Y-76690561D01*
X60484876Y-76690561D02*
X60580114Y-76785800D01*
X60580114Y-76785800D02*
X60675352Y-76833419D01*
X60675352Y-76833419D02*
X60865828Y-76833419D01*
X59484876Y-76833419D02*
X60056304Y-76833419D01*
X59770590Y-76833419D02*
X59770590Y-75833419D01*
X59770590Y-75833419D02*
X59865828Y-75976276D01*
X59865828Y-75976276D02*
X59961066Y-76071514D01*
X59961066Y-76071514D02*
X60056304Y-76119133D01*
X82335238Y-76954057D02*
X82430476Y-76906438D01*
X82430476Y-76906438D02*
X82525714Y-76811200D01*
X82525714Y-76811200D02*
X82668571Y-76668342D01*
X82668571Y-76668342D02*
X82763809Y-76620723D01*
X82763809Y-76620723D02*
X82859047Y-76620723D01*
X82811428Y-76858819D02*
X82906666Y-76811200D01*
X82906666Y-76811200D02*
X83001904Y-76715961D01*
X83001904Y-76715961D02*
X83049523Y-76525485D01*
X83049523Y-76525485D02*
X83049523Y-76192152D01*
X83049523Y-76192152D02*
X83001904Y-76001676D01*
X83001904Y-76001676D02*
X82906666Y-75906438D01*
X82906666Y-75906438D02*
X82811428Y-75858819D01*
X82811428Y-75858819D02*
X82620952Y-75858819D01*
X82620952Y-75858819D02*
X82525714Y-75906438D01*
X82525714Y-75906438D02*
X82430476Y-76001676D01*
X82430476Y-76001676D02*
X82382857Y-76192152D01*
X82382857Y-76192152D02*
X82382857Y-76525485D01*
X82382857Y-76525485D02*
X82430476Y-76715961D01*
X82430476Y-76715961D02*
X82525714Y-76811200D01*
X82525714Y-76811200D02*
X82620952Y-76858819D01*
X82620952Y-76858819D02*
X82811428Y-76858819D01*
X82001904Y-75954057D02*
X81954285Y-75906438D01*
X81954285Y-75906438D02*
X81859047Y-75858819D01*
X81859047Y-75858819D02*
X81620952Y-75858819D01*
X81620952Y-75858819D02*
X81525714Y-75906438D01*
X81525714Y-75906438D02*
X81478095Y-75954057D01*
X81478095Y-75954057D02*
X81430476Y-76049295D01*
X81430476Y-76049295D02*
X81430476Y-76144533D01*
X81430476Y-76144533D02*
X81478095Y-76287390D01*
X81478095Y-76287390D02*
X82049523Y-76858819D01*
X82049523Y-76858819D02*
X81430476Y-76858819D01*
D13*
X65041925Y-75408443D02*
X64899068Y-75308443D01*
X65041925Y-75237014D02*
X64741925Y-75237014D01*
X64741925Y-75237014D02*
X64741925Y-75351300D01*
X64741925Y-75351300D02*
X64756211Y-75379871D01*
X64756211Y-75379871D02*
X64770497Y-75394157D01*
X64770497Y-75394157D02*
X64799068Y-75408443D01*
X64799068Y-75408443D02*
X64841925Y-75408443D01*
X64841925Y-75408443D02*
X64870497Y-75394157D01*
X64870497Y-75394157D02*
X64884782Y-75379871D01*
X64884782Y-75379871D02*
X64899068Y-75351300D01*
X64899068Y-75351300D02*
X64899068Y-75237014D01*
X64770497Y-75522728D02*
X64756211Y-75537014D01*
X64756211Y-75537014D02*
X64741925Y-75565586D01*
X64741925Y-75565586D02*
X64741925Y-75637014D01*
X64741925Y-75637014D02*
X64756211Y-75665586D01*
X64756211Y-75665586D02*
X64770497Y-75679871D01*
X64770497Y-75679871D02*
X64799068Y-75694157D01*
X64799068Y-75694157D02*
X64827640Y-75694157D01*
X64827640Y-75694157D02*
X64870497Y-75679871D01*
X64870497Y-75679871D02*
X65041925Y-75508443D01*
X65041925Y-75508443D02*
X65041925Y-75694157D01*
X64741925Y-75794157D02*
X64741925Y-75979871D01*
X64741925Y-75979871D02*
X64856211Y-75879871D01*
X64856211Y-75879871D02*
X64856211Y-75922728D01*
X64856211Y-75922728D02*
X64870497Y-75951300D01*
X64870497Y-75951300D02*
X64884782Y-75965585D01*
X64884782Y-75965585D02*
X64913354Y-75979871D01*
X64913354Y-75979871D02*
X64984782Y-75979871D01*
X64984782Y-75979871D02*
X65013354Y-75965585D01*
X65013354Y-75965585D02*
X65027640Y-75951300D01*
X65027640Y-75951300D02*
X65041925Y-75922728D01*
X65041925Y-75922728D02*
X65041925Y-75837014D01*
X65041925Y-75837014D02*
X65027640Y-75808442D01*
X65027640Y-75808442D02*
X65013354Y-75794157D01*
X75900425Y-75587603D02*
X75757568Y-75487603D01*
X75900425Y-75416174D02*
X75600425Y-75416174D01*
X75600425Y-75416174D02*
X75600425Y-75530460D01*
X75600425Y-75530460D02*
X75614711Y-75559031D01*
X75614711Y-75559031D02*
X75628997Y-75573317D01*
X75628997Y-75573317D02*
X75657568Y-75587603D01*
X75657568Y-75587603D02*
X75700425Y-75587603D01*
X75700425Y-75587603D02*
X75728997Y-75573317D01*
X75728997Y-75573317D02*
X75743282Y-75559031D01*
X75743282Y-75559031D02*
X75757568Y-75530460D01*
X75757568Y-75530460D02*
X75757568Y-75416174D01*
X75628997Y-75701888D02*
X75614711Y-75716174D01*
X75614711Y-75716174D02*
X75600425Y-75744746D01*
X75600425Y-75744746D02*
X75600425Y-75816174D01*
X75600425Y-75816174D02*
X75614711Y-75844746D01*
X75614711Y-75844746D02*
X75628997Y-75859031D01*
X75628997Y-75859031D02*
X75657568Y-75873317D01*
X75657568Y-75873317D02*
X75686140Y-75873317D01*
X75686140Y-75873317D02*
X75728997Y-75859031D01*
X75728997Y-75859031D02*
X75900425Y-75687603D01*
X75900425Y-75687603D02*
X75900425Y-75873317D01*
X75700425Y-76130460D02*
X75900425Y-76130460D01*
X75586140Y-76059031D02*
X75800425Y-75987602D01*
X75800425Y-75987602D02*
X75800425Y-76173317D01*
D12*
X71350533Y-72313990D02*
X71374342Y-72337800D01*
X71374342Y-72337800D02*
X71445771Y-72361609D01*
X71445771Y-72361609D02*
X71493390Y-72361609D01*
X71493390Y-72361609D02*
X71564818Y-72337800D01*
X71564818Y-72337800D02*
X71612437Y-72290180D01*
X71612437Y-72290180D02*
X71636247Y-72242561D01*
X71636247Y-72242561D02*
X71660056Y-72147323D01*
X71660056Y-72147323D02*
X71660056Y-72075895D01*
X71660056Y-72075895D02*
X71636247Y-71980657D01*
X71636247Y-71980657D02*
X71612437Y-71933038D01*
X71612437Y-71933038D02*
X71564818Y-71885419D01*
X71564818Y-71885419D02*
X71493390Y-71861609D01*
X71493390Y-71861609D02*
X71445771Y-71861609D01*
X71445771Y-71861609D02*
X71374342Y-71885419D01*
X71374342Y-71885419D02*
X71350533Y-71909228D01*
X71183866Y-71861609D02*
X70874342Y-71861609D01*
X70874342Y-71861609D02*
X71041009Y-72052085D01*
X71041009Y-72052085D02*
X70969580Y-72052085D01*
X70969580Y-72052085D02*
X70921961Y-72075895D01*
X70921961Y-72075895D02*
X70898152Y-72099704D01*
X70898152Y-72099704D02*
X70874342Y-72147323D01*
X70874342Y-72147323D02*
X70874342Y-72266371D01*
X70874342Y-72266371D02*
X70898152Y-72313990D01*
X70898152Y-72313990D02*
X70921961Y-72337800D01*
X70921961Y-72337800D02*
X70969580Y-72361609D01*
X70969580Y-72361609D02*
X71112437Y-72361609D01*
X71112437Y-72361609D02*
X71160056Y-72337800D01*
X71160056Y-72337800D02*
X71183866Y-72313990D01*
D14*
X60410692Y-81474340D02*
X59888188Y-81474340D01*
X60410692Y-82894340D02*
X59888188Y-82894340D01*
X60410692Y-77918340D02*
X59888188Y-77918340D01*
X60410692Y-79338340D02*
X59888188Y-79338340D01*
D10*
X67760260Y-77386340D02*
X67760260Y-80486340D01*
X67760260Y-80486340D02*
X74760260Y-80486340D01*
X69260260Y-78086340D02*
X73160260Y-78086340D01*
X69260260Y-79786340D02*
X69260260Y-78086340D01*
X71960260Y-78586340D02*
X72660260Y-78586340D01*
X71960260Y-79286340D02*
X71960260Y-78586340D01*
X72660260Y-78586340D02*
X72660260Y-79286340D01*
X72660260Y-79286340D02*
X71960260Y-79286340D01*
X73160260Y-78086340D02*
X73160260Y-79786340D01*
X73160260Y-79786340D02*
X69260260Y-79786340D01*
X74760260Y-77386340D02*
X67760260Y-77386340D01*
X74760260Y-80486340D02*
X74760260Y-77386340D01*
X72660260Y-79286340D02*
X71960260Y-79286340D01*
X71960260Y-78586340D01*
X72660260Y-78586340D01*
X72660260Y-79286340D01*
G36*
X72660260Y-79286340D02*
G01*
X71960260Y-79286340D01*
X71960260Y-78586340D01*
X72660260Y-78586340D01*
X72660260Y-79286340D01*
G37*
D14*
X80086440Y-77632340D02*
X78136440Y-77632340D01*
X80086440Y-77632340D02*
X83536440Y-77632340D01*
X80086440Y-82752340D02*
X78136440Y-82752340D01*
X80086440Y-82752340D02*
X82036440Y-82752340D01*
X56265080Y-92335520D02*
X56265080Y-93885520D01*
X56265080Y-100035520D02*
X56265080Y-98485520D01*
X59465080Y-87835520D02*
X59465080Y-92335520D01*
X59465080Y-92335520D02*
X56265080Y-92335520D01*
X59465080Y-100035520D02*
X56265080Y-100035520D01*
X59465080Y-104535520D02*
X59465080Y-100035520D01*
X59465080Y-104535520D02*
X80365080Y-104535520D01*
X80365080Y-104535520D02*
X82165080Y-102735520D01*
X82165080Y-87835520D02*
X59465080Y-87835520D01*
X82165080Y-87835520D02*
X82165080Y-92335520D01*
X82165080Y-92335520D02*
X85365080Y-92335520D01*
X82165080Y-100035520D02*
X85365080Y-100035520D01*
X82165080Y-102735520D02*
X82165080Y-100035520D01*
X82815080Y-102185520D02*
X84815080Y-102185520D01*
X83815080Y-101185520D02*
X83815080Y-103185520D01*
X85365080Y-92335520D02*
X85365080Y-93885520D01*
X85365080Y-100035520D02*
X85365080Y-98485520D01*
X62287000Y-74189000D02*
X62287000Y-75119000D01*
X62287000Y-74189000D02*
X64447000Y-74189000D01*
X62287000Y-77349000D02*
X62287000Y-76419000D01*
X62287000Y-77349000D02*
X63747000Y-77349000D01*
X80342400Y-74102600D02*
X78882400Y-74102600D01*
X80342400Y-74102600D02*
X80342400Y-75032600D01*
X80342400Y-77262600D02*
X78182400Y-77262600D01*
X80342400Y-77262600D02*
X80342400Y-76332600D01*
X71528452Y-72696800D02*
X71005948Y-72696800D01*
X71528452Y-74116800D02*
X71005948Y-74116800D01*
D15*
X55331985Y-88660960D02*
X55362775Y-88671057D01*
X55407500Y-88687135D01*
X55460600Y-88707246D01*
X55473191Y-88712153D01*
X55525400Y-88733566D01*
X55556108Y-88748690D01*
X55567584Y-88758820D01*
X55562096Y-88765254D01*
X55556872Y-88767332D01*
X55529910Y-88778271D01*
X55482437Y-88797635D01*
X55416450Y-88824604D01*
X55333944Y-88858362D01*
X55236918Y-88898092D01*
X55127366Y-88942976D01*
X55007287Y-88992197D01*
X54878675Y-89044937D01*
X54743528Y-89100378D01*
X54639135Y-89143252D01*
X54492947Y-89203480D01*
X54367674Y-89255395D01*
X54261672Y-89299722D01*
X54173301Y-89337186D01*
X54100919Y-89368511D01*
X54042882Y-89394423D01*
X53997551Y-89415647D01*
X53963281Y-89432907D01*
X53938432Y-89446928D01*
X53921362Y-89458435D01*
X53910428Y-89468153D01*
X53879026Y-89498701D01*
X53810486Y-89550726D01*
X53721948Y-89602838D01*
X53610804Y-89656678D01*
X53560974Y-89678066D01*
X53515182Y-89695753D01*
X53482495Y-89706131D01*
X53467868Y-89707439D01*
X53461055Y-89697061D01*
X53446485Y-89666961D01*
X53427745Y-89623351D01*
X53406848Y-89571509D01*
X53385807Y-89516709D01*
X53366635Y-89464228D01*
X53351344Y-89419343D01*
X53341948Y-89387329D01*
X53340459Y-89373464D01*
X53348527Y-89368002D01*
X53378632Y-89353522D01*
X53423518Y-89335036D01*
X53477063Y-89314819D01*
X53533141Y-89295145D01*
X53585630Y-89278289D01*
X53628406Y-89266523D01*
X53662935Y-89259738D01*
X53727897Y-89251346D01*
X53788056Y-89247990D01*
X53801468Y-89247746D01*
X53819712Y-89246391D01*
X53840093Y-89243203D01*
X53864554Y-89237468D01*
X53895038Y-89228469D01*
X53933490Y-89215492D01*
X53981853Y-89197820D01*
X54042069Y-89174738D01*
X54116083Y-89145532D01*
X54205839Y-89109484D01*
X54313279Y-89065880D01*
X54440347Y-89014005D01*
X54588987Y-88953143D01*
X54597600Y-88949614D01*
X54725333Y-88897371D01*
X54846055Y-88848164D01*
X54957701Y-88802823D01*
X55058208Y-88762180D01*
X55145512Y-88727064D01*
X55217548Y-88698306D01*
X55272252Y-88676737D01*
X55307559Y-88663186D01*
X55321407Y-88658484D01*
X55331985Y-88660960D01*
G36*
X55331985Y-88660960D02*
G01*
X55362775Y-88671057D01*
X55407500Y-88687135D01*
X55460600Y-88707246D01*
X55473191Y-88712153D01*
X55525400Y-88733566D01*
X55556108Y-88748690D01*
X55567584Y-88758820D01*
X55562096Y-88765254D01*
X55556872Y-88767332D01*
X55529910Y-88778271D01*
X55482437Y-88797635D01*
X55416450Y-88824604D01*
X55333944Y-88858362D01*
X55236918Y-88898092D01*
X55127366Y-88942976D01*
X55007287Y-88992197D01*
X54878675Y-89044937D01*
X54743528Y-89100378D01*
X54639135Y-89143252D01*
X54492947Y-89203480D01*
X54367674Y-89255395D01*
X54261672Y-89299722D01*
X54173301Y-89337186D01*
X54100919Y-89368511D01*
X54042882Y-89394423D01*
X53997551Y-89415647D01*
X53963281Y-89432907D01*
X53938432Y-89446928D01*
X53921362Y-89458435D01*
X53910428Y-89468153D01*
X53879026Y-89498701D01*
X53810486Y-89550726D01*
X53721948Y-89602838D01*
X53610804Y-89656678D01*
X53560974Y-89678066D01*
X53515182Y-89695753D01*
X53482495Y-89706131D01*
X53467868Y-89707439D01*
X53461055Y-89697061D01*
X53446485Y-89666961D01*
X53427745Y-89623351D01*
X53406848Y-89571509D01*
X53385807Y-89516709D01*
X53366635Y-89464228D01*
X53351344Y-89419343D01*
X53341948Y-89387329D01*
X53340459Y-89373464D01*
X53348527Y-89368002D01*
X53378632Y-89353522D01*
X53423518Y-89335036D01*
X53477063Y-89314819D01*
X53533141Y-89295145D01*
X53585630Y-89278289D01*
X53628406Y-89266523D01*
X53662935Y-89259738D01*
X53727897Y-89251346D01*
X53788056Y-89247990D01*
X53801468Y-89247746D01*
X53819712Y-89246391D01*
X53840093Y-89243203D01*
X53864554Y-89237468D01*
X53895038Y-89228469D01*
X53933490Y-89215492D01*
X53981853Y-89197820D01*
X54042069Y-89174738D01*
X54116083Y-89145532D01*
X54205839Y-89109484D01*
X54313279Y-89065880D01*
X54440347Y-89014005D01*
X54588987Y-88953143D01*
X54597600Y-88949614D01*
X54725333Y-88897371D01*
X54846055Y-88848164D01*
X54957701Y-88802823D01*
X55058208Y-88762180D01*
X55145512Y-88727064D01*
X55217548Y-88698306D01*
X55272252Y-88676737D01*
X55307559Y-88663186D01*
X55321407Y-88658484D01*
X55331985Y-88660960D01*
G37*
X59696838Y-86969076D02*
X59726567Y-87041980D01*
X59752425Y-87107906D01*
X59772874Y-87162751D01*
X59786382Y-87202415D01*
X59791411Y-87222795D01*
X59788475Y-87245733D01*
X59788387Y-87246421D01*
X59771022Y-87291900D01*
X59742407Y-87339697D01*
X59707289Y-87380896D01*
X59699715Y-87386574D01*
X59668606Y-87403912D01*
X59615924Y-87429348D01*
X59541305Y-87463042D01*
X59444380Y-87505155D01*
X59324784Y-87555847D01*
X59182151Y-87615279D01*
X59016114Y-87683611D01*
X58916871Y-87724256D01*
X58737158Y-87797870D01*
X58578901Y-87862689D01*
X58440702Y-87919249D01*
X58321167Y-87968090D01*
X58218900Y-88009751D01*
X58132505Y-88044769D01*
X58060586Y-88073683D01*
X58001748Y-88097032D01*
X57954595Y-88115355D01*
X57917732Y-88129189D01*
X57889763Y-88139074D01*
X57869292Y-88145548D01*
X57854923Y-88149149D01*
X57845261Y-88150416D01*
X57838911Y-88149887D01*
X57834476Y-88148102D01*
X57830561Y-88145598D01*
X57825770Y-88142914D01*
X57783814Y-88130103D01*
X57736314Y-88135545D01*
X57692650Y-88165702D01*
X57684924Y-88173837D01*
X57663908Y-88201315D01*
X57655471Y-88221577D01*
X57649947Y-88235936D01*
X57626699Y-88250016D01*
X57592636Y-88255604D01*
X57555815Y-88251728D01*
X57524290Y-88237415D01*
X57520324Y-88233647D01*
X57502622Y-88208341D01*
X57480535Y-88168293D01*
X57457913Y-88120301D01*
X57450059Y-88102547D01*
X57430029Y-88060066D01*
X57413925Y-88029794D01*
X57404667Y-88017372D01*
X57394035Y-88020238D01*
X57362175Y-88031722D01*
X57311934Y-88050936D01*
X57246052Y-88076803D01*
X57167271Y-88108245D01*
X57078328Y-88144187D01*
X56981965Y-88183551D01*
X56569200Y-88353032D01*
X56450943Y-88302237D01*
X56416070Y-88286920D01*
X56373122Y-88266930D01*
X56343790Y-88251824D01*
X56333012Y-88244038D01*
X56333055Y-88243924D01*
X56345763Y-88237116D01*
X56379315Y-88221967D01*
X56431109Y-88199580D01*
X56498541Y-88171057D01*
X56579009Y-88137498D01*
X56669910Y-88100006D01*
X56768641Y-88059681D01*
X56864760Y-88020564D01*
X56962402Y-87980733D01*
X57034269Y-87951342D01*
X57738145Y-87951342D01*
X57742279Y-87971374D01*
X57757224Y-87984931D01*
X57767925Y-87982227D01*
X57800488Y-87970726D01*
X57852355Y-87951079D01*
X57921269Y-87924215D01*
X58004972Y-87891062D01*
X58101204Y-87852550D01*
X58207708Y-87809606D01*
X58322227Y-87763160D01*
X58442501Y-87714139D01*
X58566274Y-87663471D01*
X58691285Y-87612087D01*
X58815279Y-87560913D01*
X58935996Y-87510880D01*
X59051179Y-87462914D01*
X59158569Y-87417944D01*
X59255908Y-87376900D01*
X59340939Y-87340710D01*
X59411402Y-87310301D01*
X59465041Y-87286603D01*
X59499596Y-87270544D01*
X59512811Y-87263053D01*
X59518481Y-87245733D01*
X59511096Y-87222722D01*
X59488838Y-87212779D01*
X59475530Y-87216925D01*
X59440302Y-87230022D01*
X59385220Y-87251332D01*
X59312182Y-87280096D01*
X59223084Y-87315557D01*
X59119821Y-87356958D01*
X59004289Y-87403539D01*
X58878385Y-87454544D01*
X58744004Y-87509215D01*
X58603043Y-87566794D01*
X58469858Y-87621330D01*
X58323835Y-87681228D01*
X58198541Y-87732808D01*
X58092401Y-87776769D01*
X58003840Y-87813811D01*
X57931285Y-87844635D01*
X57873162Y-87869940D01*
X57827896Y-87890426D01*
X57793913Y-87906793D01*
X57769639Y-87919741D01*
X57753499Y-87929970D01*
X57743920Y-87938180D01*
X57739327Y-87945071D01*
X57738145Y-87951342D01*
X57034269Y-87951342D01*
X57052229Y-87943997D01*
X57131090Y-87911648D01*
X57195832Y-87884980D01*
X57243303Y-87865286D01*
X57270353Y-87853858D01*
X57336762Y-87824988D01*
X57298971Y-87733344D01*
X57286248Y-87700609D01*
X57266134Y-87629451D01*
X57265752Y-87620832D01*
X57598235Y-87620832D01*
X57602379Y-87640714D01*
X57617314Y-87654272D01*
X57624193Y-87653239D01*
X57652705Y-87644434D01*
X57699087Y-87627856D01*
X57759779Y-87604837D01*
X57831220Y-87576709D01*
X57909853Y-87544805D01*
X57928758Y-87537026D01*
X58154498Y-87444232D01*
X58357868Y-87360824D01*
X58539884Y-87286400D01*
X58701563Y-87220558D01*
X58843919Y-87162896D01*
X58967970Y-87113010D01*
X59074731Y-87070500D01*
X59165218Y-87034963D01*
X59240447Y-87005997D01*
X59301433Y-86983199D01*
X59349193Y-86966167D01*
X59384743Y-86954500D01*
X59409099Y-86947794D01*
X59423276Y-86945648D01*
X59462316Y-86951380D01*
X59503208Y-86971087D01*
X59514708Y-86979557D01*
X59547414Y-86995182D01*
X59568549Y-86990476D01*
X59576052Y-86965593D01*
X59566226Y-86935990D01*
X59535978Y-86906642D01*
X59490604Y-86884164D01*
X59435507Y-86872147D01*
X59432169Y-86871838D01*
X59420706Y-86871143D01*
X59408328Y-86871446D01*
X59393620Y-86873288D01*
X59375170Y-86877209D01*
X59351563Y-86883752D01*
X59321386Y-86893456D01*
X59283226Y-86906865D01*
X59235668Y-86924518D01*
X59177300Y-86946957D01*
X59106706Y-86974723D01*
X59022475Y-87008358D01*
X58923191Y-87048402D01*
X58807442Y-87095397D01*
X58673813Y-87149883D01*
X58520892Y-87212403D01*
X58347264Y-87283497D01*
X58151515Y-87363707D01*
X58030577Y-87413335D01*
X57921907Y-87458151D01*
X57833018Y-87495184D01*
X57761945Y-87525346D01*
X57706723Y-87549552D01*
X57665388Y-87568715D01*
X57635973Y-87583747D01*
X57616516Y-87595562D01*
X57605050Y-87605072D01*
X57599612Y-87613191D01*
X57598235Y-87620832D01*
X57265752Y-87620832D01*
X57263693Y-87574315D01*
X57279026Y-87533472D01*
X57312233Y-87505193D01*
X57313474Y-87504544D01*
X57340702Y-87499109D01*
X57374905Y-87511261D01*
X57408780Y-87524983D01*
X57437639Y-87530726D01*
X57443945Y-87530113D01*
X57473937Y-87517456D01*
X57505652Y-87493821D01*
X57530777Y-87466334D01*
X57541000Y-87442119D01*
X57543017Y-87429536D01*
X57556898Y-87407326D01*
X57569497Y-87400867D01*
X57603145Y-87385786D01*
X57654148Y-87363840D01*
X57719183Y-87336439D01*
X57794927Y-87304995D01*
X57878055Y-87270921D01*
X57933000Y-87248528D01*
X58024074Y-87211388D01*
X58131619Y-87167510D01*
X58251586Y-87118549D01*
X58379927Y-87066157D01*
X58512594Y-87011985D01*
X58645539Y-86957686D01*
X58774714Y-86904913D01*
X58788688Y-86899203D01*
X58919766Y-86845684D01*
X59029695Y-86800961D01*
X59120656Y-86764265D01*
X59194829Y-86734826D01*
X59254396Y-86711877D01*
X59301536Y-86694647D01*
X59338429Y-86682368D01*
X59367255Y-86674271D01*
X59390197Y-86669587D01*
X59409432Y-86667547D01*
X59427143Y-86667381D01*
X59445508Y-86668321D01*
X59449451Y-86668577D01*
X59489768Y-86672373D01*
X59522382Y-86679734D01*
X59549732Y-86693530D01*
X59574256Y-86716630D01*
X59598390Y-86751903D01*
X59624573Y-86802221D01*
X59655243Y-86870452D01*
X59692838Y-86959465D01*
X59695389Y-86965593D01*
X59696838Y-86969076D01*
G36*
X59696838Y-86969076D02*
G01*
X59726567Y-87041980D01*
X59752425Y-87107906D01*
X59772874Y-87162751D01*
X59786382Y-87202415D01*
X59791411Y-87222795D01*
X59788475Y-87245733D01*
X59788387Y-87246421D01*
X59771022Y-87291900D01*
X59742407Y-87339697D01*
X59707289Y-87380896D01*
X59699715Y-87386574D01*
X59668606Y-87403912D01*
X59615924Y-87429348D01*
X59541305Y-87463042D01*
X59444380Y-87505155D01*
X59324784Y-87555847D01*
X59182151Y-87615279D01*
X59016114Y-87683611D01*
X58916871Y-87724256D01*
X58737158Y-87797870D01*
X58578901Y-87862689D01*
X58440702Y-87919249D01*
X58321167Y-87968090D01*
X58218900Y-88009751D01*
X58132505Y-88044769D01*
X58060586Y-88073683D01*
X58001748Y-88097032D01*
X57954595Y-88115355D01*
X57917732Y-88129189D01*
X57889763Y-88139074D01*
X57869292Y-88145548D01*
X57854923Y-88149149D01*
X57845261Y-88150416D01*
X57838911Y-88149887D01*
X57834476Y-88148102D01*
X57830561Y-88145598D01*
X57825770Y-88142914D01*
X57783814Y-88130103D01*
X57736314Y-88135545D01*
X57692650Y-88165702D01*
X57684924Y-88173837D01*
X57663908Y-88201315D01*
X57655471Y-88221577D01*
X57649947Y-88235936D01*
X57626699Y-88250016D01*
X57592636Y-88255604D01*
X57555815Y-88251728D01*
X57524290Y-88237415D01*
X57520324Y-88233647D01*
X57502622Y-88208341D01*
X57480535Y-88168293D01*
X57457913Y-88120301D01*
X57450059Y-88102547D01*
X57430029Y-88060066D01*
X57413925Y-88029794D01*
X57404667Y-88017372D01*
X57394035Y-88020238D01*
X57362175Y-88031722D01*
X57311934Y-88050936D01*
X57246052Y-88076803D01*
X57167271Y-88108245D01*
X57078328Y-88144187D01*
X56981965Y-88183551D01*
X56569200Y-88353032D01*
X56450943Y-88302237D01*
X56416070Y-88286920D01*
X56373122Y-88266930D01*
X56343790Y-88251824D01*
X56333012Y-88244038D01*
X56333055Y-88243924D01*
X56345763Y-88237116D01*
X56379315Y-88221967D01*
X56431109Y-88199580D01*
X56498541Y-88171057D01*
X56579009Y-88137498D01*
X56669910Y-88100006D01*
X56768641Y-88059681D01*
X56864760Y-88020564D01*
X56962402Y-87980733D01*
X57034269Y-87951342D01*
X57738145Y-87951342D01*
X57742279Y-87971374D01*
X57757224Y-87984931D01*
X57767925Y-87982227D01*
X57800488Y-87970726D01*
X57852355Y-87951079D01*
X57921269Y-87924215D01*
X58004972Y-87891062D01*
X58101204Y-87852550D01*
X58207708Y-87809606D01*
X58322227Y-87763160D01*
X58442501Y-87714139D01*
X58566274Y-87663471D01*
X58691285Y-87612087D01*
X58815279Y-87560913D01*
X58935996Y-87510880D01*
X59051179Y-87462914D01*
X59158569Y-87417944D01*
X59255908Y-87376900D01*
X59340939Y-87340710D01*
X59411402Y-87310301D01*
X59465041Y-87286603D01*
X59499596Y-87270544D01*
X59512811Y-87263053D01*
X59518481Y-87245733D01*
X59511096Y-87222722D01*
X59488838Y-87212779D01*
X59475530Y-87216925D01*
X59440302Y-87230022D01*
X59385220Y-87251332D01*
X59312182Y-87280096D01*
X59223084Y-87315557D01*
X59119821Y-87356958D01*
X59004289Y-87403539D01*
X58878385Y-87454544D01*
X58744004Y-87509215D01*
X58603043Y-87566794D01*
X58469858Y-87621330D01*
X58323835Y-87681228D01*
X58198541Y-87732808D01*
X58092401Y-87776769D01*
X58003840Y-87813811D01*
X57931285Y-87844635D01*
X57873162Y-87869940D01*
X57827896Y-87890426D01*
X57793913Y-87906793D01*
X57769639Y-87919741D01*
X57753499Y-87929970D01*
X57743920Y-87938180D01*
X57739327Y-87945071D01*
X57738145Y-87951342D01*
X57034269Y-87951342D01*
X57052229Y-87943997D01*
X57131090Y-87911648D01*
X57195832Y-87884980D01*
X57243303Y-87865286D01*
X57270353Y-87853858D01*
X57336762Y-87824988D01*
X57298971Y-87733344D01*
X57286248Y-87700609D01*
X57266134Y-87629451D01*
X57265752Y-87620832D01*
X57598235Y-87620832D01*
X57602379Y-87640714D01*
X57617314Y-87654272D01*
X57624193Y-87653239D01*
X57652705Y-87644434D01*
X57699087Y-87627856D01*
X57759779Y-87604837D01*
X57831220Y-87576709D01*
X57909853Y-87544805D01*
X57928758Y-87537026D01*
X58154498Y-87444232D01*
X58357868Y-87360824D01*
X58539884Y-87286400D01*
X58701563Y-87220558D01*
X58843919Y-87162896D01*
X58967970Y-87113010D01*
X59074731Y-87070500D01*
X59165218Y-87034963D01*
X59240447Y-87005997D01*
X59301433Y-86983199D01*
X59349193Y-86966167D01*
X59384743Y-86954500D01*
X59409099Y-86947794D01*
X59423276Y-86945648D01*
X59462316Y-86951380D01*
X59503208Y-86971087D01*
X59514708Y-86979557D01*
X59547414Y-86995182D01*
X59568549Y-86990476D01*
X59576052Y-86965593D01*
X59566226Y-86935990D01*
X59535978Y-86906642D01*
X59490604Y-86884164D01*
X59435507Y-86872147D01*
X59432169Y-86871838D01*
X59420706Y-86871143D01*
X59408328Y-86871446D01*
X59393620Y-86873288D01*
X59375170Y-86877209D01*
X59351563Y-86883752D01*
X59321386Y-86893456D01*
X59283226Y-86906865D01*
X59235668Y-86924518D01*
X59177300Y-86946957D01*
X59106706Y-86974723D01*
X59022475Y-87008358D01*
X58923191Y-87048402D01*
X58807442Y-87095397D01*
X58673813Y-87149883D01*
X58520892Y-87212403D01*
X58347264Y-87283497D01*
X58151515Y-87363707D01*
X58030577Y-87413335D01*
X57921907Y-87458151D01*
X57833018Y-87495184D01*
X57761945Y-87525346D01*
X57706723Y-87549552D01*
X57665388Y-87568715D01*
X57635973Y-87583747D01*
X57616516Y-87595562D01*
X57605050Y-87605072D01*
X57599612Y-87613191D01*
X57598235Y-87620832D01*
X57265752Y-87620832D01*
X57263693Y-87574315D01*
X57279026Y-87533472D01*
X57312233Y-87505193D01*
X57313474Y-87504544D01*
X57340702Y-87499109D01*
X57374905Y-87511261D01*
X57408780Y-87524983D01*
X57437639Y-87530726D01*
X57443945Y-87530113D01*
X57473937Y-87517456D01*
X57505652Y-87493821D01*
X57530777Y-87466334D01*
X57541000Y-87442119D01*
X57543017Y-87429536D01*
X57556898Y-87407326D01*
X57569497Y-87400867D01*
X57603145Y-87385786D01*
X57654148Y-87363840D01*
X57719183Y-87336439D01*
X57794927Y-87304995D01*
X57878055Y-87270921D01*
X57933000Y-87248528D01*
X58024074Y-87211388D01*
X58131619Y-87167510D01*
X58251586Y-87118549D01*
X58379927Y-87066157D01*
X58512594Y-87011985D01*
X58645539Y-86957686D01*
X58774714Y-86904913D01*
X58788688Y-86899203D01*
X58919766Y-86845684D01*
X59029695Y-86800961D01*
X59120656Y-86764265D01*
X59194829Y-86734826D01*
X59254396Y-86711877D01*
X59301536Y-86694647D01*
X59338429Y-86682368D01*
X59367255Y-86674271D01*
X59390197Y-86669587D01*
X59409432Y-86667547D01*
X59427143Y-86667381D01*
X59445508Y-86668321D01*
X59449451Y-86668577D01*
X59489768Y-86672373D01*
X59522382Y-86679734D01*
X59549732Y-86693530D01*
X59574256Y-86716630D01*
X59598390Y-86751903D01*
X59624573Y-86802221D01*
X59655243Y-86870452D01*
X59692838Y-86959465D01*
X59695389Y-86965593D01*
X59696838Y-86969076D01*
G37*
X57590232Y-86446819D02*
X57582698Y-86572824D01*
X57575627Y-86686798D01*
X57569160Y-86786513D01*
X57563441Y-86869739D01*
X57558612Y-86934247D01*
X57554817Y-86977809D01*
X57552199Y-86998196D01*
X57552075Y-86998695D01*
X57535296Y-87036963D01*
X57505938Y-87057758D01*
X57477417Y-87064186D01*
X57425681Y-87070851D01*
X57353276Y-87077553D01*
X57262595Y-87084149D01*
X57156034Y-87090496D01*
X57035986Y-87096451D01*
X56904846Y-87101874D01*
X56765008Y-87106620D01*
X56618866Y-87110548D01*
X56543720Y-87112235D01*
X56442695Y-87114187D01*
X56349093Y-87115494D01*
X56258808Y-87116133D01*
X56167734Y-87116082D01*
X56071766Y-87115317D01*
X55966796Y-87113816D01*
X55848720Y-87111557D01*
X55713431Y-87108515D01*
X55556823Y-87104670D01*
X55524702Y-87103808D01*
X55422952Y-87100501D01*
X55317877Y-87096323D01*
X55213586Y-87091502D01*
X55114185Y-87086262D01*
X55023783Y-87080831D01*
X54946486Y-87075434D01*
X54886402Y-87070297D01*
X54847638Y-87065646D01*
X54814074Y-87053442D01*
X54788018Y-87030908D01*
X54784517Y-87021380D01*
X54780405Y-86999861D01*
X54775993Y-86965529D01*
X54771180Y-86916986D01*
X54765863Y-86852830D01*
X54759942Y-86771664D01*
X54753314Y-86672086D01*
X54745878Y-86552698D01*
X54737534Y-86412099D01*
X54728178Y-86248891D01*
X54718112Y-86068870D01*
X55333140Y-86068870D01*
X55333250Y-86188938D01*
X55348454Y-86306437D01*
X55377983Y-86417932D01*
X55421068Y-86519987D01*
X55476941Y-86609170D01*
X55544832Y-86682043D01*
X55623973Y-86735172D01*
X55689522Y-86758467D01*
X55775061Y-86766259D01*
X55860730Y-86751199D01*
X55904555Y-86728897D01*
X55955706Y-86689048D01*
X56007221Y-86637737D01*
X56053409Y-86580651D01*
X56088581Y-86523478D01*
X56123042Y-86446285D01*
X56151666Y-86353280D01*
X56167444Y-86253304D01*
X56172191Y-86137987D01*
X56171204Y-86089826D01*
X56156287Y-85952354D01*
X56122939Y-85830774D01*
X56103698Y-85791290D01*
X56461198Y-85791290D01*
X56461303Y-85887005D01*
X56461784Y-86003752D01*
X56462545Y-86137987D01*
X56462577Y-86143733D01*
X56462965Y-86206446D01*
X56463832Y-86335439D01*
X56464733Y-86442138D01*
X56465766Y-86528744D01*
X56467033Y-86597456D01*
X56468635Y-86650476D01*
X56470673Y-86690002D01*
X56473247Y-86718237D01*
X56476459Y-86737379D01*
X56480409Y-86749629D01*
X56485198Y-86757188D01*
X56490927Y-86762255D01*
X56493554Y-86763995D01*
X56521321Y-86773284D01*
X56568663Y-86778604D01*
X56638405Y-86780300D01*
X56660543Y-86780229D01*
X56712790Y-86778884D01*
X56746861Y-86775158D01*
X56768199Y-86768170D01*
X56782243Y-86757041D01*
X56783031Y-86756142D01*
X56789027Y-86746456D01*
X56793728Y-86731252D01*
X56797287Y-86707683D01*
X56799856Y-86672905D01*
X56801589Y-86624072D01*
X56802637Y-86558339D01*
X56803155Y-86472859D01*
X56803293Y-86364788D01*
X56803285Y-86341864D01*
X56802597Y-86159932D01*
X56800816Y-85999191D01*
X56797965Y-85860247D01*
X56794070Y-85743702D01*
X56789155Y-85650162D01*
X56783245Y-85580231D01*
X56776365Y-85534513D01*
X56768538Y-85513612D01*
X56761759Y-85508771D01*
X56736040Y-85501198D01*
X56692060Y-85496980D01*
X56626289Y-85495674D01*
X56598126Y-85495786D01*
X56547723Y-85497238D01*
X56514948Y-85501074D01*
X56494343Y-85508186D01*
X56480447Y-85519464D01*
X56476274Y-85525158D01*
X56471985Y-85535323D01*
X56468513Y-85551102D01*
X56465794Y-85574697D01*
X56463767Y-85608311D01*
X56462367Y-85654146D01*
X56461532Y-85714405D01*
X56461198Y-85791290D01*
X56103698Y-85791290D01*
X56070518Y-85723200D01*
X55998382Y-85627749D01*
X55928964Y-85564969D01*
X55851524Y-85522056D01*
X55771334Y-85503506D01*
X55689906Y-85509656D01*
X55608752Y-85540845D01*
X55584316Y-85555197D01*
X55517443Y-85608541D01*
X55459902Y-85679144D01*
X55408177Y-85771044D01*
X55381276Y-85834768D01*
X55348892Y-85949669D01*
X55333140Y-86068870D01*
X54718112Y-86068870D01*
X54717710Y-86061673D01*
X54665589Y-85120461D01*
X54698546Y-85091843D01*
X54710173Y-85082813D01*
X54745354Y-85067605D01*
X54794388Y-85063225D01*
X54857274Y-85063225D01*
X54857274Y-84746577D01*
X54924049Y-84742733D01*
X54939987Y-84741685D01*
X54972259Y-84737243D01*
X54987190Y-84728714D01*
X54990824Y-84713450D01*
X54990774Y-84711008D01*
X54986911Y-84698549D01*
X54973190Y-84690449D01*
X54944425Y-84684893D01*
X54895431Y-84680066D01*
X54787136Y-84661133D01*
X54670975Y-84622433D01*
X54555885Y-84567272D01*
X54448318Y-84498753D01*
X54354728Y-84419980D01*
X54336423Y-84401370D01*
X54263436Y-84309186D01*
X54214466Y-84213338D01*
X54188857Y-84115445D01*
X54185955Y-84017126D01*
X54205103Y-83920001D01*
X54245645Y-83825688D01*
X54306926Y-83735807D01*
X54388291Y-83651976D01*
X54489083Y-83575815D01*
X54608647Y-83508942D01*
X54746328Y-83452976D01*
X54869750Y-83418159D01*
X55037660Y-83390492D01*
X55211639Y-83381655D01*
X55386719Y-83391316D01*
X55557933Y-83419142D01*
X55720313Y-83464802D01*
X55868891Y-83527964D01*
X55903646Y-83545898D01*
X55943244Y-83568228D01*
X55963633Y-83585718D01*
X55966924Y-83602586D01*
X55955229Y-83623048D01*
X55930659Y-83651319D01*
X55888065Y-83691724D01*
X55827322Y-83728027D01*
X55766697Y-83740441D01*
X55760324Y-83740795D01*
X55734609Y-83751580D01*
X55723476Y-83771724D01*
X55731982Y-83793496D01*
X55738682Y-83797941D01*
X55769082Y-83801500D01*
X55811723Y-83793662D01*
X55859847Y-83776090D01*
X55906698Y-83750450D01*
X55929735Y-83732905D01*
X55979756Y-83682024D01*
X56030617Y-83614727D01*
X56073735Y-83553809D01*
X56152105Y-83459932D01*
X56237719Y-83379976D01*
X56337760Y-83306737D01*
X56400513Y-83268383D01*
X56537126Y-83200678D01*
X56686648Y-83144614D01*
X56841450Y-83103272D01*
X56911831Y-83090865D01*
X57035095Y-83077940D01*
X57168113Y-83072682D01*
X57302382Y-83075094D01*
X57429403Y-83085181D01*
X57540675Y-83102947D01*
X57593377Y-83115084D01*
X57762047Y-83165860D01*
X57915577Y-83230971D01*
X58052451Y-83309308D01*
X58171148Y-83399761D01*
X58270150Y-83501223D01*
X58347938Y-83612583D01*
X58402994Y-83732733D01*
X58412386Y-83760779D01*
X58423525Y-83801922D01*
X58429254Y-83841841D01*
X58430601Y-83889390D01*
X58428592Y-83953418D01*
X58428531Y-83954774D01*
X58425087Y-84016149D01*
X58419713Y-84061400D01*
X58410136Y-84099669D01*
X58394082Y-84140096D01*
X58369275Y-84191822D01*
X58341421Y-84243051D01*
X58259190Y-84357560D01*
X58156262Y-84460101D01*
X58034366Y-84549672D01*
X57895231Y-84625274D01*
X57740585Y-84685902D01*
X57572157Y-84730558D01*
X57391676Y-84758237D01*
X57321121Y-84766485D01*
X57272696Y-84775098D01*
X57245311Y-84784748D01*
X57236756Y-84796217D01*
X57244819Y-84810289D01*
X57259950Y-84816507D01*
X57298579Y-84820394D01*
X57355475Y-84819581D01*
X57451966Y-84814708D01*
X57451966Y-85063225D01*
X57528859Y-85063225D01*
X57550454Y-85063466D01*
X57589087Y-85066967D01*
X57615261Y-85076767D01*
X57638090Y-85095564D01*
X57641761Y-85099290D01*
X57659718Y-85122533D01*
X57665869Y-85148323D01*
X57663250Y-85187777D01*
X57662564Y-85194864D01*
X57660100Y-85228167D01*
X57656476Y-85283589D01*
X57651825Y-85358858D01*
X57646280Y-85451697D01*
X57639975Y-85559831D01*
X57633043Y-85680987D01*
X57625618Y-85812888D01*
X57617832Y-85953261D01*
X57609819Y-86099830D01*
X57606111Y-86167631D01*
X57598083Y-86311012D01*
X57594974Y-86364788D01*
X57590232Y-86446819D01*
G36*
X57590232Y-86446819D02*
G01*
X57582698Y-86572824D01*
X57575627Y-86686798D01*
X57569160Y-86786513D01*
X57563441Y-86869739D01*
X57558612Y-86934247D01*
X57554817Y-86977809D01*
X57552199Y-86998196D01*
X57552075Y-86998695D01*
X57535296Y-87036963D01*
X57505938Y-87057758D01*
X57477417Y-87064186D01*
X57425681Y-87070851D01*
X57353276Y-87077553D01*
X57262595Y-87084149D01*
X57156034Y-87090496D01*
X57035986Y-87096451D01*
X56904846Y-87101874D01*
X56765008Y-87106620D01*
X56618866Y-87110548D01*
X56543720Y-87112235D01*
X56442695Y-87114187D01*
X56349093Y-87115494D01*
X56258808Y-87116133D01*
X56167734Y-87116082D01*
X56071766Y-87115317D01*
X55966796Y-87113816D01*
X55848720Y-87111557D01*
X55713431Y-87108515D01*
X55556823Y-87104670D01*
X55524702Y-87103808D01*
X55422952Y-87100501D01*
X55317877Y-87096323D01*
X55213586Y-87091502D01*
X55114185Y-87086262D01*
X55023783Y-87080831D01*
X54946486Y-87075434D01*
X54886402Y-87070297D01*
X54847638Y-87065646D01*
X54814074Y-87053442D01*
X54788018Y-87030908D01*
X54784517Y-87021380D01*
X54780405Y-86999861D01*
X54775993Y-86965529D01*
X54771180Y-86916986D01*
X54765863Y-86852830D01*
X54759942Y-86771664D01*
X54753314Y-86672086D01*
X54745878Y-86552698D01*
X54737534Y-86412099D01*
X54728178Y-86248891D01*
X54718112Y-86068870D01*
X55333140Y-86068870D01*
X55333250Y-86188938D01*
X55348454Y-86306437D01*
X55377983Y-86417932D01*
X55421068Y-86519987D01*
X55476941Y-86609170D01*
X55544832Y-86682043D01*
X55623973Y-86735172D01*
X55689522Y-86758467D01*
X55775061Y-86766259D01*
X55860730Y-86751199D01*
X55904555Y-86728897D01*
X55955706Y-86689048D01*
X56007221Y-86637737D01*
X56053409Y-86580651D01*
X56088581Y-86523478D01*
X56123042Y-86446285D01*
X56151666Y-86353280D01*
X56167444Y-86253304D01*
X56172191Y-86137987D01*
X56171204Y-86089826D01*
X56156287Y-85952354D01*
X56122939Y-85830774D01*
X56103698Y-85791290D01*
X56461198Y-85791290D01*
X56461303Y-85887005D01*
X56461784Y-86003752D01*
X56462545Y-86137987D01*
X56462577Y-86143733D01*
X56462965Y-86206446D01*
X56463832Y-86335439D01*
X56464733Y-86442138D01*
X56465766Y-86528744D01*
X56467033Y-86597456D01*
X56468635Y-86650476D01*
X56470673Y-86690002D01*
X56473247Y-86718237D01*
X56476459Y-86737379D01*
X56480409Y-86749629D01*
X56485198Y-86757188D01*
X56490927Y-86762255D01*
X56493554Y-86763995D01*
X56521321Y-86773284D01*
X56568663Y-86778604D01*
X56638405Y-86780300D01*
X56660543Y-86780229D01*
X56712790Y-86778884D01*
X56746861Y-86775158D01*
X56768199Y-86768170D01*
X56782243Y-86757041D01*
X56783031Y-86756142D01*
X56789027Y-86746456D01*
X56793728Y-86731252D01*
X56797287Y-86707683D01*
X56799856Y-86672905D01*
X56801589Y-86624072D01*
X56802637Y-86558339D01*
X56803155Y-86472859D01*
X56803293Y-86364788D01*
X56803285Y-86341864D01*
X56802597Y-86159932D01*
X56800816Y-85999191D01*
X56797965Y-85860247D01*
X56794070Y-85743702D01*
X56789155Y-85650162D01*
X56783245Y-85580231D01*
X56776365Y-85534513D01*
X56768538Y-85513612D01*
X56761759Y-85508771D01*
X56736040Y-85501198D01*
X56692060Y-85496980D01*
X56626289Y-85495674D01*
X56598126Y-85495786D01*
X56547723Y-85497238D01*
X56514948Y-85501074D01*
X56494343Y-85508186D01*
X56480447Y-85519464D01*
X56476274Y-85525158D01*
X56471985Y-85535323D01*
X56468513Y-85551102D01*
X56465794Y-85574697D01*
X56463767Y-85608311D01*
X56462367Y-85654146D01*
X56461532Y-85714405D01*
X56461198Y-85791290D01*
X56103698Y-85791290D01*
X56070518Y-85723200D01*
X55998382Y-85627749D01*
X55928964Y-85564969D01*
X55851524Y-85522056D01*
X55771334Y-85503506D01*
X55689906Y-85509656D01*
X55608752Y-85540845D01*
X55584316Y-85555197D01*
X55517443Y-85608541D01*
X55459902Y-85679144D01*
X55408177Y-85771044D01*
X55381276Y-85834768D01*
X55348892Y-85949669D01*
X55333140Y-86068870D01*
X54718112Y-86068870D01*
X54717710Y-86061673D01*
X54665589Y-85120461D01*
X54698546Y-85091843D01*
X54710173Y-85082813D01*
X54745354Y-85067605D01*
X54794388Y-85063225D01*
X54857274Y-85063225D01*
X54857274Y-84746577D01*
X54924049Y-84742733D01*
X54939987Y-84741685D01*
X54972259Y-84737243D01*
X54987190Y-84728714D01*
X54990824Y-84713450D01*
X54990774Y-84711008D01*
X54986911Y-84698549D01*
X54973190Y-84690449D01*
X54944425Y-84684893D01*
X54895431Y-84680066D01*
X54787136Y-84661133D01*
X54670975Y-84622433D01*
X54555885Y-84567272D01*
X54448318Y-84498753D01*
X54354728Y-84419980D01*
X54336423Y-84401370D01*
X54263436Y-84309186D01*
X54214466Y-84213338D01*
X54188857Y-84115445D01*
X54185955Y-84017126D01*
X54205103Y-83920001D01*
X54245645Y-83825688D01*
X54306926Y-83735807D01*
X54388291Y-83651976D01*
X54489083Y-83575815D01*
X54608647Y-83508942D01*
X54746328Y-83452976D01*
X54869750Y-83418159D01*
X55037660Y-83390492D01*
X55211639Y-83381655D01*
X55386719Y-83391316D01*
X55557933Y-83419142D01*
X55720313Y-83464802D01*
X55868891Y-83527964D01*
X55903646Y-83545898D01*
X55943244Y-83568228D01*
X55963633Y-83585718D01*
X55966924Y-83602586D01*
X55955229Y-83623048D01*
X55930659Y-83651319D01*
X55888065Y-83691724D01*
X55827322Y-83728027D01*
X55766697Y-83740441D01*
X55760324Y-83740795D01*
X55734609Y-83751580D01*
X55723476Y-83771724D01*
X55731982Y-83793496D01*
X55738682Y-83797941D01*
X55769082Y-83801500D01*
X55811723Y-83793662D01*
X55859847Y-83776090D01*
X55906698Y-83750450D01*
X55929735Y-83732905D01*
X55979756Y-83682024D01*
X56030617Y-83614727D01*
X56073735Y-83553809D01*
X56152105Y-83459932D01*
X56237719Y-83379976D01*
X56337760Y-83306737D01*
X56400513Y-83268383D01*
X56537126Y-83200678D01*
X56686648Y-83144614D01*
X56841450Y-83103272D01*
X56911831Y-83090865D01*
X57035095Y-83077940D01*
X57168113Y-83072682D01*
X57302382Y-83075094D01*
X57429403Y-83085181D01*
X57540675Y-83102947D01*
X57593377Y-83115084D01*
X57762047Y-83165860D01*
X57915577Y-83230971D01*
X58052451Y-83309308D01*
X58171148Y-83399761D01*
X58270150Y-83501223D01*
X58347938Y-83612583D01*
X58402994Y-83732733D01*
X58412386Y-83760779D01*
X58423525Y-83801922D01*
X58429254Y-83841841D01*
X58430601Y-83889390D01*
X58428592Y-83953418D01*
X58428531Y-83954774D01*
X58425087Y-84016149D01*
X58419713Y-84061400D01*
X58410136Y-84099669D01*
X58394082Y-84140096D01*
X58369275Y-84191822D01*
X58341421Y-84243051D01*
X58259190Y-84357560D01*
X58156262Y-84460101D01*
X58034366Y-84549672D01*
X57895231Y-84625274D01*
X57740585Y-84685902D01*
X57572157Y-84730558D01*
X57391676Y-84758237D01*
X57321121Y-84766485D01*
X57272696Y-84775098D01*
X57245311Y-84784748D01*
X57236756Y-84796217D01*
X57244819Y-84810289D01*
X57259950Y-84816507D01*
X57298579Y-84820394D01*
X57355475Y-84819581D01*
X57451966Y-84814708D01*
X57451966Y-85063225D01*
X57528859Y-85063225D01*
X57550454Y-85063466D01*
X57589087Y-85066967D01*
X57615261Y-85076767D01*
X57638090Y-85095564D01*
X57641761Y-85099290D01*
X57659718Y-85122533D01*
X57665869Y-85148323D01*
X57663250Y-85187777D01*
X57662564Y-85194864D01*
X57660100Y-85228167D01*
X57656476Y-85283589D01*
X57651825Y-85358858D01*
X57646280Y-85451697D01*
X57639975Y-85559831D01*
X57633043Y-85680987D01*
X57625618Y-85812888D01*
X57617832Y-85953261D01*
X57609819Y-86099830D01*
X57606111Y-86167631D01*
X57598083Y-86311012D01*
X57594974Y-86364788D01*
X57590232Y-86446819D01*
G37*
X58389082Y-89290309D02*
X58364560Y-89362655D01*
X58350460Y-89387629D01*
X58309449Y-89436044D01*
X58257563Y-89467082D01*
X58193064Y-89480968D01*
X58114212Y-89477928D01*
X58019268Y-89458185D01*
X57906492Y-89421966D01*
X57900910Y-89419963D01*
X57860348Y-89406886D01*
X57831685Y-89400225D01*
X57820819Y-89401397D01*
X57822425Y-89409346D01*
X57842547Y-89436462D01*
X57884504Y-89470807D01*
X57946764Y-89511351D01*
X58027799Y-89557064D01*
X58126077Y-89606917D01*
X58139181Y-89613257D01*
X58221632Y-89652655D01*
X58308022Y-89693199D01*
X58394511Y-89733155D01*
X58477259Y-89770789D01*
X58552427Y-89804367D01*
X58616174Y-89832154D01*
X58664661Y-89852417D01*
X58694047Y-89863421D01*
X58702711Y-89866310D01*
X58714001Y-89874237D01*
X58713402Y-89890056D01*
X58701979Y-89921567D01*
X58682502Y-89971151D01*
X58618746Y-89946021D01*
X58618621Y-89945971D01*
X58528100Y-89908891D01*
X58430438Y-89866443D01*
X58329032Y-89820323D01*
X58227279Y-89772226D01*
X58128577Y-89723849D01*
X58036322Y-89676888D01*
X57953912Y-89633039D01*
X57884745Y-89593998D01*
X57832217Y-89561462D01*
X57799726Y-89537126D01*
X57775718Y-89512365D01*
X57740827Y-89468133D01*
X57710467Y-89421002D01*
X57689031Y-89378025D01*
X57680909Y-89346258D01*
X57679772Y-89343484D01*
X57662147Y-89329071D01*
X57626369Y-89307850D01*
X57576535Y-89281981D01*
X57516743Y-89253629D01*
X57475886Y-89235785D01*
X57786666Y-89235785D01*
X57788251Y-89249805D01*
X57798241Y-89262617D01*
X57819792Y-89276037D01*
X57856060Y-89291884D01*
X57910202Y-89311976D01*
X57985374Y-89338132D01*
X58076862Y-89364532D01*
X58153678Y-89375124D01*
X58211958Y-89368621D01*
X58251555Y-89345019D01*
X58262009Y-89332234D01*
X58283397Y-89286141D01*
X58287696Y-89236944D01*
X58273524Y-89194147D01*
X58260099Y-89178868D01*
X58227197Y-89152076D01*
X58187132Y-89126815D01*
X58144640Y-89108128D01*
X58079058Y-89090639D01*
X58011419Y-89082732D01*
X57949888Y-89085209D01*
X57902629Y-89098873D01*
X57889635Y-89106297D01*
X57844730Y-89141554D01*
X57808619Y-89183814D01*
X57788720Y-89224867D01*
X57786666Y-89235785D01*
X57475886Y-89235785D01*
X57451091Y-89224956D01*
X57446312Y-89227107D01*
X57432304Y-89245520D01*
X57415040Y-89277056D01*
X57405905Y-89293731D01*
X57380614Y-89327483D01*
X57355787Y-89347598D01*
X57353118Y-89348879D01*
X57344846Y-89353696D01*
X57338154Y-89358026D01*
X57331368Y-89361259D01*
X57322813Y-89362783D01*
X57310814Y-89361990D01*
X57293697Y-89358267D01*
X57269787Y-89351005D01*
X57237409Y-89339593D01*
X57194889Y-89323421D01*
X57140552Y-89301878D01*
X57072724Y-89274355D01*
X56989729Y-89240240D01*
X56889894Y-89198922D01*
X56771543Y-89149793D01*
X56633002Y-89092241D01*
X56472597Y-89025655D01*
X56294740Y-88952176D01*
X56080414Y-88864384D01*
X55868205Y-88778241D01*
X55662355Y-88695452D01*
X55467103Y-88617720D01*
X55286688Y-88546749D01*
X55125350Y-88484243D01*
X54916460Y-88404089D01*
X54782026Y-88420519D01*
X54739210Y-88425950D01*
X54688377Y-88432974D01*
X54650842Y-88438856D01*
X54632590Y-88442706D01*
X54629318Y-88444726D01*
X54614181Y-88464316D01*
X54598608Y-88495898D01*
X54589243Y-88517857D01*
X54569951Y-88550284D01*
X54546662Y-88566796D01*
X54514886Y-88568162D01*
X54470132Y-88555149D01*
X54407909Y-88528528D01*
X54398278Y-88524102D01*
X54361327Y-88505754D01*
X54336669Y-88487979D01*
X54323972Y-88466805D01*
X54322901Y-88438260D01*
X54333125Y-88398370D01*
X54354309Y-88343163D01*
X54386122Y-88268667D01*
X54400056Y-88236316D01*
X54424900Y-88177655D01*
X54444783Y-88129390D01*
X54457952Y-88095821D01*
X54462650Y-88081245D01*
X54459168Y-88078895D01*
X54435679Y-88067186D01*
X54391517Y-88046546D01*
X54328403Y-88017742D01*
X54248059Y-87981542D01*
X54152206Y-87938714D01*
X54042567Y-87890027D01*
X53920862Y-87836248D01*
X53788814Y-87778145D01*
X53648144Y-87716488D01*
X53500574Y-87652043D01*
X53422091Y-87617795D01*
X53277198Y-87554382D01*
X53139754Y-87493989D01*
X53011524Y-87437405D01*
X52894274Y-87385418D01*
X52789770Y-87338817D01*
X52699777Y-87298390D01*
X52626061Y-87264927D01*
X52570388Y-87239215D01*
X52534523Y-87222043D01*
X52520232Y-87214201D01*
X52508049Y-87189600D01*
X52510423Y-87150120D01*
X52511071Y-87146735D01*
X52517495Y-87109692D01*
X52521267Y-87081966D01*
X52518115Y-87073093D01*
X52503830Y-87060389D01*
X52475799Y-87043521D01*
X52431557Y-87021162D01*
X52368637Y-86991987D01*
X52284573Y-86954668D01*
X52213876Y-86923297D01*
X52130029Y-86884420D01*
X52066197Y-86852118D01*
X52020120Y-86825019D01*
X51989536Y-86801751D01*
X51972186Y-86780942D01*
X51965811Y-86761222D01*
X51965857Y-86751348D01*
X51972830Y-86741338D01*
X51993470Y-86737144D01*
X52033639Y-86736644D01*
X52040845Y-86736816D01*
X52069114Y-86739433D01*
X52100612Y-86746171D01*
X52139286Y-86758393D01*
X52189084Y-86777460D01*
X52253956Y-86804733D01*
X52337849Y-86841576D01*
X52352238Y-86847960D01*
X52422717Y-86878970D01*
X52484651Y-86905803D01*
X52534373Y-86926900D01*
X52568218Y-86940701D01*
X52582521Y-86945648D01*
X52584622Y-86944967D01*
X52597060Y-86929861D01*
X52611525Y-86901160D01*
X52613657Y-86896386D01*
X52635271Y-86863665D01*
X52660366Y-86842888D01*
X52663974Y-86841113D01*
X52668289Y-86839200D01*
X52673546Y-86838113D01*
X52680987Y-86838372D01*
X52691854Y-86840496D01*
X52707391Y-86845006D01*
X52728841Y-86852421D01*
X52757445Y-86863262D01*
X52794448Y-86878047D01*
X52841091Y-86897297D01*
X52898618Y-86921532D01*
X52968271Y-86951271D01*
X53051293Y-86987034D01*
X53148927Y-87029341D01*
X53262415Y-87078712D01*
X53393001Y-87135667D01*
X53541926Y-87200725D01*
X53710435Y-87274406D01*
X53899769Y-87357230D01*
X54111172Y-87449718D01*
X54180402Y-87479979D01*
X54282822Y-87524652D01*
X54376603Y-87565443D01*
X54459303Y-87601295D01*
X54528478Y-87631152D01*
X54581687Y-87653959D01*
X54616486Y-87668660D01*
X54630432Y-87674197D01*
X54633371Y-87672488D01*
X54646299Y-87653553D01*
X54666121Y-87616970D01*
X54690728Y-87566765D01*
X54718012Y-87506964D01*
X54728786Y-87482711D01*
X54755815Y-87423226D01*
X54779458Y-87373052D01*
X54797480Y-87336870D01*
X54807645Y-87319358D01*
X54812288Y-87314384D01*
X54831500Y-87304236D01*
X54859436Y-87304977D01*
X54900507Y-87317260D01*
X54959123Y-87341736D01*
X54989045Y-87355870D01*
X55032542Y-87382507D01*
X55054497Y-87409286D01*
X55057149Y-87439851D01*
X55042736Y-87477848D01*
X55041771Y-87479735D01*
X55028214Y-87511970D01*
X55022622Y-87536243D01*
X55026807Y-87548608D01*
X55043049Y-87579038D01*
X55068687Y-87620942D01*
X55100666Y-87669123D01*
X55178709Y-87782503D01*
X55701642Y-88027719D01*
X55805772Y-88076547D01*
X56037164Y-88185052D01*
X56247026Y-88283499D01*
X56436408Y-88372419D01*
X56606362Y-88452347D01*
X56757936Y-88523816D01*
X56892184Y-88587358D01*
X57010154Y-88643508D01*
X57112898Y-88692799D01*
X57201467Y-88735763D01*
X57276912Y-88772935D01*
X57340283Y-88804847D01*
X57392630Y-88832033D01*
X57435005Y-88855026D01*
X57468459Y-88874359D01*
X57494042Y-88890566D01*
X57512804Y-88904180D01*
X57525798Y-88915735D01*
X57534072Y-88925763D01*
X57538679Y-88934798D01*
X57540669Y-88943373D01*
X57541092Y-88952022D01*
X57541000Y-88961277D01*
X57539731Y-88973584D01*
X57530602Y-89009716D01*
X57515561Y-89050656D01*
X57506655Y-89072071D01*
X57494777Y-89103397D01*
X57490123Y-89120003D01*
X57494540Y-89125006D01*
X57517947Y-89139206D01*
X57557326Y-89158987D01*
X57607947Y-89182025D01*
X57665080Y-89205995D01*
X57667317Y-89206530D01*
X57683157Y-89196686D01*
X57699587Y-89168051D01*
X57707412Y-89150901D01*
X57755032Y-89081673D01*
X57819494Y-89027885D01*
X57896617Y-88991643D01*
X57982219Y-88975056D01*
X58072120Y-88980231D01*
X58079473Y-88981629D01*
X58178584Y-89009171D01*
X58260521Y-89048668D01*
X58323913Y-89098326D01*
X58367385Y-89156349D01*
X58389566Y-89220942D01*
X58389454Y-89236944D01*
X58389082Y-89290309D01*
G36*
X58389082Y-89290309D02*
G01*
X58364560Y-89362655D01*
X58350460Y-89387629D01*
X58309449Y-89436044D01*
X58257563Y-89467082D01*
X58193064Y-89480968D01*
X58114212Y-89477928D01*
X58019268Y-89458185D01*
X57906492Y-89421966D01*
X57900910Y-89419963D01*
X57860348Y-89406886D01*
X57831685Y-89400225D01*
X57820819Y-89401397D01*
X57822425Y-89409346D01*
X57842547Y-89436462D01*
X57884504Y-89470807D01*
X57946764Y-89511351D01*
X58027799Y-89557064D01*
X58126077Y-89606917D01*
X58139181Y-89613257D01*
X58221632Y-89652655D01*
X58308022Y-89693199D01*
X58394511Y-89733155D01*
X58477259Y-89770789D01*
X58552427Y-89804367D01*
X58616174Y-89832154D01*
X58664661Y-89852417D01*
X58694047Y-89863421D01*
X58702711Y-89866310D01*
X58714001Y-89874237D01*
X58713402Y-89890056D01*
X58701979Y-89921567D01*
X58682502Y-89971151D01*
X58618746Y-89946021D01*
X58618621Y-89945971D01*
X58528100Y-89908891D01*
X58430438Y-89866443D01*
X58329032Y-89820323D01*
X58227279Y-89772226D01*
X58128577Y-89723849D01*
X58036322Y-89676888D01*
X57953912Y-89633039D01*
X57884745Y-89593998D01*
X57832217Y-89561462D01*
X57799726Y-89537126D01*
X57775718Y-89512365D01*
X57740827Y-89468133D01*
X57710467Y-89421002D01*
X57689031Y-89378025D01*
X57680909Y-89346258D01*
X57679772Y-89343484D01*
X57662147Y-89329071D01*
X57626369Y-89307850D01*
X57576535Y-89281981D01*
X57516743Y-89253629D01*
X57475886Y-89235785D01*
X57786666Y-89235785D01*
X57788251Y-89249805D01*
X57798241Y-89262617D01*
X57819792Y-89276037D01*
X57856060Y-89291884D01*
X57910202Y-89311976D01*
X57985374Y-89338132D01*
X58076862Y-89364532D01*
X58153678Y-89375124D01*
X58211958Y-89368621D01*
X58251555Y-89345019D01*
X58262009Y-89332234D01*
X58283397Y-89286141D01*
X58287696Y-89236944D01*
X58273524Y-89194147D01*
X58260099Y-89178868D01*
X58227197Y-89152076D01*
X58187132Y-89126815D01*
X58144640Y-89108128D01*
X58079058Y-89090639D01*
X58011419Y-89082732D01*
X57949888Y-89085209D01*
X57902629Y-89098873D01*
X57889635Y-89106297D01*
X57844730Y-89141554D01*
X57808619Y-89183814D01*
X57788720Y-89224867D01*
X57786666Y-89235785D01*
X57475886Y-89235785D01*
X57451091Y-89224956D01*
X57446312Y-89227107D01*
X57432304Y-89245520D01*
X57415040Y-89277056D01*
X57405905Y-89293731D01*
X57380614Y-89327483D01*
X57355787Y-89347598D01*
X57353118Y-89348879D01*
X57344846Y-89353696D01*
X57338154Y-89358026D01*
X57331368Y-89361259D01*
X57322813Y-89362783D01*
X57310814Y-89361990D01*
X57293697Y-89358267D01*
X57269787Y-89351005D01*
X57237409Y-89339593D01*
X57194889Y-89323421D01*
X57140552Y-89301878D01*
X57072724Y-89274355D01*
X56989729Y-89240240D01*
X56889894Y-89198922D01*
X56771543Y-89149793D01*
X56633002Y-89092241D01*
X56472597Y-89025655D01*
X56294740Y-88952176D01*
X56080414Y-88864384D01*
X55868205Y-88778241D01*
X55662355Y-88695452D01*
X55467103Y-88617720D01*
X55286688Y-88546749D01*
X55125350Y-88484243D01*
X54916460Y-88404089D01*
X54782026Y-88420519D01*
X54739210Y-88425950D01*
X54688377Y-88432974D01*
X54650842Y-88438856D01*
X54632590Y-88442706D01*
X54629318Y-88444726D01*
X54614181Y-88464316D01*
X54598608Y-88495898D01*
X54589243Y-88517857D01*
X54569951Y-88550284D01*
X54546662Y-88566796D01*
X54514886Y-88568162D01*
X54470132Y-88555149D01*
X54407909Y-88528528D01*
X54398278Y-88524102D01*
X54361327Y-88505754D01*
X54336669Y-88487979D01*
X54323972Y-88466805D01*
X54322901Y-88438260D01*
X54333125Y-88398370D01*
X54354309Y-88343163D01*
X54386122Y-88268667D01*
X54400056Y-88236316D01*
X54424900Y-88177655D01*
X54444783Y-88129390D01*
X54457952Y-88095821D01*
X54462650Y-88081245D01*
X54459168Y-88078895D01*
X54435679Y-88067186D01*
X54391517Y-88046546D01*
X54328403Y-88017742D01*
X54248059Y-87981542D01*
X54152206Y-87938714D01*
X54042567Y-87890027D01*
X53920862Y-87836248D01*
X53788814Y-87778145D01*
X53648144Y-87716488D01*
X53500574Y-87652043D01*
X53422091Y-87617795D01*
X53277198Y-87554382D01*
X53139754Y-87493989D01*
X53011524Y-87437405D01*
X52894274Y-87385418D01*
X52789770Y-87338817D01*
X52699777Y-87298390D01*
X52626061Y-87264927D01*
X52570388Y-87239215D01*
X52534523Y-87222043D01*
X52520232Y-87214201D01*
X52508049Y-87189600D01*
X52510423Y-87150120D01*
X52511071Y-87146735D01*
X52517495Y-87109692D01*
X52521267Y-87081966D01*
X52518115Y-87073093D01*
X52503830Y-87060389D01*
X52475799Y-87043521D01*
X52431557Y-87021162D01*
X52368637Y-86991987D01*
X52284573Y-86954668D01*
X52213876Y-86923297D01*
X52130029Y-86884420D01*
X52066197Y-86852118D01*
X52020120Y-86825019D01*
X51989536Y-86801751D01*
X51972186Y-86780942D01*
X51965811Y-86761222D01*
X51965857Y-86751348D01*
X51972830Y-86741338D01*
X51993470Y-86737144D01*
X52033639Y-86736644D01*
X52040845Y-86736816D01*
X52069114Y-86739433D01*
X52100612Y-86746171D01*
X52139286Y-86758393D01*
X52189084Y-86777460D01*
X52253956Y-86804733D01*
X52337849Y-86841576D01*
X52352238Y-86847960D01*
X52422717Y-86878970D01*
X52484651Y-86905803D01*
X52534373Y-86926900D01*
X52568218Y-86940701D01*
X52582521Y-86945648D01*
X52584622Y-86944967D01*
X52597060Y-86929861D01*
X52611525Y-86901160D01*
X52613657Y-86896386D01*
X52635271Y-86863665D01*
X52660366Y-86842888D01*
X52663974Y-86841113D01*
X52668289Y-86839200D01*
X52673546Y-86838113D01*
X52680987Y-86838372D01*
X52691854Y-86840496D01*
X52707391Y-86845006D01*
X52728841Y-86852421D01*
X52757445Y-86863262D01*
X52794448Y-86878047D01*
X52841091Y-86897297D01*
X52898618Y-86921532D01*
X52968271Y-86951271D01*
X53051293Y-86987034D01*
X53148927Y-87029341D01*
X53262415Y-87078712D01*
X53393001Y-87135667D01*
X53541926Y-87200725D01*
X53710435Y-87274406D01*
X53899769Y-87357230D01*
X54111172Y-87449718D01*
X54180402Y-87479979D01*
X54282822Y-87524652D01*
X54376603Y-87565443D01*
X54459303Y-87601295D01*
X54528478Y-87631152D01*
X54581687Y-87653959D01*
X54616486Y-87668660D01*
X54630432Y-87674197D01*
X54633371Y-87672488D01*
X54646299Y-87653553D01*
X54666121Y-87616970D01*
X54690728Y-87566765D01*
X54718012Y-87506964D01*
X54728786Y-87482711D01*
X54755815Y-87423226D01*
X54779458Y-87373052D01*
X54797480Y-87336870D01*
X54807645Y-87319358D01*
X54812288Y-87314384D01*
X54831500Y-87304236D01*
X54859436Y-87304977D01*
X54900507Y-87317260D01*
X54959123Y-87341736D01*
X54989045Y-87355870D01*
X55032542Y-87382507D01*
X55054497Y-87409286D01*
X55057149Y-87439851D01*
X55042736Y-87477848D01*
X55041771Y-87479735D01*
X55028214Y-87511970D01*
X55022622Y-87536243D01*
X55026807Y-87548608D01*
X55043049Y-87579038D01*
X55068687Y-87620942D01*
X55100666Y-87669123D01*
X55178709Y-87782503D01*
X55701642Y-88027719D01*
X55805772Y-88076547D01*
X56037164Y-88185052D01*
X56247026Y-88283499D01*
X56436408Y-88372419D01*
X56606362Y-88452347D01*
X56757936Y-88523816D01*
X56892184Y-88587358D01*
X57010154Y-88643508D01*
X57112898Y-88692799D01*
X57201467Y-88735763D01*
X57276912Y-88772935D01*
X57340283Y-88804847D01*
X57392630Y-88832033D01*
X57435005Y-88855026D01*
X57468459Y-88874359D01*
X57494042Y-88890566D01*
X57512804Y-88904180D01*
X57525798Y-88915735D01*
X57534072Y-88925763D01*
X57538679Y-88934798D01*
X57540669Y-88943373D01*
X57541092Y-88952022D01*
X57541000Y-88961277D01*
X57539731Y-88973584D01*
X57530602Y-89009716D01*
X57515561Y-89050656D01*
X57506655Y-89072071D01*
X57494777Y-89103397D01*
X57490123Y-89120003D01*
X57494540Y-89125006D01*
X57517947Y-89139206D01*
X57557326Y-89158987D01*
X57607947Y-89182025D01*
X57665080Y-89205995D01*
X57667317Y-89206530D01*
X57683157Y-89196686D01*
X57699587Y-89168051D01*
X57707412Y-89150901D01*
X57755032Y-89081673D01*
X57819494Y-89027885D01*
X57896617Y-88991643D01*
X57982219Y-88975056D01*
X58072120Y-88980231D01*
X58079473Y-88981629D01*
X58178584Y-89009171D01*
X58260521Y-89048668D01*
X58323913Y-89098326D01*
X58367385Y-89156349D01*
X58389566Y-89220942D01*
X58389454Y-89236944D01*
X58389082Y-89290309D01*
G37*
D16*
G36*
X65068311Y-100469632D02*
G01*
X65299121Y-100526470D01*
X65514342Y-100617425D01*
X65710886Y-100739409D01*
X65885665Y-100889335D01*
X66035591Y-101064114D01*
X66157575Y-101260658D01*
X66248530Y-101475879D01*
X66305368Y-101706689D01*
X66325000Y-101950000D01*
X66305368Y-102193311D01*
X66248530Y-102424121D01*
X66157575Y-102639342D01*
X66035591Y-102835886D01*
X65885665Y-103010665D01*
X65710886Y-103160590D01*
X65514342Y-103282575D01*
X65299121Y-103373530D01*
X65068311Y-103430368D01*
X64825000Y-103450000D01*
X64675000Y-103442500D01*
X64675000Y-102992500D01*
X64825000Y-103000000D01*
X65065762Y-102972270D01*
X65286773Y-102893280D01*
X65481730Y-102769333D01*
X65644333Y-102606730D01*
X65768281Y-102411772D01*
X65847270Y-102190762D01*
X65875000Y-101950000D01*
X65847270Y-101709238D01*
X65768281Y-101488227D01*
X65644333Y-101293270D01*
X65481730Y-101130667D01*
X65286773Y-101006719D01*
X65065762Y-100927730D01*
X64825000Y-100900000D01*
X64675000Y-100907500D01*
X64675000Y-100457500D01*
X64825000Y-100450000D01*
X65068311Y-100469632D01*
G37*
G36*
X62518311Y-100469632D02*
G01*
X62749121Y-100526470D01*
X62964342Y-100617425D01*
X63160886Y-100739409D01*
X63335665Y-100889335D01*
X63485591Y-101064114D01*
X63607575Y-101260658D01*
X63698530Y-101475879D01*
X63755368Y-101706689D01*
X63775000Y-101950000D01*
X63755368Y-102193311D01*
X63698530Y-102424121D01*
X63607575Y-102639342D01*
X63485591Y-102835886D01*
X63335665Y-103010665D01*
X63160886Y-103160590D01*
X62964342Y-103282575D01*
X62749121Y-103373530D01*
X62518311Y-103430368D01*
X62275000Y-103450000D01*
X62125000Y-103442500D01*
X62125000Y-102992500D01*
X62275000Y-103000000D01*
X62514888Y-102972375D01*
X62736634Y-102893213D01*
X62933163Y-102768205D01*
X63097400Y-102603040D01*
X63222271Y-102403408D01*
X63300700Y-102175000D01*
X62425000Y-102175000D01*
X62425000Y-101725000D01*
X63300700Y-101725000D01*
X63222271Y-101496592D01*
X63097400Y-101296960D01*
X62933163Y-101131795D01*
X62736634Y-101006787D01*
X62514888Y-100927625D01*
X62275000Y-100900000D01*
X62125000Y-100907500D01*
X62125000Y-100457500D01*
X62275000Y-100450000D01*
X62518311Y-100469632D01*
G37*
G36*
X62837810Y-93818828D02*
G01*
X62469433Y-93818828D01*
X62469433Y-93703011D01*
X62837810Y-93703011D01*
X62837810Y-93818828D01*
G37*
G36*
X63609976Y-95950001D02*
G01*
X61861397Y-95950001D01*
X61861397Y-95523325D01*
X63609976Y-95523325D01*
X63609976Y-95950001D01*
G37*
G36*
X62750197Y-94044776D02*
G01*
X63778663Y-92963962D01*
X63778663Y-93043763D01*
X62788835Y-94083980D01*
X63752870Y-95062238D01*
X63713019Y-95100133D01*
X62750899Y-94123836D01*
X61829081Y-95092593D01*
X61789211Y-95054678D01*
X62712262Y-94084647D01*
X61671338Y-93028353D01*
X61671338Y-92950000D01*
X62750197Y-94044776D01*
G37*
G36*
X62827723Y-93166905D02*
G01*
X62992244Y-93189425D01*
X62992244Y-93178576D01*
X63095212Y-93178576D01*
X63095212Y-93218722D01*
X63215861Y-93338139D01*
X63285306Y-93338139D01*
X63285306Y-93393285D01*
X63203328Y-93393285D01*
X63086027Y-94779869D01*
X63063758Y-94805247D01*
X63063758Y-94890613D01*
X63033192Y-94890613D01*
X62954273Y-94890613D01*
X62954273Y-94805893D01*
X62527908Y-94805893D01*
X62376938Y-94893430D01*
X62253950Y-94842483D01*
X62203002Y-94719494D01*
X62339910Y-94549534D01*
X62263553Y-93698213D01*
X62259502Y-93698213D01*
X62124339Y-93698213D01*
X62124339Y-93653093D01*
X62169458Y-93653093D01*
X62259502Y-93653093D01*
X62249415Y-93540570D01*
X62169458Y-93540570D01*
X62169458Y-93653093D01*
X62124339Y-93653093D01*
X62124339Y-93495451D01*
X62245360Y-93495451D01*
X62236606Y-93397827D01*
X62199989Y-93406640D01*
X62186634Y-93393285D01*
X62291341Y-93393285D01*
X62300506Y-93495451D01*
X62324695Y-93495451D01*
X62324695Y-93698213D01*
X62318679Y-93698213D01*
X62394780Y-94546476D01*
X62505689Y-94602590D01*
X62550859Y-94719494D01*
X62548057Y-94750747D01*
X63033192Y-94750747D01*
X63148007Y-93393285D01*
X63095212Y-93393285D01*
X62992244Y-93393285D01*
X62291341Y-93393285D01*
X62186634Y-93393285D01*
X62131488Y-93338139D01*
X62288363Y-93338139D01*
X62992244Y-93338139D01*
X63095212Y-93338139D01*
X63158795Y-93338139D01*
X63095212Y-93279468D01*
X63095212Y-93338139D01*
X62992244Y-93338139D01*
X62992244Y-93245784D01*
X62827723Y-93221931D01*
X62827723Y-93274139D01*
X62587892Y-93274139D01*
X62542773Y-93274139D01*
X62542773Y-93228884D01*
X62403298Y-93253008D01*
X62288363Y-93338139D01*
X62131488Y-93338139D01*
X62119541Y-93326192D01*
X62199989Y-93245764D01*
X62264946Y-93278781D01*
X62384774Y-93201311D01*
X62542773Y-93173718D01*
X62542773Y-93148787D01*
X62827723Y-93148787D01*
X62827723Y-93166905D01*
G37*
M02*
