G04 #@! TF.GenerationSoftware,KiCad,Pcbnew,9.0.1*
G04 #@! TF.CreationDate,2025-04-09T17:44:43+02:00*
G04 #@! TF.ProjectId,SMDChaser0805-0603,534d4443-6861-4736-9572-303830352d30,rev?*
G04 #@! TF.SameCoordinates,Original*
G04 #@! TF.FileFunction,Other,User*
%FSLAX46Y46*%
G04 Gerber Fmt 4.6, Leading zero omitted, Abs format (unit mm)*
G04 Created by KiCad (PCBNEW 9.0.1) date 2025-04-09 17:44:43*
%MOMM*%
%LPD*%
G01*
G04 APERTURE LIST*
%ADD10C,0.050000*%
G04 APERTURE END LIST*
D10*
X69437580Y-71496860D02*
X73137580Y-71496860D01*
X69437580Y-73396860D02*
X69437580Y-71496860D01*
X73137580Y-71496860D02*
X73137580Y-73396860D01*
X73137580Y-73396860D02*
X69437580Y-73396860D01*
X69274700Y-108120780D02*
X72974700Y-108120780D01*
X69274700Y-110020780D02*
X69274700Y-108120780D01*
X72974700Y-108120780D02*
X72974700Y-110020780D01*
X72974700Y-110020780D02*
X69274700Y-110020780D01*
X74961879Y-73751442D02*
X75549012Y-71944435D01*
X75549012Y-71944435D02*
X79067921Y-73087798D01*
X78480788Y-74894805D02*
X74961879Y-73751442D01*
X79067921Y-73087798D02*
X78480788Y-74894805D01*
X63333399Y-108603242D02*
X63920532Y-106796235D01*
X63920532Y-106796235D02*
X67439441Y-107939598D01*
X66852308Y-109746605D02*
X63333399Y-108603242D01*
X67439441Y-107939598D02*
X66852308Y-109746605D01*
X80049703Y-75831503D02*
X81166495Y-74294371D01*
X81166495Y-74294371D02*
X84159857Y-76469177D01*
X83043065Y-78006309D02*
X80049703Y-75831503D01*
X84159857Y-76469177D02*
X83043065Y-78006309D01*
X58126101Y-105355463D02*
X59242893Y-103818331D01*
X59242893Y-103818331D02*
X62236255Y-105993137D01*
X61119463Y-107530269D02*
X58126101Y-105355463D01*
X62236255Y-105993137D02*
X61119463Y-107530269D01*
X84072131Y-79217295D02*
X85609263Y-78100503D01*
X85609263Y-78100503D02*
X87784069Y-81093865D01*
X86246937Y-82210657D02*
X84072131Y-79217295D01*
X87784069Y-81093865D02*
X86246937Y-82210657D01*
X54417351Y-100863015D02*
X55954483Y-99746223D01*
X55954483Y-99746223D02*
X58129289Y-102739585D01*
X56592157Y-103856377D02*
X54417351Y-100863015D01*
X58129289Y-102739585D02*
X56592157Y-103856377D01*
X86930075Y-83897932D02*
X88737082Y-83310799D01*
X88073438Y-87416841D02*
X86930075Y-83897932D01*
X88737082Y-83310799D02*
X89880445Y-86829708D01*
X89880445Y-86829708D02*
X88073438Y-87416841D01*
X52068995Y-95048332D02*
X53876002Y-94461199D01*
X53212358Y-98567241D02*
X52068995Y-95048332D01*
X53876002Y-94461199D02*
X55019365Y-97980108D01*
X55019365Y-97980108D02*
X53212358Y-98567241D01*
X88321380Y-89323300D02*
X90221380Y-89323300D01*
X88321380Y-93023300D02*
X88321380Y-89323300D01*
X90221380Y-89323300D02*
X90221380Y-93023300D01*
X90221380Y-93023300D02*
X88321380Y-93023300D01*
X51637780Y-88866740D02*
X53537780Y-88866740D01*
X51637780Y-92566740D02*
X51637780Y-88866740D01*
X53537780Y-88866740D02*
X53537780Y-92566740D01*
X53537780Y-92566740D02*
X51637780Y-92566740D01*
X86555435Y-98156228D02*
X87698798Y-94637319D01*
X87698798Y-94637319D02*
X89505805Y-95224452D01*
X88362442Y-98743361D02*
X86555435Y-98156228D01*
X89505805Y-95224452D02*
X88362442Y-98743361D01*
X52109235Y-86366828D02*
X53252598Y-82847919D01*
X53252598Y-82847919D02*
X55059605Y-83435052D01*
X53916242Y-86953961D02*
X52109235Y-86366828D01*
X55059605Y-83435052D02*
X53916242Y-86953961D01*
X83887491Y-102620145D02*
X86062297Y-99626783D01*
X85424623Y-103736937D02*
X83887491Y-102620145D01*
X86062297Y-99626783D02*
X87599429Y-100743575D01*
X87599429Y-100743575D02*
X85424623Y-103736937D01*
X54481531Y-80590145D02*
X56656337Y-77596783D01*
X56018663Y-81706937D02*
X54481531Y-80590145D01*
X56656337Y-77596783D02*
X58193469Y-78713575D01*
X58193469Y-78713575D02*
X56018663Y-81706937D01*
X79830383Y-105838297D02*
X82823745Y-103663491D01*
X80947175Y-107375429D02*
X79830383Y-105838297D01*
X82823745Y-103663491D02*
X83940537Y-105200623D01*
X83940537Y-105200623D02*
X80947175Y-107375429D01*
X58527741Y-75925617D02*
X61521103Y-73750811D01*
X59644533Y-77462749D02*
X58527741Y-75925617D01*
X61521103Y-73750811D02*
X62637895Y-75287943D01*
X62637895Y-75287943D02*
X59644533Y-77462749D01*
X74832046Y-107704500D02*
X78350955Y-106561137D01*
X75419179Y-109511507D02*
X74832046Y-107704500D01*
X78350955Y-106561137D02*
X78938088Y-108368144D01*
X78938088Y-108368144D02*
X75419179Y-109511507D01*
X63710886Y-72896580D02*
X67229795Y-71753217D01*
X64298019Y-74703587D02*
X63710886Y-72896580D01*
X67229795Y-71753217D02*
X67816928Y-73560224D01*
X67816928Y-73560224D02*
X64298019Y-74703587D01*
X65360000Y-101167700D02*
X65360000Y-93067700D01*
X65360000Y-101167700D02*
X76260000Y-101167700D01*
X76260000Y-93067700D02*
X65360000Y-93067700D01*
X76260000Y-93067700D02*
X76260000Y-101167700D01*
X65311740Y-88523580D02*
X65311740Y-80423580D01*
X65311740Y-88523580D02*
X76211740Y-88523580D01*
X76211740Y-80423580D02*
X65311740Y-80423580D01*
X76211740Y-80423580D02*
X76211740Y-88523580D01*
X69660260Y-74531340D02*
X72960260Y-74531340D01*
X69660260Y-75991340D02*
X69660260Y-74531340D01*
X72960260Y-74531340D02*
X72960260Y-75991340D01*
X72960260Y-75991340D02*
X69660260Y-75991340D01*
X74335434Y-76245733D02*
X74786599Y-74857191D01*
X74786599Y-74857191D02*
X77925086Y-75876947D01*
X77473921Y-77265489D02*
X74335434Y-76245733D01*
X77925086Y-75876947D02*
X77473921Y-77265489D01*
X78656299Y-78032077D02*
X79514465Y-76850912D01*
X79514465Y-76850912D02*
X82184221Y-78790603D01*
X81326055Y-79971768D02*
X78656299Y-78032077D01*
X82184221Y-78790603D02*
X81326055Y-79971768D01*
X82079832Y-80925545D02*
X83260997Y-80067379D01*
X83260997Y-80067379D02*
X85200688Y-82737135D01*
X84019523Y-83595301D02*
X82079832Y-80925545D01*
X85200688Y-82737135D02*
X84019523Y-83595301D01*
X84476111Y-84967679D02*
X85864653Y-84516514D01*
X85495867Y-88106166D02*
X84476111Y-84967679D01*
X85864653Y-84516514D02*
X86884409Y-87655001D01*
X86884409Y-87655001D02*
X85495867Y-88106166D01*
X85670260Y-89531340D02*
X87130260Y-89531340D01*
X85670260Y-92831340D02*
X85670260Y-89531340D01*
X87130260Y-89531340D02*
X87130260Y-92831340D01*
X87130260Y-92831340D02*
X85670260Y-92831340D01*
X84136111Y-97145001D02*
X85155867Y-94006514D01*
X85155867Y-94006514D02*
X86544409Y-94457679D01*
X85524653Y-97596166D02*
X84136111Y-97145001D01*
X86544409Y-94457679D02*
X85524653Y-97596166D01*
X81899832Y-100942135D02*
X83839523Y-98272379D01*
X83080997Y-101800301D02*
X81899832Y-100942135D01*
X83839523Y-98272379D02*
X85020688Y-99130545D01*
X85020688Y-99130545D02*
X83080997Y-101800301D01*
X69520260Y-105541340D02*
X72820260Y-105541340D01*
X69520260Y-107001340D02*
X69520260Y-105541340D01*
X72820260Y-105541340D02*
X72820260Y-107001340D01*
X72820260Y-107001340D02*
X69520260Y-107001340D01*
X64515434Y-105815733D02*
X64966599Y-104427191D01*
X64966599Y-104427191D02*
X68105086Y-105446947D01*
X67653921Y-106835489D02*
X64515434Y-105815733D01*
X68105086Y-105446947D02*
X67653921Y-106835489D01*
X60156299Y-103122077D02*
X61014465Y-101940912D01*
X61014465Y-101940912D02*
X63684221Y-103880603D01*
X62826055Y-105061768D02*
X60156299Y-103122077D01*
X63684221Y-103880603D02*
X62826055Y-105061768D01*
X56989832Y-99285545D02*
X58170997Y-98427379D01*
X58170997Y-98427379D02*
X60110688Y-101097135D01*
X58929523Y-101955301D02*
X56989832Y-99285545D01*
X60110688Y-101097135D02*
X58929523Y-101955301D01*
X54773641Y-94393225D02*
X56162183Y-93942060D01*
X55793397Y-97531712D02*
X54773641Y-94393225D01*
X56162183Y-93942060D02*
X57181939Y-97080547D01*
X57181939Y-97080547D02*
X55793397Y-97531712D01*
X54700260Y-89061340D02*
X56160260Y-89061340D01*
X54700260Y-92361340D02*
X54700260Y-89061340D01*
X56160260Y-89061340D02*
X56160260Y-92361340D01*
X56160260Y-92361340D02*
X54700260Y-92361340D01*
X55016111Y-87145001D02*
X56035867Y-84006514D01*
X56035867Y-84006514D02*
X57424409Y-84457679D01*
X56404653Y-87596166D02*
X55016111Y-87145001D01*
X57424409Y-84457679D02*
X56404653Y-87596166D01*
X57049832Y-82237135D02*
X58989523Y-79567379D01*
X58230997Y-83095301D02*
X57049832Y-82237135D01*
X58989523Y-79567379D02*
X60170688Y-80425545D01*
X60170688Y-80425545D02*
X58230997Y-83095301D01*
X60476299Y-78280603D02*
X63146055Y-76340912D01*
X61334465Y-79461768D02*
X60476299Y-78280603D01*
X63146055Y-76340912D02*
X64004221Y-77522077D01*
X64004221Y-77522077D02*
X61334465Y-79461768D01*
X64805434Y-75726947D02*
X67943921Y-74707191D01*
X65256599Y-77115489D02*
X64805434Y-75726947D01*
X67943921Y-74707191D02*
X68395086Y-76095733D01*
X68395086Y-76095733D02*
X65256599Y-77115489D01*
X78494819Y-103624803D02*
X81164575Y-101685112D01*
X79352985Y-104805968D02*
X78494819Y-103624803D01*
X81164575Y-101685112D02*
X82022741Y-102866277D01*
X82022741Y-102866277D02*
X79352985Y-104805968D01*
X74240434Y-105191947D02*
X77378921Y-104172191D01*
X74691599Y-106580489D02*
X74240434Y-105191947D01*
X77378921Y-104172191D02*
X77830086Y-105560733D01*
X77830086Y-105560733D02*
X74691599Y-106580489D01*
M02*
