M48
; DRILL file {KiCad 9.0.1} date 2025-04-09T17:44:41+0200
; FORMAT={-:-/ absolute / metric / decimal}
; #@! TF.CreationDate,2025-04-09T17:44:41+02:00
; #@! TF.GenerationSoftware,Kicad,Pcbnew,9.0.1
; #@! TF.FileFunction,Plated,1,2,PTH
FMAT,2
METRIC
; #@! TA.AperFunction,Plated,PTH,ViaDrill
T1C0.400
%
G90
G05
T1
X53.528Y-93.595
X55.481Y-82.332
X56.926Y-89.836
X58.923Y-84.049
X59.324Y-102.805
X59.6Y-96.825
X61.615Y-76.945
X62.072Y-97.41
X62.682Y-87.631
X62.692Y-89.284
X62.697Y-90.3
X63.078Y-97.415
X63.088Y-80.646
X63.091Y-99.645
X63.114Y-74.042
X63.114Y-75.642
X64.231Y-97.41
X64.689Y-80.849
X64.783Y-84.047
X65.247Y-93.178
X65.76Y-90.318
X66.972Y-77.633
X66.975Y-79.147
X67.178Y-96.851
X67.178Y-97.867
X67.178Y-98.883
X67.196Y-84.016
X68.549Y-72.823
X68.615Y-107.786
X68.88Y-103.836
X68.885Y-102.261
X68.905Y-92.431
X68.905Y-95.208
X68.905Y-105.36
X68.981Y-78.588
X69.21Y-98.959
X69.845Y-83.237
X69.845Y-84.253
X69.845Y-86.208
X70.175Y-95.251
X70.251Y-98.985
X70.378Y-102.261
X70.609Y-91.222
X71.42Y-79.858
X71.42Y-98.172
X71.468Y-103.846
X71.478Y-102.271
X72.334Y-83.237
X72.429Y-86.208
X72.537Y-89.104
X72.72Y-95.256
X72.817Y-79.858
X73.304Y-105.352
X73.579Y-89.104
X73.579Y-90.12
X73.579Y-91.212
X73.579Y-92.431
X73.96Y-83.338
X73.965Y-86.208
X74.15Y-73.163
X74.389Y-95.271
X74.798Y-80.021
X75.179Y-77.522
X75.204Y-86.208
X75.255Y-92.431
X75.604Y-74.508
X75.89Y-80.011
X76.274Y-103.044
X78.146Y-102.271
X78.455Y-89.104
X78.455Y-91.161
X78.9Y-105.614
X79.233Y-82.17
X79.243Y-81.052
X80.242Y-82.775
X81.707Y-99.983
X82.181Y-94.244
X82.872Y-92.188
X82.883Y-91.172
X82.885Y-93.198
X84.353Y-88.743
X84.399Y-77.928
X85.692Y-99.142
X86.286Y-88.741
M30
